%TF.GenerationSoftware,KiCad,Pcbnew,9.0.7*%
%TF.CreationDate,2026-03-20T00:16:56-05:00*%
%TF.ProjectId,4phaseshift,34706861-7365-4736-9869-66742e6b6963,rev?*%
%TF.SameCoordinates,Original*%
%TF.FileFunction,Copper,L3,Inr*%
%TF.FilePolarity,Positive*%
%FSLAX46Y46*%
G04 Gerber Fmt 4.6, Leading zero omitted, Abs format (unit mm)*
G04 Created by KiCad (PCBNEW 9.0.7) date 2026-03-20 00:16:56*
%MOMM*%
%LPD*%
G01*
G04 APERTURE LIST*
%TA.AperFunction,ComponentPad*%
%ADD10C,1.700000*%
%TD*%
%TA.AperFunction,ComponentPad*%
%ADD11R,1.700000X1.700000*%
%TD*%
%TA.AperFunction,HeatsinkPad*%
%ADD12C,0.600000*%
%TD*%
%TA.AperFunction,ComponentPad*%
%ADD13C,1.440000*%
%TD*%
%TA.AperFunction,ViaPad*%
%ADD14C,0.600000*%
%TD*%
G04 APERTURE END LIST*
D10*
%TO.N,Net-(J2-Pin_5)*%
%TO.C,J2*%
X128200000Y-122830001D03*
%TO.N,/SCL*%
X128200000Y-120290001D03*
%TO.N,/LDAC*%
X128200000Y-117750001D03*
%TO.N,+2V5*%
X128200000Y-115210001D03*
D11*
%TO.N,GND*%
X128200000Y-112670001D03*
%TD*%
D12*
%TO.N,GND*%
%TO.C,U16*%
X134550000Y-118074999D03*
X133700000Y-118074999D03*
X132850000Y-118074999D03*
X134550000Y-118924999D03*
X133700000Y-118924999D03*
X132850000Y-118924999D03*
X134550000Y-119774999D03*
X133700000Y-119774999D03*
X132850000Y-119774999D03*
%TD*%
D13*
%TO.N,VCC2*%
%TO.C,RV1*%
X158920000Y-167890000D03*
%TO.N,Net-(U3-VT)*%
X156380000Y-165350000D03*
%TO.N,GND*%
X158920000Y-162810000D03*
%TD*%
D12*
%TO.N,GND*%
%TO.C,U11*%
X104300000Y-118074999D03*
X103450000Y-118074999D03*
X102600000Y-118074999D03*
X104300000Y-118924999D03*
X103450000Y-118924999D03*
X102600000Y-118924999D03*
X104300000Y-119774999D03*
X103450000Y-119774999D03*
X102600000Y-119774999D03*
%TD*%
D11*
%TO.N,VS*%
%TO.C,VS*%
X130400000Y-168200000D03*
%TD*%
D12*
%TO.N,GND*%
%TO.C,U19*%
X156200000Y-142425001D03*
X157050000Y-142425001D03*
X157900000Y-142425001D03*
X156200000Y-141575001D03*
X157050000Y-141575001D03*
X157900000Y-141575001D03*
X156200000Y-140725001D03*
X157050000Y-140725001D03*
X157900000Y-140725001D03*
%TD*%
%TO.N,GND*%
%TO.C,U13*%
X125950000Y-142425001D03*
X126800000Y-142425001D03*
X127650000Y-142425001D03*
X125950000Y-141575001D03*
X126800000Y-141575001D03*
X127650000Y-141575001D03*
X125950000Y-140725001D03*
X126800000Y-140725001D03*
X127650000Y-140725001D03*
%TD*%
D11*
%TO.N,GND*%
%TO.C,GND*%
X134200000Y-168200000D03*
%TD*%
D14*
%TO.N,GND*%
X101000000Y-145000000D03*
X137700000Y-169000000D03*
X136200000Y-169000000D03*
X113100000Y-165600000D03*
X101000000Y-150000000D03*
X143600000Y-169200000D03*
X160500000Y-130000000D03*
X127100000Y-168500000D03*
X135000000Y-165000000D03*
X126000000Y-152000000D03*
X111900000Y-161200000D03*
X101000000Y-130000000D03*
X160500000Y-125500000D03*
X127100000Y-167000000D03*
X101000000Y-159000000D03*
X160500000Y-134500000D03*
X130300000Y-126900000D03*
X101000000Y-140000000D03*
X101000000Y-107000000D03*
X101000000Y-135000000D03*
X104000000Y-108000000D03*
X127100000Y-165600000D03*
X130000000Y-150000000D03*
X150000000Y-165000000D03*
X101000000Y-125000000D03*
X113100000Y-168400000D03*
X101000000Y-155000000D03*
X113100000Y-167000000D03*
X156500000Y-152000000D03*
X134500000Y-108000000D03*
%TO.N,VS*%
X124237500Y-168500000D03*
X110237500Y-168500000D03*
X122050000Y-167900000D03*
X108050000Y-167884999D03*
%TO.N,VCC*%
X129007500Y-128357500D03*
X131700000Y-128357500D03*
X125300000Y-144596189D03*
X104950000Y-115903811D03*
X125172000Y-154797000D03*
X110237500Y-165499999D03*
X124675000Y-139700000D03*
X123650000Y-126600000D03*
X104950000Y-105575000D03*
X105575000Y-120800000D03*
%TO.N,/VectorModulator1/IBBN*%
X106192500Y-119202000D03*
X127650000Y-125950000D03*
%TO.N,/VectorModulator1/QBBN*%
X126600000Y-127217500D03*
X100578215Y-119498231D03*
X108177000Y-125300000D03*
%TO.N,/VectorModulator1/QBBP*%
X100525000Y-118700000D03*
X108177000Y-123725000D03*
%TO.N,/VectorModulator2/IBBN*%
X124057500Y-141298000D03*
X126723008Y-127934020D03*
%TO.N,/VectorModulator2/QBBN*%
X122073000Y-135200000D03*
X129671785Y-141001769D03*
X128113361Y-128336639D03*
%TO.N,/VectorModulator2/QBBP*%
X129725000Y-141800000D03*
X122073000Y-136775000D03*
%TO.N,/VectorModulator3/QBBP*%
X130775000Y-118700000D03*
X138427000Y-123725000D03*
%TO.N,/VectorModulator4/QBBP*%
X159975000Y-141800000D03*
X152323000Y-136775000D03*
%TO.N,/VectorModulator3/IBBN*%
X134281639Y-126649139D03*
X136442500Y-119202000D03*
%TO.N,/VectorModulator3/QBBN*%
X138427000Y-125300000D03*
X133400000Y-125300000D03*
X130828215Y-119498231D03*
%TO.N,/VectorModulator4/IBBN*%
X133050000Y-128050000D03*
X154307500Y-141298000D03*
%TO.N,/VectorModulator4/QBBN*%
X159921785Y-141001769D03*
X152323000Y-135200000D03*
X134000000Y-127350000D03*
%TO.N,VCC2*%
X147663361Y-131636639D03*
X127000000Y-164000000D03*
X144600000Y-167212499D03*
X136400000Y-166600000D03*
X135825000Y-120800000D03*
X155550000Y-144596189D03*
X155300000Y-154675000D03*
X149100000Y-155150000D03*
X135200000Y-105575000D03*
X135200000Y-115903811D03*
X154925000Y-139700000D03*
%TD*%
%TA.AperFunction,Conductor*%
%TO.N,GND*%
G36*
X160831691Y-100146407D02*
G01*
X160867655Y-100195907D01*
X160872500Y-100226500D01*
X160872500Y-139890698D01*
X160853593Y-139948889D01*
X160804093Y-139984853D01*
X160742907Y-139984853D01*
X160715310Y-139970791D01*
X160603398Y-139889484D01*
X160603394Y-139889481D01*
X160421004Y-139796549D01*
X160226314Y-139733290D01*
X160024140Y-139701269D01*
X160024137Y-139701269D01*
X159819433Y-139701269D01*
X159819430Y-139701269D01*
X159617255Y-139733290D01*
X159422565Y-139796549D01*
X159240175Y-139889481D01*
X159240171Y-139889483D01*
X159074571Y-140009798D01*
X158929814Y-140154555D01*
X158809499Y-140320155D01*
X158809497Y-140320159D01*
X158716565Y-140502549D01*
X158653306Y-140697239D01*
X158621285Y-140899413D01*
X158621285Y-141104124D01*
X158653307Y-141306300D01*
X158701881Y-141455798D01*
X158705507Y-141501877D01*
X158674500Y-141697644D01*
X158674500Y-141902355D01*
X158706521Y-142104529D01*
X158769780Y-142299219D01*
X158862712Y-142481609D01*
X158862714Y-142481613D01*
X158983029Y-142647213D01*
X158983031Y-142647215D01*
X158983034Y-142647219D01*
X159127781Y-142791966D01*
X159127784Y-142791968D01*
X159127786Y-142791970D01*
X159293386Y-142912285D01*
X159293390Y-142912287D01*
X159475781Y-143005220D01*
X159670466Y-143068477D01*
X159670467Y-143068477D01*
X159670470Y-143068478D01*
X159872645Y-143100500D01*
X159872648Y-143100500D01*
X160077355Y-143100500D01*
X160279529Y-143068478D01*
X160279530Y-143068477D01*
X160279534Y-143068477D01*
X160474219Y-143005220D01*
X160656610Y-142912287D01*
X160715311Y-142869638D01*
X160773500Y-142850732D01*
X160831691Y-142869639D01*
X160867655Y-142919139D01*
X160872500Y-142949732D01*
X160872500Y-169748500D01*
X160853593Y-169806691D01*
X160804093Y-169842655D01*
X160773500Y-169847500D01*
X132099129Y-169847500D01*
X132040938Y-169828593D01*
X132004974Y-169779093D01*
X132004974Y-169717907D01*
X132022403Y-169685938D01*
X132043316Y-169660290D01*
X132089698Y-169603407D01*
X132183909Y-169423049D01*
X132239886Y-169227418D01*
X132250500Y-169108037D01*
X132250499Y-167291964D01*
X132239886Y-167172582D01*
X132183909Y-166976951D01*
X132089698Y-166796593D01*
X131961109Y-166638891D01*
X131803407Y-166510302D01*
X131803405Y-166510301D01*
X131803404Y-166510300D01*
X131779175Y-166497644D01*
X135099500Y-166497644D01*
X135099500Y-166702355D01*
X135131521Y-166904529D01*
X135194780Y-167099219D01*
X135287712Y-167281609D01*
X135287714Y-167281613D01*
X135408029Y-167447213D01*
X135408031Y-167447215D01*
X135408034Y-167447219D01*
X135552781Y-167591966D01*
X135552784Y-167591968D01*
X135552786Y-167591970D01*
X135718386Y-167712285D01*
X135718390Y-167712287D01*
X135900781Y-167805220D01*
X136095466Y-167868477D01*
X136095467Y-167868477D01*
X136095470Y-167868478D01*
X136297645Y-167900500D01*
X136297648Y-167900500D01*
X136502355Y-167900500D01*
X136704529Y-167868478D01*
X136704530Y-167868477D01*
X136704534Y-167868477D01*
X136899219Y-167805220D01*
X137081610Y-167712287D01*
X137247219Y-167591966D01*
X137391966Y-167447219D01*
X137504763Y-167291966D01*
X137512285Y-167281613D01*
X137512287Y-167281610D01*
X137599654Y-167110143D01*
X143299500Y-167110143D01*
X143299500Y-167314854D01*
X143331521Y-167517028D01*
X143394780Y-167711718D01*
X143487712Y-167894108D01*
X143487714Y-167894112D01*
X143608029Y-168059712D01*
X143608031Y-168059714D01*
X143608034Y-168059718D01*
X143752781Y-168204465D01*
X143752784Y-168204467D01*
X143752786Y-168204469D01*
X143918386Y-168324784D01*
X143918390Y-168324786D01*
X144100781Y-168417719D01*
X144295466Y-168480976D01*
X144295467Y-168480976D01*
X144295470Y-168480977D01*
X144497645Y-168512999D01*
X144497648Y-168512999D01*
X144702355Y-168512999D01*
X144904529Y-168480977D01*
X144904530Y-168480976D01*
X144904534Y-168480976D01*
X145099219Y-168417719D01*
X145281610Y-168324786D01*
X145447219Y-168204465D01*
X145591966Y-168059718D01*
X145712287Y-167894109D01*
X145805220Y-167711718D01*
X145868477Y-167517033D01*
X145868478Y-167517028D01*
X145900500Y-167314854D01*
X145900500Y-167110143D01*
X145868478Y-166907969D01*
X145867362Y-166904534D01*
X145805220Y-166713280D01*
X145712287Y-166530889D01*
X145712285Y-166530885D01*
X145591970Y-166365285D01*
X145591968Y-166365283D01*
X145591966Y-166365280D01*
X145447219Y-166220533D01*
X145447215Y-166220530D01*
X145447213Y-166220528D01*
X145281613Y-166100213D01*
X145281609Y-166100211D01*
X145099219Y-166007279D01*
X144904529Y-165944020D01*
X144702355Y-165911999D01*
X144702352Y-165911999D01*
X144497648Y-165911999D01*
X144497645Y-165911999D01*
X144295470Y-165944020D01*
X144100780Y-166007279D01*
X143918390Y-166100211D01*
X143918386Y-166100213D01*
X143752786Y-166220528D01*
X143608029Y-166365285D01*
X143487714Y-166530885D01*
X143487712Y-166530889D01*
X143394780Y-166713279D01*
X143331521Y-166907969D01*
X143299500Y-167110143D01*
X137599654Y-167110143D01*
X137605220Y-167099219D01*
X137668477Y-166904534D01*
X137669768Y-166896382D01*
X137700500Y-166702355D01*
X137700500Y-166497644D01*
X137668478Y-166295470D01*
X137656080Y-166257313D01*
X137605220Y-166100781D01*
X137512287Y-165918390D01*
X137512285Y-165918386D01*
X137391970Y-165752786D01*
X137391968Y-165752784D01*
X137391966Y-165752781D01*
X137247219Y-165608034D01*
X137247215Y-165608031D01*
X137247213Y-165608029D01*
X137081613Y-165487714D01*
X137081609Y-165487712D01*
X136899219Y-165394780D01*
X136704530Y-165331521D01*
X136502355Y-165299500D01*
X136502352Y-165299500D01*
X136297648Y-165299500D01*
X136297645Y-165299500D01*
X136095470Y-165331521D01*
X135900780Y-165394780D01*
X135718390Y-165487712D01*
X135718386Y-165487714D01*
X135552786Y-165608029D01*
X135408029Y-165752786D01*
X135287714Y-165918386D01*
X135287712Y-165918390D01*
X135194780Y-166100780D01*
X135131521Y-166295470D01*
X135099500Y-166497644D01*
X131779175Y-166497644D01*
X131623047Y-166416090D01*
X131427420Y-166360114D01*
X131387624Y-166356576D01*
X131308037Y-166349500D01*
X131308033Y-166349500D01*
X129491967Y-166349500D01*
X129385491Y-166358966D01*
X129372582Y-166360114D01*
X129372581Y-166360114D01*
X129372576Y-166360115D01*
X129176953Y-166416090D01*
X128996595Y-166510300D01*
X128838894Y-166638888D01*
X128838888Y-166638894D01*
X128710300Y-166796595D01*
X128616090Y-166976952D01*
X128560114Y-167172579D01*
X128560114Y-167172582D01*
X128550421Y-167281610D01*
X128549500Y-167291966D01*
X128549500Y-169108032D01*
X128560114Y-169227416D01*
X128560115Y-169227423D01*
X128594393Y-169347219D01*
X128616091Y-169423049D01*
X128668137Y-169522686D01*
X128710302Y-169603407D01*
X128710303Y-169603408D01*
X128777597Y-169685938D01*
X128799717Y-169742985D01*
X128784081Y-169802138D01*
X128736662Y-169840804D01*
X128700871Y-169847500D01*
X124869844Y-169847500D01*
X124811653Y-169828593D01*
X124775689Y-169779093D01*
X124775689Y-169717907D01*
X124811653Y-169668407D01*
X124824899Y-169660290D01*
X124829074Y-169658162D01*
X124919110Y-169612287D01*
X124931333Y-169603407D01*
X124974313Y-169572180D01*
X125084719Y-169491966D01*
X125229466Y-169347219D01*
X125346368Y-169186316D01*
X125349785Y-169181613D01*
X125349787Y-169181610D01*
X125442720Y-168999219D01*
X125505977Y-168804534D01*
X125530043Y-168652591D01*
X125538000Y-168602355D01*
X125538000Y-168397644D01*
X125505978Y-168195470D01*
X125504049Y-168189533D01*
X125442720Y-168000781D01*
X125349787Y-167818390D01*
X125349785Y-167818386D01*
X125229470Y-167652786D01*
X125229468Y-167652784D01*
X125229466Y-167652781D01*
X125084719Y-167508034D01*
X125084715Y-167508031D01*
X125084713Y-167508029D01*
X124919113Y-167387714D01*
X124919109Y-167387712D01*
X124736719Y-167294780D01*
X124542029Y-167231521D01*
X124339855Y-167199500D01*
X124339852Y-167199500D01*
X124135148Y-167199500D01*
X124135145Y-167199500D01*
X123932970Y-167231521D01*
X123738280Y-167294780D01*
X123555890Y-167387712D01*
X123555886Y-167387715D01*
X123419445Y-167486844D01*
X123361254Y-167505751D01*
X123303064Y-167486843D01*
X123267100Y-167437344D01*
X123266169Y-167434478D01*
X123255220Y-167400781D01*
X123162287Y-167218390D01*
X123162285Y-167218386D01*
X123041970Y-167052786D01*
X123041968Y-167052784D01*
X123041966Y-167052781D01*
X122897219Y-166908034D01*
X122897215Y-166908031D01*
X122897213Y-166908029D01*
X122731613Y-166787714D01*
X122731609Y-166787712D01*
X122549219Y-166694780D01*
X122354529Y-166631521D01*
X122152355Y-166599500D01*
X122152352Y-166599500D01*
X121947648Y-166599500D01*
X121947645Y-166599500D01*
X121745470Y-166631521D01*
X121550780Y-166694780D01*
X121368390Y-166787712D01*
X121368386Y-166787714D01*
X121202786Y-166908029D01*
X121058029Y-167052786D01*
X120937714Y-167218386D01*
X120937712Y-167218390D01*
X120844780Y-167400780D01*
X120781521Y-167595470D01*
X120749500Y-167797644D01*
X120749500Y-168002355D01*
X120781521Y-168204529D01*
X120844780Y-168399219D01*
X120937712Y-168581609D01*
X120937714Y-168581613D01*
X121058029Y-168747213D01*
X121058031Y-168747215D01*
X121058034Y-168747219D01*
X121202781Y-168891966D01*
X121202784Y-168891968D01*
X121202786Y-168891970D01*
X121368386Y-169012285D01*
X121368390Y-169012287D01*
X121550781Y-169105220D01*
X121745466Y-169168477D01*
X121745467Y-169168477D01*
X121745470Y-169168478D01*
X121947645Y-169200500D01*
X121947648Y-169200500D01*
X122152355Y-169200500D01*
X122354529Y-169168478D01*
X122354530Y-169168477D01*
X122354534Y-169168477D01*
X122549219Y-169105220D01*
X122731610Y-169012287D01*
X122868055Y-168913154D01*
X122926244Y-168894247D01*
X122984434Y-168913154D01*
X123020398Y-168962653D01*
X123032276Y-168999210D01*
X123032278Y-168999215D01*
X123032280Y-168999219D01*
X123078646Y-169090218D01*
X123125212Y-169181609D01*
X123125214Y-169181613D01*
X123245529Y-169347213D01*
X123245531Y-169347215D01*
X123245534Y-169347219D01*
X123390281Y-169491966D01*
X123390284Y-169491968D01*
X123390286Y-169491970D01*
X123555886Y-169612285D01*
X123555890Y-169612287D01*
X123650101Y-169660290D01*
X123693366Y-169703555D01*
X123702937Y-169763987D01*
X123675160Y-169818504D01*
X123620643Y-169846281D01*
X123605156Y-169847500D01*
X110869844Y-169847500D01*
X110811653Y-169828593D01*
X110775689Y-169779093D01*
X110775689Y-169717907D01*
X110811653Y-169668407D01*
X110824899Y-169660290D01*
X110829074Y-169658162D01*
X110919110Y-169612287D01*
X110931333Y-169603407D01*
X110974313Y-169572180D01*
X111084719Y-169491966D01*
X111229466Y-169347219D01*
X111346368Y-169186316D01*
X111349785Y-169181613D01*
X111349787Y-169181610D01*
X111442720Y-168999219D01*
X111505977Y-168804534D01*
X111530043Y-168652591D01*
X111538000Y-168602355D01*
X111538000Y-168397644D01*
X111505978Y-168195470D01*
X111504049Y-168189533D01*
X111442720Y-168000781D01*
X111349787Y-167818390D01*
X111349785Y-167818386D01*
X111229470Y-167652786D01*
X111229468Y-167652784D01*
X111229466Y-167652781D01*
X111084719Y-167508034D01*
X111084715Y-167508031D01*
X111084713Y-167508029D01*
X110919113Y-167387714D01*
X110919109Y-167387712D01*
X110736719Y-167294780D01*
X110542029Y-167231521D01*
X110339855Y-167199500D01*
X110339852Y-167199500D01*
X110135148Y-167199500D01*
X110135145Y-167199500D01*
X109932970Y-167231521D01*
X109738280Y-167294780D01*
X109555890Y-167387712D01*
X109555886Y-167387715D01*
X109423388Y-167483979D01*
X109365197Y-167502886D01*
X109307006Y-167483978D01*
X109271043Y-167434478D01*
X109260094Y-167400780D01*
X109255220Y-167385780D01*
X109162287Y-167203389D01*
X109162285Y-167203385D01*
X109041970Y-167037785D01*
X109041968Y-167037783D01*
X109041966Y-167037780D01*
X108897219Y-166893033D01*
X108897215Y-166893030D01*
X108897213Y-166893028D01*
X108731613Y-166772713D01*
X108731609Y-166772711D01*
X108549219Y-166679779D01*
X108354529Y-166616520D01*
X108152355Y-166584499D01*
X108152352Y-166584499D01*
X107947648Y-166584499D01*
X107947645Y-166584499D01*
X107745470Y-166616520D01*
X107550780Y-166679779D01*
X107368390Y-166772711D01*
X107368386Y-166772713D01*
X107202786Y-166893028D01*
X107058029Y-167037785D01*
X106937714Y-167203385D01*
X106937712Y-167203389D01*
X106844780Y-167385779D01*
X106781521Y-167580469D01*
X106749500Y-167782643D01*
X106749500Y-167987354D01*
X106781521Y-168189528D01*
X106844780Y-168384218D01*
X106937712Y-168566608D01*
X106937714Y-168566612D01*
X107058029Y-168732212D01*
X107058031Y-168732214D01*
X107058034Y-168732218D01*
X107202781Y-168876965D01*
X107202784Y-168876967D01*
X107202786Y-168876969D01*
X107368386Y-168997284D01*
X107368390Y-168997286D01*
X107550781Y-169090219D01*
X107745466Y-169153476D01*
X107745467Y-169153476D01*
X107745470Y-169153477D01*
X107947645Y-169185499D01*
X107947648Y-169185499D01*
X108152355Y-169185499D01*
X108354529Y-169153477D01*
X108354530Y-169153476D01*
X108354534Y-169153476D01*
X108549219Y-169090219D01*
X108731610Y-168997286D01*
X108864112Y-168901018D01*
X108922301Y-168882111D01*
X108980491Y-168901018D01*
X109016455Y-168950518D01*
X109032275Y-168999208D01*
X109032278Y-168999215D01*
X109032280Y-168999219D01*
X109078646Y-169090218D01*
X109125212Y-169181609D01*
X109125214Y-169181613D01*
X109245529Y-169347213D01*
X109245531Y-169347215D01*
X109245534Y-169347219D01*
X109390281Y-169491966D01*
X109390284Y-169491968D01*
X109390286Y-169491970D01*
X109555886Y-169612285D01*
X109555890Y-169612287D01*
X109650101Y-169660290D01*
X109693366Y-169703555D01*
X109702937Y-169763987D01*
X109675160Y-169818504D01*
X109620643Y-169846281D01*
X109605156Y-169847500D01*
X100226500Y-169847500D01*
X100168309Y-169828593D01*
X100132345Y-169779093D01*
X100127500Y-169748500D01*
X100127500Y-165397643D01*
X108937000Y-165397643D01*
X108937000Y-165602354D01*
X108969021Y-165804528D01*
X109032280Y-165999218D01*
X109125212Y-166181608D01*
X109125214Y-166181612D01*
X109245529Y-166347212D01*
X109245531Y-166347214D01*
X109245534Y-166347218D01*
X109390281Y-166491965D01*
X109390284Y-166491967D01*
X109390286Y-166491969D01*
X109555886Y-166612284D01*
X109555890Y-166612286D01*
X109738281Y-166705219D01*
X109932966Y-166768476D01*
X109932967Y-166768476D01*
X109932970Y-166768477D01*
X110135145Y-166800499D01*
X110135148Y-166800499D01*
X110339855Y-166800499D01*
X110542029Y-166768477D01*
X110542030Y-166768476D01*
X110542034Y-166768476D01*
X110736719Y-166705219D01*
X110919110Y-166612286D01*
X111084719Y-166491965D01*
X111229466Y-166347218D01*
X111349787Y-166181609D01*
X111442720Y-165999218D01*
X111505977Y-165804533D01*
X111524692Y-165686373D01*
X111538000Y-165602354D01*
X111538000Y-165397643D01*
X111505978Y-165195469D01*
X111505977Y-165195465D01*
X111442720Y-165000780D01*
X111349787Y-164818389D01*
X111349785Y-164818385D01*
X111229470Y-164652785D01*
X111229468Y-164652783D01*
X111229466Y-164652780D01*
X111084719Y-164508033D01*
X111084715Y-164508030D01*
X111084713Y-164508028D01*
X110919113Y-164387713D01*
X110919109Y-164387711D01*
X110736719Y-164294779D01*
X110542029Y-164231520D01*
X110339855Y-164199499D01*
X110339852Y-164199499D01*
X110135148Y-164199499D01*
X110135145Y-164199499D01*
X109932970Y-164231520D01*
X109738280Y-164294779D01*
X109555890Y-164387711D01*
X109555886Y-164387713D01*
X109390286Y-164508028D01*
X109245529Y-164652785D01*
X109125214Y-164818385D01*
X109125212Y-164818389D01*
X109032280Y-165000779D01*
X108969021Y-165195469D01*
X108937000Y-165397643D01*
X100127500Y-165397643D01*
X100127500Y-163897644D01*
X125699500Y-163897644D01*
X125699500Y-164102355D01*
X125731521Y-164304529D01*
X125794780Y-164499219D01*
X125887712Y-164681609D01*
X125887714Y-164681613D01*
X126008029Y-164847213D01*
X126008031Y-164847215D01*
X126008034Y-164847219D01*
X126152781Y-164991966D01*
X126152784Y-164991968D01*
X126152786Y-164991970D01*
X126318386Y-165112285D01*
X126318390Y-165112287D01*
X126500781Y-165205220D01*
X126695466Y-165268477D01*
X126695467Y-165268477D01*
X126695470Y-165268478D01*
X126897645Y-165300500D01*
X126897648Y-165300500D01*
X127102355Y-165300500D01*
X127304529Y-165268478D01*
X127304530Y-165268477D01*
X127304534Y-165268477D01*
X127400702Y-165237230D01*
X154659500Y-165237230D01*
X154659500Y-165462769D01*
X154688937Y-165686365D01*
X154688937Y-165686370D01*
X154747309Y-165904215D01*
X154747313Y-165904228D01*
X154833617Y-166112587D01*
X154833619Y-166112592D01*
X154946385Y-166307907D01*
X154946387Y-166307910D01*
X154976549Y-166347218D01*
X155083678Y-166486832D01*
X155083680Y-166486834D01*
X155083684Y-166486839D01*
X155243161Y-166646316D01*
X155243165Y-166646319D01*
X155243167Y-166646321D01*
X155316189Y-166702352D01*
X155422090Y-166783613D01*
X155445665Y-166797224D01*
X155607288Y-166890538D01*
X155617409Y-166896381D01*
X155825777Y-166982689D01*
X156043627Y-167041062D01*
X156267232Y-167070500D01*
X156267233Y-167070500D01*
X156492767Y-167070500D01*
X156492768Y-167070500D01*
X156716373Y-167041062D01*
X156934223Y-166982689D01*
X157142591Y-166896381D01*
X157337910Y-166783613D01*
X157379459Y-166751730D01*
X157437134Y-166731306D01*
X157495800Y-166748683D01*
X157533048Y-166797224D01*
X157534650Y-166858388D01*
X157518270Y-166890538D01*
X157486384Y-166932093D01*
X157373619Y-167127407D01*
X157373617Y-167127412D01*
X157287313Y-167335771D01*
X157287309Y-167335784D01*
X157228937Y-167553629D01*
X157228937Y-167553634D01*
X157199500Y-167777230D01*
X157199500Y-168002769D01*
X157228937Y-168226365D01*
X157228937Y-168226370D01*
X157287309Y-168444215D01*
X157287313Y-168444228D01*
X157373617Y-168652587D01*
X157373619Y-168652592D01*
X157486385Y-168847907D01*
X157623678Y-169026832D01*
X157623680Y-169026834D01*
X157623684Y-169026839D01*
X157783161Y-169186316D01*
X157783165Y-169186319D01*
X157783167Y-169186321D01*
X157836726Y-169227418D01*
X157962090Y-169323613D01*
X158157409Y-169436381D01*
X158365777Y-169522689D01*
X158583627Y-169581062D01*
X158807232Y-169610500D01*
X158807233Y-169610500D01*
X159032767Y-169610500D01*
X159032768Y-169610500D01*
X159256373Y-169581062D01*
X159474223Y-169522689D01*
X159682591Y-169436381D01*
X159877910Y-169323613D01*
X160056839Y-169186316D01*
X160216316Y-169026839D01*
X160353613Y-168847910D01*
X160466381Y-168652591D01*
X160552689Y-168444223D01*
X160611062Y-168226373D01*
X160640500Y-168002768D01*
X160640500Y-167777232D01*
X160611062Y-167553627D01*
X160552689Y-167335777D01*
X160466381Y-167127409D01*
X160456412Y-167110143D01*
X160353614Y-166932092D01*
X160353613Y-166932090D01*
X160249643Y-166796593D01*
X160216321Y-166753167D01*
X160216319Y-166753165D01*
X160216316Y-166753161D01*
X160056839Y-166593684D01*
X160056834Y-166593680D01*
X160056832Y-166593678D01*
X159877907Y-166456385D01*
X159682592Y-166343619D01*
X159682587Y-166343617D01*
X159474228Y-166257313D01*
X159474227Y-166257312D01*
X159474223Y-166257311D01*
X159256373Y-166198938D01*
X159256370Y-166198937D01*
X159256368Y-166198937D01*
X159032769Y-166169500D01*
X159032768Y-166169500D01*
X158807232Y-166169500D01*
X158807230Y-166169500D01*
X158583634Y-166198937D01*
X158583629Y-166198937D01*
X158365784Y-166257309D01*
X158365771Y-166257313D01*
X158157412Y-166343617D01*
X158157407Y-166343619D01*
X157962093Y-166456384D01*
X157920538Y-166488270D01*
X157862862Y-166508693D01*
X157804197Y-166491315D01*
X157766950Y-166442773D01*
X157765349Y-166381608D01*
X157781731Y-166349459D01*
X157783451Y-166347218D01*
X157813613Y-166307910D01*
X157926381Y-166112591D01*
X158012689Y-165904223D01*
X158071062Y-165686373D01*
X158100500Y-165462768D01*
X158100500Y-165237232D01*
X158071062Y-165013627D01*
X158012689Y-164795777D01*
X157926381Y-164587409D01*
X157813613Y-164392090D01*
X157690405Y-164231522D01*
X157676321Y-164213167D01*
X157676319Y-164213165D01*
X157676316Y-164213161D01*
X157516839Y-164053684D01*
X157516834Y-164053680D01*
X157516832Y-164053678D01*
X157337907Y-163916385D01*
X157142592Y-163803619D01*
X157142587Y-163803617D01*
X156934228Y-163717313D01*
X156934227Y-163717312D01*
X156934223Y-163717311D01*
X156716373Y-163658938D01*
X156716370Y-163658937D01*
X156716368Y-163658937D01*
X156492769Y-163629500D01*
X156492768Y-163629500D01*
X156267232Y-163629500D01*
X156267230Y-163629500D01*
X156043634Y-163658937D01*
X156043629Y-163658937D01*
X155825784Y-163717309D01*
X155825771Y-163717313D01*
X155617412Y-163803617D01*
X155617407Y-163803619D01*
X155422092Y-163916385D01*
X155243167Y-164053678D01*
X155083678Y-164213167D01*
X154946385Y-164392092D01*
X154833619Y-164587407D01*
X154833617Y-164587412D01*
X154747313Y-164795771D01*
X154747309Y-164795784D01*
X154688937Y-165013629D01*
X154688937Y-165013634D01*
X154659500Y-165237230D01*
X127400702Y-165237230D01*
X127499219Y-165205220D01*
X127681610Y-165112287D01*
X127847219Y-164991966D01*
X127991966Y-164847219D01*
X128112287Y-164681610D01*
X128205220Y-164499219D01*
X128268477Y-164304534D01*
X128280041Y-164231522D01*
X128300500Y-164102355D01*
X128300500Y-163897644D01*
X128268478Y-163695470D01*
X128247043Y-163629500D01*
X128205220Y-163500781D01*
X128112287Y-163318390D01*
X128112285Y-163318386D01*
X127991970Y-163152786D01*
X127991968Y-163152784D01*
X127991966Y-163152781D01*
X127847219Y-163008034D01*
X127847215Y-163008031D01*
X127847213Y-163008029D01*
X127681613Y-162887714D01*
X127681609Y-162887712D01*
X127499219Y-162794780D01*
X127304529Y-162731521D01*
X127102355Y-162699500D01*
X127102352Y-162699500D01*
X126897648Y-162699500D01*
X126897645Y-162699500D01*
X126695470Y-162731521D01*
X126500780Y-162794780D01*
X126318390Y-162887712D01*
X126318386Y-162887714D01*
X126152786Y-163008029D01*
X126008029Y-163152786D01*
X125887714Y-163318386D01*
X125887712Y-163318390D01*
X125794780Y-163500780D01*
X125731521Y-163695470D01*
X125699500Y-163897644D01*
X100127500Y-163897644D01*
X100127500Y-158420000D01*
X126524999Y-158420000D01*
X126525000Y-158420000D01*
X128424998Y-158420000D01*
X128424999Y-158420000D01*
X128424999Y-158008058D01*
X138614555Y-158008058D01*
X140092409Y-159485911D01*
X141158320Y-158420000D01*
X156774999Y-158420000D01*
X156775000Y-158420000D01*
X158674998Y-158420000D01*
X158674999Y-158420000D01*
X158674999Y-156330000D01*
X156774999Y-156330000D01*
X156774999Y-158420000D01*
X141158320Y-158420000D01*
X141435911Y-158142409D01*
X139958058Y-156664555D01*
X138614555Y-158008058D01*
X128424999Y-158008058D01*
X128424999Y-156330000D01*
X126524999Y-156330000D01*
X126524999Y-158420000D01*
X100127500Y-158420000D01*
X100127500Y-154694644D01*
X123871500Y-154694644D01*
X123871500Y-154899355D01*
X123903521Y-155101529D01*
X123966780Y-155296219D01*
X124059712Y-155478609D01*
X124059714Y-155478613D01*
X124180029Y-155644213D01*
X124180031Y-155644215D01*
X124180034Y-155644219D01*
X124324781Y-155788966D01*
X124324784Y-155788968D01*
X124324786Y-155788970D01*
X124490386Y-155909285D01*
X124490390Y-155909287D01*
X124672781Y-156002220D01*
X124867466Y-156065477D01*
X124867467Y-156065477D01*
X124867470Y-156065478D01*
X125069645Y-156097500D01*
X125069648Y-156097500D01*
X125274355Y-156097500D01*
X125476529Y-156065478D01*
X125476530Y-156065477D01*
X125476534Y-156065477D01*
X125671219Y-156002220D01*
X125853610Y-155909287D01*
X126019219Y-155788966D01*
X126163966Y-155644219D01*
X126244180Y-155533813D01*
X126284285Y-155478613D01*
X126284287Y-155478610D01*
X126377220Y-155296219D01*
X126440477Y-155101534D01*
X126449013Y-155047644D01*
X147799500Y-155047644D01*
X147799500Y-155252355D01*
X147831521Y-155454529D01*
X147894780Y-155649219D01*
X147987712Y-155831609D01*
X147987714Y-155831613D01*
X148108029Y-155997213D01*
X148108031Y-155997215D01*
X148108034Y-155997219D01*
X148252781Y-156141966D01*
X148252784Y-156141968D01*
X148252786Y-156141970D01*
X148418386Y-156262285D01*
X148418390Y-156262287D01*
X148600781Y-156355220D01*
X148795466Y-156418477D01*
X148795467Y-156418477D01*
X148795470Y-156418478D01*
X148997645Y-156450500D01*
X148997648Y-156450500D01*
X149202355Y-156450500D01*
X149404529Y-156418478D01*
X149404530Y-156418477D01*
X149404534Y-156418477D01*
X149599219Y-156355220D01*
X149781610Y-156262287D01*
X149947219Y-156141966D01*
X150091966Y-155997219D01*
X150212287Y-155831610D01*
X150305220Y-155649219D01*
X150368477Y-155454534D01*
X150368478Y-155454529D01*
X150400500Y-155252355D01*
X150400500Y-155047644D01*
X150368478Y-154845470D01*
X150319473Y-154694648D01*
X150305220Y-154650781D01*
X150265407Y-154572644D01*
X153999500Y-154572644D01*
X153999500Y-154777355D01*
X154031521Y-154979529D01*
X154094780Y-155174219D01*
X154187712Y-155356609D01*
X154187714Y-155356613D01*
X154308029Y-155522213D01*
X154308031Y-155522215D01*
X154308034Y-155522219D01*
X154452781Y-155666966D01*
X154452784Y-155666968D01*
X154452786Y-155666970D01*
X154618386Y-155787285D01*
X154618390Y-155787287D01*
X154800781Y-155880220D01*
X154995466Y-155943477D01*
X154995467Y-155943477D01*
X154995470Y-155943478D01*
X155197645Y-155975500D01*
X155197648Y-155975500D01*
X155402355Y-155975500D01*
X155604529Y-155943478D01*
X155604530Y-155943477D01*
X155604534Y-155943477D01*
X155799219Y-155880220D01*
X155981610Y-155787287D01*
X156147219Y-155666966D01*
X156291966Y-155522219D01*
X156412287Y-155356610D01*
X156505220Y-155174219D01*
X156568477Y-154979534D01*
X156568478Y-154979529D01*
X156600500Y-154777355D01*
X156600500Y-154572644D01*
X156568478Y-154370470D01*
X156546486Y-154302786D01*
X156505220Y-154175781D01*
X156412287Y-153993390D01*
X156412285Y-153993386D01*
X156291970Y-153827786D01*
X156291968Y-153827784D01*
X156291966Y-153827781D01*
X156147219Y-153683034D01*
X156147215Y-153683031D01*
X156147213Y-153683029D01*
X155981613Y-153562714D01*
X155981609Y-153562712D01*
X155799219Y-153469780D01*
X155604529Y-153406521D01*
X155402355Y-153374500D01*
X155402352Y-153374500D01*
X155197648Y-153374500D01*
X155197645Y-153374500D01*
X154995470Y-153406521D01*
X154800780Y-153469780D01*
X154618390Y-153562712D01*
X154618386Y-153562714D01*
X154452786Y-153683029D01*
X154308029Y-153827786D01*
X154187714Y-153993386D01*
X154187712Y-153993390D01*
X154094780Y-154175780D01*
X154031521Y-154370470D01*
X153999500Y-154572644D01*
X150265407Y-154572644D01*
X150212287Y-154468390D01*
X150212285Y-154468386D01*
X150091970Y-154302786D01*
X150091968Y-154302784D01*
X150091966Y-154302781D01*
X149947219Y-154158034D01*
X149947215Y-154158031D01*
X149947213Y-154158029D01*
X149781613Y-154037714D01*
X149781609Y-154037712D01*
X149599219Y-153944780D01*
X149404529Y-153881521D01*
X149202355Y-153849500D01*
X149202352Y-153849500D01*
X148997648Y-153849500D01*
X148997645Y-153849500D01*
X148795470Y-153881521D01*
X148600780Y-153944780D01*
X148418390Y-154037712D01*
X148418386Y-154037714D01*
X148252786Y-154158029D01*
X148108029Y-154302786D01*
X147987714Y-154468386D01*
X147987712Y-154468390D01*
X147894780Y-154650780D01*
X147831521Y-154845470D01*
X147799500Y-155047644D01*
X126449013Y-155047644D01*
X126452081Y-155028271D01*
X126452081Y-155028270D01*
X126472500Y-154899353D01*
X126472500Y-154694644D01*
X126440478Y-154492470D01*
X126400838Y-154370470D01*
X126377220Y-154297781D01*
X126284287Y-154115390D01*
X126284285Y-154115386D01*
X126163970Y-153949786D01*
X126163968Y-153949784D01*
X126163966Y-153949781D01*
X126019219Y-153805034D01*
X126019215Y-153805031D01*
X126019213Y-153805029D01*
X125853613Y-153684714D01*
X125853609Y-153684712D01*
X125671219Y-153591780D01*
X125476529Y-153528521D01*
X125274355Y-153496500D01*
X125274352Y-153496500D01*
X125069648Y-153496500D01*
X125069645Y-153496500D01*
X124867470Y-153528521D01*
X124672780Y-153591780D01*
X124490390Y-153684712D01*
X124490386Y-153684714D01*
X124324786Y-153805029D01*
X124180029Y-153949786D01*
X124059714Y-154115386D01*
X124059712Y-154115390D01*
X123966780Y-154297780D01*
X123903521Y-154492470D01*
X123871500Y-154694644D01*
X100127500Y-154694644D01*
X100127500Y-147195799D01*
X112773870Y-147195799D01*
X112773870Y-147195800D01*
X113304200Y-147726130D01*
X113834531Y-147195799D01*
X143023870Y-147195799D01*
X143023870Y-147195800D01*
X143554200Y-147726130D01*
X145304998Y-145975331D01*
X145359513Y-145947556D01*
X145419945Y-145957127D01*
X145445000Y-145975330D01*
X146630115Y-147160445D01*
X147160445Y-146630115D01*
X145975331Y-145445001D01*
X145947556Y-145390487D01*
X145957127Y-145330055D01*
X145975330Y-145304999D01*
X146786496Y-144493833D01*
X154249500Y-144493833D01*
X154249500Y-144698544D01*
X154281521Y-144900718D01*
X154344780Y-145095408D01*
X154437712Y-145277798D01*
X154437714Y-145277802D01*
X154558029Y-145443402D01*
X154558031Y-145443404D01*
X154558034Y-145443408D01*
X154702781Y-145588155D01*
X154702784Y-145588157D01*
X154702786Y-145588159D01*
X154868386Y-145708474D01*
X154868390Y-145708476D01*
X155050781Y-145801409D01*
X155245466Y-145864666D01*
X155245467Y-145864666D01*
X155245470Y-145864667D01*
X155447645Y-145896689D01*
X155447648Y-145896689D01*
X155652355Y-145896689D01*
X155854529Y-145864667D01*
X155854530Y-145864666D01*
X155854534Y-145864666D01*
X156049219Y-145801409D01*
X156231610Y-145708476D01*
X156397219Y-145588155D01*
X156541966Y-145443408D01*
X156662287Y-145277799D01*
X156755220Y-145095408D01*
X156818477Y-144900723D01*
X156827355Y-144844670D01*
X156850500Y-144698544D01*
X156850500Y-144493833D01*
X156818478Y-144291659D01*
X156818477Y-144291655D01*
X156755220Y-144096970D01*
X156662287Y-143914579D01*
X156662285Y-143914575D01*
X156541970Y-143748975D01*
X156541968Y-143748973D01*
X156541966Y-143748970D01*
X156397219Y-143604223D01*
X156397215Y-143604220D01*
X156397213Y-143604218D01*
X156231613Y-143483903D01*
X156231609Y-143483901D01*
X156049219Y-143390969D01*
X155854529Y-143327710D01*
X155652355Y-143295689D01*
X155652352Y-143295689D01*
X155447648Y-143295689D01*
X155447645Y-143295689D01*
X155245470Y-143327710D01*
X155050780Y-143390969D01*
X154868390Y-143483901D01*
X154868386Y-143483903D01*
X154702786Y-143604218D01*
X154558029Y-143748975D01*
X154437714Y-143914575D01*
X154437712Y-143914579D01*
X154344780Y-144096969D01*
X154281521Y-144291659D01*
X154249500Y-144493833D01*
X146786496Y-144493833D01*
X147726130Y-143554200D01*
X147195800Y-143023870D01*
X147195799Y-143023870D01*
X145445003Y-144774666D01*
X145390486Y-144802443D01*
X145330054Y-144792872D01*
X145304998Y-144774668D01*
X144119885Y-143589555D01*
X143589555Y-144119885D01*
X144774667Y-145304997D01*
X144802443Y-145359512D01*
X144792872Y-145419944D01*
X144774666Y-145445003D01*
X143023870Y-147195799D01*
X113834531Y-147195799D01*
X115054998Y-145975331D01*
X115109513Y-145947556D01*
X115169945Y-145957127D01*
X115195000Y-145975330D01*
X116380115Y-147160445D01*
X116910445Y-146630115D01*
X115725331Y-145445001D01*
X115697556Y-145390487D01*
X115707127Y-145330055D01*
X115725330Y-145304999D01*
X116536496Y-144493833D01*
X123999500Y-144493833D01*
X123999500Y-144698544D01*
X124031521Y-144900718D01*
X124094780Y-145095408D01*
X124187712Y-145277798D01*
X124187714Y-145277802D01*
X124308029Y-145443402D01*
X124308031Y-145443404D01*
X124308034Y-145443408D01*
X124452781Y-145588155D01*
X124452784Y-145588157D01*
X124452786Y-145588159D01*
X124618386Y-145708474D01*
X124618390Y-145708476D01*
X124800781Y-145801409D01*
X124995466Y-145864666D01*
X124995467Y-145864666D01*
X124995470Y-145864667D01*
X125197645Y-145896689D01*
X125197648Y-145896689D01*
X125402355Y-145896689D01*
X125604529Y-145864667D01*
X125604530Y-145864666D01*
X125604534Y-145864666D01*
X125799219Y-145801409D01*
X125981610Y-145708476D01*
X126147219Y-145588155D01*
X126291966Y-145443408D01*
X126412287Y-145277799D01*
X126505220Y-145095408D01*
X126568477Y-144900723D01*
X126577355Y-144844670D01*
X126600500Y-144698544D01*
X126600500Y-144493833D01*
X126568478Y-144291659D01*
X126568477Y-144291655D01*
X126505220Y-144096970D01*
X126412287Y-143914579D01*
X126412285Y-143914575D01*
X126291970Y-143748975D01*
X126291968Y-143748973D01*
X126291966Y-143748970D01*
X126147219Y-143604223D01*
X126147215Y-143604220D01*
X126147213Y-143604218D01*
X125981613Y-143483903D01*
X125981609Y-143483901D01*
X125799219Y-143390969D01*
X125604529Y-143327710D01*
X125402355Y-143295689D01*
X125402352Y-143295689D01*
X125197648Y-143295689D01*
X125197645Y-143295689D01*
X124995470Y-143327710D01*
X124800780Y-143390969D01*
X124618390Y-143483901D01*
X124618386Y-143483903D01*
X124452786Y-143604218D01*
X124308029Y-143748975D01*
X124187714Y-143914575D01*
X124187712Y-143914579D01*
X124094780Y-144096969D01*
X124031521Y-144291659D01*
X123999500Y-144493833D01*
X116536496Y-144493833D01*
X117476130Y-143554200D01*
X116945800Y-143023870D01*
X116945799Y-143023870D01*
X115195003Y-144774666D01*
X115140486Y-144802443D01*
X115080054Y-144792872D01*
X115054998Y-144774668D01*
X113869885Y-143589555D01*
X113339555Y-144119885D01*
X114524667Y-145304997D01*
X114552443Y-145359512D01*
X114542872Y-145419944D01*
X114524666Y-145445003D01*
X112773870Y-147195799D01*
X100127500Y-147195799D01*
X100127500Y-141195644D01*
X122757000Y-141195644D01*
X122757000Y-141400355D01*
X122789021Y-141602529D01*
X122852280Y-141797219D01*
X122945212Y-141979609D01*
X122945214Y-141979613D01*
X123065529Y-142145213D01*
X123065531Y-142145215D01*
X123065534Y-142145219D01*
X123210281Y-142289966D01*
X123210284Y-142289968D01*
X123210286Y-142289970D01*
X123375886Y-142410285D01*
X123375890Y-142410287D01*
X123558281Y-142503220D01*
X123752966Y-142566477D01*
X123752967Y-142566477D01*
X123752970Y-142566478D01*
X123955145Y-142598500D01*
X123955148Y-142598500D01*
X124159855Y-142598500D01*
X124362029Y-142566478D01*
X124362030Y-142566477D01*
X124362034Y-142566477D01*
X124556719Y-142503220D01*
X124739110Y-142410287D01*
X124904719Y-142289966D01*
X125049466Y-142145219D01*
X125169787Y-141979610D01*
X125262720Y-141797219D01*
X125325977Y-141602534D01*
X125341920Y-141501877D01*
X125358000Y-141400355D01*
X125358000Y-141195644D01*
X125325977Y-140993464D01*
X125305950Y-140931828D01*
X125305949Y-140925906D01*
X125303046Y-140920746D01*
X125305527Y-140899413D01*
X128371285Y-140899413D01*
X128371285Y-141104124D01*
X128403307Y-141306300D01*
X128451881Y-141455798D01*
X128455507Y-141501877D01*
X128424500Y-141697644D01*
X128424500Y-141902355D01*
X128456521Y-142104529D01*
X128519780Y-142299219D01*
X128612712Y-142481609D01*
X128612714Y-142481613D01*
X128733029Y-142647213D01*
X128733031Y-142647215D01*
X128733034Y-142647219D01*
X128877781Y-142791966D01*
X128877784Y-142791968D01*
X128877786Y-142791970D01*
X129043386Y-142912285D01*
X129043390Y-142912287D01*
X129225781Y-143005220D01*
X129420466Y-143068477D01*
X129420467Y-143068477D01*
X129420470Y-143068478D01*
X129622645Y-143100500D01*
X129622648Y-143100500D01*
X129827355Y-143100500D01*
X130029529Y-143068478D01*
X130029530Y-143068477D01*
X130029534Y-143068477D01*
X130224219Y-143005220D01*
X130406610Y-142912287D01*
X130572219Y-142791966D01*
X130716966Y-142647219D01*
X130837287Y-142481610D01*
X130930220Y-142299219D01*
X130993477Y-142104534D01*
X131013263Y-141979613D01*
X131025500Y-141902355D01*
X131025500Y-141697644D01*
X130993477Y-141495464D01*
X130944904Y-141345973D01*
X130941277Y-141299892D01*
X130957789Y-141195644D01*
X153007000Y-141195644D01*
X153007000Y-141400355D01*
X153039021Y-141602529D01*
X153102280Y-141797219D01*
X153195212Y-141979609D01*
X153195214Y-141979613D01*
X153315529Y-142145213D01*
X153315531Y-142145215D01*
X153315534Y-142145219D01*
X153460281Y-142289966D01*
X153460284Y-142289968D01*
X153460286Y-142289970D01*
X153625886Y-142410285D01*
X153625890Y-142410287D01*
X153808281Y-142503220D01*
X154002966Y-142566477D01*
X154002967Y-142566477D01*
X154002970Y-142566478D01*
X154205145Y-142598500D01*
X154205148Y-142598500D01*
X154409855Y-142598500D01*
X154612029Y-142566478D01*
X154612030Y-142566477D01*
X154612034Y-142566477D01*
X154806719Y-142503220D01*
X154989110Y-142410287D01*
X155154719Y-142289966D01*
X155299466Y-142145219D01*
X155419787Y-141979610D01*
X155512720Y-141797219D01*
X155575977Y-141602534D01*
X155591920Y-141501877D01*
X155608000Y-141400355D01*
X155608000Y-141195644D01*
X155575977Y-140993464D01*
X155555950Y-140931828D01*
X155555949Y-140870643D01*
X155591913Y-140821143D01*
X155605159Y-140813026D01*
X155606610Y-140812287D01*
X155772219Y-140691966D01*
X155916966Y-140547219D01*
X156037287Y-140381610D01*
X156130220Y-140199219D01*
X156193477Y-140004534D01*
X156196594Y-139984853D01*
X156225500Y-139802355D01*
X156225500Y-139597644D01*
X156193478Y-139395470D01*
X156193477Y-139395466D01*
X156130220Y-139200781D01*
X156037287Y-139018390D01*
X156037285Y-139018386D01*
X155916970Y-138852786D01*
X155916968Y-138852784D01*
X155916966Y-138852781D01*
X155772219Y-138708034D01*
X155772215Y-138708031D01*
X155772213Y-138708029D01*
X155606613Y-138587714D01*
X155606609Y-138587712D01*
X155424219Y-138494780D01*
X155229529Y-138431521D01*
X155027355Y-138399500D01*
X155027352Y-138399500D01*
X154822648Y-138399500D01*
X154822645Y-138399500D01*
X154620470Y-138431521D01*
X154425780Y-138494780D01*
X154243390Y-138587712D01*
X154243386Y-138587714D01*
X154077786Y-138708029D01*
X153933029Y-138852786D01*
X153812714Y-139018386D01*
X153812712Y-139018390D01*
X153719780Y-139200780D01*
X153656521Y-139395470D01*
X153624500Y-139597644D01*
X153624500Y-139802355D01*
X153656522Y-140004531D01*
X153676550Y-140066172D01*
X153676549Y-140127357D01*
X153640585Y-140176857D01*
X153627343Y-140184972D01*
X153625896Y-140185709D01*
X153625886Y-140185714D01*
X153460286Y-140306029D01*
X153315529Y-140450786D01*
X153195214Y-140616386D01*
X153195212Y-140616390D01*
X153102280Y-140798780D01*
X153039021Y-140993470D01*
X153007000Y-141195644D01*
X130957789Y-141195644D01*
X130960858Y-141176270D01*
X130960858Y-141176269D01*
X130972285Y-141104124D01*
X130972285Y-140899413D01*
X130940263Y-140697239D01*
X130938550Y-140691966D01*
X130877005Y-140502550D01*
X130784072Y-140320159D01*
X130784070Y-140320155D01*
X130663755Y-140154555D01*
X130663753Y-140154553D01*
X130663751Y-140154550D01*
X130519004Y-140009803D01*
X130519000Y-140009800D01*
X130518998Y-140009798D01*
X130353398Y-139889483D01*
X130353394Y-139889481D01*
X130171004Y-139796549D01*
X129976314Y-139733290D01*
X129774140Y-139701269D01*
X129774137Y-139701269D01*
X129569433Y-139701269D01*
X129569430Y-139701269D01*
X129367255Y-139733290D01*
X129172565Y-139796549D01*
X128990175Y-139889481D01*
X128990171Y-139889483D01*
X128824571Y-140009798D01*
X128679814Y-140154555D01*
X128559499Y-140320155D01*
X128559497Y-140320159D01*
X128466565Y-140502549D01*
X128403306Y-140697239D01*
X128371285Y-140899413D01*
X125305527Y-140899413D01*
X125305949Y-140895780D01*
X125305949Y-140870643D01*
X125309429Y-140865851D01*
X125310114Y-140859970D01*
X125324890Y-140844572D01*
X125341913Y-140821143D01*
X125351555Y-140814956D01*
X125353308Y-140813969D01*
X125356610Y-140812287D01*
X125522219Y-140691966D01*
X125666966Y-140547219D01*
X125787287Y-140381610D01*
X125880220Y-140199219D01*
X125943477Y-140004534D01*
X125946594Y-139984853D01*
X125975500Y-139802355D01*
X125975500Y-139597644D01*
X125943478Y-139395470D01*
X125943477Y-139395466D01*
X125880220Y-139200781D01*
X125787287Y-139018390D01*
X125787285Y-139018386D01*
X125666970Y-138852786D01*
X125666968Y-138852784D01*
X125666966Y-138852781D01*
X125522219Y-138708034D01*
X125522215Y-138708031D01*
X125522213Y-138708029D01*
X125356613Y-138587714D01*
X125356609Y-138587712D01*
X125174219Y-138494780D01*
X124979529Y-138431521D01*
X124777355Y-138399500D01*
X124777352Y-138399500D01*
X124572648Y-138399500D01*
X124572645Y-138399500D01*
X124370470Y-138431521D01*
X124175780Y-138494780D01*
X123993390Y-138587712D01*
X123993386Y-138587714D01*
X123827786Y-138708029D01*
X123683029Y-138852786D01*
X123562714Y-139018386D01*
X123562712Y-139018390D01*
X123469780Y-139200780D01*
X123406521Y-139395470D01*
X123374500Y-139597644D01*
X123374500Y-139802355D01*
X123406522Y-140004531D01*
X123426550Y-140066172D01*
X123426549Y-140127357D01*
X123390585Y-140176857D01*
X123377343Y-140184972D01*
X123375896Y-140185709D01*
X123375886Y-140185714D01*
X123210286Y-140306029D01*
X123065529Y-140450786D01*
X122945214Y-140616386D01*
X122945212Y-140616390D01*
X122852280Y-140798780D01*
X122789021Y-140993470D01*
X122757000Y-141195644D01*
X100127500Y-141195644D01*
X100127500Y-135291942D01*
X110864555Y-135291942D01*
X112208058Y-136635445D01*
X113685911Y-135157591D01*
X113625964Y-135097644D01*
X120772500Y-135097644D01*
X120772500Y-135302355D01*
X120804521Y-135504529D01*
X120867780Y-135699219D01*
X120960711Y-135881607D01*
X120995369Y-135929311D01*
X121014275Y-135987502D01*
X120995369Y-136045689D01*
X120960711Y-136093392D01*
X120867780Y-136275780D01*
X120804521Y-136470470D01*
X120772500Y-136672644D01*
X120772500Y-136877355D01*
X120804521Y-137079529D01*
X120867780Y-137274219D01*
X120960712Y-137456609D01*
X120960714Y-137456613D01*
X121081029Y-137622213D01*
X121081031Y-137622215D01*
X121081034Y-137622219D01*
X121225781Y-137766966D01*
X121225784Y-137766968D01*
X121225786Y-137766970D01*
X121391386Y-137887285D01*
X121391390Y-137887287D01*
X121573781Y-137980220D01*
X121768466Y-138043477D01*
X121768467Y-138043477D01*
X121768470Y-138043478D01*
X121970645Y-138075500D01*
X121970648Y-138075500D01*
X122175355Y-138075500D01*
X122377529Y-138043478D01*
X122377530Y-138043477D01*
X122377534Y-138043477D01*
X122572219Y-137980220D01*
X122754610Y-137887287D01*
X122920219Y-137766966D01*
X123064966Y-137622219D01*
X123185287Y-137456610D01*
X123278220Y-137274219D01*
X123341477Y-137079534D01*
X123373500Y-136877352D01*
X123373500Y-136672648D01*
X123373500Y-136672644D01*
X123341478Y-136470470D01*
X123341477Y-136470466D01*
X123278220Y-136275781D01*
X123185287Y-136093390D01*
X123150630Y-136045688D01*
X123131724Y-135987500D01*
X123150630Y-135929311D01*
X123185287Y-135881610D01*
X123278220Y-135699219D01*
X123341477Y-135504534D01*
X123373500Y-135302352D01*
X123373500Y-135300018D01*
X141003966Y-135300018D01*
X142347469Y-136643521D01*
X143825322Y-135165667D01*
X143757299Y-135097644D01*
X151022500Y-135097644D01*
X151022500Y-135302355D01*
X151054521Y-135504529D01*
X151117780Y-135699219D01*
X151210711Y-135881607D01*
X151245369Y-135929311D01*
X151264275Y-135987502D01*
X151245369Y-136045689D01*
X151210711Y-136093392D01*
X151117780Y-136275780D01*
X151054521Y-136470470D01*
X151022500Y-136672644D01*
X151022500Y-136877355D01*
X151054521Y-137079529D01*
X151117780Y-137274219D01*
X151210712Y-137456609D01*
X151210714Y-137456613D01*
X151331029Y-137622213D01*
X151331031Y-137622215D01*
X151331034Y-137622219D01*
X151475781Y-137766966D01*
X151475784Y-137766968D01*
X151475786Y-137766970D01*
X151641386Y-137887285D01*
X151641390Y-137887287D01*
X151823781Y-137980220D01*
X152018466Y-138043477D01*
X152018467Y-138043477D01*
X152018470Y-138043478D01*
X152220645Y-138075500D01*
X152220648Y-138075500D01*
X152425355Y-138075500D01*
X152627529Y-138043478D01*
X152627530Y-138043477D01*
X152627534Y-138043477D01*
X152822219Y-137980220D01*
X153004610Y-137887287D01*
X153170219Y-137766966D01*
X153314966Y-137622219D01*
X153435287Y-137456610D01*
X153528220Y-137274219D01*
X153591477Y-137079534D01*
X153623500Y-136877352D01*
X153623500Y-136672648D01*
X153623500Y-136672644D01*
X153591478Y-136470470D01*
X153591477Y-136470466D01*
X153528220Y-136275781D01*
X153435287Y-136093390D01*
X153400630Y-136045688D01*
X153381724Y-135987500D01*
X153400630Y-135929311D01*
X153435287Y-135881610D01*
X153528220Y-135699219D01*
X153591477Y-135504534D01*
X153623500Y-135302352D01*
X153623500Y-135097648D01*
X153623500Y-135097644D01*
X153591478Y-134895470D01*
X153591477Y-134895466D01*
X153528220Y-134700781D01*
X153435287Y-134518390D01*
X153435285Y-134518386D01*
X153314970Y-134352786D01*
X153314968Y-134352784D01*
X153314966Y-134352781D01*
X153170219Y-134208034D01*
X153170215Y-134208031D01*
X153170213Y-134208029D01*
X153004613Y-134087714D01*
X153004609Y-134087712D01*
X152822219Y-133994780D01*
X152627529Y-133931521D01*
X152425355Y-133899500D01*
X152425352Y-133899500D01*
X152220648Y-133899500D01*
X152220645Y-133899500D01*
X152018470Y-133931521D01*
X151823780Y-133994780D01*
X151641390Y-134087712D01*
X151641386Y-134087714D01*
X151475786Y-134208029D01*
X151331029Y-134352786D01*
X151210714Y-134518386D01*
X151210712Y-134518390D01*
X151117780Y-134700780D01*
X151054521Y-134895470D01*
X151022500Y-135097644D01*
X143757299Y-135097644D01*
X142481820Y-133822165D01*
X142481819Y-133822165D01*
X141742893Y-134561091D01*
X141003966Y-135300018D01*
X123373500Y-135300018D01*
X123373500Y-135097648D01*
X123373500Y-135097644D01*
X123341478Y-134895470D01*
X123341477Y-134895466D01*
X123278220Y-134700781D01*
X123185287Y-134518390D01*
X123185285Y-134518386D01*
X123064970Y-134352786D01*
X123064968Y-134352784D01*
X123064966Y-134352781D01*
X122920219Y-134208034D01*
X122920215Y-134208031D01*
X122920213Y-134208029D01*
X122754613Y-134087714D01*
X122754609Y-134087712D01*
X122572219Y-133994780D01*
X122377529Y-133931521D01*
X122175355Y-133899500D01*
X122175352Y-133899500D01*
X121970648Y-133899500D01*
X121970645Y-133899500D01*
X121768470Y-133931521D01*
X121573780Y-133994780D01*
X121391390Y-134087712D01*
X121391386Y-134087714D01*
X121225786Y-134208029D01*
X121081029Y-134352786D01*
X120960714Y-134518386D01*
X120960712Y-134518390D01*
X120867780Y-134700780D01*
X120804521Y-134895470D01*
X120772500Y-135097644D01*
X113625964Y-135097644D01*
X112342409Y-133814089D01*
X112342408Y-133814089D01*
X111603482Y-134553015D01*
X110864555Y-135291942D01*
X100127500Y-135291942D01*
X100127500Y-131534283D01*
X146362861Y-131534283D01*
X146362861Y-131738994D01*
X146394882Y-131941168D01*
X146458141Y-132135858D01*
X146551073Y-132318248D01*
X146551075Y-132318252D01*
X146671390Y-132483852D01*
X146671392Y-132483854D01*
X146671395Y-132483858D01*
X146816142Y-132628605D01*
X146816145Y-132628607D01*
X146816147Y-132628609D01*
X146981747Y-132748924D01*
X146981751Y-132748926D01*
X147164142Y-132841859D01*
X147358827Y-132905116D01*
X147358828Y-132905116D01*
X147358831Y-132905117D01*
X147561006Y-132937139D01*
X147561009Y-132937139D01*
X147765716Y-132937139D01*
X147967890Y-132905117D01*
X147967891Y-132905116D01*
X147967895Y-132905116D01*
X148162580Y-132841859D01*
X148344971Y-132748926D01*
X148510580Y-132628605D01*
X148655327Y-132483858D01*
X148775648Y-132318249D01*
X148868581Y-132135858D01*
X148931838Y-131941173D01*
X148963861Y-131738991D01*
X148963861Y-131534287D01*
X148963861Y-131534283D01*
X148931839Y-131332109D01*
X148931838Y-131332105D01*
X148868581Y-131137420D01*
X148775648Y-130955029D01*
X148775646Y-130955025D01*
X148655331Y-130789425D01*
X148655329Y-130789423D01*
X148655327Y-130789420D01*
X148510580Y-130644673D01*
X148510576Y-130644670D01*
X148510574Y-130644668D01*
X148344974Y-130524353D01*
X148344970Y-130524351D01*
X148162580Y-130431419D01*
X147967890Y-130368160D01*
X147765716Y-130336139D01*
X147765713Y-130336139D01*
X147561009Y-130336139D01*
X147561006Y-130336139D01*
X147358831Y-130368160D01*
X147164141Y-130431419D01*
X146981751Y-130524351D01*
X146981747Y-130524353D01*
X146816147Y-130644668D01*
X146671390Y-130789425D01*
X146551075Y-130955025D01*
X146551073Y-130955029D01*
X146458141Y-131137419D01*
X146394882Y-131332109D01*
X146362861Y-131534283D01*
X100127500Y-131534283D01*
X100127500Y-123622644D01*
X106876500Y-123622644D01*
X106876500Y-123827355D01*
X106908521Y-124029529D01*
X106971780Y-124224219D01*
X107064711Y-124406607D01*
X107099369Y-124454311D01*
X107118275Y-124512502D01*
X107099369Y-124570689D01*
X107064711Y-124618392D01*
X106971780Y-124800780D01*
X106908521Y-124995470D01*
X106876500Y-125197644D01*
X106876500Y-125402355D01*
X106908521Y-125604529D01*
X106971780Y-125799219D01*
X107064712Y-125981609D01*
X107064714Y-125981613D01*
X107185029Y-126147213D01*
X107185031Y-126147215D01*
X107185034Y-126147219D01*
X107329781Y-126291966D01*
X107329784Y-126291968D01*
X107329786Y-126291970D01*
X107495386Y-126412285D01*
X107495390Y-126412287D01*
X107677781Y-126505220D01*
X107872466Y-126568477D01*
X107872467Y-126568477D01*
X107872470Y-126568478D01*
X108074645Y-126600500D01*
X108074648Y-126600500D01*
X108279355Y-126600500D01*
X108481529Y-126568478D01*
X108481530Y-126568477D01*
X108481534Y-126568477D01*
X108676219Y-126505220D01*
X108691088Y-126497644D01*
X122349500Y-126497644D01*
X122349500Y-126702355D01*
X122381521Y-126904529D01*
X122444780Y-127099219D01*
X122537712Y-127281609D01*
X122537714Y-127281613D01*
X122658029Y-127447213D01*
X122658031Y-127447215D01*
X122658034Y-127447219D01*
X122802781Y-127591966D01*
X122802784Y-127591968D01*
X122802786Y-127591970D01*
X122968386Y-127712285D01*
X122968390Y-127712287D01*
X123150781Y-127805220D01*
X123345466Y-127868477D01*
X123345467Y-127868477D01*
X123345470Y-127868478D01*
X123547645Y-127900500D01*
X123547648Y-127900500D01*
X123752355Y-127900500D01*
X123954529Y-127868478D01*
X123954530Y-127868477D01*
X123954534Y-127868477D01*
X124149219Y-127805220D01*
X124331610Y-127712287D01*
X124497219Y-127591966D01*
X124641966Y-127447219D01*
X124762287Y-127281610D01*
X124847106Y-127115144D01*
X125299500Y-127115144D01*
X125299500Y-127319855D01*
X125331521Y-127522029D01*
X125394780Y-127716719D01*
X125415218Y-127756831D01*
X125424789Y-127817262D01*
X125422508Y-127831664D01*
X125422508Y-128036375D01*
X125454529Y-128238549D01*
X125517788Y-128433239D01*
X125610720Y-128615629D01*
X125610722Y-128615633D01*
X125731037Y-128781233D01*
X125731039Y-128781235D01*
X125731042Y-128781239D01*
X125875789Y-128925986D01*
X125875792Y-128925988D01*
X125875794Y-128925990D01*
X126041394Y-129046305D01*
X126041398Y-129046307D01*
X126223789Y-129139240D01*
X126418474Y-129202497D01*
X126418475Y-129202497D01*
X126418478Y-129202498D01*
X126620653Y-129234520D01*
X126620656Y-129234520D01*
X126825363Y-129234520D01*
X127027537Y-129202498D01*
X127027538Y-129202497D01*
X127027542Y-129202497D01*
X127054748Y-129193656D01*
X127115933Y-129193656D01*
X127155342Y-129217805D01*
X127266142Y-129328605D01*
X127266145Y-129328607D01*
X127266147Y-129328609D01*
X127431747Y-129448924D01*
X127431751Y-129448926D01*
X127614142Y-129541859D01*
X127808827Y-129605116D01*
X127808828Y-129605116D01*
X127808831Y-129605117D01*
X128011006Y-129637139D01*
X128011009Y-129637139D01*
X128215716Y-129637139D01*
X128417890Y-129605117D01*
X128417891Y-129605116D01*
X128417895Y-129605116D01*
X128497736Y-129579172D01*
X128558916Y-129579172D01*
X128702966Y-129625977D01*
X128702967Y-129625977D01*
X128702969Y-129625978D01*
X128905145Y-129658000D01*
X128905148Y-129658000D01*
X129109855Y-129658000D01*
X129312029Y-129625978D01*
X129312030Y-129625977D01*
X129312034Y-129625977D01*
X129506719Y-129562720D01*
X129689110Y-129469787D01*
X129854719Y-129349466D01*
X129999466Y-129204719D01*
X130119787Y-129039110D01*
X130212720Y-128856719D01*
X130259595Y-128712451D01*
X130295559Y-128662952D01*
X130353750Y-128644045D01*
X130411941Y-128662952D01*
X130447905Y-128712452D01*
X130494780Y-128856719D01*
X130587712Y-129039109D01*
X130587714Y-129039113D01*
X130708029Y-129204713D01*
X130708031Y-129204715D01*
X130708034Y-129204719D01*
X130852781Y-129349466D01*
X130852784Y-129349468D01*
X130852786Y-129349470D01*
X131018386Y-129469785D01*
X131018390Y-129469787D01*
X131200781Y-129562720D01*
X131395466Y-129625977D01*
X131395467Y-129625977D01*
X131395470Y-129625978D01*
X131597645Y-129658000D01*
X131597648Y-129658000D01*
X131802355Y-129658000D01*
X132004529Y-129625978D01*
X132004530Y-129625977D01*
X132004534Y-129625977D01*
X132199219Y-129562720D01*
X132381610Y-129469787D01*
X132547219Y-129349466D01*
X132576326Y-129320358D01*
X132630841Y-129292580D01*
X132676922Y-129296206D01*
X132692676Y-129301324D01*
X132745466Y-129318477D01*
X132809411Y-129328605D01*
X132947645Y-129350500D01*
X132947648Y-129350500D01*
X133152355Y-129350500D01*
X133354529Y-129318478D01*
X133354530Y-129318477D01*
X133354534Y-129318477D01*
X133549219Y-129255220D01*
X133731610Y-129162287D01*
X133897219Y-129041966D01*
X134041966Y-128897219D01*
X134162287Y-128731610D01*
X134172049Y-128712452D01*
X134189603Y-128677999D01*
X134232867Y-128634734D01*
X134262327Y-128625162D01*
X134304529Y-128618478D01*
X134304530Y-128618477D01*
X134304534Y-128618477D01*
X134499219Y-128555220D01*
X134681610Y-128462287D01*
X134721592Y-128433239D01*
X134847213Y-128341970D01*
X134847219Y-128341966D01*
X134991966Y-128197219D01*
X135112287Y-128031610D01*
X135205220Y-127849219D01*
X135268477Y-127654534D01*
X135295366Y-127484761D01*
X135313054Y-127442059D01*
X135368653Y-127365534D01*
X135393926Y-127330749D01*
X135486859Y-127148358D01*
X135550116Y-126953673D01*
X135556563Y-126912970D01*
X135582139Y-126751494D01*
X135582139Y-126546783D01*
X135550117Y-126344609D01*
X135534151Y-126295470D01*
X135486859Y-126149920D01*
X135393926Y-125967529D01*
X135393924Y-125967525D01*
X135273609Y-125801925D01*
X135273607Y-125801923D01*
X135273605Y-125801920D01*
X135128858Y-125657173D01*
X135128854Y-125657170D01*
X135128852Y-125657168D01*
X134963252Y-125536853D01*
X134963248Y-125536851D01*
X134866806Y-125487712D01*
X134780858Y-125443919D01*
X134780855Y-125443918D01*
X134768902Y-125440034D01*
X134719404Y-125404067D01*
X134700500Y-125345881D01*
X134700500Y-125197644D01*
X134668478Y-124995470D01*
X134668477Y-124995466D01*
X134605220Y-124800781D01*
X134512287Y-124618390D01*
X134512285Y-124618386D01*
X134391970Y-124452786D01*
X134391968Y-124452784D01*
X134391966Y-124452781D01*
X134247219Y-124308034D01*
X134247215Y-124308031D01*
X134247213Y-124308029D01*
X134081613Y-124187714D01*
X134081609Y-124187712D01*
X133899219Y-124094780D01*
X133704529Y-124031521D01*
X133502355Y-123999500D01*
X133502352Y-123999500D01*
X133297648Y-123999500D01*
X133297645Y-123999500D01*
X133095470Y-124031521D01*
X132900780Y-124094780D01*
X132718390Y-124187712D01*
X132718386Y-124187714D01*
X132552786Y-124308029D01*
X132408029Y-124452786D01*
X132287714Y-124618386D01*
X132287712Y-124618390D01*
X132194780Y-124800780D01*
X132131521Y-124995470D01*
X132099500Y-125197644D01*
X132099500Y-125402355D01*
X132131521Y-125604529D01*
X132194780Y-125799219D01*
X132287712Y-125981609D01*
X132287714Y-125981613D01*
X132408029Y-126147213D01*
X132408031Y-126147215D01*
X132408034Y-126147219D01*
X132552781Y-126291966D01*
X132552784Y-126291968D01*
X132552786Y-126291970D01*
X132718386Y-126412285D01*
X132718390Y-126412287D01*
X132874483Y-126491820D01*
X132887698Y-126505035D01*
X132903784Y-126514544D01*
X132908807Y-126526144D01*
X132917748Y-126535085D01*
X132920671Y-126553542D01*
X132928097Y-126570691D01*
X132925114Y-126581597D01*
X132927319Y-126595517D01*
X132914763Y-126630406D01*
X132912377Y-126634442D01*
X132887713Y-126668390D01*
X132858989Y-126724760D01*
X132857411Y-126727432D01*
X132836678Y-126745718D01*
X132817129Y-126765267D01*
X132812990Y-126766611D01*
X132811524Y-126767905D01*
X132807975Y-126768241D01*
X132787676Y-126774837D01*
X132745465Y-126781523D01*
X132550782Y-126844779D01*
X132368390Y-126937712D01*
X132368386Y-126937714D01*
X132202785Y-127058030D01*
X132202778Y-127058035D01*
X132173671Y-127087143D01*
X132119154Y-127114919D01*
X132073077Y-127111293D01*
X132004531Y-127089022D01*
X131802355Y-127057000D01*
X131802352Y-127057000D01*
X131597648Y-127057000D01*
X131597645Y-127057000D01*
X131395470Y-127089021D01*
X131200780Y-127152280D01*
X131018390Y-127245212D01*
X131018386Y-127245214D01*
X130852786Y-127365529D01*
X130708029Y-127510286D01*
X130587714Y-127675886D01*
X130587712Y-127675890D01*
X130494780Y-127858280D01*
X130447905Y-128002547D01*
X130411941Y-128052047D01*
X130353750Y-128070954D01*
X130295559Y-128052047D01*
X130259595Y-128002547D01*
X130252100Y-127979480D01*
X130212720Y-127858281D01*
X130119787Y-127675890D01*
X130119785Y-127675886D01*
X129999470Y-127510286D01*
X129999468Y-127510284D01*
X129999466Y-127510281D01*
X129854719Y-127365534D01*
X129854715Y-127365531D01*
X129854713Y-127365529D01*
X129689113Y-127245214D01*
X129689109Y-127245212D01*
X129506719Y-127152280D01*
X129312029Y-127089021D01*
X129109855Y-127057000D01*
X129109852Y-127057000D01*
X128905148Y-127057000D01*
X128905145Y-127057000D01*
X128702968Y-127089022D01*
X128623124Y-127114964D01*
X128561939Y-127114963D01*
X128536164Y-127106588D01*
X128486664Y-127070624D01*
X128467757Y-127012433D01*
X128486665Y-126954243D01*
X128496754Y-126942430D01*
X128497215Y-126941968D01*
X128497219Y-126941966D01*
X128641966Y-126797219D01*
X128762287Y-126631610D01*
X128855220Y-126449219D01*
X128918477Y-126254534D01*
X128923071Y-126225529D01*
X128950500Y-126052355D01*
X128950500Y-125847644D01*
X128918478Y-125645470D01*
X128918477Y-125645466D01*
X128855220Y-125450781D01*
X128762287Y-125268390D01*
X128762285Y-125268386D01*
X128641970Y-125102786D01*
X128641968Y-125102784D01*
X128641966Y-125102781D01*
X128497219Y-124958034D01*
X128497215Y-124958031D01*
X128497213Y-124958029D01*
X128347592Y-124849324D01*
X128311628Y-124799824D01*
X128311627Y-124738639D01*
X128347591Y-124689139D01*
X128392858Y-124671078D01*
X128561789Y-124648839D01*
X128796100Y-124586055D01*
X129020212Y-124493225D01*
X129230289Y-124371937D01*
X129422738Y-124224266D01*
X129594265Y-124052739D01*
X129741936Y-123860290D01*
X129863224Y-123650213D01*
X129874643Y-123622644D01*
X137126500Y-123622644D01*
X137126500Y-123827355D01*
X137158521Y-124029529D01*
X137221780Y-124224219D01*
X137314711Y-124406607D01*
X137349369Y-124454311D01*
X137368275Y-124512502D01*
X137349369Y-124570689D01*
X137314711Y-124618392D01*
X137221780Y-124800780D01*
X137158521Y-124995470D01*
X137126500Y-125197644D01*
X137126500Y-125402355D01*
X137158521Y-125604529D01*
X137221780Y-125799219D01*
X137314712Y-125981609D01*
X137314714Y-125981613D01*
X137435029Y-126147213D01*
X137435031Y-126147215D01*
X137435034Y-126147219D01*
X137579781Y-126291966D01*
X137579784Y-126291968D01*
X137579786Y-126291970D01*
X137745386Y-126412285D01*
X137745390Y-126412287D01*
X137927781Y-126505220D01*
X138122466Y-126568477D01*
X138122467Y-126568477D01*
X138122470Y-126568478D01*
X138324645Y-126600500D01*
X138324648Y-126600500D01*
X138529355Y-126600500D01*
X138731529Y-126568478D01*
X138731530Y-126568477D01*
X138731534Y-126568477D01*
X138926219Y-126505220D01*
X139108610Y-126412287D01*
X139274219Y-126291966D01*
X139418966Y-126147219D01*
X139539287Y-125981610D01*
X139632220Y-125799219D01*
X139695477Y-125604534D01*
X139713980Y-125487712D01*
X139727500Y-125402355D01*
X139727500Y-125197644D01*
X139695478Y-124995470D01*
X139695477Y-124995466D01*
X139632220Y-124800781D01*
X139539287Y-124618390D01*
X139504630Y-124570688D01*
X139485724Y-124512500D01*
X139504630Y-124454311D01*
X139539287Y-124406610D01*
X139632220Y-124224219D01*
X139695477Y-124029534D01*
X139727500Y-123827352D01*
X139727500Y-123622648D01*
X139727500Y-123622644D01*
X139695478Y-123420470D01*
X139695477Y-123420466D01*
X139632220Y-123225781D01*
X139539287Y-123043390D01*
X139539285Y-123043386D01*
X139418970Y-122877786D01*
X139418968Y-122877784D01*
X139418966Y-122877781D01*
X139274219Y-122733034D01*
X139274215Y-122733031D01*
X139274213Y-122733029D01*
X139108613Y-122612714D01*
X139108609Y-122612712D01*
X138926219Y-122519780D01*
X138731529Y-122456521D01*
X138529355Y-122424500D01*
X138529352Y-122424500D01*
X138324648Y-122424500D01*
X138324645Y-122424500D01*
X138122470Y-122456521D01*
X137927780Y-122519780D01*
X137745390Y-122612712D01*
X137745386Y-122612714D01*
X137579786Y-122733029D01*
X137435029Y-122877786D01*
X137314714Y-123043386D01*
X137314712Y-123043390D01*
X137221780Y-123225780D01*
X137158521Y-123420470D01*
X137126500Y-123622644D01*
X129874643Y-123622644D01*
X129956054Y-123426101D01*
X130018838Y-123191790D01*
X130050500Y-122951289D01*
X130050500Y-122708713D01*
X130018838Y-122468212D01*
X129956054Y-122233901D01*
X129863224Y-122009789D01*
X129741936Y-121799712D01*
X129604243Y-121620267D01*
X129583820Y-121562593D01*
X129601198Y-121503927D01*
X129604244Y-121499734D01*
X129618152Y-121481609D01*
X129741936Y-121320290D01*
X129863224Y-121110213D01*
X129956054Y-120886101D01*
X130012276Y-120676279D01*
X130045597Y-120624970D01*
X130102718Y-120603043D01*
X130152843Y-120613696D01*
X130328996Y-120703451D01*
X130523681Y-120766708D01*
X130523682Y-120766708D01*
X130523685Y-120766709D01*
X130725860Y-120798731D01*
X130725863Y-120798731D01*
X130930570Y-120798731D01*
X131132744Y-120766709D01*
X131132745Y-120766708D01*
X131132749Y-120766708D01*
X131327434Y-120703451D01*
X131338831Y-120697644D01*
X134524500Y-120697644D01*
X134524500Y-120902355D01*
X134556521Y-121104529D01*
X134619780Y-121299219D01*
X134712712Y-121481609D01*
X134712714Y-121481613D01*
X134833029Y-121647213D01*
X134833031Y-121647215D01*
X134833034Y-121647219D01*
X134977781Y-121791966D01*
X134977784Y-121791968D01*
X134977786Y-121791970D01*
X135143386Y-121912285D01*
X135143390Y-121912287D01*
X135325781Y-122005220D01*
X135520466Y-122068477D01*
X135520467Y-122068477D01*
X135520470Y-122068478D01*
X135722645Y-122100500D01*
X135722648Y-122100500D01*
X135927355Y-122100500D01*
X136129529Y-122068478D01*
X136129530Y-122068477D01*
X136129534Y-122068477D01*
X136324219Y-122005220D01*
X136506610Y-121912287D01*
X136672219Y-121791966D01*
X136816966Y-121647219D01*
X136937287Y-121481610D01*
X137030220Y-121299219D01*
X137093477Y-121104534D01*
X137125500Y-120902352D01*
X137125500Y-120697648D01*
X137125500Y-120697644D01*
X137093477Y-120495464D01*
X137073450Y-120433828D01*
X137073449Y-120372643D01*
X137109413Y-120323143D01*
X137122659Y-120315026D01*
X137124110Y-120314287D01*
X137289719Y-120193966D01*
X137434466Y-120049219D01*
X137554787Y-119883610D01*
X137647720Y-119701219D01*
X137710977Y-119506534D01*
X137716797Y-119469789D01*
X137743000Y-119304355D01*
X137743000Y-119099644D01*
X137710978Y-118897470D01*
X137710977Y-118897466D01*
X137647720Y-118702781D01*
X137554787Y-118520390D01*
X137554785Y-118520386D01*
X137434470Y-118354786D01*
X137434468Y-118354784D01*
X137434466Y-118354781D01*
X137289719Y-118210034D01*
X137289715Y-118210031D01*
X137289713Y-118210029D01*
X137124113Y-118089714D01*
X137124109Y-118089712D01*
X136941719Y-117996780D01*
X136747029Y-117933521D01*
X136544855Y-117901500D01*
X136544852Y-117901500D01*
X136340148Y-117901500D01*
X136340145Y-117901500D01*
X136137970Y-117933521D01*
X135943280Y-117996780D01*
X135760890Y-118089712D01*
X135760886Y-118089714D01*
X135595286Y-118210029D01*
X135450529Y-118354786D01*
X135330214Y-118520386D01*
X135330212Y-118520390D01*
X135237280Y-118702780D01*
X135174021Y-118897470D01*
X135142000Y-119099644D01*
X135142000Y-119304355D01*
X135174022Y-119506531D01*
X135194050Y-119568172D01*
X135194049Y-119629357D01*
X135158085Y-119678857D01*
X135144843Y-119686972D01*
X135143396Y-119687709D01*
X135143386Y-119687714D01*
X134977786Y-119808029D01*
X134833029Y-119952786D01*
X134712714Y-120118386D01*
X134712712Y-120118390D01*
X134619780Y-120300780D01*
X134556521Y-120495470D01*
X134524500Y-120697644D01*
X131338831Y-120697644D01*
X131509825Y-120610518D01*
X131675434Y-120490197D01*
X131820181Y-120345450D01*
X131940502Y-120179841D01*
X132033435Y-119997450D01*
X132096692Y-119802765D01*
X132114915Y-119687713D01*
X132128715Y-119600586D01*
X132128715Y-119395875D01*
X132096692Y-119193695D01*
X132048119Y-119044204D01*
X132044492Y-118998123D01*
X132050573Y-118959734D01*
X132075500Y-118802352D01*
X132075500Y-118597648D01*
X132075500Y-118597644D01*
X132043478Y-118395470D01*
X132030259Y-118354786D01*
X131980220Y-118200781D01*
X131887287Y-118018390D01*
X131887285Y-118018386D01*
X131766970Y-117852786D01*
X131766968Y-117852784D01*
X131766966Y-117852781D01*
X131622219Y-117708034D01*
X131622215Y-117708031D01*
X131622213Y-117708029D01*
X131456613Y-117587714D01*
X131456609Y-117587712D01*
X131274219Y-117494780D01*
X131079529Y-117431521D01*
X130877355Y-117399500D01*
X130877352Y-117399500D01*
X130672648Y-117399500D01*
X130672645Y-117399500D01*
X130470470Y-117431521D01*
X130275780Y-117494780D01*
X130172951Y-117547174D01*
X130112519Y-117556745D01*
X130058002Y-117528967D01*
X130030225Y-117474451D01*
X130029853Y-117471885D01*
X130018839Y-117388220D01*
X130018838Y-117388214D01*
X130018838Y-117388212D01*
X129956054Y-117153901D01*
X129863224Y-116929789D01*
X129741936Y-116719712D01*
X129604243Y-116540267D01*
X129583820Y-116482593D01*
X129601198Y-116423927D01*
X129604244Y-116419734D01*
X129634645Y-116380115D01*
X129741936Y-116240290D01*
X129863224Y-116030213D01*
X129956054Y-115806101D01*
X129957299Y-115801455D01*
X133899500Y-115801455D01*
X133899500Y-116006166D01*
X133931521Y-116208340D01*
X133994780Y-116403030D01*
X134087712Y-116585420D01*
X134087714Y-116585424D01*
X134208029Y-116751024D01*
X134208031Y-116751026D01*
X134208034Y-116751030D01*
X134352781Y-116895777D01*
X134352784Y-116895779D01*
X134352786Y-116895781D01*
X134518386Y-117016096D01*
X134518390Y-117016098D01*
X134700781Y-117109031D01*
X134895466Y-117172288D01*
X134895467Y-117172288D01*
X134895470Y-117172289D01*
X135097645Y-117204311D01*
X135097648Y-117204311D01*
X135302355Y-117204311D01*
X135504529Y-117172289D01*
X135504530Y-117172288D01*
X135504534Y-117172288D01*
X135699219Y-117109031D01*
X135881610Y-117016098D01*
X135978369Y-116945799D01*
X143023870Y-116945799D01*
X143023870Y-116945800D01*
X143554200Y-117476130D01*
X145304998Y-115725331D01*
X145359513Y-115697556D01*
X145419945Y-115707127D01*
X145445000Y-115725330D01*
X146630115Y-116910445D01*
X147160445Y-116380115D01*
X145975331Y-115195001D01*
X145947556Y-115140487D01*
X145957127Y-115080055D01*
X145975330Y-115054999D01*
X147726130Y-113304200D01*
X147195800Y-112773870D01*
X147195799Y-112773870D01*
X145445003Y-114524666D01*
X145390486Y-114552443D01*
X145330054Y-114542872D01*
X145304998Y-114524668D01*
X144119885Y-113339555D01*
X143589555Y-113869885D01*
X144774667Y-115054997D01*
X144802443Y-115109512D01*
X144792872Y-115169944D01*
X144774666Y-115195003D01*
X143023870Y-116945799D01*
X135978369Y-116945799D01*
X136047219Y-116895777D01*
X136191966Y-116751030D01*
X136312287Y-116585421D01*
X136405220Y-116403030D01*
X136468477Y-116208345D01*
X136496691Y-116030213D01*
X136500500Y-116006166D01*
X136500500Y-115801455D01*
X136468478Y-115599281D01*
X136459543Y-115571782D01*
X136405220Y-115404592D01*
X136312287Y-115222201D01*
X136312285Y-115222197D01*
X136191970Y-115056597D01*
X136191968Y-115056595D01*
X136191966Y-115056592D01*
X136047219Y-114911845D01*
X136047215Y-114911842D01*
X136047213Y-114911840D01*
X135881613Y-114791525D01*
X135881609Y-114791523D01*
X135699219Y-114698591D01*
X135504529Y-114635332D01*
X135302355Y-114603311D01*
X135302352Y-114603311D01*
X135097648Y-114603311D01*
X135097645Y-114603311D01*
X134895470Y-114635332D01*
X134700780Y-114698591D01*
X134518390Y-114791523D01*
X134518386Y-114791525D01*
X134352786Y-114911840D01*
X134208029Y-115056597D01*
X134087714Y-115222197D01*
X134087712Y-115222201D01*
X133994780Y-115404591D01*
X133931521Y-115599281D01*
X133899500Y-115801455D01*
X129957299Y-115801455D01*
X129965206Y-115771948D01*
X129965206Y-115771946D01*
X129996453Y-115655330D01*
X130018838Y-115571790D01*
X130050500Y-115331289D01*
X130050500Y-115088713D01*
X130018838Y-114848212D01*
X129956054Y-114613901D01*
X129863224Y-114389789D01*
X129741936Y-114179712D01*
X129594265Y-113987263D01*
X129422738Y-113815736D01*
X129422733Y-113815732D01*
X129422731Y-113815730D01*
X129230292Y-113668067D01*
X129230289Y-113668065D01*
X129020212Y-113546777D01*
X129020208Y-113546775D01*
X129020204Y-113546773D01*
X128796105Y-113453949D01*
X128796104Y-113453948D01*
X128796100Y-113453947D01*
X128561789Y-113391163D01*
X128561786Y-113391162D01*
X128561784Y-113391162D01*
X128321289Y-113359501D01*
X128321288Y-113359501D01*
X128078712Y-113359501D01*
X128078710Y-113359501D01*
X127838218Y-113391162D01*
X127838213Y-113391162D01*
X127603907Y-113453945D01*
X127603894Y-113453949D01*
X127379795Y-113546773D01*
X127169707Y-113668067D01*
X126977268Y-113815730D01*
X126805729Y-113987269D01*
X126658066Y-114179708D01*
X126536772Y-114389796D01*
X126443948Y-114613895D01*
X126443944Y-114613908D01*
X126381161Y-114848214D01*
X126381161Y-114848219D01*
X126349500Y-115088711D01*
X126349500Y-115331290D01*
X126381161Y-115571782D01*
X126381161Y-115571787D01*
X126443944Y-115806093D01*
X126443948Y-115806106D01*
X126536772Y-116030205D01*
X126536774Y-116030209D01*
X126536776Y-116030213D01*
X126639618Y-116208340D01*
X126658066Y-116240293D01*
X126795755Y-116419734D01*
X126816179Y-116477410D01*
X126798801Y-116536076D01*
X126795755Y-116540268D01*
X126658066Y-116719708D01*
X126536772Y-116929796D01*
X126443948Y-117153895D01*
X126443944Y-117153908D01*
X126381161Y-117388214D01*
X126381161Y-117388219D01*
X126349500Y-117628711D01*
X126349500Y-117871290D01*
X126381161Y-118111782D01*
X126381161Y-118111787D01*
X126443944Y-118346093D01*
X126443948Y-118346106D01*
X126536772Y-118570205D01*
X126536774Y-118570209D01*
X126536776Y-118570213D01*
X126658064Y-118780290D01*
X126658066Y-118780293D01*
X126795755Y-118959734D01*
X126816179Y-119017410D01*
X126798801Y-119076076D01*
X126795755Y-119080268D01*
X126658066Y-119259708D01*
X126536772Y-119469796D01*
X126443948Y-119693895D01*
X126443944Y-119693908D01*
X126381161Y-119928214D01*
X126381161Y-119928219D01*
X126349500Y-120168711D01*
X126349500Y-120411290D01*
X126381161Y-120651782D01*
X126381161Y-120651787D01*
X126443944Y-120886093D01*
X126443948Y-120886106D01*
X126536772Y-121110205D01*
X126536774Y-121110209D01*
X126536776Y-121110213D01*
X126645899Y-121299219D01*
X126658066Y-121320293D01*
X126795755Y-121499734D01*
X126816179Y-121557410D01*
X126798801Y-121616076D01*
X126795755Y-121620268D01*
X126658066Y-121799708D01*
X126658064Y-121799712D01*
X126539415Y-122005219D01*
X126536772Y-122009796D01*
X126443948Y-122233895D01*
X126443944Y-122233908D01*
X126381161Y-122468214D01*
X126381161Y-122468219D01*
X126349500Y-122708711D01*
X126349500Y-122951290D01*
X126381161Y-123191782D01*
X126381161Y-123191787D01*
X126443944Y-123426093D01*
X126443948Y-123426106D01*
X126536772Y-123650205D01*
X126536774Y-123650208D01*
X126536776Y-123650213D01*
X126639049Y-123827355D01*
X126658066Y-123860293D01*
X126805729Y-124052732D01*
X126805731Y-124052734D01*
X126805735Y-124052739D01*
X126977262Y-124224266D01*
X126977266Y-124224269D01*
X126977268Y-124224271D01*
X127086424Y-124308029D01*
X127169711Y-124371937D01*
X127379788Y-124493225D01*
X127379794Y-124493227D01*
X127380965Y-124493805D01*
X127381214Y-124494047D01*
X127382595Y-124494845D01*
X127382392Y-124495195D01*
X127424796Y-124536495D01*
X127435163Y-124596796D01*
X127408106Y-124651674D01*
X127353960Y-124680168D01*
X127352682Y-124680379D01*
X127345469Y-124681521D01*
X127150780Y-124744780D01*
X126968390Y-124837712D01*
X126968386Y-124837714D01*
X126802786Y-124958029D01*
X126658029Y-125102786D01*
X126537714Y-125268386D01*
X126537712Y-125268390D01*
X126444780Y-125450780D01*
X126381521Y-125645470D01*
X126349500Y-125847644D01*
X126349500Y-125859538D01*
X126330593Y-125917729D01*
X126281093Y-125953693D01*
X126100780Y-126012280D01*
X125918390Y-126105212D01*
X125918386Y-126105214D01*
X125752786Y-126225529D01*
X125608029Y-126370286D01*
X125487714Y-126535886D01*
X125487712Y-126535890D01*
X125394780Y-126718280D01*
X125331521Y-126912970D01*
X125299500Y-127115144D01*
X124847106Y-127115144D01*
X124855220Y-127099219D01*
X124918477Y-126904534D01*
X124918478Y-126904529D01*
X124950500Y-126702355D01*
X124950500Y-126497644D01*
X124918478Y-126295470D01*
X124917341Y-126291970D01*
X124855220Y-126100781D01*
X124762287Y-125918390D01*
X124762285Y-125918386D01*
X124641970Y-125752786D01*
X124641968Y-125752784D01*
X124641966Y-125752781D01*
X124497219Y-125608034D01*
X124497215Y-125608031D01*
X124497213Y-125608029D01*
X124331613Y-125487714D01*
X124331609Y-125487712D01*
X124149219Y-125394780D01*
X123954529Y-125331521D01*
X123752355Y-125299500D01*
X123752352Y-125299500D01*
X123547648Y-125299500D01*
X123547645Y-125299500D01*
X123345470Y-125331521D01*
X123150780Y-125394780D01*
X122968390Y-125487712D01*
X122968386Y-125487714D01*
X122802786Y-125608029D01*
X122658029Y-125752786D01*
X122537714Y-125918386D01*
X122537712Y-125918390D01*
X122444780Y-126100780D01*
X122381521Y-126295470D01*
X122349500Y-126497644D01*
X108691088Y-126497644D01*
X108858610Y-126412287D01*
X109024219Y-126291966D01*
X109168966Y-126147219D01*
X109289287Y-125981610D01*
X109382220Y-125799219D01*
X109445477Y-125604534D01*
X109463980Y-125487712D01*
X109477500Y-125402355D01*
X109477500Y-125197644D01*
X109445478Y-124995470D01*
X109445477Y-124995466D01*
X109382220Y-124800781D01*
X109289287Y-124618390D01*
X109254630Y-124570688D01*
X109235724Y-124512500D01*
X109254630Y-124454311D01*
X109289287Y-124406610D01*
X109382220Y-124224219D01*
X109445477Y-124029534D01*
X109477500Y-123827352D01*
X109477500Y-123622648D01*
X109477500Y-123622644D01*
X109445478Y-123420470D01*
X109445477Y-123420466D01*
X109382220Y-123225781D01*
X109289287Y-123043390D01*
X109289285Y-123043386D01*
X109168970Y-122877786D01*
X109168968Y-122877784D01*
X109168966Y-122877781D01*
X109024219Y-122733034D01*
X109024215Y-122733031D01*
X109024213Y-122733029D01*
X108858613Y-122612714D01*
X108858609Y-122612712D01*
X108676219Y-122519780D01*
X108481529Y-122456521D01*
X108279355Y-122424500D01*
X108279352Y-122424500D01*
X108074648Y-122424500D01*
X108074645Y-122424500D01*
X107872470Y-122456521D01*
X107677780Y-122519780D01*
X107495390Y-122612712D01*
X107495386Y-122612714D01*
X107329786Y-122733029D01*
X107185029Y-122877786D01*
X107064714Y-123043386D01*
X107064712Y-123043390D01*
X106971780Y-123225780D01*
X106908521Y-123420470D01*
X106876500Y-123622644D01*
X100127500Y-123622644D01*
X100127500Y-120855472D01*
X100146407Y-120797281D01*
X100195907Y-120761317D01*
X100257090Y-120761317D01*
X100273681Y-120766708D01*
X100273684Y-120766708D01*
X100273686Y-120766709D01*
X100273684Y-120766709D01*
X100475860Y-120798731D01*
X100475863Y-120798731D01*
X100680570Y-120798731D01*
X100882744Y-120766709D01*
X100882745Y-120766708D01*
X100882749Y-120766708D01*
X101077434Y-120703451D01*
X101088831Y-120697644D01*
X104274500Y-120697644D01*
X104274500Y-120902355D01*
X104306521Y-121104529D01*
X104369780Y-121299219D01*
X104462712Y-121481609D01*
X104462714Y-121481613D01*
X104583029Y-121647213D01*
X104583031Y-121647215D01*
X104583034Y-121647219D01*
X104727781Y-121791966D01*
X104727784Y-121791968D01*
X104727786Y-121791970D01*
X104893386Y-121912285D01*
X104893390Y-121912287D01*
X105075781Y-122005220D01*
X105270466Y-122068477D01*
X105270467Y-122068477D01*
X105270470Y-122068478D01*
X105472645Y-122100500D01*
X105472648Y-122100500D01*
X105677355Y-122100500D01*
X105879529Y-122068478D01*
X105879530Y-122068477D01*
X105879534Y-122068477D01*
X106074219Y-122005220D01*
X106256610Y-121912287D01*
X106422219Y-121791966D01*
X106566966Y-121647219D01*
X106687287Y-121481610D01*
X106780220Y-121299219D01*
X106843477Y-121104534D01*
X106875500Y-120902352D01*
X106875500Y-120697648D01*
X106875500Y-120697644D01*
X106843477Y-120495464D01*
X106823450Y-120433828D01*
X106823449Y-120372643D01*
X106859413Y-120323143D01*
X106872659Y-120315026D01*
X106874110Y-120314287D01*
X107039719Y-120193966D01*
X107184466Y-120049219D01*
X107304787Y-119883610D01*
X107397720Y-119701219D01*
X107460977Y-119506534D01*
X107466797Y-119469789D01*
X107493000Y-119304355D01*
X107493000Y-119099644D01*
X107460978Y-118897470D01*
X107460977Y-118897466D01*
X107397720Y-118702781D01*
X107304787Y-118520390D01*
X107304785Y-118520386D01*
X107184470Y-118354786D01*
X107184468Y-118354784D01*
X107184466Y-118354781D01*
X107039719Y-118210034D01*
X107039715Y-118210031D01*
X107039713Y-118210029D01*
X106874113Y-118089714D01*
X106874109Y-118089712D01*
X106691719Y-117996780D01*
X106497029Y-117933521D01*
X106294855Y-117901500D01*
X106294852Y-117901500D01*
X106090148Y-117901500D01*
X106090145Y-117901500D01*
X105887970Y-117933521D01*
X105693280Y-117996780D01*
X105510890Y-118089712D01*
X105510886Y-118089714D01*
X105345286Y-118210029D01*
X105200529Y-118354786D01*
X105080214Y-118520386D01*
X105080212Y-118520390D01*
X104987280Y-118702780D01*
X104924021Y-118897470D01*
X104892000Y-119099644D01*
X104892000Y-119304355D01*
X104924022Y-119506531D01*
X104944050Y-119568172D01*
X104944049Y-119629357D01*
X104908085Y-119678857D01*
X104894843Y-119686972D01*
X104893396Y-119687709D01*
X104893386Y-119687714D01*
X104727786Y-119808029D01*
X104583029Y-119952786D01*
X104462714Y-120118386D01*
X104462712Y-120118390D01*
X104369780Y-120300780D01*
X104306521Y-120495470D01*
X104274500Y-120697644D01*
X101088831Y-120697644D01*
X101259825Y-120610518D01*
X101425434Y-120490197D01*
X101570181Y-120345450D01*
X101690502Y-120179841D01*
X101783435Y-119997450D01*
X101846692Y-119802765D01*
X101864915Y-119687713D01*
X101878715Y-119600586D01*
X101878715Y-119395875D01*
X101846692Y-119193695D01*
X101798119Y-119044204D01*
X101794492Y-118998123D01*
X101800573Y-118959734D01*
X101825500Y-118802352D01*
X101825500Y-118597648D01*
X101825500Y-118597644D01*
X101793478Y-118395470D01*
X101780259Y-118354786D01*
X101730220Y-118200781D01*
X101637287Y-118018390D01*
X101637285Y-118018386D01*
X101516970Y-117852786D01*
X101516968Y-117852784D01*
X101516966Y-117852781D01*
X101372219Y-117708034D01*
X101372215Y-117708031D01*
X101372213Y-117708029D01*
X101206613Y-117587714D01*
X101206609Y-117587712D01*
X101024219Y-117494780D01*
X100829529Y-117431521D01*
X100627355Y-117399500D01*
X100627352Y-117399500D01*
X100422648Y-117399500D01*
X100422645Y-117399500D01*
X100241987Y-117428113D01*
X100181555Y-117418542D01*
X100138290Y-117375277D01*
X100127500Y-117330332D01*
X100127500Y-115801455D01*
X103649500Y-115801455D01*
X103649500Y-116006166D01*
X103681521Y-116208340D01*
X103744780Y-116403030D01*
X103837712Y-116585420D01*
X103837714Y-116585424D01*
X103958029Y-116751024D01*
X103958031Y-116751026D01*
X103958034Y-116751030D01*
X104102781Y-116895777D01*
X104102784Y-116895779D01*
X104102786Y-116895781D01*
X104268386Y-117016096D01*
X104268390Y-117016098D01*
X104450781Y-117109031D01*
X104645466Y-117172288D01*
X104645467Y-117172288D01*
X104645470Y-117172289D01*
X104847645Y-117204311D01*
X104847648Y-117204311D01*
X105052355Y-117204311D01*
X105254529Y-117172289D01*
X105254530Y-117172288D01*
X105254534Y-117172288D01*
X105449219Y-117109031D01*
X105631610Y-117016098D01*
X105728369Y-116945799D01*
X112773870Y-116945799D01*
X112773870Y-116945800D01*
X113304200Y-117476130D01*
X115054998Y-115725331D01*
X115109513Y-115697556D01*
X115169945Y-115707127D01*
X115195000Y-115725330D01*
X116380115Y-116910445D01*
X116910445Y-116380115D01*
X115725331Y-115195001D01*
X115697556Y-115140487D01*
X115707127Y-115080055D01*
X115725330Y-115054999D01*
X117476130Y-113304200D01*
X116945800Y-112773870D01*
X116945799Y-112773870D01*
X115195003Y-114524666D01*
X115140486Y-114552443D01*
X115080054Y-114542872D01*
X115054998Y-114524668D01*
X113869885Y-113339555D01*
X113339555Y-113869885D01*
X114524667Y-115054997D01*
X114552443Y-115109512D01*
X114542872Y-115169944D01*
X114524666Y-115195003D01*
X112773870Y-116945799D01*
X105728369Y-116945799D01*
X105797219Y-116895777D01*
X105941966Y-116751030D01*
X106062287Y-116585421D01*
X106155220Y-116403030D01*
X106218477Y-116208345D01*
X106246691Y-116030213D01*
X106250500Y-116006166D01*
X106250500Y-115801455D01*
X106218478Y-115599281D01*
X106209543Y-115571782D01*
X106155220Y-115404592D01*
X106062287Y-115222201D01*
X106062285Y-115222197D01*
X105941970Y-115056597D01*
X105941968Y-115056595D01*
X105941966Y-115056592D01*
X105797219Y-114911845D01*
X105797215Y-114911842D01*
X105797213Y-114911840D01*
X105631613Y-114791525D01*
X105631609Y-114791523D01*
X105449219Y-114698591D01*
X105254529Y-114635332D01*
X105052355Y-114603311D01*
X105052352Y-114603311D01*
X104847648Y-114603311D01*
X104847645Y-114603311D01*
X104645470Y-114635332D01*
X104450780Y-114698591D01*
X104268390Y-114791523D01*
X104268386Y-114791525D01*
X104102786Y-114911840D01*
X103958029Y-115056597D01*
X103837714Y-115222197D01*
X103837712Y-115222201D01*
X103744780Y-115404591D01*
X103681521Y-115599281D01*
X103649500Y-115801455D01*
X100127500Y-115801455D01*
X100127500Y-110620000D01*
X100135547Y-106875500D01*
X100138562Y-105472644D01*
X103649500Y-105472644D01*
X103649500Y-105677355D01*
X103681521Y-105879529D01*
X103744780Y-106074219D01*
X103837712Y-106256609D01*
X103837714Y-106256613D01*
X103958029Y-106422213D01*
X103958031Y-106422215D01*
X103958034Y-106422219D01*
X104102781Y-106566966D01*
X104102784Y-106566968D01*
X104102786Y-106566970D01*
X104268386Y-106687285D01*
X104268390Y-106687287D01*
X104450781Y-106780220D01*
X104645466Y-106843477D01*
X104645467Y-106843477D01*
X104645470Y-106843478D01*
X104847645Y-106875500D01*
X104847648Y-106875500D01*
X105052355Y-106875500D01*
X105254529Y-106843478D01*
X105254530Y-106843477D01*
X105254534Y-106843477D01*
X105449219Y-106780220D01*
X105631610Y-106687287D01*
X105797219Y-106566966D01*
X105941966Y-106422219D01*
X106062287Y-106256610D01*
X106155220Y-106074219D01*
X106218477Y-105879534D01*
X106250500Y-105677352D01*
X106250500Y-105472648D01*
X106250500Y-105472644D01*
X133899500Y-105472644D01*
X133899500Y-105677355D01*
X133931521Y-105879529D01*
X133994780Y-106074219D01*
X134087712Y-106256609D01*
X134087714Y-106256613D01*
X134208029Y-106422213D01*
X134208031Y-106422215D01*
X134208034Y-106422219D01*
X134352781Y-106566966D01*
X134352784Y-106566968D01*
X134352786Y-106566970D01*
X134518386Y-106687285D01*
X134518390Y-106687287D01*
X134700781Y-106780220D01*
X134895466Y-106843477D01*
X134895467Y-106843477D01*
X134895470Y-106843478D01*
X135097645Y-106875500D01*
X135097648Y-106875500D01*
X135302355Y-106875500D01*
X135504529Y-106843478D01*
X135504530Y-106843477D01*
X135504534Y-106843477D01*
X135699219Y-106780220D01*
X135881610Y-106687287D01*
X136047219Y-106566966D01*
X136191966Y-106422219D01*
X136312287Y-106256610D01*
X136405220Y-106074219D01*
X136468477Y-105879534D01*
X136500500Y-105677352D01*
X136500500Y-105472648D01*
X136500500Y-105472644D01*
X136468478Y-105270470D01*
X136468477Y-105270466D01*
X136405220Y-105075781D01*
X136312287Y-104893390D01*
X136312285Y-104893386D01*
X136191970Y-104727786D01*
X136191968Y-104727784D01*
X136191966Y-104727781D01*
X136047219Y-104583034D01*
X136047215Y-104583031D01*
X136047213Y-104583029D01*
X135881613Y-104462714D01*
X135881609Y-104462712D01*
X135699219Y-104369780D01*
X135504529Y-104306521D01*
X135302355Y-104274500D01*
X135302352Y-104274500D01*
X135097648Y-104274500D01*
X135097645Y-104274500D01*
X134895470Y-104306521D01*
X134700780Y-104369780D01*
X134518390Y-104462712D01*
X134518386Y-104462714D01*
X134352786Y-104583029D01*
X134208029Y-104727786D01*
X134087714Y-104893386D01*
X134087712Y-104893390D01*
X133994780Y-105075780D01*
X133931521Y-105270470D01*
X133899500Y-105472644D01*
X106250500Y-105472644D01*
X106218478Y-105270470D01*
X106218477Y-105270466D01*
X106155220Y-105075781D01*
X106062287Y-104893390D01*
X106062285Y-104893386D01*
X105941970Y-104727786D01*
X105941968Y-104727784D01*
X105941966Y-104727781D01*
X105797219Y-104583034D01*
X105797215Y-104583031D01*
X105797213Y-104583029D01*
X105631613Y-104462714D01*
X105631609Y-104462712D01*
X105449219Y-104369780D01*
X105254529Y-104306521D01*
X105052355Y-104274500D01*
X105052352Y-104274500D01*
X104847648Y-104274500D01*
X104847645Y-104274500D01*
X104645470Y-104306521D01*
X104450780Y-104369780D01*
X104268390Y-104462712D01*
X104268386Y-104462714D01*
X104102786Y-104583029D01*
X103958029Y-104727786D01*
X103837714Y-104893386D01*
X103837712Y-104893390D01*
X103744780Y-105075780D01*
X103681521Y-105270470D01*
X103649500Y-105472644D01*
X100138562Y-105472644D01*
X100141361Y-104170001D01*
X101825001Y-104170001D01*
X101825002Y-104170001D01*
X103725000Y-104170001D01*
X103725001Y-104170001D01*
X132075001Y-104170001D01*
X132075002Y-104170001D01*
X133975000Y-104170001D01*
X133975001Y-104170001D01*
X133975001Y-102080001D01*
X132075001Y-102080001D01*
X132075001Y-104170001D01*
X103725001Y-104170001D01*
X103725001Y-102080001D01*
X101825001Y-102080001D01*
X101825001Y-104170001D01*
X100141361Y-104170001D01*
X100149788Y-100248543D01*
X100168821Y-100190394D01*
X100218398Y-100154537D01*
X100248543Y-100149757D01*
X109277500Y-100127500D01*
X160773500Y-100127500D01*
X160831691Y-100146407D01*
G37*
%TD.AperFunction*%
%TD*%
M02*
