%TF.GenerationSoftware,KiCad,Pcbnew,9.0.7*%
%TF.CreationDate,2026-03-20T00:16:56-05:00*%
%TF.ProjectId,4phaseshift,34706861-7365-4736-9869-66742e6b6963,rev?*%
%TF.SameCoordinates,Original*%
%TF.FileFunction,Copper,L2,Inr*%
%TF.FilePolarity,Positive*%
%FSLAX46Y46*%
G04 Gerber Fmt 4.6, Leading zero omitted, Abs format (unit mm)*
G04 Created by KiCad (PCBNEW 9.0.7) date 2026-03-20 00:16:56*
%MOMM*%
%LPD*%
G01*
G04 APERTURE LIST*
%TA.AperFunction,ComponentPad*%
%ADD10C,1.700000*%
%TD*%
%TA.AperFunction,ComponentPad*%
%ADD11R,1.700000X1.700000*%
%TD*%
%TA.AperFunction,HeatsinkPad*%
%ADD12C,0.600000*%
%TD*%
%TA.AperFunction,ComponentPad*%
%ADD13C,1.440000*%
%TD*%
%TA.AperFunction,ViaPad*%
%ADD14C,0.600000*%
%TD*%
%TA.AperFunction,Conductor*%
%ADD15C,0.700000*%
%TD*%
%TA.AperFunction,Conductor*%
%ADD16C,0.381000*%
%TD*%
G04 APERTURE END LIST*
D10*
%TO.N,Net-(J2-Pin_5)*%
%TO.C,J2*%
X128200000Y-122830001D03*
%TO.N,/SCL*%
X128200000Y-120290001D03*
%TO.N,/LDAC*%
X128200000Y-117750001D03*
%TO.N,+2V5*%
X128200000Y-115210001D03*
D11*
%TO.N,GND*%
X128200000Y-112670001D03*
%TD*%
D12*
%TO.N,GND*%
%TO.C,U16*%
X134550000Y-118074999D03*
X133700000Y-118074999D03*
X132850000Y-118074999D03*
X134550000Y-118924999D03*
X133700000Y-118924999D03*
X132850000Y-118924999D03*
X134550000Y-119774999D03*
X133700000Y-119774999D03*
X132850000Y-119774999D03*
%TD*%
D13*
%TO.N,VCC2*%
%TO.C,RV1*%
X158920000Y-167890000D03*
%TO.N,Net-(U3-VT)*%
X156380000Y-165350000D03*
%TO.N,GND*%
X158920000Y-162810000D03*
%TD*%
D12*
%TO.N,GND*%
%TO.C,U11*%
X104300000Y-118074999D03*
X103450000Y-118074999D03*
X102600000Y-118074999D03*
X104300000Y-118924999D03*
X103450000Y-118924999D03*
X102600000Y-118924999D03*
X104300000Y-119774999D03*
X103450000Y-119774999D03*
X102600000Y-119774999D03*
%TD*%
D11*
%TO.N,VS*%
%TO.C,VS*%
X130400000Y-168200000D03*
%TD*%
D12*
%TO.N,GND*%
%TO.C,U19*%
X156200000Y-142425001D03*
X157050000Y-142425001D03*
X157900000Y-142425001D03*
X156200000Y-141575001D03*
X157050000Y-141575001D03*
X157900000Y-141575001D03*
X156200000Y-140725001D03*
X157050000Y-140725001D03*
X157900000Y-140725001D03*
%TD*%
%TO.N,GND*%
%TO.C,U13*%
X125950000Y-142425001D03*
X126800000Y-142425001D03*
X127650000Y-142425001D03*
X125950000Y-141575001D03*
X126800000Y-141575001D03*
X127650000Y-141575001D03*
X125950000Y-140725001D03*
X126800000Y-140725001D03*
X127650000Y-140725001D03*
%TD*%
D11*
%TO.N,GND*%
%TO.C,GND*%
X134200000Y-168200000D03*
%TD*%
D14*
%TO.N,GND*%
X101000000Y-145000000D03*
X137700000Y-169000000D03*
X136200000Y-169000000D03*
X113100000Y-165600000D03*
X101000000Y-150000000D03*
X143600000Y-169200000D03*
X160500000Y-130000000D03*
X127100000Y-168500000D03*
X135000000Y-165000000D03*
X126000000Y-152000000D03*
X111900000Y-161200000D03*
X101000000Y-130000000D03*
X160500000Y-125500000D03*
X127100000Y-167000000D03*
X101000000Y-159000000D03*
X160500000Y-134500000D03*
X130300000Y-126900000D03*
X101000000Y-140000000D03*
X101000000Y-107000000D03*
X101000000Y-135000000D03*
X104000000Y-108000000D03*
X127100000Y-165600000D03*
X130000000Y-150000000D03*
X150000000Y-165000000D03*
X101000000Y-125000000D03*
X113100000Y-168400000D03*
X101000000Y-155000000D03*
X113100000Y-167000000D03*
X156500000Y-152000000D03*
X134500000Y-108000000D03*
%TO.N,VS*%
X124237500Y-168500000D03*
X110237500Y-168500000D03*
X122050000Y-167900000D03*
X108050000Y-167884999D03*
%TO.N,VCC*%
X129007500Y-128357500D03*
X131700000Y-128357500D03*
X125300000Y-144596189D03*
X104950000Y-115903811D03*
X125172000Y-154797000D03*
X110237500Y-165499999D03*
X124675000Y-139700000D03*
X123650000Y-126600000D03*
X104950000Y-105575000D03*
X105575000Y-120800000D03*
%TO.N,/VectorModulator1/IBBN*%
X106192500Y-119202000D03*
X127650000Y-125950000D03*
%TO.N,/VectorModulator1/QBBN*%
X126600000Y-127217500D03*
X100578215Y-119498231D03*
X108177000Y-125300000D03*
%TO.N,/VectorModulator1/QBBP*%
X100525000Y-118700000D03*
X108177000Y-123725000D03*
%TO.N,/VectorModulator2/IBBN*%
X124057500Y-141298000D03*
X126723008Y-127934020D03*
%TO.N,/VectorModulator2/QBBN*%
X122073000Y-135200000D03*
X129671785Y-141001769D03*
X128113361Y-128336639D03*
%TO.N,/VectorModulator2/QBBP*%
X129725000Y-141800000D03*
X122073000Y-136775000D03*
%TO.N,/VectorModulator3/QBBP*%
X130775000Y-118700000D03*
X138427000Y-123725000D03*
%TO.N,/VectorModulator4/QBBP*%
X159975000Y-141800000D03*
X152323000Y-136775000D03*
%TO.N,/VectorModulator3/IBBN*%
X134281639Y-126649139D03*
X136442500Y-119202000D03*
%TO.N,/VectorModulator3/QBBN*%
X138427000Y-125300000D03*
X133400000Y-125300000D03*
X130828215Y-119498231D03*
%TO.N,/VectorModulator4/IBBN*%
X133050000Y-128050000D03*
X154307500Y-141298000D03*
%TO.N,/VectorModulator4/QBBN*%
X159921785Y-141001769D03*
X152323000Y-135200000D03*
X134000000Y-127350000D03*
%TO.N,VCC2*%
X147663361Y-131636639D03*
X127000000Y-164000000D03*
X144600000Y-167212499D03*
X136400000Y-166600000D03*
X135825000Y-120800000D03*
X155550000Y-144596189D03*
X155300000Y-154675000D03*
X149100000Y-155150000D03*
X135200000Y-105575000D03*
X135200000Y-115903811D03*
X154925000Y-139700000D03*
%TD*%
D15*
%TO.N,VS*%
X110237500Y-168500000D02*
X108665001Y-168500000D01*
X122050000Y-167900000D02*
X120772000Y-169178000D01*
X110915500Y-169178000D02*
X110237500Y-168500000D01*
X120772000Y-169178000D02*
X110915500Y-169178000D01*
X124237500Y-168500000D02*
X122650000Y-168500000D01*
X130400000Y-168200000D02*
X129103000Y-169497000D01*
X124237500Y-168500000D02*
X124500000Y-168500000D01*
X108665001Y-168500000D02*
X108050000Y-167884999D01*
X124500000Y-168500000D02*
X125497000Y-169497000D01*
X122650000Y-168500000D02*
X122050000Y-167900000D01*
X129103000Y-169497000D02*
X125497000Y-169497000D01*
D16*
%TO.N,VCC*%
X129007500Y-128357500D02*
X131700000Y-128357500D01*
X128075000Y-127425000D02*
X129007500Y-128357500D01*
D15*
X113000000Y-164500000D02*
X112000001Y-165499999D01*
X125172000Y-154797000D02*
X125172000Y-140197000D01*
D16*
X121259000Y-136958692D02*
X121259000Y-134272720D01*
D15*
X115500000Y-164500000D02*
X113000000Y-164500000D01*
X125172000Y-154797000D02*
X125172000Y-154828000D01*
X112000001Y-165499999D02*
X110237500Y-165499999D01*
D16*
X123650000Y-126600000D02*
X112800000Y-126600000D01*
X105575000Y-120800000D02*
X106249692Y-120800000D01*
D15*
X125172000Y-140197000D02*
X124675000Y-139700000D01*
D16*
X124000308Y-139700000D02*
X121259000Y-136958692D01*
X127250000Y-126600000D02*
X128075000Y-127425000D01*
X104950000Y-120175000D02*
X104950000Y-115903811D01*
D15*
X125172000Y-154828000D02*
X115500000Y-164500000D01*
D16*
X128075000Y-127456720D02*
X128075000Y-127425000D01*
X112800000Y-126600000D02*
X107000000Y-120800000D01*
X123650000Y-126600000D02*
X127250000Y-126600000D01*
X105575000Y-120800000D02*
X104950000Y-120175000D01*
X124675000Y-139700000D02*
X124000308Y-139700000D01*
X104950000Y-115903811D02*
X104950000Y-105575000D01*
X106249692Y-120800000D02*
X107000000Y-120800000D01*
X121259000Y-134272720D02*
X128075000Y-127456720D01*
%TO.N,/VectorModulator1/IBBN*%
X112950000Y-125950000D02*
X106202000Y-119202000D01*
X127650000Y-125950000D02*
X112950000Y-125950000D01*
%TO.N,/VectorModulator1/QBBN*%
X100678397Y-119498231D02*
X100578215Y-119498231D01*
X108400000Y-125300000D02*
X105402055Y-125300000D01*
X126600000Y-127217500D02*
X112697666Y-127217500D01*
X112697666Y-127217500D02*
X110780166Y-125300000D01*
X108177000Y-125300000D02*
X105402055Y-125300000D01*
X100578215Y-120476160D02*
X100578215Y-119498231D01*
X110780166Y-125300000D02*
X108400000Y-125300000D01*
X105402055Y-125300000D02*
X100578215Y-120476160D01*
%TO.N,/VectorModulator1/QBBP*%
X101269715Y-119719715D02*
X101269715Y-119211802D01*
X105275000Y-123725000D02*
X101269715Y-119719715D01*
X101269715Y-119211802D02*
X100757913Y-118700000D01*
X108300000Y-123725000D02*
X105275000Y-123725000D01*
X101269715Y-119784660D02*
X101269715Y-119211802D01*
X105210055Y-123725000D02*
X101269715Y-119784660D01*
X108177000Y-123725000D02*
X105210055Y-123725000D01*
X100757913Y-118700000D02*
X100525000Y-118700000D01*
%TO.N,/VectorModulator2/IBBN*%
X126723008Y-127934020D02*
X120750000Y-133907028D01*
X120750000Y-137990500D02*
X124057500Y-141298000D01*
X120750000Y-133907028D02*
X120750000Y-137990500D01*
%TO.N,/VectorModulator2/QBBN*%
X128113361Y-128386639D02*
X124847945Y-131652055D01*
X122073000Y-135200000D02*
X124847945Y-135200000D01*
X124847945Y-135200000D02*
X129671785Y-140023840D01*
X129671785Y-140023840D02*
X129671785Y-141001769D01*
X124847945Y-131652055D02*
X124847945Y-135200000D01*
X128113361Y-128336639D02*
X128113361Y-128386639D01*
%TO.N,/VectorModulator2/QBBP*%
X128980285Y-140715340D02*
X128980285Y-141288198D01*
X129492087Y-141800000D02*
X129725000Y-141800000D01*
X122073000Y-136775000D02*
X125039945Y-136775000D01*
X128980285Y-141288198D02*
X129492087Y-141800000D01*
X125039945Y-136775000D02*
X128980285Y-140715340D01*
%TO.N,/VectorModulator3/QBBP*%
X131519715Y-119211802D02*
X131007913Y-118700000D01*
X138427000Y-123725000D02*
X135460055Y-123725000D01*
X135460055Y-123725000D02*
X131519715Y-119784660D01*
X131519715Y-119784660D02*
X131519715Y-119211802D01*
X131007913Y-118700000D02*
X130775000Y-118700000D01*
%TO.N,/VectorModulator4/QBBP*%
X155289945Y-136775000D02*
X159230285Y-140715340D01*
X152200000Y-136775000D02*
X155289945Y-136775000D01*
X159742087Y-141800000D02*
X159975000Y-141800000D01*
X159230285Y-141288198D02*
X159742087Y-141800000D01*
X159230285Y-140715340D02*
X159230285Y-141288198D01*
X152323000Y-136775000D02*
X155289945Y-136775000D01*
%TO.N,/VectorModulator3/IBBN*%
X139750000Y-125571527D02*
X138672388Y-126649139D01*
X138672388Y-126649139D02*
X134281639Y-126649139D01*
X139750000Y-122509500D02*
X139750000Y-125571527D01*
X139750000Y-122509500D02*
X136442500Y-119202000D01*
%TO.N,/VectorModulator3/QBBN*%
X133400000Y-125300000D02*
X135652055Y-125300000D01*
X138427000Y-125300000D02*
X135652055Y-125300000D01*
X135652055Y-125300000D02*
X130828215Y-120476160D01*
X130828215Y-120476160D02*
X130828215Y-119498231D01*
%TO.N,/VectorModulator4/IBBN*%
X154256500Y-141247000D02*
X154307500Y-141298000D01*
X143900000Y-128000000D02*
X147044861Y-131144861D01*
X151195500Y-137210170D02*
X151195500Y-137242026D01*
X151195500Y-137242026D02*
X154162474Y-140209000D01*
X147044861Y-131892831D02*
X151182000Y-136029970D01*
X151182000Y-137196670D02*
X151195500Y-137210170D01*
X147044861Y-131144861D02*
X147044861Y-131892831D01*
X154256500Y-140209000D02*
X154256500Y-141247000D01*
X133100000Y-128000000D02*
X143900000Y-128000000D01*
X151182000Y-136029970D02*
X151182000Y-137196670D01*
X154162474Y-140209000D02*
X154256500Y-140209000D01*
X133050000Y-128050000D02*
X133100000Y-128000000D01*
%TO.N,/VectorModulator4/QBBN*%
X152100000Y-135200000D02*
X144250000Y-127350000D01*
X144250000Y-127350000D02*
X134000000Y-127350000D01*
X155097945Y-135200000D02*
X159921785Y-140023840D01*
X159921785Y-140023840D02*
X159921785Y-141001769D01*
X152323000Y-135200000D02*
X155097945Y-135200000D01*
X152100000Y-135200000D02*
X155097945Y-135200000D01*
D15*
%TO.N,VCC2*%
X138712499Y-167212499D02*
X144600000Y-167212499D01*
X129600000Y-166600000D02*
X136400000Y-166600000D01*
D16*
X147663361Y-131636639D02*
X151691000Y-135664278D01*
X151704500Y-136999335D02*
X151704500Y-137031192D01*
X151691000Y-135664278D02*
X151691000Y-136985835D01*
D15*
X136400000Y-166600000D02*
X138100000Y-166600000D01*
D16*
X135200000Y-115903811D02*
X135200000Y-105575000D01*
X154373308Y-139700000D02*
X154925000Y-139700000D01*
D15*
X127000000Y-164000000D02*
X129600000Y-166600000D01*
D16*
X135825000Y-120800000D02*
X135200000Y-120175000D01*
D15*
X138100000Y-166600000D02*
X138712499Y-167212499D01*
X155300000Y-140075000D02*
X154925000Y-139700000D01*
D16*
X151704500Y-137031192D02*
X154373308Y-139700000D01*
X151691000Y-136985835D02*
X151704500Y-136999335D01*
D15*
X155300000Y-154675000D02*
X155300000Y-140075000D01*
X149100000Y-155150000D02*
X144600000Y-159650000D01*
D16*
X135200000Y-120175000D02*
X135200000Y-115903811D01*
X154925000Y-139700000D02*
X155550000Y-140325000D01*
D15*
X144600000Y-159650000D02*
X144600000Y-167212499D01*
%TD*%
%TA.AperFunction,Conductor*%
%TO.N,VS*%
G36*
X129560306Y-167814189D02*
G01*
X130161895Y-168090270D01*
X130396587Y-168197975D01*
X130402677Y-168204541D01*
X130402682Y-168204555D01*
X130711182Y-169039632D01*
X130710834Y-169048580D01*
X130704879Y-169054413D01*
X128901525Y-169839869D01*
X128892572Y-169840031D01*
X128886126Y-169833814D01*
X128885153Y-169829142D01*
X128885153Y-169149747D01*
X128886376Y-169144539D01*
X129355875Y-168200000D01*
X129544952Y-167819614D01*
X129551702Y-167813733D01*
X129560306Y-167814189D01*
G37*
%TD.AperFunction*%
%TD*%
%TA.AperFunction,Conductor*%
%TO.N,VCC*%
G36*
X131638854Y-128067261D02*
G01*
X131643773Y-128074636D01*
X131700530Y-128355180D01*
X131700530Y-128359820D01*
X131643773Y-128640363D01*
X131638773Y-128647792D01*
X131630081Y-128649530D01*
X131115240Y-128549834D01*
X131107769Y-128544896D01*
X131105764Y-128538347D01*
X131105764Y-128176652D01*
X131109191Y-128168379D01*
X131115240Y-128165165D01*
X131630083Y-128065469D01*
X131638854Y-128067261D01*
G37*
%TD.AperFunction*%
%TD*%
%TA.AperFunction,Conductor*%
%TO.N,VCC*%
G36*
X129592260Y-128165165D02*
G01*
X129599731Y-128170103D01*
X129601736Y-128176652D01*
X129601736Y-128538347D01*
X129598309Y-128546620D01*
X129592260Y-128549834D01*
X129077418Y-128649530D01*
X129068645Y-128647738D01*
X129063726Y-128640363D01*
X129006969Y-128359820D01*
X129006969Y-128355180D01*
X129063726Y-128074636D01*
X129068726Y-128067207D01*
X129077416Y-128065469D01*
X129592260Y-128165165D01*
G37*
%TD.AperFunction*%
%TD*%
%TA.AperFunction,Conductor*%
%TO.N,VCC*%
G36*
X128730013Y-127808011D02*
G01*
X129164556Y-128101564D01*
X129169494Y-128109035D01*
X129167756Y-128117727D01*
X129009515Y-128356234D01*
X129006234Y-128359515D01*
X128767727Y-128517756D01*
X128758939Y-128519475D01*
X128751564Y-128514556D01*
X128463889Y-128088713D01*
X128463452Y-128088015D01*
X128458114Y-128078770D01*
X128456945Y-128069895D01*
X128459971Y-128064653D01*
X128715192Y-127809432D01*
X128723464Y-127806006D01*
X128730013Y-127808011D01*
G37*
%TD.AperFunction*%
%TD*%
%TA.AperFunction,Conductor*%
%TO.N,VCC*%
G36*
X123588854Y-126309761D02*
G01*
X123593773Y-126317136D01*
X123650530Y-126597680D01*
X123650530Y-126602320D01*
X123593773Y-126882863D01*
X123588773Y-126890292D01*
X123580081Y-126892030D01*
X123065240Y-126792334D01*
X123057769Y-126787396D01*
X123055764Y-126780847D01*
X123055764Y-126419152D01*
X123059191Y-126410879D01*
X123065240Y-126407665D01*
X123580083Y-126307969D01*
X123588854Y-126309761D01*
G37*
%TD.AperFunction*%
%TD*%
%TA.AperFunction,Conductor*%
%TO.N,VCC*%
G36*
X106159760Y-120607665D02*
G01*
X106167231Y-120612603D01*
X106169236Y-120619152D01*
X106169236Y-120980847D01*
X106165809Y-120989120D01*
X106159760Y-120992334D01*
X105644918Y-121092030D01*
X105636145Y-121090238D01*
X105631226Y-121082863D01*
X105574469Y-120802320D01*
X105574469Y-120797680D01*
X105631226Y-120517136D01*
X105636226Y-120509707D01*
X105644916Y-120507969D01*
X106159760Y-120607665D01*
G37*
%TD.AperFunction*%
%TD*%
%TA.AperFunction,Conductor*%
%TO.N,VCC*%
G36*
X105232863Y-115960037D02*
G01*
X105240292Y-115965037D01*
X105242030Y-115973729D01*
X105142335Y-116488571D01*
X105137397Y-116496042D01*
X105130848Y-116498047D01*
X104769152Y-116498047D01*
X104760879Y-116494620D01*
X104757665Y-116488571D01*
X104657969Y-115973727D01*
X104659761Y-115964956D01*
X104667135Y-115960037D01*
X104947682Y-115903280D01*
X104952318Y-115903280D01*
X105232863Y-115960037D01*
G37*
%TD.AperFunction*%
%TD*%
%TA.AperFunction,Conductor*%
%TO.N,VCC*%
G36*
X124234760Y-126407665D02*
G01*
X124242231Y-126412603D01*
X124244236Y-126419152D01*
X124244236Y-126780847D01*
X124240809Y-126789120D01*
X124234760Y-126792334D01*
X123719918Y-126892030D01*
X123711145Y-126890238D01*
X123706226Y-126882863D01*
X123649469Y-126602320D01*
X123649469Y-126597680D01*
X123706226Y-126317136D01*
X123711226Y-126309707D01*
X123719916Y-126307969D01*
X124234760Y-126407665D01*
G37*
%TD.AperFunction*%
%TD*%
%TA.AperFunction,Conductor*%
%TO.N,VCC*%
G36*
X105297513Y-120250511D02*
G01*
X105732056Y-120544064D01*
X105736994Y-120551535D01*
X105735256Y-120560227D01*
X105577015Y-120798734D01*
X105573734Y-120802015D01*
X105335227Y-120960256D01*
X105326439Y-120961975D01*
X105319064Y-120957056D01*
X105166026Y-120730516D01*
X105025510Y-120522512D01*
X105023719Y-120513740D01*
X105026931Y-120507693D01*
X105282692Y-120251932D01*
X105290964Y-120248506D01*
X105297513Y-120250511D01*
G37*
%TD.AperFunction*%
%TD*%
%TA.AperFunction,Conductor*%
%TO.N,VCC*%
G36*
X124613854Y-139409761D02*
G01*
X124618773Y-139417136D01*
X124675530Y-139697680D01*
X124675530Y-139702320D01*
X124618773Y-139982863D01*
X124613773Y-139990292D01*
X124605081Y-139992030D01*
X124090240Y-139892334D01*
X124082769Y-139887396D01*
X124080764Y-139880847D01*
X124080764Y-139519152D01*
X124084191Y-139510879D01*
X124090240Y-139507665D01*
X124605083Y-139407969D01*
X124613854Y-139409761D01*
G37*
%TD.AperFunction*%
%TD*%
%TA.AperFunction,Conductor*%
%TO.N,VCC*%
G36*
X105139121Y-115313002D02*
G01*
X105142335Y-115319051D01*
X105242030Y-115833892D01*
X105240238Y-115842665D01*
X105232863Y-115847584D01*
X104952320Y-115904341D01*
X104947680Y-115904341D01*
X104667136Y-115847584D01*
X104659707Y-115842584D01*
X104657969Y-115833894D01*
X104757665Y-115319050D01*
X104762603Y-115311580D01*
X104769152Y-115309575D01*
X105130848Y-115309575D01*
X105139121Y-115313002D01*
G37*
%TD.AperFunction*%
%TD*%
%TA.AperFunction,Conductor*%
%TO.N,VCC*%
G36*
X105232863Y-105631226D02*
G01*
X105240292Y-105636226D01*
X105242030Y-105644918D01*
X105142335Y-106159760D01*
X105137397Y-106167231D01*
X105130848Y-106169236D01*
X104769152Y-106169236D01*
X104760879Y-106165809D01*
X104757665Y-106159760D01*
X104657969Y-105644916D01*
X104659761Y-105636145D01*
X104667135Y-105631226D01*
X104947682Y-105574469D01*
X104952318Y-105574469D01*
X105232863Y-105631226D01*
G37*
%TD.AperFunction*%
%TD*%
%TA.AperFunction,Conductor*%
%TO.N,/VectorModulator1/IBBN*%
G36*
X106448472Y-119044749D02*
G01*
X106746573Y-119474704D01*
X106748471Y-119483455D01*
X106745231Y-119489643D01*
X106489475Y-119745399D01*
X106481202Y-119748826D01*
X106474770Y-119746899D01*
X106035638Y-119457896D01*
X106030611Y-119450486D01*
X106032296Y-119441692D01*
X106190485Y-119203263D01*
X106193763Y-119199985D01*
X106432389Y-119041665D01*
X106441177Y-119039947D01*
X106448472Y-119044749D01*
G37*
%TD.AperFunction*%
%TD*%
%TA.AperFunction,Conductor*%
%TO.N,/VectorModulator1/IBBN*%
G36*
X127588854Y-125659761D02*
G01*
X127593773Y-125667136D01*
X127650530Y-125947680D01*
X127650530Y-125952320D01*
X127593773Y-126232863D01*
X127588773Y-126240292D01*
X127580081Y-126242030D01*
X127065240Y-126142334D01*
X127057769Y-126137396D01*
X127055764Y-126130847D01*
X127055764Y-125769152D01*
X127059191Y-125760879D01*
X127065240Y-125757665D01*
X127580083Y-125657969D01*
X127588854Y-125659761D01*
G37*
%TD.AperFunction*%
%TD*%
%TA.AperFunction,Conductor*%
%TO.N,/VectorModulator1/QBBN*%
G36*
X108115854Y-125009761D02*
G01*
X108120773Y-125017136D01*
X108177530Y-125297680D01*
X108177530Y-125302320D01*
X108120773Y-125582863D01*
X108115773Y-125590292D01*
X108107081Y-125592030D01*
X107592240Y-125492334D01*
X107584769Y-125487396D01*
X107582764Y-125480847D01*
X107582764Y-125119152D01*
X107586191Y-125110879D01*
X107592240Y-125107665D01*
X108107083Y-125007969D01*
X108115854Y-125009761D01*
G37*
%TD.AperFunction*%
%TD*%
%TA.AperFunction,Conductor*%
%TO.N,/VectorModulator1/QBBN*%
G36*
X126538854Y-126927261D02*
G01*
X126543773Y-126934636D01*
X126600530Y-127215180D01*
X126600530Y-127219820D01*
X126543773Y-127500363D01*
X126538773Y-127507792D01*
X126530081Y-127509530D01*
X126015240Y-127409834D01*
X126007769Y-127404896D01*
X126005764Y-127398347D01*
X126005764Y-127036652D01*
X126009191Y-127028379D01*
X126015240Y-127025165D01*
X126530083Y-126925469D01*
X126538854Y-126927261D01*
G37*
%TD.AperFunction*%
%TD*%
%TA.AperFunction,Conductor*%
%TO.N,/VectorModulator1/QBBN*%
G36*
X108115854Y-125009761D02*
G01*
X108120773Y-125017136D01*
X108177530Y-125297680D01*
X108177530Y-125302320D01*
X108120773Y-125582863D01*
X108115773Y-125590292D01*
X108107081Y-125592030D01*
X107592240Y-125492334D01*
X107584769Y-125487396D01*
X107582764Y-125480847D01*
X107582764Y-125119152D01*
X107586191Y-125110879D01*
X107592240Y-125107665D01*
X108107083Y-125007969D01*
X108115854Y-125009761D01*
G37*
%TD.AperFunction*%
%TD*%
%TA.AperFunction,Conductor*%
%TO.N,/VectorModulator1/QBBN*%
G36*
X100861078Y-119554457D02*
G01*
X100868507Y-119559457D01*
X100870245Y-119568149D01*
X100770550Y-120082991D01*
X100765612Y-120090462D01*
X100759063Y-120092467D01*
X100397367Y-120092467D01*
X100389094Y-120089040D01*
X100385880Y-120082991D01*
X100286184Y-119568147D01*
X100287976Y-119559376D01*
X100295350Y-119554457D01*
X100575897Y-119497700D01*
X100580533Y-119497700D01*
X100861078Y-119554457D01*
G37*
%TD.AperFunction*%
%TD*%
%TA.AperFunction,Conductor*%
%TO.N,/VectorModulator1/QBBN*%
G36*
X108761760Y-125107665D02*
G01*
X108769231Y-125112603D01*
X108771236Y-125119152D01*
X108771236Y-125480847D01*
X108767809Y-125489120D01*
X108761760Y-125492334D01*
X108246918Y-125592030D01*
X108238145Y-125590238D01*
X108233226Y-125582863D01*
X108176469Y-125302320D01*
X108176469Y-125297680D01*
X108233226Y-125017136D01*
X108238226Y-125009707D01*
X108246916Y-125007969D01*
X108761760Y-125107665D01*
G37*
%TD.AperFunction*%
%TD*%
%TA.AperFunction,Conductor*%
%TO.N,/VectorModulator1/QBBP*%
G36*
X100700738Y-118458041D02*
G01*
X100701613Y-118458691D01*
X101155244Y-118829746D01*
X101159478Y-118837635D01*
X101156892Y-118846209D01*
X101156109Y-118847074D01*
X100900598Y-119102585D01*
X100892325Y-119106012D01*
X100889345Y-119105626D01*
X100477085Y-118997031D01*
X100469957Y-118991610D01*
X100468584Y-118983466D01*
X100497115Y-118837932D01*
X100523838Y-118701612D01*
X100525611Y-118697334D01*
X100684500Y-118461215D01*
X100691961Y-118456265D01*
X100700738Y-118458041D01*
G37*
%TD.AperFunction*%
%TD*%
%TA.AperFunction,Conductor*%
%TO.N,/VectorModulator1/QBBP*%
G36*
X108115854Y-123434761D02*
G01*
X108120773Y-123442136D01*
X108177530Y-123722680D01*
X108177530Y-123727320D01*
X108120773Y-124007863D01*
X108115773Y-124015292D01*
X108107081Y-124017030D01*
X107592240Y-123917334D01*
X107584769Y-123912396D01*
X107582764Y-123905847D01*
X107582764Y-123544152D01*
X107586191Y-123535879D01*
X107592240Y-123532665D01*
X108107083Y-123432969D01*
X108115854Y-123434761D01*
G37*
%TD.AperFunction*%
%TD*%
%TA.AperFunction,Conductor*%
%TO.N,/VectorModulator1/QBBP*%
G36*
X108115854Y-123434761D02*
G01*
X108120773Y-123442136D01*
X108177530Y-123722680D01*
X108177530Y-123727320D01*
X108120773Y-124007863D01*
X108115773Y-124015292D01*
X108107081Y-124017030D01*
X107592240Y-123917334D01*
X107584769Y-123912396D01*
X107582764Y-123905847D01*
X107582764Y-123544152D01*
X107586191Y-123535879D01*
X107592240Y-123532665D01*
X108107083Y-123432969D01*
X108115854Y-123434761D01*
G37*
%TD.AperFunction*%
%TD*%
%TA.AperFunction,Conductor*%
%TO.N,/VectorModulator2/IBBN*%
G36*
X126483234Y-127773762D02*
G01*
X126488058Y-127776963D01*
X126721742Y-127932004D01*
X126725023Y-127935285D01*
X126883264Y-128173792D01*
X126884983Y-128182580D01*
X126880064Y-128189955D01*
X126445521Y-128483508D01*
X126436748Y-128485300D01*
X126430699Y-128482086D01*
X126174941Y-128226328D01*
X126171514Y-128218055D01*
X126173518Y-128211508D01*
X126467072Y-127776962D01*
X126474543Y-127772025D01*
X126483234Y-127773762D01*
G37*
%TD.AperFunction*%
%TD*%
%TA.AperFunction,Conductor*%
%TO.N,/VectorModulator2/IBBN*%
G36*
X123780013Y-140748511D02*
G01*
X124214556Y-141042064D01*
X124219494Y-141049535D01*
X124217756Y-141058227D01*
X124059515Y-141296734D01*
X124056234Y-141300015D01*
X123817727Y-141458256D01*
X123808939Y-141459975D01*
X123801564Y-141455056D01*
X123648526Y-141228516D01*
X123508010Y-141020512D01*
X123506219Y-141011740D01*
X123509431Y-141005693D01*
X123765192Y-140749932D01*
X123773464Y-140746506D01*
X123780013Y-140748511D01*
G37*
%TD.AperFunction*%
%TD*%
%TA.AperFunction,Conductor*%
%TO.N,/VectorModulator2/QBBN*%
G36*
X127873676Y-128176460D02*
G01*
X127874205Y-128176791D01*
X128103697Y-128329051D01*
X128112095Y-128334623D01*
X128115376Y-128337904D01*
X128274017Y-128577014D01*
X128275736Y-128585802D01*
X128271427Y-128592736D01*
X127861024Y-128910226D01*
X127852384Y-128912578D01*
X127845592Y-128909245D01*
X127589869Y-128653522D01*
X127586442Y-128645249D01*
X127588053Y-128639323D01*
X127857660Y-128180617D01*
X127864807Y-128175222D01*
X127873676Y-128176460D01*
G37*
%TD.AperFunction*%
%TD*%
%TA.AperFunction,Conductor*%
%TO.N,/VectorModulator2/QBBN*%
G36*
X122657760Y-135007665D02*
G01*
X122665231Y-135012603D01*
X122667236Y-135019152D01*
X122667236Y-135380847D01*
X122663809Y-135389120D01*
X122657760Y-135392334D01*
X122142918Y-135492030D01*
X122134145Y-135490238D01*
X122129226Y-135482863D01*
X122072469Y-135202320D01*
X122072469Y-135197680D01*
X122129226Y-134917136D01*
X122134226Y-134909707D01*
X122142916Y-134907969D01*
X122657760Y-135007665D01*
G37*
%TD.AperFunction*%
%TD*%
%TA.AperFunction,Conductor*%
%TO.N,/VectorModulator2/QBBN*%
G36*
X129860906Y-140410960D02*
G01*
X129864120Y-140417009D01*
X129963815Y-140931850D01*
X129962023Y-140940623D01*
X129954648Y-140945542D01*
X129674105Y-141002299D01*
X129669465Y-141002299D01*
X129388921Y-140945542D01*
X129381492Y-140940542D01*
X129379754Y-140931852D01*
X129479450Y-140417008D01*
X129484388Y-140409538D01*
X129490937Y-140407533D01*
X129852633Y-140407533D01*
X129860906Y-140410960D01*
G37*
%TD.AperFunction*%
%TD*%
%TA.AperFunction,Conductor*%
%TO.N,/VectorModulator2/QBBP*%
G36*
X122657760Y-136582665D02*
G01*
X122665231Y-136587603D01*
X122667236Y-136594152D01*
X122667236Y-136955847D01*
X122663809Y-136964120D01*
X122657760Y-136967334D01*
X122142918Y-137067030D01*
X122134145Y-137065238D01*
X122129226Y-137057863D01*
X122072469Y-136777320D01*
X122072469Y-136772680D01*
X122129226Y-136492136D01*
X122134226Y-136484707D01*
X122142916Y-136482969D01*
X122657760Y-136582665D01*
G37*
%TD.AperFunction*%
%TD*%
%TA.AperFunction,Conductor*%
%TO.N,/VectorModulator2/QBBP*%
G36*
X129360654Y-141394373D02*
G01*
X129772914Y-141502968D01*
X129780042Y-141508389D01*
X129781415Y-141516533D01*
X129726161Y-141798386D01*
X129724387Y-141802667D01*
X129565500Y-142038783D01*
X129558038Y-142043734D01*
X129549261Y-142041958D01*
X129548385Y-142041307D01*
X129460028Y-141969034D01*
X129094754Y-141670252D01*
X129090521Y-141662364D01*
X129093107Y-141653790D01*
X129093880Y-141652935D01*
X129349402Y-141397413D01*
X129357674Y-141393987D01*
X129360654Y-141394373D01*
G37*
%TD.AperFunction*%
%TD*%
%TA.AperFunction,Conductor*%
%TO.N,/VectorModulator3/QBBP*%
G36*
X130950738Y-118458041D02*
G01*
X130951613Y-118458691D01*
X131405244Y-118829746D01*
X131409478Y-118837635D01*
X131406892Y-118846209D01*
X131406109Y-118847074D01*
X131150598Y-119102585D01*
X131142325Y-119106012D01*
X131139345Y-119105626D01*
X130727085Y-118997031D01*
X130719957Y-118991610D01*
X130718584Y-118983466D01*
X130747115Y-118837932D01*
X130773838Y-118701612D01*
X130775611Y-118697334D01*
X130934500Y-118461215D01*
X130941961Y-118456265D01*
X130950738Y-118458041D01*
G37*
%TD.AperFunction*%
%TD*%
%TA.AperFunction,Conductor*%
%TO.N,/VectorModulator3/QBBP*%
G36*
X138365854Y-123434761D02*
G01*
X138370773Y-123442136D01*
X138427530Y-123722680D01*
X138427530Y-123727320D01*
X138370773Y-124007863D01*
X138365773Y-124015292D01*
X138357081Y-124017030D01*
X137842240Y-123917334D01*
X137834769Y-123912396D01*
X137832764Y-123905847D01*
X137832764Y-123544152D01*
X137836191Y-123535879D01*
X137842240Y-123532665D01*
X138357083Y-123432969D01*
X138365854Y-123434761D01*
G37*
%TD.AperFunction*%
%TD*%
%TA.AperFunction,Conductor*%
%TO.N,/VectorModulator4/QBBP*%
G36*
X152907760Y-136582665D02*
G01*
X152915231Y-136587603D01*
X152917236Y-136594152D01*
X152917236Y-136955847D01*
X152913809Y-136964120D01*
X152907760Y-136967334D01*
X152392918Y-137067030D01*
X152384145Y-137065238D01*
X152379226Y-137057863D01*
X152322469Y-136777320D01*
X152322469Y-136772680D01*
X152379226Y-136492136D01*
X152384226Y-136484707D01*
X152392916Y-136482969D01*
X152907760Y-136582665D01*
G37*
%TD.AperFunction*%
%TD*%
%TA.AperFunction,Conductor*%
%TO.N,/VectorModulator4/QBBP*%
G36*
X159610654Y-141394373D02*
G01*
X160022914Y-141502968D01*
X160030042Y-141508389D01*
X160031415Y-141516533D01*
X159976161Y-141798386D01*
X159974387Y-141802667D01*
X159815500Y-142038783D01*
X159808038Y-142043734D01*
X159799261Y-142041958D01*
X159798385Y-142041307D01*
X159710028Y-141969034D01*
X159344754Y-141670252D01*
X159340521Y-141662364D01*
X159343107Y-141653790D01*
X159343880Y-141652935D01*
X159599402Y-141397413D01*
X159607674Y-141393987D01*
X159610654Y-141394373D01*
G37*
%TD.AperFunction*%
%TD*%
%TA.AperFunction,Conductor*%
%TO.N,/VectorModulator4/QBBP*%
G36*
X152907760Y-136582665D02*
G01*
X152915231Y-136587603D01*
X152917236Y-136594152D01*
X152917236Y-136955847D01*
X152913809Y-136964120D01*
X152907760Y-136967334D01*
X152392918Y-137067030D01*
X152384145Y-137065238D01*
X152379226Y-137057863D01*
X152322469Y-136777320D01*
X152322469Y-136772680D01*
X152379226Y-136492136D01*
X152384226Y-136484707D01*
X152392916Y-136482969D01*
X152907760Y-136582665D01*
G37*
%TD.AperFunction*%
%TD*%
%TA.AperFunction,Conductor*%
%TO.N,/VectorModulator3/IBBN*%
G36*
X134866399Y-126456804D02*
G01*
X134873870Y-126461742D01*
X134875875Y-126468291D01*
X134875875Y-126829986D01*
X134872448Y-126838259D01*
X134866399Y-126841473D01*
X134351557Y-126941169D01*
X134342784Y-126939377D01*
X134337865Y-126932002D01*
X134281108Y-126651459D01*
X134281108Y-126646819D01*
X134337865Y-126366275D01*
X134342865Y-126358846D01*
X134351555Y-126357108D01*
X134866399Y-126456804D01*
G37*
%TD.AperFunction*%
%TD*%
%TA.AperFunction,Conductor*%
%TO.N,/VectorModulator3/IBBN*%
G36*
X136698435Y-119044943D02*
G01*
X136991988Y-119479486D01*
X136993780Y-119488259D01*
X136990566Y-119494308D01*
X136734808Y-119750066D01*
X136726535Y-119753493D01*
X136719986Y-119751488D01*
X136285443Y-119457935D01*
X136280505Y-119450464D01*
X136282242Y-119441774D01*
X136440485Y-119203263D01*
X136443763Y-119199985D01*
X136682274Y-119041742D01*
X136691060Y-119040024D01*
X136698435Y-119044943D01*
G37*
%TD.AperFunction*%
%TD*%
%TA.AperFunction,Conductor*%
%TO.N,/VectorModulator3/QBBN*%
G36*
X133984760Y-125107665D02*
G01*
X133992231Y-125112603D01*
X133994236Y-125119152D01*
X133994236Y-125480847D01*
X133990809Y-125489120D01*
X133984760Y-125492334D01*
X133469918Y-125592030D01*
X133461145Y-125590238D01*
X133456226Y-125582863D01*
X133399469Y-125302320D01*
X133399469Y-125297680D01*
X133456226Y-125017136D01*
X133461226Y-125009707D01*
X133469916Y-125007969D01*
X133984760Y-125107665D01*
G37*
%TD.AperFunction*%
%TD*%
%TA.AperFunction,Conductor*%
%TO.N,/VectorModulator3/QBBN*%
G36*
X138365854Y-125009761D02*
G01*
X138370773Y-125017136D01*
X138427530Y-125297680D01*
X138427530Y-125302320D01*
X138370773Y-125582863D01*
X138365773Y-125590292D01*
X138357081Y-125592030D01*
X137842240Y-125492334D01*
X137834769Y-125487396D01*
X137832764Y-125480847D01*
X137832764Y-125119152D01*
X137836191Y-125110879D01*
X137842240Y-125107665D01*
X138357083Y-125007969D01*
X138365854Y-125009761D01*
G37*
%TD.AperFunction*%
%TD*%
%TA.AperFunction,Conductor*%
%TO.N,/VectorModulator3/QBBN*%
G36*
X131111078Y-119554457D02*
G01*
X131118507Y-119559457D01*
X131120245Y-119568149D01*
X131020550Y-120082991D01*
X131015612Y-120090462D01*
X131009063Y-120092467D01*
X130647367Y-120092467D01*
X130639094Y-120089040D01*
X130635880Y-120082991D01*
X130536184Y-119568147D01*
X130537976Y-119559376D01*
X130545350Y-119554457D01*
X130825897Y-119497700D01*
X130830533Y-119497700D01*
X131111078Y-119554457D01*
G37*
%TD.AperFunction*%
%TD*%
%TA.AperFunction,Conductor*%
%TO.N,/VectorModulator4/IBBN*%
G36*
X154446475Y-140707191D02*
G01*
X154449441Y-140712215D01*
X154504707Y-140903551D01*
X154598212Y-141227275D01*
X154597216Y-141236174D01*
X154590219Y-141241762D01*
X154589292Y-141241990D01*
X154309820Y-141298530D01*
X154305180Y-141298530D01*
X154023623Y-141241568D01*
X154016194Y-141236568D01*
X154014299Y-141228955D01*
X154064961Y-140714317D01*
X154069182Y-140706420D01*
X154076605Y-140703764D01*
X154438202Y-140703764D01*
X154446475Y-140707191D01*
G37*
%TD.AperFunction*%
%TD*%
%TA.AperFunction,Conductor*%
%TO.N,/VectorModulator4/IBBN*%
G36*
X133633705Y-127808443D02*
G01*
X133641594Y-127812679D01*
X133644236Y-127820085D01*
X133644236Y-128181685D01*
X133640809Y-128189958D01*
X133635763Y-128192931D01*
X133120708Y-128340740D01*
X133111811Y-128339728D01*
X133106235Y-128332721D01*
X133106018Y-128331835D01*
X133049469Y-128052318D01*
X133049469Y-128047680D01*
X133095514Y-127820085D01*
X133106427Y-127766141D01*
X133111427Y-127758713D01*
X133119060Y-127756820D01*
X133633705Y-127808443D01*
G37*
%TD.AperFunction*%
%TD*%
%TA.AperFunction,Conductor*%
%TO.N,/VectorModulator4/QBBN*%
G36*
X151961655Y-134787509D02*
G01*
X152371142Y-134902839D01*
X152378176Y-134908380D01*
X152379451Y-134916352D01*
X152324161Y-135198386D01*
X152322387Y-135202667D01*
X152163586Y-135438656D01*
X152156124Y-135443607D01*
X152147347Y-135441831D01*
X152146365Y-135441092D01*
X152040740Y-135352589D01*
X151695443Y-135063263D01*
X151691303Y-135055324D01*
X151693990Y-135046782D01*
X151694674Y-135046034D01*
X151950211Y-134790497D01*
X151958483Y-134787071D01*
X151961655Y-134787509D01*
G37*
%TD.AperFunction*%
%TD*%
%TA.AperFunction,Conductor*%
%TO.N,/VectorModulator4/QBBN*%
G36*
X134584760Y-127157665D02*
G01*
X134592231Y-127162603D01*
X134594236Y-127169152D01*
X134594236Y-127530847D01*
X134590809Y-127539120D01*
X134584760Y-127542334D01*
X134069918Y-127642030D01*
X134061145Y-127640238D01*
X134056226Y-127632863D01*
X133999469Y-127352320D01*
X133999469Y-127347680D01*
X134056226Y-127067136D01*
X134061226Y-127059707D01*
X134069916Y-127057969D01*
X134584760Y-127157665D01*
G37*
%TD.AperFunction*%
%TD*%
%TA.AperFunction,Conductor*%
%TO.N,/VectorModulator4/QBBN*%
G36*
X160110906Y-140410960D02*
G01*
X160114120Y-140417009D01*
X160213815Y-140931850D01*
X160212023Y-140940623D01*
X160204648Y-140945542D01*
X159924105Y-141002299D01*
X159919465Y-141002299D01*
X159638921Y-140945542D01*
X159631492Y-140940542D01*
X159629754Y-140931852D01*
X159729450Y-140417008D01*
X159734388Y-140409538D01*
X159740937Y-140407533D01*
X160102633Y-140407533D01*
X160110906Y-140410960D01*
G37*
%TD.AperFunction*%
%TD*%
%TA.AperFunction,Conductor*%
%TO.N,/VectorModulator4/QBBN*%
G36*
X152907760Y-135007665D02*
G01*
X152915231Y-135012603D01*
X152917236Y-135019152D01*
X152917236Y-135380847D01*
X152913809Y-135389120D01*
X152907760Y-135392334D01*
X152392918Y-135492030D01*
X152384145Y-135490238D01*
X152379226Y-135482863D01*
X152322469Y-135202320D01*
X152322469Y-135197680D01*
X152379226Y-134917136D01*
X152384226Y-134909707D01*
X152392916Y-134907969D01*
X152907760Y-135007665D01*
G37*
%TD.AperFunction*%
%TD*%
%TA.AperFunction,Conductor*%
%TO.N,/VectorModulator4/QBBN*%
G36*
X152907760Y-135007665D02*
G01*
X152915231Y-135012603D01*
X152917236Y-135019152D01*
X152917236Y-135380847D01*
X152913809Y-135389120D01*
X152907760Y-135392334D01*
X152392918Y-135492030D01*
X152384145Y-135490238D01*
X152379226Y-135482863D01*
X152322469Y-135202320D01*
X152322469Y-135197680D01*
X152379226Y-134917136D01*
X152384226Y-134909707D01*
X152392916Y-134907969D01*
X152907760Y-135007665D01*
G37*
%TD.AperFunction*%
%TD*%
%TA.AperFunction,Conductor*%
%TO.N,VCC2*%
G36*
X147919296Y-131479582D02*
G01*
X148212849Y-131914125D01*
X148214641Y-131922898D01*
X148211427Y-131928947D01*
X147955669Y-132184705D01*
X147947396Y-132188132D01*
X147940847Y-132186127D01*
X147506304Y-131892574D01*
X147501366Y-131885103D01*
X147503103Y-131876413D01*
X147661346Y-131637902D01*
X147664624Y-131634624D01*
X147903135Y-131476381D01*
X147911921Y-131474663D01*
X147919296Y-131479582D01*
G37*
%TD.AperFunction*%
%TD*%
%TA.AperFunction,Conductor*%
%TO.N,VCC2*%
G36*
X135482863Y-105631226D02*
G01*
X135490292Y-105636226D01*
X135492030Y-105644918D01*
X135392335Y-106159760D01*
X135387397Y-106167231D01*
X135380848Y-106169236D01*
X135019152Y-106169236D01*
X135010879Y-106165809D01*
X135007665Y-106159760D01*
X134907969Y-105644916D01*
X134909761Y-105636145D01*
X134917135Y-105631226D01*
X135197682Y-105574469D01*
X135202318Y-105574469D01*
X135482863Y-105631226D01*
G37*
%TD.AperFunction*%
%TD*%
%TA.AperFunction,Conductor*%
%TO.N,VCC2*%
G36*
X135389121Y-115313002D02*
G01*
X135392335Y-115319051D01*
X135492030Y-115833892D01*
X135490238Y-115842665D01*
X135482863Y-115847584D01*
X135202320Y-115904341D01*
X135197680Y-115904341D01*
X134917136Y-115847584D01*
X134909707Y-115842584D01*
X134907969Y-115833894D01*
X135007665Y-115319050D01*
X135012603Y-115311580D01*
X135019152Y-115309575D01*
X135380848Y-115309575D01*
X135389121Y-115313002D01*
G37*
%TD.AperFunction*%
%TD*%
%TA.AperFunction,Conductor*%
%TO.N,VCC2*%
G36*
X154862843Y-139410585D02*
G01*
X154868709Y-139417351D01*
X154869080Y-139418745D01*
X154925243Y-139698397D01*
X154925241Y-139703015D01*
X154868984Y-139981792D01*
X154863988Y-139989224D01*
X154855201Y-139990947D01*
X154854275Y-139990720D01*
X154227578Y-139810111D01*
X154220577Y-139804528D01*
X154219576Y-139795629D01*
X154222543Y-139790598D01*
X154475976Y-139537165D01*
X154480546Y-139534341D01*
X154853911Y-139409949D01*
X154862843Y-139410585D01*
G37*
%TD.AperFunction*%
%TD*%
%TA.AperFunction,Conductor*%
%TO.N,VCC2*%
G36*
X135547513Y-120250511D02*
G01*
X135982056Y-120544064D01*
X135986994Y-120551535D01*
X135985256Y-120560227D01*
X135827015Y-120798734D01*
X135823734Y-120802015D01*
X135585227Y-120960256D01*
X135576439Y-120961975D01*
X135569064Y-120957056D01*
X135416026Y-120730516D01*
X135275510Y-120522512D01*
X135273719Y-120513740D01*
X135276931Y-120507693D01*
X135532692Y-120251932D01*
X135540964Y-120248506D01*
X135547513Y-120250511D01*
G37*
%TD.AperFunction*%
%TD*%
%TA.AperFunction,Conductor*%
%TO.N,VCC2*%
G36*
X135482863Y-115960037D02*
G01*
X135490292Y-115965037D01*
X135492030Y-115973729D01*
X135392335Y-116488571D01*
X135387397Y-116496042D01*
X135380848Y-116498047D01*
X135019152Y-116498047D01*
X135010879Y-116494620D01*
X135007665Y-116488571D01*
X134907969Y-115973727D01*
X134909761Y-115964956D01*
X134917135Y-115960037D01*
X135197682Y-115903280D01*
X135202318Y-115903280D01*
X135482863Y-115960037D01*
G37*
%TD.AperFunction*%
%TD*%
%TA.AperFunction,Conductor*%
%TO.N,VCC2*%
G36*
X155180935Y-139542943D02*
G01*
X155474488Y-139977486D01*
X155476280Y-139986259D01*
X155473066Y-139992308D01*
X155217308Y-140248066D01*
X155209035Y-140251493D01*
X155202486Y-140249488D01*
X154767943Y-139955935D01*
X154763005Y-139948464D01*
X154764742Y-139939774D01*
X154922985Y-139701263D01*
X154926263Y-139697985D01*
X155164774Y-139539742D01*
X155173560Y-139538024D01*
X155180935Y-139542943D01*
G37*
%TD.AperFunction*%
%TD*%
M02*
