%TF.GenerationSoftware,KiCad,Pcbnew,9.0.7*%
%TF.CreationDate,2026-03-20T00:16:56-05:00*%
%TF.ProjectId,4phaseshift,34706861-7365-4736-9869-66742e6b6963,rev?*%
%TF.SameCoordinates,Original*%
%TF.FileFunction,Soldermask,Bot*%
%TF.FilePolarity,Negative*%
%FSLAX46Y46*%
G04 Gerber Fmt 4.6, Leading zero omitted, Abs format (unit mm)*
G04 Created by KiCad (PCBNEW 9.0.7) date 2026-03-20 00:16:56*
%MOMM*%
%LPD*%
G01*
G04 APERTURE LIST*
G04 Aperture macros list*
%AMRoundRect*
0 Rectangle with rounded corners*
0 $1 Rounding radius*
0 $2 $3 $4 $5 $6 $7 $8 $9 X,Y pos of 4 corners*
0 Add a 4 corners polygon primitive as box body*
4,1,4,$2,$3,$4,$5,$6,$7,$8,$9,$2,$3,0*
0 Add four circle primitives for the rounded corners*
1,1,$1+$1,$2,$3*
1,1,$1+$1,$4,$5*
1,1,$1+$1,$6,$7*
1,1,$1+$1,$8,$9*
0 Add four rect primitives between the rounded corners*
20,1,$1+$1,$2,$3,$4,$5,0*
20,1,$1+$1,$4,$5,$6,$7,0*
20,1,$1+$1,$6,$7,$8,$9,0*
20,1,$1+$1,$8,$9,$2,$3,0*%
%AMFreePoly0*
4,1,21,0.315321,0.932121,0.330200,0.896200,0.330200,-0.681757,0.974257,-1.276272,0.990559,-1.311570,0.990600,-1.313600,0.990600,-3.904400,0.975721,-3.940321,0.939800,-3.955200,-0.939800,-3.955200,-0.975721,-3.940321,-0.990600,-3.904400,-0.990600,-1.313600,-0.975721,-1.277679,-0.974257,-1.276272,-0.330200,-0.681757,-0.330200,0.896200,-0.315321,0.932121,-0.279400,0.947000,0.279400,0.947000,
0.315321,0.932121,0.315321,0.932121,$1*%
G04 Aperture macros list end*
%ADD10C,0.000000*%
%ADD11RoundRect,0.262900X-0.262900X0.325400X-0.262900X-0.325400X0.262900X-0.325400X0.262900X0.325400X0*%
%ADD12RoundRect,0.400400X0.650400X0.400400X-0.650400X0.400400X-0.650400X-0.400400X0.650400X-0.400400X0*%
%ADD13RoundRect,0.525400X0.525400X1.425400X-0.525400X1.425400X-0.525400X-1.425400X0.525400X-1.425400X0*%
%ADD14RoundRect,0.274190X0.301610X-0.876610X0.301610X0.876610X-0.301610X0.876610X-0.301610X-0.876610X0*%
%ADD15RoundRect,0.275400X0.275400X-0.300400X0.275400X0.300400X-0.275400X0.300400X-0.275400X-0.300400X0*%
%ADD16RoundRect,0.262900X0.275400X0.262900X-0.275400X0.262900X-0.275400X-0.262900X0.275400X-0.262900X0*%
%ADD17RoundRect,0.175400X0.175400X-0.850400X0.175400X0.850400X-0.175400X0.850400X-0.175400X-0.850400X0*%
%ADD18RoundRect,0.175400X-0.175400X0.850400X-0.175400X-0.850400X0.175400X-0.850400X0.175400X0.850400X0*%
%ADD19RoundRect,0.125400X0.083085X0.260427X-0.260427X-0.083085X-0.083085X-0.260427X0.260427X0.083085X0*%
%ADD20RoundRect,0.075400X0.035355X0.141987X-0.141987X-0.035355X-0.035355X-0.141987X0.141987X0.035355X0*%
%ADD21RoundRect,0.274190X0.833127X-0.406586X-0.406586X0.833127X-0.833127X0.406586X0.406586X-0.833127X0*%
%ADD22RoundRect,0.275400X0.407152X-0.017678X-0.017678X0.407152X-0.407152X0.017678X0.017678X-0.407152X0*%
%ADD23RoundRect,0.262900X0.325400X0.262900X-0.325400X0.262900X-0.325400X-0.262900X0.325400X-0.262900X0*%
%ADD24RoundRect,0.274190X-0.301610X0.876610X-0.301610X-0.876610X0.301610X-0.876610X0.301610X0.876610X0*%
%ADD25RoundRect,0.275400X-0.275400X0.300400X-0.275400X-0.300400X0.275400X-0.300400X0.275400X0.300400X0*%
%ADD26RoundRect,0.262900X-0.275400X-0.262900X0.275400X-0.262900X0.275400X0.262900X-0.275400X0.262900X0*%
%ADD27RoundRect,0.262900X0.262900X-0.325400X0.262900X0.325400X-0.262900X0.325400X-0.262900X-0.325400X0*%
%ADD28RoundRect,0.125400X-0.242900X-0.125400X0.242900X-0.125400X0.242900X0.125400X-0.242900X0.125400X0*%
%ADD29RoundRect,0.050800X-0.840000X-0.840000X0.840000X-0.840000X0.840000X0.840000X-0.840000X0.840000X0*%
%ADD30RoundRect,0.087900X-0.087900X-0.380400X0.087900X-0.380400X0.087900X0.380400X-0.087900X0.380400X0*%
%ADD31RoundRect,0.087900X-0.380400X-0.087900X0.380400X-0.087900X0.380400X0.087900X-0.380400X0.087900X0*%
%ADD32RoundRect,0.185400X0.185400X-0.247900X0.185400X0.247900X-0.185400X0.247900X-0.185400X-0.247900X0*%
%ADD33RoundRect,0.125400X0.242900X0.125400X-0.242900X0.125400X-0.242900X-0.125400X0.242900X-0.125400X0*%
%ADD34RoundRect,0.075400X0.125400X0.075400X-0.125400X0.075400X-0.125400X-0.075400X0.125400X-0.075400X0*%
%ADD35RoundRect,0.125400X-0.125400X0.242900X-0.125400X-0.242900X0.125400X-0.242900X0.125400X0.242900X0*%
%ADD36C,1.801600*%
%ADD37RoundRect,0.050800X0.850000X0.850000X-0.850000X0.850000X-0.850000X-0.850000X0.850000X-0.850000X0*%
%ADD38RoundRect,0.262900X0.262900X-0.275400X0.262900X0.275400X-0.262900X0.275400X-0.262900X-0.275400X0*%
%ADD39RoundRect,0.050800X1.150000X-1.150000X1.150000X1.150000X-1.150000X1.150000X-1.150000X-1.150000X0*%
%ADD40RoundRect,0.087900X0.400400X-0.087900X0.400400X0.087900X-0.400400X0.087900X-0.400400X-0.087900X0*%
%ADD41RoundRect,0.087900X0.087900X-0.400400X0.087900X0.400400X-0.087900X0.400400X-0.087900X-0.400400X0*%
%ADD42RoundRect,0.050800X0.698500X-0.279400X0.698500X0.279400X-0.698500X0.279400X-0.698500X-0.279400X0*%
%ADD43FreePoly0,90.000000*%
%ADD44RoundRect,0.185400X-0.185400X0.247900X-0.185400X-0.247900X0.185400X-0.247900X0.185400X0.247900X0*%
%ADD45RoundRect,0.125400X0.125400X-0.242900X0.125400X0.242900X-0.125400X0.242900X-0.125400X-0.242900X0*%
%ADD46RoundRect,0.075400X-0.125400X-0.075400X0.125400X-0.075400X0.125400X0.075400X-0.125400X0.075400X0*%
%ADD47C,1.541600*%
%ADD48RoundRect,0.050800X-0.698500X0.279400X-0.698500X-0.279400X0.698500X-0.279400X0.698500X0.279400X0*%
%ADD49FreePoly0,270.000000*%
%ADD50RoundRect,0.050800X0.750000X-1.000000X0.750000X1.000000X-0.750000X1.000000X-0.750000X-1.000000X0*%
%ADD51RoundRect,0.050800X0.800000X-0.800000X0.800000X0.800000X-0.800000X0.800000X-0.800000X-0.800000X0*%
%ADD52RoundRect,0.050800X1.300000X-0.800000X1.300000X0.800000X-1.300000X0.800000X-1.300000X-0.800000X0*%
%ADD53RoundRect,0.050800X-0.750000X1.000000X-0.750000X-1.000000X0.750000X-1.000000X0.750000X1.000000X0*%
%ADD54RoundRect,0.050800X-0.800000X0.800000X-0.800000X-0.800000X0.800000X-0.800000X0.800000X0.800000X0*%
%ADD55RoundRect,0.050800X-1.300000X0.800000X-1.300000X-0.800000X1.300000X-0.800000X1.300000X0.800000X0*%
%ADD56RoundRect,0.274190X0.406586X0.833127X-0.833127X-0.406586X-0.406586X-0.833127X0.833127X0.406586X0*%
%ADD57RoundRect,0.275400X0.017678X0.407152X-0.407152X-0.017678X-0.017678X-0.407152X0.407152X0.017678X0*%
%ADD58RoundRect,0.125400X0.260427X-0.083085X-0.083085X0.260427X-0.260427X0.083085X0.083085X-0.260427X0*%
%ADD59RoundRect,0.075400X0.141987X-0.035355X-0.035355X0.141987X-0.141987X0.035355X0.035355X-0.141987X0*%
%ADD60RoundRect,0.050800X-1.150000X1.150000X-1.150000X-1.150000X1.150000X-1.150000X1.150000X1.150000X0*%
%ADD61RoundRect,0.087900X-0.400400X0.087900X-0.400400X-0.087900X0.400400X-0.087900X0.400400X0.087900X0*%
%ADD62RoundRect,0.087900X-0.087900X0.400400X-0.087900X-0.400400X0.087900X-0.400400X0.087900X0.400400X0*%
G04 APERTURE END LIST*
%TO.C,J9*%
G36*
X133965001Y-104170001D02*
G01*
X132085001Y-104170001D01*
X132085001Y-102080001D01*
X133965001Y-102080001D01*
X133965001Y-104170001D01*
G37*
D10*
%TO.C,J1*%
G36*
X141428840Y-158149480D02*
G01*
X140099480Y-159478840D01*
X138621626Y-158000987D01*
X139950987Y-156671626D01*
X141428840Y-158149480D01*
G37*
%TO.C,J10*%
G36*
X156784999Y-156330000D02*
G01*
X158664999Y-156330000D01*
X158664999Y-158420000D01*
X156784999Y-158420000D01*
X156784999Y-156330000D01*
G37*
%TO.C,J4*%
G36*
X143818251Y-135158596D02*
G01*
X142340398Y-136636450D01*
X141011037Y-135307089D01*
X142488891Y-133829236D01*
X143818251Y-135158596D01*
G37*
%TO.C,J7*%
G36*
X103715001Y-104170001D02*
G01*
X101835001Y-104170001D01*
X101835001Y-102080001D01*
X103715001Y-102080001D01*
X103715001Y-104170001D01*
G37*
%TO.C,J8*%
G36*
X126534999Y-156330000D02*
G01*
X128414999Y-156330000D01*
X128414999Y-158420000D01*
X126534999Y-158420000D01*
X126534999Y-156330000D01*
G37*
%TO.C,J3*%
G36*
X113678840Y-135150520D02*
G01*
X112200987Y-136628374D01*
X110871626Y-135299013D01*
X112349480Y-133821160D01*
X113678840Y-135150520D01*
G37*
%TD*%
D11*
%TO.C,C53*%
X136325001Y-104912501D03*
X136325001Y-103187501D03*
%TD*%
D12*
%TO.C,U1*%
X108050000Y-167884999D03*
D13*
X101750000Y-165584999D03*
D12*
X108050000Y-165584999D03*
X108050000Y-163284999D03*
%TD*%
D14*
%TO.C,J9*%
X134500001Y-103180001D03*
X131550001Y-103180001D03*
D15*
X133025001Y-104705001D03*
%TD*%
D16*
%TO.C,R2*%
X110187500Y-163999999D03*
X112012500Y-163999999D03*
%TD*%
D17*
%TO.C,U12*%
X121230000Y-139000001D03*
X119960000Y-139000001D03*
X118690000Y-139000001D03*
X117420000Y-139000001D03*
X117420000Y-143950001D03*
X118690000Y-143950001D03*
X119960000Y-143950001D03*
X121230000Y-143950001D03*
%TD*%
D18*
%TO.C,U10*%
X109020001Y-121499999D03*
X110290001Y-121499999D03*
X111560001Y-121499999D03*
X112830001Y-121499999D03*
X112830001Y-116549999D03*
X111560001Y-116549999D03*
X110290001Y-116549999D03*
X109020001Y-116549999D03*
%TD*%
D19*
%TO.C,C10*%
X114511854Y-132988146D03*
D20*
X115160624Y-132339376D03*
%TD*%
D16*
%TO.C,R3*%
X115937500Y-121600000D03*
X117762500Y-121600000D03*
%TD*%
D21*
%TO.C,J1*%
X141107107Y-157071142D03*
X139021142Y-159157107D03*
D22*
X141142462Y-159192462D03*
%TD*%
D23*
%TO.C,C9*%
X124237500Y-167000000D03*
X125962500Y-167000000D03*
%TD*%
D24*
%TO.C,J10*%
X156249999Y-157320000D03*
X159199999Y-157320000D03*
D25*
X157724999Y-155795000D03*
%TD*%
D11*
%TO.C,C27*%
X105675001Y-125212499D03*
X105675001Y-123487499D03*
%TD*%
%TO.C,C15*%
X107651598Y-104915599D03*
X107651598Y-103190599D03*
%TD*%
D23*
%TO.C,C1*%
X110237500Y-168500000D03*
X111962500Y-168500000D03*
%TD*%
D26*
%TO.C,R11*%
X121037500Y-147594999D03*
X119212500Y-147594999D03*
%TD*%
D27*
%TO.C,C67*%
X152848402Y-155584401D03*
X152848402Y-157309401D03*
%TD*%
D28*
%TO.C,C21*%
X144036310Y-162175000D03*
X143221310Y-162175000D03*
%TD*%
D29*
%TO.C,U7*%
X130300000Y-126900000D03*
D30*
X129550000Y-128357500D03*
X130050000Y-128357500D03*
X130550000Y-128357500D03*
X131050000Y-128357500D03*
D31*
X131757500Y-127650000D03*
X131757500Y-127150000D03*
X131757500Y-126650000D03*
X131757500Y-126150000D03*
D30*
X131050000Y-125442500D03*
X130550000Y-125442500D03*
X130050000Y-125442500D03*
X129550000Y-125442500D03*
D31*
X128842500Y-126150000D03*
X128842500Y-126650000D03*
X128842500Y-127150000D03*
X128842500Y-127650000D03*
%TD*%
D32*
%TO.C,L5*%
X149949999Y-154002500D03*
X149949999Y-155147500D03*
%TD*%
D11*
%TO.C,C44*%
X137525001Y-121787499D03*
X137525001Y-120062499D03*
%TD*%
D33*
%TO.C,C51*%
X133017500Y-114750001D03*
D34*
X133935000Y-114750001D03*
%TD*%
D35*
%TO.C,C28*%
X103700001Y-123432499D03*
X103700001Y-122617499D03*
%TD*%
%TO.C,C39*%
X115125000Y-151997501D03*
X115125000Y-151182501D03*
%TD*%
D11*
%TO.C,C24*%
X105575000Y-114662501D03*
X105575000Y-112937501D03*
%TD*%
D27*
%TO.C,C71*%
X115900000Y-138937500D03*
X115900000Y-140662500D03*
%TD*%
D26*
%TO.C,R13*%
X141287500Y-114465002D03*
X139462500Y-114465002D03*
%TD*%
D11*
%TO.C,C35*%
X123075000Y-147562500D03*
X123075000Y-145837500D03*
%TD*%
D27*
%TO.C,C18*%
X141800000Y-167212500D03*
X141800000Y-168937500D03*
%TD*%
D16*
%TO.C,R8*%
X109212501Y-123725000D03*
X111037501Y-123725000D03*
%TD*%
D27*
%TO.C,C41*%
X122598402Y-155584401D03*
X122598402Y-157309401D03*
%TD*%
D36*
%TO.C,J2*%
X128200000Y-122830001D03*
X128200000Y-120290001D03*
X128200000Y-117750001D03*
X128200000Y-115210001D03*
D37*
X128200000Y-112670001D03*
%TD*%
D26*
%TO.C,R19*%
X151287500Y-147594999D03*
X149462500Y-147594999D03*
%TD*%
D23*
%TO.C,C2*%
X110237500Y-165499999D03*
X111962500Y-165499999D03*
%TD*%
D18*
%TO.C,U15*%
X139270001Y-121499999D03*
X140540001Y-121499999D03*
X141810001Y-121499999D03*
X143080001Y-121499999D03*
X143080001Y-116549999D03*
X141810001Y-116549999D03*
X140540001Y-116549999D03*
X139270001Y-116549999D03*
%TD*%
D19*
%TO.C,C11*%
X144759341Y-132888146D03*
D20*
X145408111Y-132239376D03*
%TD*%
D33*
%TO.C,C29*%
X102767500Y-114750001D03*
D34*
X103685000Y-114750001D03*
%TD*%
D26*
%TO.C,R22*%
X125462500Y-127300000D03*
X123637500Y-127300000D03*
%TD*%
D38*
%TO.C,R21*%
X125450000Y-123837500D03*
X125450000Y-125662500D03*
%TD*%
D11*
%TO.C,C70*%
X114350001Y-121562500D03*
X114350001Y-119837500D03*
%TD*%
D39*
%TO.C,U16*%
X133700000Y-118924999D03*
D40*
X135637500Y-120174999D03*
X135637500Y-119674999D03*
X135637500Y-119174999D03*
X135637500Y-118674999D03*
X135637500Y-118174999D03*
X135637500Y-117674999D03*
D41*
X134950000Y-116987499D03*
X134450000Y-116987499D03*
X133950000Y-116987499D03*
X133450000Y-116987499D03*
X132950000Y-116987499D03*
X132450000Y-116987499D03*
D40*
X131762500Y-117674999D03*
X131762500Y-118174999D03*
X131762500Y-118674999D03*
X131762500Y-119174999D03*
X131762500Y-119674999D03*
X131762500Y-120174999D03*
D41*
X132450000Y-120862499D03*
X132950000Y-120862499D03*
X133450000Y-120862499D03*
X133950000Y-120862499D03*
X134450000Y-120862499D03*
X134950000Y-120862499D03*
%TD*%
D35*
%TO.C,C56*%
X133950000Y-113725001D03*
X133950000Y-112910001D03*
%TD*%
D42*
%TO.C,U8*%
X106331101Y-107000001D03*
D43*
X106528801Y-108500001D03*
D42*
X106331101Y-110000001D03*
%TD*%
D27*
%TO.C,C73*%
X146150000Y-138937500D03*
X146150000Y-140662500D03*
%TD*%
D16*
%TO.C,R16*%
X139462501Y-123725000D03*
X141287501Y-123725000D03*
%TD*%
D44*
%TO.C,L1*%
X110550001Y-106497500D03*
X110550001Y-105352500D03*
%TD*%
D11*
%TO.C,C22*%
X107275001Y-121787499D03*
X107275001Y-120062499D03*
%TD*%
D16*
%TO.C,R15*%
X139462500Y-112905002D03*
X141287500Y-112905002D03*
%TD*%
D45*
%TO.C,C43*%
X126550000Y-146775000D03*
X126550000Y-147590000D03*
%TD*%
D11*
%TO.C,C47*%
X137525001Y-125212499D03*
X137525001Y-123487499D03*
%TD*%
D45*
%TO.C,C63*%
X156800000Y-137067501D03*
X156800000Y-137882501D03*
%TD*%
D11*
%TO.C,C8*%
X156375000Y-163387500D03*
X156375000Y-161662500D03*
%TD*%
D27*
%TO.C,C60*%
X153225000Y-135287501D03*
X153225000Y-137012501D03*
%TD*%
%TO.C,C57*%
X153225000Y-138712501D03*
X153225000Y-140437501D03*
%TD*%
D45*
%TO.C,C37*%
X126550000Y-137067501D03*
X126550000Y-137882501D03*
%TD*%
D16*
%TO.C,R24*%
X124187500Y-164000000D03*
X126012500Y-164000000D03*
%TD*%
%TO.C,R10*%
X119212500Y-135225000D03*
X121037500Y-135225000D03*
%TD*%
D28*
%TO.C,C38*%
X127482500Y-145750000D03*
D46*
X126565000Y-145750000D03*
%TD*%
D35*
%TO.C,C65*%
X145375000Y-151997501D03*
X145375000Y-151182501D03*
%TD*%
D11*
%TO.C,C54*%
X137901598Y-104915599D03*
X137901598Y-103190599D03*
%TD*%
D47*
%TO.C,RV1*%
X158920000Y-167890000D03*
X156380000Y-165350000D03*
X158920000Y-162810000D03*
%TD*%
D33*
%TO.C,C23*%
X101942501Y-122475001D03*
X102757501Y-122475001D03*
%TD*%
D12*
%TO.C,U2*%
X122050000Y-167900000D03*
D13*
X115750000Y-165600000D03*
D12*
X122050000Y-165600000D03*
X122050000Y-163300000D03*
%TD*%
D26*
%TO.C,R1*%
X112012500Y-162499999D03*
X110187500Y-162499999D03*
%TD*%
%TO.C,R6*%
X111037501Y-125275000D03*
X109212501Y-125275000D03*
%TD*%
D27*
%TO.C,C31*%
X122975000Y-138712501D03*
X122975000Y-140437501D03*
%TD*%
D26*
%TO.C,R14*%
X141287501Y-125275000D03*
X139462501Y-125275000D03*
%TD*%
D23*
%TO.C,C6*%
X124237500Y-168500000D03*
X125962500Y-168500000D03*
%TD*%
D27*
%TO.C,C26*%
X107175000Y-112937501D03*
X107175000Y-114662501D03*
%TD*%
D26*
%TO.C,R5*%
X111037500Y-114465002D03*
X109212500Y-114465002D03*
%TD*%
D42*
%TO.C,U17*%
X136581101Y-107000001D03*
D43*
X136778801Y-108500001D03*
D42*
X136581101Y-110000001D03*
%TD*%
D16*
%TO.C,R18*%
X149462500Y-135225000D03*
X151287500Y-135225000D03*
%TD*%
D48*
%TO.C,U9*%
X141597710Y-165175000D03*
D49*
X141400010Y-163675000D03*
D48*
X141597710Y-162175000D03*
%TD*%
D28*
%TO.C,C32*%
X128307499Y-138024999D03*
X127492499Y-138024999D03*
%TD*%
D48*
%TO.C,U14*%
X123918899Y-153500000D03*
D49*
X123721199Y-152000000D03*
D48*
X123918899Y-150500000D03*
%TD*%
D11*
%TO.C,C72*%
X144600001Y-121562500D03*
X144600001Y-119837500D03*
%TD*%
D35*
%TO.C,C50*%
X133950001Y-123432499D03*
X133950001Y-122617499D03*
%TD*%
D27*
%TO.C,C66*%
X154424999Y-155587500D03*
X154424999Y-157312500D03*
%TD*%
D11*
%TO.C,C14*%
X106075001Y-104912501D03*
X106075001Y-103187501D03*
%TD*%
%TO.C,C49*%
X135925001Y-125212499D03*
X135925001Y-123487499D03*
%TD*%
D50*
%TO.C,U3*%
X145825000Y-165275000D03*
D51*
X146875000Y-168375000D03*
D52*
X149875000Y-168375000D03*
D51*
X152875000Y-168375000D03*
D53*
X153925000Y-165275000D03*
D54*
X152875000Y-162175000D03*
D55*
X149875000Y-162175000D03*
D54*
X146875000Y-162175000D03*
%TD*%
D11*
%TO.C,C25*%
X107275001Y-125212499D03*
X107275001Y-123487499D03*
%TD*%
D28*
%TO.C,C58*%
X158557499Y-138024999D03*
X157742499Y-138024999D03*
%TD*%
D27*
%TO.C,C48*%
X137425000Y-112937501D03*
X137425000Y-114662501D03*
%TD*%
%TO.C,C33*%
X124675000Y-145837500D03*
X124675000Y-147562500D03*
%TD*%
D11*
%TO.C,C16*%
X109224999Y-104915600D03*
X109224999Y-103190600D03*
%TD*%
D16*
%TO.C,R17*%
X149462500Y-146034999D03*
X151287500Y-146034999D03*
%TD*%
D26*
%TO.C,R35*%
X144562500Y-140450000D03*
X142737500Y-140450000D03*
%TD*%
D56*
%TO.C,J4*%
X141410553Y-134150969D03*
X143496518Y-136236934D03*
D57*
X143531873Y-134115614D03*
%TD*%
D45*
%TO.C,C69*%
X156800000Y-146775000D03*
X156800000Y-147590000D03*
%TD*%
D39*
%TO.C,U11*%
X103450000Y-118924999D03*
D40*
X105387500Y-120174999D03*
X105387500Y-119674999D03*
X105387500Y-119174999D03*
X105387500Y-118674999D03*
X105387500Y-118174999D03*
X105387500Y-117674999D03*
D41*
X104700000Y-116987499D03*
X104200000Y-116987499D03*
X103700000Y-116987499D03*
X103200000Y-116987499D03*
X102700000Y-116987499D03*
X102200000Y-116987499D03*
D40*
X101512500Y-117674999D03*
X101512500Y-118174999D03*
X101512500Y-118674999D03*
X101512500Y-119174999D03*
X101512500Y-119674999D03*
X101512500Y-120174999D03*
D41*
X102200000Y-120862499D03*
X102700000Y-120862499D03*
X103200000Y-120862499D03*
X103700000Y-120862499D03*
X104200000Y-120862499D03*
X104700000Y-120862499D03*
%TD*%
D58*
%TO.C,C5*%
X143461854Y-161511854D03*
D59*
X144110624Y-162160624D03*
%TD*%
D27*
%TO.C,C42*%
X121025001Y-155584400D03*
X121025001Y-157309400D03*
%TD*%
D37*
%TO.C,VS*%
X130400000Y-168200000D03*
%TD*%
D44*
%TO.C,L4*%
X140800001Y-106497500D03*
X140800001Y-105352500D03*
%TD*%
D26*
%TO.C,R34*%
X144562500Y-138900000D03*
X142737500Y-138900000D03*
%TD*%
D60*
%TO.C,U19*%
X157050000Y-141575001D03*
D61*
X155112500Y-140325001D03*
X155112500Y-140825001D03*
X155112500Y-141325001D03*
X155112500Y-141825001D03*
X155112500Y-142325001D03*
X155112500Y-142825001D03*
D62*
X155800000Y-143512501D03*
X156300000Y-143512501D03*
X156800000Y-143512501D03*
X157300000Y-143512501D03*
X157800000Y-143512501D03*
X158300000Y-143512501D03*
D61*
X158987500Y-142825001D03*
X158987500Y-142325001D03*
X158987500Y-141825001D03*
X158987500Y-141325001D03*
X158987500Y-140825001D03*
X158987500Y-140325001D03*
D62*
X158300000Y-139637501D03*
X157800000Y-139637501D03*
X157300000Y-139637501D03*
X156800000Y-139637501D03*
X156300000Y-139637501D03*
X155800000Y-139637501D03*
%TD*%
D14*
%TO.C,J7*%
X104250001Y-103180001D03*
X101300001Y-103180001D03*
D15*
X102775001Y-104705001D03*
%TD*%
D26*
%TO.C,R20*%
X151287500Y-136775000D03*
X149462500Y-136775000D03*
%TD*%
D60*
%TO.C,U13*%
X126800000Y-141575001D03*
D61*
X124862500Y-140325001D03*
X124862500Y-140825001D03*
X124862500Y-141325001D03*
X124862500Y-141825001D03*
X124862500Y-142325001D03*
X124862500Y-142825001D03*
D62*
X125550000Y-143512501D03*
X126050000Y-143512501D03*
X126550000Y-143512501D03*
X127050000Y-143512501D03*
X127550000Y-143512501D03*
X128050000Y-143512501D03*
D61*
X128737500Y-142825001D03*
X128737500Y-142325001D03*
X128737500Y-141825001D03*
X128737500Y-141325001D03*
X128737500Y-140825001D03*
X128737500Y-140325001D03*
D62*
X128050000Y-139637501D03*
X127550000Y-139637501D03*
X127050000Y-139637501D03*
X126550000Y-139637501D03*
X126050000Y-139637501D03*
X125550000Y-139637501D03*
%TD*%
D45*
%TO.C,C30*%
X115125000Y-108502499D03*
X115125000Y-109317499D03*
%TD*%
D16*
%TO.C,R33*%
X146187500Y-120050000D03*
X148012500Y-120050000D03*
%TD*%
D27*
%TO.C,C68*%
X151275001Y-155584400D03*
X151275001Y-157309400D03*
%TD*%
D48*
%TO.C,U20*%
X154168899Y-153500000D03*
D49*
X153971199Y-152000000D03*
D48*
X154168899Y-150500000D03*
%TD*%
D23*
%TO.C,C7*%
X124237500Y-165500000D03*
X125962500Y-165500000D03*
%TD*%
D32*
%TO.C,L2*%
X137428810Y-165577501D03*
X137428810Y-166722501D03*
%TD*%
D16*
%TO.C,R9*%
X119212500Y-146034999D03*
X121037500Y-146034999D03*
%TD*%
D11*
%TO.C,C46*%
X135825000Y-114662501D03*
X135825000Y-112937501D03*
%TD*%
D27*
%TO.C,C59*%
X154925000Y-145837500D03*
X154925000Y-147562500D03*
%TD*%
%TO.C,C19*%
X140275000Y-167212500D03*
X140275000Y-168937500D03*
%TD*%
D11*
%TO.C,C55*%
X139474999Y-104915600D03*
X139474999Y-103190600D03*
%TD*%
D24*
%TO.C,J8*%
X125999999Y-157320000D03*
X128949999Y-157320000D03*
D25*
X127474999Y-155795000D03*
%TD*%
D27*
%TO.C,C34*%
X122975000Y-135287501D03*
X122975000Y-137012501D03*
%TD*%
D11*
%TO.C,C61*%
X153325000Y-147562500D03*
X153325000Y-145837500D03*
%TD*%
D37*
%TO.C,GND*%
X134200000Y-168200000D03*
%TD*%
D26*
%TO.C,R30*%
X114312500Y-138900000D03*
X112487500Y-138900000D03*
%TD*%
D45*
%TO.C,C52*%
X145375000Y-108502499D03*
X145375000Y-109317499D03*
%TD*%
D17*
%TO.C,U18*%
X151480000Y-139000001D03*
X150210000Y-139000001D03*
X148940000Y-139000001D03*
X147670000Y-139000001D03*
X147670000Y-143950001D03*
X148940000Y-143950001D03*
X150210000Y-143950001D03*
X151480000Y-143950001D03*
%TD*%
D27*
%TO.C,C36*%
X124575000Y-135287501D03*
X124575000Y-137012501D03*
%TD*%
D26*
%TO.C,R12*%
X121037500Y-136775000D03*
X119212500Y-136775000D03*
%TD*%
D33*
%TO.C,C45*%
X132192501Y-122475001D03*
X133007501Y-122475001D03*
%TD*%
D16*
%TO.C,R7*%
X109212500Y-112905002D03*
X111037500Y-112905002D03*
%TD*%
D35*
%TO.C,C17*%
X103700000Y-113725001D03*
X103700000Y-112910001D03*
%TD*%
D26*
%TO.C,R23*%
X126012500Y-162500000D03*
X124187500Y-162500000D03*
%TD*%
D23*
%TO.C,C3*%
X110237500Y-166999998D03*
X111962500Y-166999998D03*
%TD*%
D27*
%TO.C,C62*%
X154825000Y-135287501D03*
X154825000Y-137012501D03*
%TD*%
%TO.C,C40*%
X124174999Y-155587500D03*
X124174999Y-157312500D03*
%TD*%
D56*
%TO.C,J3*%
X111271142Y-134142893D03*
X113357107Y-136228858D03*
D57*
X113392462Y-134107538D03*
%TD*%
D11*
%TO.C,C4*%
X123950000Y-125612500D03*
X123950000Y-123887500D03*
%TD*%
D28*
%TO.C,C64*%
X157732500Y-145750000D03*
D46*
X156815000Y-145750000D03*
%TD*%
D32*
%TO.C,L3*%
X119699999Y-154002500D03*
X119699999Y-155147500D03*
%TD*%
D16*
%TO.C,R4*%
X115937500Y-120050000D03*
X117762500Y-120050000D03*
%TD*%
D26*
%TO.C,R31*%
X114312500Y-140450000D03*
X112487500Y-140450000D03*
%TD*%
D16*
%TO.C,R32*%
X146187500Y-121600000D03*
X148012500Y-121600000D03*
%TD*%
D27*
%TO.C,C20*%
X138755000Y-167212500D03*
X138755000Y-168937500D03*
%TD*%
M02*
