M48
; DRILL file {KiCad 9.0.7} date 2026-03-20T00:16:46-0500
; FORMAT={-:-/ absolute / metric / decimal}
; #@! TF.CreationDate,2026-03-20T00:16:46-05:00
; #@! TF.GenerationSoftware,Kicad,Pcbnew,9.0.7
; #@! TF.FileFunction,Plated,1,4,PTH
FMAT,2
METRIC
; #@! TA.AperFunction,Plated,PTH,ViaDrill
T1C0.300
; #@! TA.AperFunction,Plated,PTH,ComponentDrill
T2C0.300
; #@! TA.AperFunction,Plated,PTH,ComponentDrill
T3C0.800
; #@! TA.AperFunction,Plated,PTH,ComponentDrill
T4C1.000
%
G90
G05
T1
X100.525Y-118.7
X100.578Y-119.498
X101.0Y-107.0
X101.0Y-125.0
X101.0Y-130.0
X101.0Y-135.0
X101.0Y-140.0
X101.0Y-145.0
X101.0Y-150.0
X101.0Y-155.0
X101.0Y-159.0
X104.0Y-108.0
X104.95Y-105.575
X104.95Y-115.904
X105.575Y-120.8
X106.192Y-119.202
X108.05Y-167.885
X108.177Y-123.725
X108.177Y-125.3
X110.237Y-165.5
X110.237Y-168.5
X111.9Y-161.2
X113.1Y-165.6
X113.1Y-167.0
X113.1Y-168.4
X122.05Y-167.9
X122.073Y-135.2
X122.073Y-136.775
X123.65Y-126.6
X124.057Y-141.298
X124.237Y-168.5
X124.675Y-139.7
X125.172Y-154.797
X125.3Y-144.596
X126.0Y-152.0
X126.6Y-127.218
X126.723Y-127.934
X127.0Y-164.0
X127.1Y-165.6
X127.1Y-167.0
X127.1Y-168.5
X127.65Y-125.95
X128.113Y-128.337
X129.007Y-128.357
X129.672Y-141.002
X129.725Y-141.8
X130.0Y-150.0
X130.3Y-126.9
X130.775Y-118.7
X130.828Y-119.498
X131.7Y-128.357
X133.05Y-128.05
X133.4Y-125.3
X134.0Y-127.35
X134.282Y-126.649
X134.5Y-108.0
X135.0Y-165.0
X135.2Y-105.575
X135.2Y-115.904
X135.825Y-120.8
X136.2Y-169.0
X136.4Y-166.6
X136.442Y-119.202
X137.7Y-169.0
X138.427Y-123.725
X138.427Y-125.3
X143.6Y-169.2
X144.6Y-167.212
X147.663Y-131.637
X149.1Y-155.15
X150.0Y-165.0
X152.323Y-135.2
X152.323Y-136.775
X154.308Y-141.298
X154.925Y-139.7
X155.3Y-154.675
X155.55Y-144.596
X156.5Y-152.0
X159.922Y-141.002
X159.975Y-141.8
X160.5Y-125.5
X160.5Y-130.0
X160.5Y-134.5
T2
X102.6Y-118.075
X102.6Y-118.925
X102.6Y-119.775
X103.45Y-118.075
X103.45Y-118.925
X103.45Y-119.775
X104.3Y-118.075
X104.3Y-118.925
X104.3Y-119.775
X125.95Y-140.725
X125.95Y-141.575
X125.95Y-142.425
X126.8Y-140.725
X126.8Y-141.575
X126.8Y-142.425
X127.65Y-140.725
X127.65Y-141.575
X127.65Y-142.425
X132.85Y-118.075
X132.85Y-118.925
X132.85Y-119.775
X133.7Y-118.075
X133.7Y-118.925
X133.7Y-119.775
X134.55Y-118.075
X134.55Y-118.925
X134.55Y-119.775
X156.2Y-140.725
X156.2Y-141.575
X156.2Y-142.425
X157.05Y-140.725
X157.05Y-141.575
X157.05Y-142.425
X157.9Y-140.725
X157.9Y-141.575
X157.9Y-142.425
T3
X156.38Y-165.35
X158.92Y-162.81
X158.92Y-167.89
T4
X128.2Y-112.67
X128.2Y-115.21
X128.2Y-117.75
X128.2Y-120.29
X128.2Y-122.83
X130.4Y-168.2
X134.2Y-168.2
M30
