%TF.GenerationSoftware,KiCad,Pcbnew,9.0.7*%
%TF.CreationDate,2026-03-20T00:16:56-05:00*%
%TF.ProjectId,4phaseshift,34706861-7365-4736-9869-66742e6b6963,rev?*%
%TF.SameCoordinates,Original*%
%TF.FileFunction,Paste,Bot*%
%TF.FilePolarity,Positive*%
%FSLAX46Y46*%
G04 Gerber Fmt 4.6, Leading zero omitted, Abs format (unit mm)*
G04 Created by KiCad (PCBNEW 9.0.7) date 2026-03-20 00:16:56*
%MOMM*%
%LPD*%
G01*
G04 APERTURE LIST*
G04 Aperture macros list*
%AMRoundRect*
0 Rectangle with rounded corners*
0 $1 Rounding radius*
0 $2 $3 $4 $5 $6 $7 $8 $9 X,Y pos of 4 corners*
0 Add a 4 corners polygon primitive as box body*
4,1,4,$2,$3,$4,$5,$6,$7,$8,$9,$2,$3,0*
0 Add four circle primitives for the rounded corners*
1,1,$1+$1,$2,$3*
1,1,$1+$1,$4,$5*
1,1,$1+$1,$6,$7*
1,1,$1+$1,$8,$9*
0 Add four rect primitives between the rounded corners*
20,1,$1+$1,$2,$3,$4,$5,0*
20,1,$1+$1,$4,$5,$6,$7,0*
20,1,$1+$1,$6,$7,$8,$9,0*
20,1,$1+$1,$8,$9,$2,$3,0*%
%AMFreePoly0*
4,1,9,0.279400,-0.704000,0.939800,-1.313600,0.939800,-3.904400,-0.939800,-3.904400,-0.939800,-1.313600,-0.279400,-0.704000,-0.279400,0.896200,0.279400,0.896200,0.279400,-0.704000,0.279400,-0.704000,$1*%
G04 Aperture macros list end*
%ADD10C,0.000000*%
%ADD11RoundRect,0.237500X-0.237500X0.300000X-0.237500X-0.300000X0.237500X-0.300000X0.237500X0.300000X0*%
%ADD12RoundRect,0.375000X0.625000X0.375000X-0.625000X0.375000X-0.625000X-0.375000X0.625000X-0.375000X0*%
%ADD13RoundRect,0.500000X0.500000X1.400000X-0.500000X1.400000X-0.500000X-1.400000X0.500000X-1.400000X0*%
%ADD14RoundRect,0.250000X0.275000X-0.850000X0.275000X0.850000X-0.275000X0.850000X-0.275000X-0.850000X0*%
%ADD15RoundRect,0.250000X0.250000X-0.275000X0.250000X0.275000X-0.250000X0.275000X-0.250000X-0.275000X0*%
%ADD16RoundRect,0.237500X0.250000X0.237500X-0.250000X0.237500X-0.250000X-0.237500X0.250000X-0.237500X0*%
%ADD17RoundRect,0.150000X0.150000X-0.825000X0.150000X0.825000X-0.150000X0.825000X-0.150000X-0.825000X0*%
%ADD18RoundRect,0.150000X-0.150000X0.825000X-0.150000X-0.825000X0.150000X-0.825000X0.150000X0.825000X0*%
%ADD19RoundRect,0.090000X0.034648X0.161927X-0.161927X-0.034648X-0.034648X-0.161927X0.161927X0.034648X0*%
%ADD20RoundRect,0.250000X0.795495X-0.406586X-0.406586X0.795495X-0.795495X0.406586X0.406586X-0.795495X0*%
%ADD21RoundRect,0.250000X0.371231X-0.017678X-0.017678X0.371231X-0.371231X0.017678X0.017678X-0.371231X0*%
%ADD22RoundRect,0.237500X0.300000X0.237500X-0.300000X0.237500X-0.300000X-0.237500X0.300000X-0.237500X0*%
%ADD23RoundRect,0.250000X-0.275000X0.850000X-0.275000X-0.850000X0.275000X-0.850000X0.275000X0.850000X0*%
%ADD24RoundRect,0.250000X-0.250000X0.275000X-0.250000X-0.275000X0.250000X-0.275000X0.250000X0.275000X0*%
%ADD25RoundRect,0.237500X-0.250000X-0.237500X0.250000X-0.237500X0.250000X0.237500X-0.250000X0.237500X0*%
%ADD26RoundRect,0.237500X0.237500X-0.300000X0.237500X0.300000X-0.237500X0.300000X-0.237500X-0.300000X0*%
%ADD27RoundRect,0.090000X-0.139000X-0.090000X0.139000X-0.090000X0.139000X0.090000X-0.139000X0.090000X0*%
%ADD28RoundRect,0.062500X-0.062500X-0.355000X0.062500X-0.355000X0.062500X0.355000X-0.062500X0.355000X0*%
%ADD29RoundRect,0.062500X-0.355000X-0.062500X0.355000X-0.062500X0.355000X0.062500X-0.355000X0.062500X0*%
%ADD30RoundRect,0.170000X-0.170000X-0.170000X0.170000X-0.170000X0.170000X0.170000X-0.170000X0.170000X0*%
%ADD31RoundRect,0.160000X0.160000X-0.222500X0.160000X0.222500X-0.160000X0.222500X-0.160000X-0.222500X0*%
%ADD32RoundRect,0.090000X0.139000X0.090000X-0.139000X0.090000X-0.139000X-0.090000X0.139000X-0.090000X0*%
%ADD33RoundRect,0.090000X-0.090000X0.139000X-0.090000X-0.139000X0.090000X-0.139000X0.090000X0.139000X0*%
%ADD34RoundRect,0.237500X0.237500X-0.250000X0.237500X0.250000X-0.237500X0.250000X-0.237500X-0.250000X0*%
%ADD35RoundRect,0.062500X0.375000X-0.062500X0.375000X0.062500X-0.375000X0.062500X-0.375000X-0.062500X0*%
%ADD36RoundRect,0.062500X0.062500X-0.375000X0.062500X0.375000X-0.062500X0.375000X-0.062500X-0.375000X0*%
%ADD37RoundRect,0.240000X0.240000X-0.240000X0.240000X0.240000X-0.240000X0.240000X-0.240000X-0.240000X0*%
%ADD38R,1.397000X0.558800*%
%ADD39FreePoly0,90.000000*%
%ADD40RoundRect,0.160000X-0.160000X0.222500X-0.160000X-0.222500X0.160000X-0.222500X0.160000X0.222500X0*%
%ADD41RoundRect,0.090000X0.090000X-0.139000X0.090000X0.139000X-0.090000X0.139000X-0.090000X-0.139000X0*%
%ADD42FreePoly0,270.000000*%
%ADD43R,1.500000X2.000000*%
%ADD44R,1.600000X1.600000*%
%ADD45R,2.600000X1.600000*%
%ADD46RoundRect,0.250000X0.406586X0.795495X-0.795495X-0.406586X-0.406586X-0.795495X0.795495X0.406586X0*%
%ADD47RoundRect,0.250000X0.017678X0.371231X-0.371231X-0.017678X-0.017678X-0.371231X0.371231X0.017678X0*%
%ADD48RoundRect,0.090000X0.161927X-0.034648X-0.034648X0.161927X-0.161927X0.034648X0.034648X-0.161927X0*%
%ADD49RoundRect,0.062500X-0.375000X0.062500X-0.375000X-0.062500X0.375000X-0.062500X0.375000X0.062500X0*%
%ADD50RoundRect,0.062500X-0.062500X0.375000X-0.062500X-0.375000X0.062500X-0.375000X0.062500X0.375000X0*%
%ADD51RoundRect,0.240000X-0.240000X0.240000X-0.240000X-0.240000X0.240000X-0.240000X0.240000X0.240000X0*%
G04 APERTURE END LIST*
D10*
%TO.C,U8*%
G36*
X110280801Y-109414401D02*
G01*
X107867801Y-109414401D01*
X107232801Y-108779401D01*
X107232801Y-108220601D01*
X107867801Y-107585601D01*
X110280801Y-107585601D01*
X110280801Y-109414401D01*
G37*
%TO.C,U17*%
G36*
X140530801Y-109414401D02*
G01*
X138117801Y-109414401D01*
X137482801Y-108779401D01*
X137482801Y-108220601D01*
X138117801Y-107585601D01*
X140530801Y-107585601D01*
X140530801Y-109414401D01*
G37*
%TO.C,U9*%
G36*
X140696010Y-163395600D02*
G01*
X140696010Y-163954400D01*
X140061010Y-164589400D01*
X137648010Y-164589400D01*
X137648010Y-162760600D01*
X140061010Y-162760600D01*
X140696010Y-163395600D01*
G37*
%TO.C,U14*%
G36*
X123017199Y-151720600D02*
G01*
X123017199Y-152279400D01*
X122382199Y-152914400D01*
X119969199Y-152914400D01*
X119969199Y-151085600D01*
X122382199Y-151085600D01*
X123017199Y-151720600D01*
G37*
%TO.C,U20*%
G36*
X153267199Y-151720600D02*
G01*
X153267199Y-152279400D01*
X152632199Y-152914400D01*
X150219199Y-152914400D01*
X150219199Y-151085600D01*
X152632199Y-151085600D01*
X153267199Y-151720600D01*
G37*
%TD*%
D11*
%TO.C,C53*%
X136325001Y-104912501D03*
X136325001Y-103187501D03*
%TD*%
D12*
%TO.C,U1*%
X108050000Y-167884999D03*
D13*
X101750000Y-165584999D03*
D12*
X108050000Y-165584999D03*
X108050000Y-163284999D03*
%TD*%
D14*
%TO.C,J9*%
X134500001Y-103180001D03*
X131550001Y-103180001D03*
D15*
X133025001Y-104705001D03*
%TD*%
D16*
%TO.C,R2*%
X110187500Y-163999999D03*
X112012500Y-163999999D03*
%TD*%
D17*
%TO.C,U12*%
X121230000Y-139000001D03*
X119960000Y-139000001D03*
X118690000Y-139000001D03*
X117420000Y-139000001D03*
X117420000Y-143950001D03*
X118690000Y-143950001D03*
X119960000Y-143950001D03*
X121230000Y-143950001D03*
%TD*%
D18*
%TO.C,U10*%
X109020001Y-121499999D03*
X110290001Y-121499999D03*
X111560001Y-121499999D03*
X112830001Y-121499999D03*
X112830001Y-116549999D03*
X111560001Y-116549999D03*
X110290001Y-116549999D03*
X109020001Y-116549999D03*
%TD*%
D19*
%TO.C,C10*%
X114494176Y-133005824D03*
%TD*%
D16*
%TO.C,R3*%
X115937500Y-121600000D03*
X117762500Y-121600000D03*
%TD*%
D20*
%TO.C,J1*%
X141107107Y-157071142D03*
X139021142Y-159157107D03*
D21*
X141142462Y-159192462D03*
%TD*%
D22*
%TO.C,C9*%
X124237500Y-167000000D03*
X125962500Y-167000000D03*
%TD*%
D23*
%TO.C,J10*%
X156249999Y-157320000D03*
X159199999Y-157320000D03*
D24*
X157724999Y-155795000D03*
%TD*%
D11*
%TO.C,C27*%
X105675001Y-125212499D03*
X105675001Y-123487499D03*
%TD*%
%TO.C,C15*%
X107651598Y-104915599D03*
X107651598Y-103190599D03*
%TD*%
D22*
%TO.C,C1*%
X110237500Y-168500000D03*
X111962500Y-168500000D03*
%TD*%
D25*
%TO.C,R11*%
X121037500Y-147594999D03*
X119212500Y-147594999D03*
%TD*%
D26*
%TO.C,C67*%
X152848402Y-155584401D03*
X152848402Y-157309401D03*
%TD*%
D27*
%TO.C,C21*%
X144061310Y-162175000D03*
X143196310Y-162175000D03*
%TD*%
D28*
%TO.C,U7*%
X129550000Y-128357500D03*
X130050000Y-128357500D03*
X130550000Y-128357500D03*
X131050000Y-128357500D03*
D29*
X131757500Y-127650000D03*
X131757500Y-127150000D03*
X131757500Y-126650000D03*
X131757500Y-126150000D03*
D28*
X131050000Y-125442500D03*
X130550000Y-125442500D03*
X130050000Y-125442500D03*
X129550000Y-125442500D03*
D29*
X128842500Y-126150000D03*
X128842500Y-126650000D03*
X128842500Y-127150000D03*
X128842500Y-127650000D03*
D30*
X130720000Y-127320000D03*
X130720000Y-126480000D03*
X129880000Y-127320000D03*
X129880000Y-126480000D03*
%TD*%
D31*
%TO.C,L5*%
X149949999Y-154002500D03*
X149949999Y-155147500D03*
%TD*%
D11*
%TO.C,C44*%
X137525001Y-121787499D03*
X137525001Y-120062499D03*
%TD*%
D32*
%TO.C,C51*%
X132992500Y-114750001D03*
%TD*%
D33*
%TO.C,C28*%
X103700001Y-123457499D03*
X103700001Y-122592499D03*
%TD*%
%TO.C,C39*%
X115125000Y-152022501D03*
X115125000Y-151157501D03*
%TD*%
D11*
%TO.C,C24*%
X105575000Y-114662501D03*
X105575000Y-112937501D03*
%TD*%
D26*
%TO.C,C71*%
X115900000Y-138937500D03*
X115900000Y-140662500D03*
%TD*%
D25*
%TO.C,R13*%
X141287500Y-114465002D03*
X139462500Y-114465002D03*
%TD*%
D11*
%TO.C,C35*%
X123075000Y-147562500D03*
X123075000Y-145837500D03*
%TD*%
D26*
%TO.C,C18*%
X141800000Y-167212500D03*
X141800000Y-168937500D03*
%TD*%
D16*
%TO.C,R8*%
X109212501Y-123725000D03*
X111037501Y-123725000D03*
%TD*%
D26*
%TO.C,C41*%
X122598402Y-155584401D03*
X122598402Y-157309401D03*
%TD*%
D25*
%TO.C,R19*%
X151287500Y-147594999D03*
X149462500Y-147594999D03*
%TD*%
D22*
%TO.C,C2*%
X110237500Y-165499999D03*
X111962500Y-165499999D03*
%TD*%
D18*
%TO.C,U15*%
X139270001Y-121499999D03*
X140540001Y-121499999D03*
X141810001Y-121499999D03*
X143080001Y-121499999D03*
X143080001Y-116549999D03*
X141810001Y-116549999D03*
X140540001Y-116549999D03*
X139270001Y-116549999D03*
%TD*%
D19*
%TO.C,C11*%
X144741663Y-132905824D03*
%TD*%
D32*
%TO.C,C29*%
X102742500Y-114750001D03*
%TD*%
D25*
%TO.C,R22*%
X125462500Y-127300000D03*
X123637500Y-127300000D03*
%TD*%
D34*
%TO.C,R21*%
X125450000Y-123837500D03*
X125450000Y-125662500D03*
%TD*%
D11*
%TO.C,C70*%
X114350001Y-121562500D03*
X114350001Y-119837500D03*
%TD*%
D35*
%TO.C,U16*%
X135637500Y-120174999D03*
X135637500Y-119674999D03*
X135637500Y-119174999D03*
X135637500Y-118674999D03*
X135637500Y-118174999D03*
X135637500Y-117674999D03*
D36*
X134950000Y-116987499D03*
X134450000Y-116987499D03*
X133950000Y-116987499D03*
X133450000Y-116987499D03*
X132950000Y-116987499D03*
X132450000Y-116987499D03*
D35*
X131762500Y-117674999D03*
X131762500Y-118174999D03*
X131762500Y-118674999D03*
X131762500Y-119174999D03*
X131762500Y-119674999D03*
X131762500Y-120174999D03*
D36*
X132450000Y-120862499D03*
X132950000Y-120862499D03*
X133450000Y-120862499D03*
X133950000Y-120862499D03*
X134450000Y-120862499D03*
X134950000Y-120862499D03*
D37*
X134275000Y-118349999D03*
X133125000Y-118349999D03*
X134275000Y-119499999D03*
X133125000Y-119499999D03*
%TD*%
D33*
%TO.C,C56*%
X133950000Y-113750001D03*
X133950000Y-112885001D03*
%TD*%
D38*
%TO.C,U8*%
X106331101Y-107000001D03*
D39*
X106528801Y-108500001D03*
D38*
X106331101Y-110000001D03*
%TD*%
D26*
%TO.C,C73*%
X146150000Y-138937500D03*
X146150000Y-140662500D03*
%TD*%
D16*
%TO.C,R16*%
X139462501Y-123725000D03*
X141287501Y-123725000D03*
%TD*%
D40*
%TO.C,L1*%
X110550001Y-106497500D03*
X110550001Y-105352500D03*
%TD*%
D11*
%TO.C,C22*%
X107275001Y-121787499D03*
X107275001Y-120062499D03*
%TD*%
D16*
%TO.C,R15*%
X139462500Y-112905002D03*
X141287500Y-112905002D03*
%TD*%
D41*
%TO.C,C43*%
X126550000Y-146750000D03*
X126550000Y-147615000D03*
%TD*%
D11*
%TO.C,C47*%
X137525001Y-125212499D03*
X137525001Y-123487499D03*
%TD*%
D41*
%TO.C,C63*%
X156800000Y-137042501D03*
X156800000Y-137907501D03*
%TD*%
D11*
%TO.C,C8*%
X156375000Y-163387500D03*
X156375000Y-161662500D03*
%TD*%
D26*
%TO.C,C60*%
X153225000Y-135287501D03*
X153225000Y-137012501D03*
%TD*%
%TO.C,C57*%
X153225000Y-138712501D03*
X153225000Y-140437501D03*
%TD*%
D41*
%TO.C,C37*%
X126550000Y-137042501D03*
X126550000Y-137907501D03*
%TD*%
D16*
%TO.C,R24*%
X124187500Y-164000000D03*
X126012500Y-164000000D03*
%TD*%
%TO.C,R10*%
X119212500Y-135225000D03*
X121037500Y-135225000D03*
%TD*%
D27*
%TO.C,C38*%
X127507500Y-145750000D03*
%TD*%
D33*
%TO.C,C65*%
X145375000Y-152022501D03*
X145375000Y-151157501D03*
%TD*%
D11*
%TO.C,C54*%
X137901598Y-104915599D03*
X137901598Y-103190599D03*
%TD*%
D32*
%TO.C,C23*%
X101917501Y-122475001D03*
X102782501Y-122475001D03*
%TD*%
D12*
%TO.C,U2*%
X122050000Y-167900000D03*
D13*
X115750000Y-165600000D03*
D12*
X122050000Y-165600000D03*
X122050000Y-163300000D03*
%TD*%
D25*
%TO.C,R1*%
X112012500Y-162499999D03*
X110187500Y-162499999D03*
%TD*%
%TO.C,R6*%
X111037501Y-125275000D03*
X109212501Y-125275000D03*
%TD*%
D26*
%TO.C,C31*%
X122975000Y-138712501D03*
X122975000Y-140437501D03*
%TD*%
D25*
%TO.C,R14*%
X141287501Y-125275000D03*
X139462501Y-125275000D03*
%TD*%
D22*
%TO.C,C6*%
X124237500Y-168500000D03*
X125962500Y-168500000D03*
%TD*%
D26*
%TO.C,C26*%
X107175000Y-112937501D03*
X107175000Y-114662501D03*
%TD*%
D25*
%TO.C,R5*%
X111037500Y-114465002D03*
X109212500Y-114465002D03*
%TD*%
D38*
%TO.C,U17*%
X136581101Y-107000001D03*
D39*
X136778801Y-108500001D03*
D38*
X136581101Y-110000001D03*
%TD*%
D16*
%TO.C,R18*%
X149462500Y-135225000D03*
X151287500Y-135225000D03*
%TD*%
D38*
%TO.C,U9*%
X141597710Y-165175000D03*
D42*
X141400010Y-163675000D03*
D38*
X141597710Y-162175000D03*
%TD*%
D27*
%TO.C,C32*%
X128332499Y-138024999D03*
X127467499Y-138024999D03*
%TD*%
D38*
%TO.C,U14*%
X123918899Y-153500000D03*
D42*
X123721199Y-152000000D03*
D38*
X123918899Y-150500000D03*
%TD*%
D11*
%TO.C,C72*%
X144600001Y-121562500D03*
X144600001Y-119837500D03*
%TD*%
D33*
%TO.C,C50*%
X133950001Y-123457499D03*
X133950001Y-122592499D03*
%TD*%
D26*
%TO.C,C66*%
X154424999Y-155587500D03*
X154424999Y-157312500D03*
%TD*%
D11*
%TO.C,C14*%
X106075001Y-104912501D03*
X106075001Y-103187501D03*
%TD*%
%TO.C,C49*%
X135925001Y-125212499D03*
X135925001Y-123487499D03*
%TD*%
D43*
%TO.C,U3*%
X145825000Y-165275000D03*
D44*
X146875000Y-168375000D03*
D45*
X149875000Y-168375000D03*
D44*
X152875000Y-168375000D03*
D43*
X153925000Y-165275000D03*
D44*
X152875000Y-162175000D03*
D45*
X149875000Y-162175000D03*
D44*
X146875000Y-162175000D03*
%TD*%
D11*
%TO.C,C25*%
X107275001Y-125212499D03*
X107275001Y-123487499D03*
%TD*%
D27*
%TO.C,C58*%
X158582499Y-138024999D03*
X157717499Y-138024999D03*
%TD*%
D26*
%TO.C,C48*%
X137425000Y-112937501D03*
X137425000Y-114662501D03*
%TD*%
%TO.C,C33*%
X124675000Y-145837500D03*
X124675000Y-147562500D03*
%TD*%
D11*
%TO.C,C16*%
X109224999Y-104915600D03*
X109224999Y-103190600D03*
%TD*%
D16*
%TO.C,R17*%
X149462500Y-146034999D03*
X151287500Y-146034999D03*
%TD*%
D25*
%TO.C,R35*%
X144562500Y-140450000D03*
X142737500Y-140450000D03*
%TD*%
D46*
%TO.C,J4*%
X141410553Y-134150969D03*
X143496518Y-136236934D03*
D47*
X143531873Y-134115614D03*
%TD*%
D41*
%TO.C,C69*%
X156800000Y-146750000D03*
X156800000Y-147615000D03*
%TD*%
D35*
%TO.C,U11*%
X105387500Y-120174999D03*
X105387500Y-119674999D03*
X105387500Y-119174999D03*
X105387500Y-118674999D03*
X105387500Y-118174999D03*
X105387500Y-117674999D03*
D36*
X104700000Y-116987499D03*
X104200000Y-116987499D03*
X103700000Y-116987499D03*
X103200000Y-116987499D03*
X102700000Y-116987499D03*
X102200000Y-116987499D03*
D35*
X101512500Y-117674999D03*
X101512500Y-118174999D03*
X101512500Y-118674999D03*
X101512500Y-119174999D03*
X101512500Y-119674999D03*
X101512500Y-120174999D03*
D36*
X102200000Y-120862499D03*
X102700000Y-120862499D03*
X103200000Y-120862499D03*
X103700000Y-120862499D03*
X104200000Y-120862499D03*
X104700000Y-120862499D03*
D37*
X104025000Y-118349999D03*
X102875000Y-118349999D03*
X104025000Y-119499999D03*
X102875000Y-119499999D03*
%TD*%
D48*
%TO.C,C5*%
X143444176Y-161494176D03*
%TD*%
D26*
%TO.C,C42*%
X121025001Y-155584400D03*
X121025001Y-157309400D03*
%TD*%
D40*
%TO.C,L4*%
X140800001Y-106497500D03*
X140800001Y-105352500D03*
%TD*%
D25*
%TO.C,R34*%
X144562500Y-138900000D03*
X142737500Y-138900000D03*
%TD*%
D49*
%TO.C,U19*%
X155112500Y-140325001D03*
X155112500Y-140825001D03*
X155112500Y-141325001D03*
X155112500Y-141825001D03*
X155112500Y-142325001D03*
X155112500Y-142825001D03*
D50*
X155800000Y-143512501D03*
X156300000Y-143512501D03*
X156800000Y-143512501D03*
X157300000Y-143512501D03*
X157800000Y-143512501D03*
X158300000Y-143512501D03*
D49*
X158987500Y-142825001D03*
X158987500Y-142325001D03*
X158987500Y-141825001D03*
X158987500Y-141325001D03*
X158987500Y-140825001D03*
X158987500Y-140325001D03*
D50*
X158300000Y-139637501D03*
X157800000Y-139637501D03*
X157300000Y-139637501D03*
X156800000Y-139637501D03*
X156300000Y-139637501D03*
X155800000Y-139637501D03*
D51*
X156475000Y-142150001D03*
X157625000Y-142150001D03*
X156475000Y-141000001D03*
X157625000Y-141000001D03*
%TD*%
D14*
%TO.C,J7*%
X104250001Y-103180001D03*
X101300001Y-103180001D03*
D15*
X102775001Y-104705001D03*
%TD*%
D25*
%TO.C,R20*%
X151287500Y-136775000D03*
X149462500Y-136775000D03*
%TD*%
D49*
%TO.C,U13*%
X124862500Y-140325001D03*
X124862500Y-140825001D03*
X124862500Y-141325001D03*
X124862500Y-141825001D03*
X124862500Y-142325001D03*
X124862500Y-142825001D03*
D50*
X125550000Y-143512501D03*
X126050000Y-143512501D03*
X126550000Y-143512501D03*
X127050000Y-143512501D03*
X127550000Y-143512501D03*
X128050000Y-143512501D03*
D49*
X128737500Y-142825001D03*
X128737500Y-142325001D03*
X128737500Y-141825001D03*
X128737500Y-141325001D03*
X128737500Y-140825001D03*
X128737500Y-140325001D03*
D50*
X128050000Y-139637501D03*
X127550000Y-139637501D03*
X127050000Y-139637501D03*
X126550000Y-139637501D03*
X126050000Y-139637501D03*
X125550000Y-139637501D03*
D51*
X126225000Y-142150001D03*
X127375000Y-142150001D03*
X126225000Y-141000001D03*
X127375000Y-141000001D03*
%TD*%
D41*
%TO.C,C30*%
X115125000Y-108477499D03*
X115125000Y-109342499D03*
%TD*%
D16*
%TO.C,R33*%
X146187500Y-120050000D03*
X148012500Y-120050000D03*
%TD*%
D26*
%TO.C,C68*%
X151275001Y-155584400D03*
X151275001Y-157309400D03*
%TD*%
D38*
%TO.C,U20*%
X154168899Y-153500000D03*
D42*
X153971199Y-152000000D03*
D38*
X154168899Y-150500000D03*
%TD*%
D22*
%TO.C,C7*%
X124237500Y-165500000D03*
X125962500Y-165500000D03*
%TD*%
D31*
%TO.C,L2*%
X137428810Y-165577501D03*
X137428810Y-166722501D03*
%TD*%
D16*
%TO.C,R9*%
X119212500Y-146034999D03*
X121037500Y-146034999D03*
%TD*%
D11*
%TO.C,C46*%
X135825000Y-114662501D03*
X135825000Y-112937501D03*
%TD*%
D26*
%TO.C,C59*%
X154925000Y-145837500D03*
X154925000Y-147562500D03*
%TD*%
%TO.C,C19*%
X140275000Y-167212500D03*
X140275000Y-168937500D03*
%TD*%
D11*
%TO.C,C55*%
X139474999Y-104915600D03*
X139474999Y-103190600D03*
%TD*%
D23*
%TO.C,J8*%
X125999999Y-157320000D03*
X128949999Y-157320000D03*
D24*
X127474999Y-155795000D03*
%TD*%
D26*
%TO.C,C34*%
X122975000Y-135287501D03*
X122975000Y-137012501D03*
%TD*%
D11*
%TO.C,C61*%
X153325000Y-147562500D03*
X153325000Y-145837500D03*
%TD*%
D25*
%TO.C,R30*%
X114312500Y-138900000D03*
X112487500Y-138900000D03*
%TD*%
D41*
%TO.C,C52*%
X145375000Y-108477499D03*
X145375000Y-109342499D03*
%TD*%
D17*
%TO.C,U18*%
X151480000Y-139000001D03*
X150210000Y-139000001D03*
X148940000Y-139000001D03*
X147670000Y-139000001D03*
X147670000Y-143950001D03*
X148940000Y-143950001D03*
X150210000Y-143950001D03*
X151480000Y-143950001D03*
%TD*%
D26*
%TO.C,C36*%
X124575000Y-135287501D03*
X124575000Y-137012501D03*
%TD*%
D25*
%TO.C,R12*%
X121037500Y-136775000D03*
X119212500Y-136775000D03*
%TD*%
D32*
%TO.C,C45*%
X132167501Y-122475001D03*
X133032501Y-122475001D03*
%TD*%
D16*
%TO.C,R7*%
X109212500Y-112905002D03*
X111037500Y-112905002D03*
%TD*%
D33*
%TO.C,C17*%
X103700000Y-113750001D03*
X103700000Y-112885001D03*
%TD*%
D25*
%TO.C,R23*%
X126012500Y-162500000D03*
X124187500Y-162500000D03*
%TD*%
D22*
%TO.C,C3*%
X110237500Y-166999998D03*
X111962500Y-166999998D03*
%TD*%
D26*
%TO.C,C62*%
X154825000Y-135287501D03*
X154825000Y-137012501D03*
%TD*%
%TO.C,C40*%
X124174999Y-155587500D03*
X124174999Y-157312500D03*
%TD*%
D46*
%TO.C,J3*%
X111271142Y-134142893D03*
X113357107Y-136228858D03*
D47*
X113392462Y-134107538D03*
%TD*%
D11*
%TO.C,C4*%
X123950000Y-125612500D03*
X123950000Y-123887500D03*
%TD*%
D27*
%TO.C,C64*%
X157757500Y-145750000D03*
%TD*%
D31*
%TO.C,L3*%
X119699999Y-154002500D03*
X119699999Y-155147500D03*
%TD*%
D16*
%TO.C,R4*%
X115937500Y-120050000D03*
X117762500Y-120050000D03*
%TD*%
D25*
%TO.C,R31*%
X114312500Y-140450000D03*
X112487500Y-140450000D03*
%TD*%
D16*
%TO.C,R32*%
X146187500Y-121600000D03*
X148012500Y-121600000D03*
%TD*%
D26*
%TO.C,C20*%
X138755000Y-167212500D03*
X138755000Y-168937500D03*
%TD*%
M02*
