%TF.GenerationSoftware,KiCad,Pcbnew,9.0.7*%
%TF.CreationDate,2026-03-20T00:16:56-05:00*%
%TF.ProjectId,4phaseshift,34706861-7365-4736-9869-66742e6b6963,rev?*%
%TF.SameCoordinates,Original*%
%TF.FileFunction,Soldermask,Top*%
%TF.FilePolarity,Negative*%
%FSLAX46Y46*%
G04 Gerber Fmt 4.6, Leading zero omitted, Abs format (unit mm)*
G04 Created by KiCad (PCBNEW 9.0.7) date 2026-03-20 00:16:56*
%MOMM*%
%LPD*%
G01*
G04 APERTURE LIST*
G04 Aperture macros list*
%AMRoundRect*
0 Rectangle with rounded corners*
0 $1 Rounding radius*
0 $2 $3 $4 $5 $6 $7 $8 $9 X,Y pos of 4 corners*
0 Add a 4 corners polygon primitive as box body*
4,1,4,$2,$3,$4,$5,$6,$7,$8,$9,$2,$3,0*
0 Add four circle primitives for the rounded corners*
1,1,$1+$1,$2,$3*
1,1,$1+$1,$4,$5*
1,1,$1+$1,$6,$7*
1,1,$1+$1,$8,$9*
0 Add four rect primitives between the rounded corners*
20,1,$1+$1,$2,$3,$4,$5,0*
20,1,$1+$1,$4,$5,$6,$7,0*
20,1,$1+$1,$6,$7,$8,$9,0*
20,1,$1+$1,$8,$9,$2,$3,0*%
G04 Aperture macros list end*
%ADD10C,0.101600*%
%ADD11C,1.801600*%
%ADD12RoundRect,0.050800X0.850000X0.850000X-0.850000X0.850000X-0.850000X-0.850000X0.850000X-0.850000X0*%
%ADD13C,1.541600*%
G04 APERTURE END LIST*
D10*
%TO.C,AE4*%
X153930992Y-145375000D02*
X145375000Y-153930992D01*
X136819008Y-145375000D01*
X145375000Y-136819008D01*
X153930992Y-145375000D01*
G36*
X153930992Y-145375000D02*
G01*
X145375000Y-153930992D01*
X136819008Y-145375000D01*
X145375000Y-136819008D01*
X153930992Y-145375000D01*
G37*
%TO.C,AE3*%
X153930992Y-115125000D02*
X145375000Y-123680992D01*
X136819008Y-115125000D01*
X145375000Y-106569008D01*
X153930992Y-115125000D01*
G36*
X153930992Y-115125000D02*
G01*
X145375000Y-123680992D01*
X136819008Y-115125000D01*
X145375000Y-106569008D01*
X153930992Y-115125000D01*
G37*
%TO.C,AE1*%
X123680992Y-115125000D02*
X115125000Y-123680992D01*
X106569008Y-115125000D01*
X115125000Y-106569008D01*
X123680992Y-115125000D01*
G36*
X123680992Y-115125000D02*
G01*
X115125000Y-123680992D01*
X106569008Y-115125000D01*
X115125000Y-106569008D01*
X123680992Y-115125000D01*
G37*
%TO.C,AE2*%
X123680992Y-145375000D02*
X115125000Y-153930992D01*
X106569008Y-145375000D01*
X115125000Y-136819008D01*
X123680992Y-145375000D01*
G36*
X123680992Y-145375000D02*
G01*
X115125000Y-153930992D01*
X106569008Y-145375000D01*
X115125000Y-136819008D01*
X123680992Y-145375000D01*
G37*
%TD*%
D11*
%TO.C,J2*%
X128200000Y-122830001D03*
X128200000Y-120290001D03*
X128200000Y-117750001D03*
X128200000Y-115210001D03*
D12*
X128200000Y-112670001D03*
%TD*%
D13*
%TO.C,RV1*%
X158920000Y-167890000D03*
X156380000Y-165350000D03*
X158920000Y-162810000D03*
%TD*%
D12*
%TO.C,VS*%
X130400000Y-168200000D03*
%TD*%
%TO.C,GND*%
X134200000Y-168200000D03*
%TD*%
M02*
