M48
; DRILL file {KiCad 9.0.7} date 2026-02-12T18:36:28-0600
; FORMAT={-:-/ absolute / metric / decimal}
; #@! TF.CreationDate,2026-02-12T18:36:28-06:00
; #@! TF.GenerationSoftware,Kicad,Pcbnew,9.0.7
; #@! TF.FileFunction,Plated,1,4,PTH
FMAT,2
METRIC
; #@! TA.AperFunction,Plated,PTH,ViaDrill
T1C0.300
; #@! TA.AperFunction,Plated,PTH,ComponentDrill
T2C0.300
; #@! TA.AperFunction,Plated,PTH,ComponentDrill
T3C0.800
; #@! TA.AperFunction,Plated,PTH,ComponentDrill
T4C1.000
%
G90
G05
T1
X125.4Y-151.8
X126.0Y-121.0
X126.9Y-107.7
X127.7Y-105.9
X128.5Y-151.8
X128.7Y-105.5
X129.0Y-164.0
X129.0Y-167.0
X129.756Y-148.544
X130.0Y-113.0
X130.0Y-121.0
X130.045Y-114.255
X130.1Y-111.8
X130.2Y-105.9
X130.4Y-98.5
X131.0Y-164.0
X131.0Y-167.0
X131.0Y-170.0
X131.0Y-173.0
X131.2Y-160.0
X131.2Y-160.8
X131.225Y-147.895
X132.8Y-152.1
X133.1Y-97.4
X133.6Y-113.4
X133.705Y-97.803
X135.0Y-137.0
X135.2Y-98.2
X136.0Y-123.0
X137.0Y-154.0
X137.2Y-160.0
X137.2Y-160.8
X137.5Y-147.895
X138.0Y-168.0
X138.0Y-171.0
X138.0Y-173.0
X138.5Y-95.5
X139.0Y-123.0
X139.3Y-137.0
X140.1Y-154.0
X140.3Y-98.4
X140.465Y-95.908
X140.7Y-97.027
X141.0Y-136.0
X141.0Y-159.0
X141.0Y-162.0
X141.0Y-168.0
X141.0Y-171.0
X141.0Y-173.0
X142.0Y-120.0
X142.0Y-123.0
X142.8Y-116.0
X143.319Y-150.006
X144.0Y-162.0
X144.0Y-165.0
X144.0Y-168.0
X144.0Y-171.0
X144.2Y-147.2
X144.3Y-137.4
X144.4Y-100.1
X145.0Y-120.0
X145.0Y-123.0
X145.0Y-159.0
X147.0Y-171.0
X147.225Y-99.911
X147.395Y-99.205
X147.6Y-97.4
X148.0Y-120.0
X148.0Y-123.0
X149.3Y-127.0
X149.6Y-131.6
X150.0Y-171.0
X151.0Y-123.0
X153.0Y-159.0
X153.0Y-162.0
X153.0Y-165.0
X153.0Y-168.0
X153.0Y-171.0
X153.569Y-125.444
T2
X133.5Y-159.712
X133.5Y-160.562
X133.5Y-161.412
X134.35Y-159.712
X134.35Y-160.562
X134.35Y-161.412
X135.2Y-159.712
X135.2Y-160.562
X135.2Y-161.412
T3
X126.06Y-142.93
X128.6Y-145.47
X131.14Y-142.93
X136.16Y-142.93
X138.7Y-145.47
X141.24Y-142.93
X146.26Y-142.93
X148.8Y-145.47
X151.34Y-142.93
T4
X151.6Y-104.68
X151.6Y-107.22
X151.6Y-109.76
X151.6Y-112.3
X151.6Y-114.84
X151.6Y-117.38
X151.6Y-119.92
X152.1Y-136.3
X152.1Y-139.9
M30
