%TF.GenerationSoftware,KiCad,Pcbnew,9.0.7*%
%TF.CreationDate,2026-02-12T18:36:41-06:00*%
%TF.ProjectId,switchedPhaseShift,73776974-6368-4656-9450-686173655368,rev?*%
%TF.SameCoordinates,Original*%
%TF.FileFunction,Copper,L3,Inr*%
%TF.FilePolarity,Positive*%
%FSLAX46Y46*%
G04 Gerber Fmt 4.6, Leading zero omitted, Abs format (unit mm)*
G04 Created by KiCad (PCBNEW 9.0.7) date 2026-02-12 18:36:41*
%MOMM*%
%LPD*%
G01*
G04 APERTURE LIST*
%TA.AperFunction,ComponentPad*%
%ADD10R,1.700000X1.700000*%
%TD*%
%TA.AperFunction,ComponentPad*%
%ADD11C,1.700000*%
%TD*%
%TA.AperFunction,ComponentPad*%
%ADD12C,1.440000*%
%TD*%
%TA.AperFunction,HeatsinkPad*%
%ADD13C,0.600000*%
%TD*%
%TA.AperFunction,ViaPad*%
%ADD14C,0.600000*%
%TD*%
%TA.AperFunction,Conductor*%
%ADD15C,0.200000*%
%TD*%
G04 APERTURE END LIST*
D10*
%TO.N,GND*%
%TO.C,J2*%
X151600000Y-119920000D03*
D11*
%TO.N,VCC*%
X151600000Y-117380000D03*
%TO.N,/SL_PhaseShift1/C5*%
X151600000Y-114840000D03*
%TO.N,/SL_PhaseShift1/C4*%
X151600000Y-112300000D03*
%TO.N,/SL_PhaseShift1/C3*%
X151600000Y-109760000D03*
%TO.N,/SL_PhaseShift1/C2*%
X151600000Y-107220000D03*
%TO.N,/SL_PhaseShift1/C1*%
X151600000Y-104680000D03*
%TD*%
D10*
%TO.N,VS*%
%TO.C,TP1*%
X152100000Y-136300000D03*
%TD*%
%TO.N,GND*%
%TO.C,TP2*%
X152100000Y-139900000D03*
%TD*%
D12*
%TO.N,GND*%
%TO.C,RV1*%
X146260000Y-142930000D03*
%TO.N,Net-(U1-VT)*%
X148800000Y-145470000D03*
%TO.N,VCC*%
X151340000Y-142930000D03*
%TD*%
%TO.N,GND*%
%TO.C,RV3*%
X126060000Y-142930000D03*
%TO.N,/VectorModulator/QBBN*%
X128600000Y-145470000D03*
%TO.N,+1V5*%
X131140000Y-142930000D03*
%TD*%
%TO.N,GND*%
%TO.C,RV2*%
X136160000Y-142930000D03*
%TO.N,/VectorModulator/IBBN*%
X138700000Y-145470000D03*
%TO.N,+1V5*%
X141240000Y-142930000D03*
%TD*%
D13*
%TO.N,GND*%
%TO.C,U9*%
X135200000Y-161412498D03*
X134350000Y-161412498D03*
X133500000Y-161412498D03*
X135200000Y-160562498D03*
X134350000Y-160562498D03*
X133500000Y-160562498D03*
X135200000Y-159712498D03*
X134350000Y-159712498D03*
X133500000Y-159712498D03*
%TD*%
D14*
%TO.N,GND*%
X141000000Y-173000000D03*
X138000000Y-173000000D03*
X131000000Y-173000000D03*
X131000000Y-170000000D03*
X129000000Y-167000000D03*
X129000000Y-164000000D03*
X131000000Y-167000000D03*
X131000000Y-164000000D03*
X145000000Y-159000000D03*
X141000000Y-159000000D03*
X141000000Y-162000000D03*
X144000000Y-162000000D03*
X144000000Y-165000000D03*
X144000000Y-168000000D03*
X141000000Y-168000000D03*
X138000000Y-168000000D03*
X138000000Y-171000000D03*
X141000000Y-171000000D03*
X144000000Y-171000000D03*
X147000000Y-171000000D03*
X150000000Y-171000000D03*
X153000000Y-171000000D03*
X153000000Y-168000000D03*
X153000000Y-165000000D03*
X153000000Y-162000000D03*
X153000000Y-159000000D03*
X135000000Y-137000000D03*
X141000000Y-136000000D03*
X136000000Y-123000000D03*
X139000000Y-123000000D03*
X151000000Y-123000000D03*
X148000000Y-123000000D03*
X145000000Y-123000000D03*
X142000000Y-123000000D03*
X126000000Y-121000000D03*
X130000000Y-121000000D03*
X142000000Y-120000000D03*
X145000000Y-120000000D03*
X148000000Y-120000000D03*
X126900000Y-107700000D03*
X130200000Y-105900000D03*
X147224879Y-99911293D03*
X144400000Y-100100000D03*
X140300000Y-98400000D03*
X138500000Y-95500000D03*
X135200000Y-98200000D03*
X130400000Y-98500000D03*
X133600000Y-113400000D03*
X130100000Y-111800000D03*
%TO.N,/SL_PhaseShift1/C1*%
X147600000Y-97400000D03*
%TO.N,VCC*%
X142800000Y-116000000D03*
X133704902Y-97803268D03*
X147395423Y-99204577D03*
X140700000Y-97027000D03*
X128700000Y-105500000D03*
X130000000Y-113000000D03*
%TO.N,/SL_PhaseShift1/C2*%
X140465234Y-95908500D03*
%TO.N,/SL_PhaseShift1/C4*%
X127700000Y-105900000D03*
%TO.N,/SL_PhaseShift1/C5*%
X130045423Y-114254577D03*
%TO.N,/SL_PhaseShift1/C3*%
X133100000Y-97400000D03*
%TO.N,GND*%
X149600000Y-131600000D03*
X139300000Y-137000000D03*
X149299999Y-127000000D03*
X144300000Y-137400000D03*
%TO.N,VCC*%
X132800000Y-152100000D03*
X153568500Y-125444498D03*
X131224999Y-147895000D03*
%TO.N,VS*%
X144200000Y-147200000D03*
%TO.N,+1V5*%
X143319000Y-150006500D03*
%TO.N,/VectorModulator/IBBN*%
X137200000Y-160800000D03*
X140100000Y-154000000D03*
%TO.N,/VectorModulator/IBBP*%
X137200000Y-160000000D03*
X137500000Y-147895000D03*
X137000000Y-154000000D03*
%TO.N,/VectorModulator/QBBN*%
X131200000Y-160800000D03*
X125400001Y-151800000D03*
%TO.N,/VectorModulator/QBBP*%
X129756250Y-148543750D03*
X128500000Y-151800000D03*
X131200000Y-160000000D03*
%TD*%
D15*
%TO.N,GND*%
X147224879Y-99911293D02*
X147036172Y-100100000D01*
X147036172Y-100100000D02*
X144400000Y-100100000D01*
%TD*%
%TA.AperFunction,Conductor*%
%TO.N,GND*%
G36*
X153915539Y-92547185D02*
G01*
X153961294Y-92599989D01*
X153972500Y-92651500D01*
X153972500Y-124046589D01*
X153952815Y-124113628D01*
X153900011Y-124159383D01*
X153830853Y-124169327D01*
X153829102Y-124169062D01*
X153698676Y-124148404D01*
X153670852Y-124143998D01*
X153466148Y-124143998D01*
X153441829Y-124147849D01*
X153263965Y-124176020D01*
X153069276Y-124239279D01*
X152886886Y-124332213D01*
X152721286Y-124452526D01*
X152576528Y-124597284D01*
X152456215Y-124762884D01*
X152363281Y-124945274D01*
X152300022Y-125139963D01*
X152268000Y-125342146D01*
X152268000Y-125546849D01*
X152300022Y-125749032D01*
X152363281Y-125943721D01*
X152456215Y-126126111D01*
X152576528Y-126291711D01*
X152721286Y-126436469D01*
X152876249Y-126549054D01*
X152886890Y-126556785D01*
X153003107Y-126616001D01*
X153069276Y-126649716D01*
X153069278Y-126649716D01*
X153069281Y-126649718D01*
X153164498Y-126680656D01*
X153263965Y-126712975D01*
X153307896Y-126719933D01*
X153466148Y-126744998D01*
X153466149Y-126744998D01*
X153670851Y-126744998D01*
X153670852Y-126744998D01*
X153829102Y-126719933D01*
X153898395Y-126728887D01*
X153951847Y-126773883D01*
X153972487Y-126840635D01*
X153972500Y-126842406D01*
X153972500Y-134772487D01*
X153952815Y-134839526D01*
X153900011Y-134885281D01*
X153830853Y-134895225D01*
X153767297Y-134866200D01*
X153752398Y-134850848D01*
X153661109Y-134738890D01*
X153503409Y-134610304D01*
X153503410Y-134610304D01*
X153503407Y-134610302D01*
X153323049Y-134516091D01*
X153323048Y-134516090D01*
X153323045Y-134516089D01*
X153205829Y-134482550D01*
X153127418Y-134460114D01*
X153127415Y-134460113D01*
X153127413Y-134460113D01*
X153061102Y-134454217D01*
X153008037Y-134449500D01*
X153008032Y-134449500D01*
X151191971Y-134449500D01*
X151191965Y-134449500D01*
X151191964Y-134449501D01*
X151186351Y-134450000D01*
X151072584Y-134460113D01*
X150876954Y-134516089D01*
X150786772Y-134563196D01*
X150696593Y-134610302D01*
X150696591Y-134610303D01*
X150696590Y-134610304D01*
X150538890Y-134738890D01*
X150410304Y-134896590D01*
X150316089Y-135076954D01*
X150260114Y-135272583D01*
X150260113Y-135272586D01*
X150249500Y-135391966D01*
X150249500Y-137208028D01*
X150249501Y-137208034D01*
X150260113Y-137327415D01*
X150316089Y-137523045D01*
X150316090Y-137523048D01*
X150316091Y-137523049D01*
X150410302Y-137703407D01*
X150443026Y-137743540D01*
X150538890Y-137861109D01*
X150632803Y-137937684D01*
X150696593Y-137989698D01*
X150876951Y-138083909D01*
X151072582Y-138139886D01*
X151191963Y-138150500D01*
X153008036Y-138150499D01*
X153127418Y-138139886D01*
X153323049Y-138083909D01*
X153503407Y-137989698D01*
X153661109Y-137861109D01*
X153670168Y-137850000D01*
X153752398Y-137749152D01*
X153810018Y-137709634D01*
X153879857Y-137707542D01*
X153939740Y-137743540D01*
X153970654Y-137806198D01*
X153972500Y-137827512D01*
X153972500Y-177148500D01*
X153952815Y-177215539D01*
X153900011Y-177261294D01*
X153848500Y-177272500D01*
X124351500Y-177272500D01*
X124284461Y-177252815D01*
X124238706Y-177200011D01*
X124227500Y-177148500D01*
X124227500Y-176050000D01*
X124990000Y-176050000D01*
X127080000Y-176050000D01*
X142685000Y-176050000D01*
X144775000Y-176050000D01*
X146525000Y-176050000D01*
X148615000Y-176050000D01*
X148615000Y-174150000D01*
X146525000Y-174150000D01*
X146525000Y-176050000D01*
X144775000Y-176050000D01*
X144775000Y-174150000D01*
X142685000Y-174150000D01*
X142685000Y-176050000D01*
X127080000Y-176050000D01*
X127080000Y-174150000D01*
X124990000Y-174150000D01*
X124990000Y-176050000D01*
X124227500Y-176050000D01*
X124227500Y-171975000D01*
X133650000Y-171975000D01*
X135550000Y-171975000D01*
X135550000Y-170175000D01*
X146750000Y-170175000D01*
X148650000Y-170175000D01*
X148650000Y-168085000D01*
X146750000Y-168085000D01*
X146750000Y-170175000D01*
X135550000Y-170175000D01*
X135550000Y-169885000D01*
X133650000Y-169885000D01*
X133650000Y-171975000D01*
X124227500Y-171975000D01*
X124227500Y-171675000D01*
X125850000Y-171675000D01*
X127750000Y-171675000D01*
X127750000Y-169585000D01*
X125850000Y-169585000D01*
X125850000Y-171675000D01*
X124227500Y-171675000D01*
X124227500Y-161665000D01*
X125850000Y-161665000D01*
X127750000Y-161665000D01*
X127750000Y-159897648D01*
X129899500Y-159897648D01*
X129899500Y-160102351D01*
X129931523Y-160304535D01*
X129950091Y-160361682D01*
X129952086Y-160431523D01*
X129950091Y-160438318D01*
X129931523Y-160495464D01*
X129899500Y-160697648D01*
X129899500Y-160902351D01*
X129931522Y-161104534D01*
X129994781Y-161299223D01*
X130087715Y-161481613D01*
X130208028Y-161647213D01*
X130352786Y-161791971D01*
X130507749Y-161904556D01*
X130518390Y-161912287D01*
X130634607Y-161971503D01*
X130700776Y-162005218D01*
X130700778Y-162005218D01*
X130700781Y-162005220D01*
X130805137Y-162039127D01*
X130895465Y-162068477D01*
X130996557Y-162084488D01*
X131097648Y-162100500D01*
X131097649Y-162100500D01*
X131302351Y-162100500D01*
X131302352Y-162100500D01*
X131504534Y-162068477D01*
X131699219Y-162005220D01*
X131881610Y-161912287D01*
X131974590Y-161844732D01*
X132047213Y-161791971D01*
X132047215Y-161791968D01*
X132047219Y-161791966D01*
X132191966Y-161647219D01*
X132191968Y-161647215D01*
X132191971Y-161647213D01*
X132244732Y-161574590D01*
X132312287Y-161481610D01*
X132405220Y-161299219D01*
X132468477Y-161104534D01*
X132500500Y-160902352D01*
X132500500Y-160697648D01*
X132468477Y-160495466D01*
X132449907Y-160438316D01*
X132447913Y-160368477D01*
X132449908Y-160361682D01*
X132468477Y-160304534D01*
X132500500Y-160102352D01*
X132500500Y-159897648D01*
X135899500Y-159897648D01*
X135899500Y-160102351D01*
X135931523Y-160304535D01*
X135950091Y-160361682D01*
X135952086Y-160431523D01*
X135950091Y-160438318D01*
X135931523Y-160495464D01*
X135899500Y-160697648D01*
X135899500Y-160902351D01*
X135931522Y-161104534D01*
X135994781Y-161299223D01*
X136087715Y-161481613D01*
X136208028Y-161647213D01*
X136352786Y-161791971D01*
X136507749Y-161904556D01*
X136518390Y-161912287D01*
X136634607Y-161971503D01*
X136700776Y-162005218D01*
X136700778Y-162005218D01*
X136700781Y-162005220D01*
X136805137Y-162039127D01*
X136895465Y-162068477D01*
X136996557Y-162084488D01*
X137097648Y-162100500D01*
X137097649Y-162100500D01*
X137302351Y-162100500D01*
X137302352Y-162100500D01*
X137504534Y-162068477D01*
X137699219Y-162005220D01*
X137881610Y-161912287D01*
X137974590Y-161844732D01*
X138047213Y-161791971D01*
X138047215Y-161791968D01*
X138047219Y-161791966D01*
X138191966Y-161647219D01*
X138191968Y-161647215D01*
X138191971Y-161647213D01*
X138244732Y-161574590D01*
X138312287Y-161481610D01*
X138405220Y-161299219D01*
X138468477Y-161104534D01*
X138500500Y-160902352D01*
X138500500Y-160697648D01*
X138468477Y-160495466D01*
X138449907Y-160438316D01*
X138447913Y-160368477D01*
X138449908Y-160361682D01*
X138468477Y-160304534D01*
X138500500Y-160102352D01*
X138500500Y-159897648D01*
X138468477Y-159695466D01*
X138405220Y-159500781D01*
X138405218Y-159500778D01*
X138405218Y-159500776D01*
X138371503Y-159434607D01*
X138312287Y-159318390D01*
X138304556Y-159307749D01*
X138191971Y-159152786D01*
X138047213Y-159008028D01*
X137881613Y-158887715D01*
X137881612Y-158887714D01*
X137881610Y-158887713D01*
X137824653Y-158858691D01*
X137699223Y-158794781D01*
X137504534Y-158731522D01*
X137329995Y-158703878D01*
X137302352Y-158699500D01*
X137097648Y-158699500D01*
X137073329Y-158703351D01*
X136895465Y-158731522D01*
X136700776Y-158794781D01*
X136518386Y-158887715D01*
X136352786Y-159008028D01*
X136208028Y-159152786D01*
X136087715Y-159318386D01*
X135994781Y-159500776D01*
X135931522Y-159695465D01*
X135899500Y-159897648D01*
X132500500Y-159897648D01*
X132468477Y-159695466D01*
X132405220Y-159500781D01*
X132405218Y-159500778D01*
X132405218Y-159500776D01*
X132371503Y-159434607D01*
X132312287Y-159318390D01*
X132304556Y-159307749D01*
X132191971Y-159152786D01*
X132047213Y-159008028D01*
X131881613Y-158887715D01*
X131881612Y-158887714D01*
X131881610Y-158887713D01*
X131824653Y-158858691D01*
X131699223Y-158794781D01*
X131504534Y-158731522D01*
X131329995Y-158703878D01*
X131302352Y-158699500D01*
X131097648Y-158699500D01*
X131073329Y-158703351D01*
X130895465Y-158731522D01*
X130700776Y-158794781D01*
X130518386Y-158887715D01*
X130352786Y-159008028D01*
X130208028Y-159152786D01*
X130087715Y-159318386D01*
X129994781Y-159500776D01*
X129931522Y-159695465D01*
X129899500Y-159897648D01*
X127750000Y-159897648D01*
X127750000Y-159575000D01*
X125850000Y-159575000D01*
X125850000Y-161665000D01*
X124227500Y-161665000D01*
X124227500Y-158350000D01*
X142025000Y-158350000D01*
X144115000Y-158350000D01*
X144115000Y-156450000D01*
X142025000Y-156450000D01*
X142025000Y-158350000D01*
X124227500Y-158350000D01*
X124227500Y-157150000D01*
X124775000Y-157150000D01*
X126865000Y-157150000D01*
X126865000Y-155250000D01*
X124775000Y-155250000D01*
X124775000Y-157150000D01*
X124227500Y-157150000D01*
X124227500Y-153897648D01*
X135699500Y-153897648D01*
X135699500Y-154102351D01*
X135731522Y-154304534D01*
X135794781Y-154499223D01*
X135887715Y-154681613D01*
X136008028Y-154847213D01*
X136152786Y-154991971D01*
X136307749Y-155104556D01*
X136318390Y-155112287D01*
X136434607Y-155171503D01*
X136500776Y-155205218D01*
X136500778Y-155205218D01*
X136500781Y-155205220D01*
X136605137Y-155239127D01*
X136695465Y-155268477D01*
X136796557Y-155284488D01*
X136897648Y-155300500D01*
X136897649Y-155300500D01*
X137102351Y-155300500D01*
X137102352Y-155300500D01*
X137304534Y-155268477D01*
X137499219Y-155205220D01*
X137681610Y-155112287D01*
X137774590Y-155044732D01*
X137847213Y-154991971D01*
X137847215Y-154991968D01*
X137847219Y-154991966D01*
X137991966Y-154847219D01*
X137991968Y-154847215D01*
X137991971Y-154847213D01*
X138044732Y-154774590D01*
X138112287Y-154681610D01*
X138205220Y-154499219D01*
X138268477Y-154304534D01*
X138300500Y-154102352D01*
X138300500Y-153897648D01*
X138799500Y-153897648D01*
X138799500Y-154102351D01*
X138831522Y-154304534D01*
X138894781Y-154499223D01*
X138987715Y-154681613D01*
X139108028Y-154847213D01*
X139252786Y-154991971D01*
X139407749Y-155104556D01*
X139418390Y-155112287D01*
X139534607Y-155171503D01*
X139600776Y-155205218D01*
X139600778Y-155205218D01*
X139600781Y-155205220D01*
X139705137Y-155239127D01*
X139795465Y-155268477D01*
X139896557Y-155284488D01*
X139997648Y-155300500D01*
X139997649Y-155300500D01*
X140202351Y-155300500D01*
X140202352Y-155300500D01*
X140404534Y-155268477D01*
X140599219Y-155205220D01*
X140781610Y-155112287D01*
X140874590Y-155044732D01*
X140947213Y-154991971D01*
X140947215Y-154991968D01*
X140947219Y-154991966D01*
X141091966Y-154847219D01*
X141091968Y-154847215D01*
X141091971Y-154847213D01*
X141144732Y-154774590D01*
X141212287Y-154681610D01*
X141305220Y-154499219D01*
X141368477Y-154304534D01*
X141400500Y-154102352D01*
X141400500Y-153897648D01*
X141368477Y-153695466D01*
X141305220Y-153500781D01*
X141305218Y-153500778D01*
X141305218Y-153500776D01*
X141254124Y-153400500D01*
X141212287Y-153318390D01*
X141202717Y-153305218D01*
X141091971Y-153152786D01*
X140947213Y-153008028D01*
X140781613Y-152887715D01*
X140781612Y-152887714D01*
X140781610Y-152887713D01*
X140724653Y-152858691D01*
X140599223Y-152794781D01*
X140404534Y-152731522D01*
X140229995Y-152703878D01*
X140202352Y-152699500D01*
X139997648Y-152699500D01*
X139973329Y-152703351D01*
X139795465Y-152731522D01*
X139600776Y-152794781D01*
X139418386Y-152887715D01*
X139252786Y-153008028D01*
X139108028Y-153152786D01*
X138987715Y-153318386D01*
X138894781Y-153500776D01*
X138831522Y-153695465D01*
X138799500Y-153897648D01*
X138300500Y-153897648D01*
X138268477Y-153695466D01*
X138205220Y-153500781D01*
X138205218Y-153500778D01*
X138205218Y-153500776D01*
X138154124Y-153400500D01*
X138112287Y-153318390D01*
X138102717Y-153305218D01*
X137991971Y-153152786D01*
X137847213Y-153008028D01*
X137681613Y-152887715D01*
X137681612Y-152887714D01*
X137681610Y-152887713D01*
X137624653Y-152858691D01*
X137499223Y-152794781D01*
X137304534Y-152731522D01*
X137129995Y-152703878D01*
X137102352Y-152699500D01*
X136897648Y-152699500D01*
X136873329Y-152703351D01*
X136695465Y-152731522D01*
X136500776Y-152794781D01*
X136318386Y-152887715D01*
X136152786Y-153008028D01*
X136008028Y-153152786D01*
X135887715Y-153318386D01*
X135794781Y-153500776D01*
X135731522Y-153695465D01*
X135699500Y-153897648D01*
X124227500Y-153897648D01*
X124227500Y-152766046D01*
X124247185Y-152699007D01*
X124299989Y-152653252D01*
X124369147Y-152643308D01*
X124432703Y-152672333D01*
X124439181Y-152678365D01*
X124552787Y-152791971D01*
X124684570Y-152887715D01*
X124718391Y-152912287D01*
X124834608Y-152971503D01*
X124900777Y-153005218D01*
X124900779Y-153005218D01*
X124900782Y-153005220D01*
X125005138Y-153039127D01*
X125095466Y-153068477D01*
X125196558Y-153084488D01*
X125297649Y-153100500D01*
X125297650Y-153100500D01*
X125502352Y-153100500D01*
X125502353Y-153100500D01*
X125704535Y-153068477D01*
X125899220Y-153005220D01*
X126081611Y-152912287D01*
X126174591Y-152844732D01*
X126247214Y-152791971D01*
X126247216Y-152791968D01*
X126247220Y-152791966D01*
X126391967Y-152647219D01*
X126391969Y-152647215D01*
X126391972Y-152647213D01*
X126444733Y-152574590D01*
X126512288Y-152481610D01*
X126605221Y-152299219D01*
X126668478Y-152104534D01*
X126700501Y-151902352D01*
X126700501Y-151697648D01*
X127199500Y-151697648D01*
X127199500Y-151902351D01*
X127231522Y-152104534D01*
X127294781Y-152299223D01*
X127387715Y-152481613D01*
X127508028Y-152647213D01*
X127652786Y-152791971D01*
X127784569Y-152887715D01*
X127818390Y-152912287D01*
X127934607Y-152971503D01*
X128000776Y-153005218D01*
X128000778Y-153005218D01*
X128000781Y-153005220D01*
X128105137Y-153039127D01*
X128195465Y-153068477D01*
X128296557Y-153084488D01*
X128397648Y-153100500D01*
X128397649Y-153100500D01*
X128602351Y-153100500D01*
X128602352Y-153100500D01*
X128804534Y-153068477D01*
X128999219Y-153005220D01*
X129181610Y-152912287D01*
X129274590Y-152844732D01*
X129347213Y-152791971D01*
X129347215Y-152791968D01*
X129347219Y-152791966D01*
X129491966Y-152647219D01*
X129491968Y-152647215D01*
X129491971Y-152647213D01*
X129544732Y-152574590D01*
X129612287Y-152481610D01*
X129705220Y-152299219D01*
X129768477Y-152104534D01*
X129785406Y-151997648D01*
X131499500Y-151997648D01*
X131499500Y-152202351D01*
X131531522Y-152404534D01*
X131594781Y-152599223D01*
X131687715Y-152781613D01*
X131808028Y-152947213D01*
X131952786Y-153091971D01*
X132107749Y-153204556D01*
X132118390Y-153212287D01*
X132234607Y-153271503D01*
X132300776Y-153305218D01*
X132300778Y-153305218D01*
X132300781Y-153305220D01*
X132405137Y-153339127D01*
X132495465Y-153368477D01*
X132596557Y-153384488D01*
X132697648Y-153400500D01*
X132697649Y-153400500D01*
X132902351Y-153400500D01*
X132902352Y-153400500D01*
X133104534Y-153368477D01*
X133299219Y-153305220D01*
X133481610Y-153212287D01*
X133574590Y-153144732D01*
X133647213Y-153091971D01*
X133647215Y-153091968D01*
X133647219Y-153091966D01*
X133791966Y-152947219D01*
X133791968Y-152947215D01*
X133791971Y-152947213D01*
X133844732Y-152874590D01*
X133912287Y-152781610D01*
X134005220Y-152599219D01*
X134068477Y-152404534D01*
X134100500Y-152202352D01*
X134100500Y-151997648D01*
X134068477Y-151795466D01*
X134005220Y-151600781D01*
X134005218Y-151600778D01*
X134005218Y-151600776D01*
X133951559Y-151495466D01*
X133912287Y-151418390D01*
X133904556Y-151407749D01*
X133791971Y-151252786D01*
X133647213Y-151108028D01*
X133481613Y-150987715D01*
X133481612Y-150987714D01*
X133481610Y-150987713D01*
X133407861Y-150950136D01*
X133299223Y-150894781D01*
X133104534Y-150831522D01*
X132929995Y-150803878D01*
X132902352Y-150799500D01*
X132697648Y-150799500D01*
X132673329Y-150803351D01*
X132495465Y-150831522D01*
X132300776Y-150894781D01*
X132118386Y-150987715D01*
X131952786Y-151108028D01*
X131808028Y-151252786D01*
X131687715Y-151418386D01*
X131594781Y-151600776D01*
X131531522Y-151795465D01*
X131499500Y-151997648D01*
X129785406Y-151997648D01*
X129800500Y-151902352D01*
X129800500Y-151697648D01*
X129768477Y-151495466D01*
X129743433Y-151418390D01*
X129739127Y-151405137D01*
X129705220Y-151300781D01*
X129705218Y-151300778D01*
X129705218Y-151300776D01*
X129659840Y-151211718D01*
X129612287Y-151118390D01*
X129604556Y-151107749D01*
X129491971Y-150952786D01*
X129347213Y-150808028D01*
X129181613Y-150687715D01*
X129181612Y-150687714D01*
X129181610Y-150687713D01*
X129124653Y-150658691D01*
X128999223Y-150594781D01*
X128804534Y-150531522D01*
X128629995Y-150503878D01*
X128602352Y-150499500D01*
X128397648Y-150499500D01*
X128373329Y-150503351D01*
X128195465Y-150531522D01*
X128000776Y-150594781D01*
X127818386Y-150687715D01*
X127652786Y-150808028D01*
X127508028Y-150952786D01*
X127387715Y-151118386D01*
X127294781Y-151300776D01*
X127231522Y-151495465D01*
X127199500Y-151697648D01*
X126700501Y-151697648D01*
X126668478Y-151495466D01*
X126643434Y-151418390D01*
X126639128Y-151405137D01*
X126605221Y-151300781D01*
X126605219Y-151300778D01*
X126605219Y-151300776D01*
X126559841Y-151211718D01*
X126512288Y-151118390D01*
X126504557Y-151107749D01*
X126391972Y-150952786D01*
X126247214Y-150808028D01*
X126081614Y-150687715D01*
X126081613Y-150687714D01*
X126081611Y-150687713D01*
X126024654Y-150658691D01*
X125899224Y-150594781D01*
X125704535Y-150531522D01*
X125529996Y-150503878D01*
X125502353Y-150499500D01*
X125297649Y-150499500D01*
X125273330Y-150503351D01*
X125095466Y-150531522D01*
X124900777Y-150594781D01*
X124718387Y-150687715D01*
X124552787Y-150808028D01*
X124552783Y-150808032D01*
X124439181Y-150921635D01*
X124377858Y-150955120D01*
X124308166Y-150950136D01*
X124252233Y-150908264D01*
X124227816Y-150842800D01*
X124227500Y-150833954D01*
X124227500Y-149904148D01*
X142018500Y-149904148D01*
X142018500Y-150108851D01*
X142050522Y-150311034D01*
X142113781Y-150505723D01*
X142206715Y-150688113D01*
X142327028Y-150853713D01*
X142471786Y-150998471D01*
X142622581Y-151108028D01*
X142637390Y-151118787D01*
X142753607Y-151178003D01*
X142819776Y-151211718D01*
X142819778Y-151211718D01*
X142819781Y-151211720D01*
X142896249Y-151236566D01*
X143014465Y-151274977D01*
X143115557Y-151290988D01*
X143216648Y-151307000D01*
X143216649Y-151307000D01*
X143421351Y-151307000D01*
X143421352Y-151307000D01*
X143623534Y-151274977D01*
X143818219Y-151211720D01*
X144000610Y-151118787D01*
X144093590Y-151051232D01*
X144166213Y-150998471D01*
X144166215Y-150998468D01*
X144166219Y-150998466D01*
X144310966Y-150853719D01*
X144310968Y-150853715D01*
X144310971Y-150853713D01*
X144363732Y-150781090D01*
X144431287Y-150688110D01*
X144524220Y-150505719D01*
X144587477Y-150311034D01*
X144619500Y-150108852D01*
X144619500Y-149904148D01*
X144587477Y-149701966D01*
X144524220Y-149507281D01*
X144524218Y-149507278D01*
X144524218Y-149507276D01*
X144464953Y-149390963D01*
X144431287Y-149324890D01*
X144423556Y-149314249D01*
X144310971Y-149159286D01*
X144166213Y-149014528D01*
X144000613Y-148894215D01*
X144000612Y-148894214D01*
X144000610Y-148894213D01*
X143943653Y-148865191D01*
X143818223Y-148801281D01*
X143623534Y-148738022D01*
X143448995Y-148710378D01*
X143421352Y-148706000D01*
X143216648Y-148706000D01*
X143192329Y-148709851D01*
X143014465Y-148738022D01*
X142819776Y-148801281D01*
X142637386Y-148894215D01*
X142471786Y-149014528D01*
X142327028Y-149159286D01*
X142206715Y-149324886D01*
X142113781Y-149507276D01*
X142050522Y-149701965D01*
X142018500Y-149904148D01*
X124227500Y-149904148D01*
X124227500Y-148441398D01*
X128455750Y-148441398D01*
X128455750Y-148646101D01*
X128487772Y-148848284D01*
X128551031Y-149042973D01*
X128612432Y-149163477D01*
X128643251Y-149223963D01*
X128643965Y-149225363D01*
X128764278Y-149390963D01*
X128909036Y-149535721D01*
X129063999Y-149648306D01*
X129074640Y-149656037D01*
X129164779Y-149701965D01*
X129257026Y-149748968D01*
X129257028Y-149748968D01*
X129257031Y-149748970D01*
X129356671Y-149781345D01*
X129451715Y-149812227D01*
X129552807Y-149828238D01*
X129653898Y-149844250D01*
X129653899Y-149844250D01*
X129858601Y-149844250D01*
X129858602Y-149844250D01*
X130060784Y-149812227D01*
X130060787Y-149812226D01*
X130060788Y-149812226D01*
X130106161Y-149797482D01*
X130255469Y-149748970D01*
X130437860Y-149656037D01*
X130530840Y-149588482D01*
X130603463Y-149535721D01*
X130603465Y-149535718D01*
X130603469Y-149535716D01*
X130748216Y-149390969D01*
X130868537Y-149225360D01*
X130868539Y-149225355D01*
X130869551Y-149223963D01*
X130924881Y-149181296D01*
X130989266Y-149174374D01*
X131122647Y-149195500D01*
X131122648Y-149195500D01*
X131327350Y-149195500D01*
X131327351Y-149195500D01*
X131529533Y-149163477D01*
X131724218Y-149100220D01*
X131906609Y-149007287D01*
X132062241Y-148894215D01*
X132072212Y-148886971D01*
X132072214Y-148886968D01*
X132072218Y-148886966D01*
X132216965Y-148742219D01*
X132216967Y-148742215D01*
X132216970Y-148742213D01*
X132269731Y-148669590D01*
X132337286Y-148576610D01*
X132430219Y-148394219D01*
X132493476Y-148199534D01*
X132525499Y-147997352D01*
X132525499Y-147792648D01*
X136199500Y-147792648D01*
X136199500Y-147997351D01*
X136231522Y-148199534D01*
X136294781Y-148394223D01*
X136387715Y-148576613D01*
X136508028Y-148742213D01*
X136652786Y-148886971D01*
X136807749Y-148999556D01*
X136818390Y-149007287D01*
X136888428Y-149042973D01*
X137000776Y-149100218D01*
X137000778Y-149100218D01*
X137000781Y-149100220D01*
X137105137Y-149134127D01*
X137195465Y-149163477D01*
X137264266Y-149174374D01*
X137397648Y-149195500D01*
X137397649Y-149195500D01*
X137602351Y-149195500D01*
X137602352Y-149195500D01*
X137804534Y-149163477D01*
X137999219Y-149100220D01*
X138181610Y-149007287D01*
X138337242Y-148894215D01*
X138347213Y-148886971D01*
X138347215Y-148886968D01*
X138347219Y-148886966D01*
X138491966Y-148742219D01*
X138491968Y-148742215D01*
X138491971Y-148742213D01*
X138544732Y-148669590D01*
X138612287Y-148576610D01*
X138705220Y-148394219D01*
X138768477Y-148199534D01*
X138800500Y-147997352D01*
X138800500Y-147792648D01*
X138768477Y-147590466D01*
X138755908Y-147551784D01*
X138705218Y-147395776D01*
X138692489Y-147370795D01*
X138679593Y-147302126D01*
X138705869Y-147237386D01*
X138762975Y-147197128D01*
X138802974Y-147190500D01*
X138812761Y-147190500D01*
X138812768Y-147190500D01*
X139036373Y-147161062D01*
X139254223Y-147102689D01*
X139266393Y-147097648D01*
X142899500Y-147097648D01*
X142899500Y-147302351D01*
X142931522Y-147504534D01*
X142994781Y-147699223D01*
X143058691Y-147824653D01*
X143077790Y-147862136D01*
X143087715Y-147881613D01*
X143208028Y-148047213D01*
X143352786Y-148191971D01*
X143507749Y-148304556D01*
X143518390Y-148312287D01*
X143634607Y-148371503D01*
X143700776Y-148405218D01*
X143700778Y-148405218D01*
X143700781Y-148405220D01*
X143805137Y-148439127D01*
X143895465Y-148468477D01*
X143996557Y-148484488D01*
X144097648Y-148500500D01*
X144097649Y-148500500D01*
X144302351Y-148500500D01*
X144302352Y-148500500D01*
X144504534Y-148468477D01*
X144699219Y-148405220D01*
X144881610Y-148312287D01*
X144974590Y-148244732D01*
X145047213Y-148191971D01*
X145047215Y-148191968D01*
X145047219Y-148191966D01*
X145191966Y-148047219D01*
X145191968Y-148047215D01*
X145191971Y-148047213D01*
X145244732Y-147974590D01*
X145312287Y-147881610D01*
X145405220Y-147699219D01*
X145468477Y-147504534D01*
X145500500Y-147302352D01*
X145500500Y-147097648D01*
X145482720Y-146985389D01*
X145468477Y-146895465D01*
X145426514Y-146766317D01*
X145405220Y-146700781D01*
X145405218Y-146700778D01*
X145405218Y-146700776D01*
X145360679Y-146613364D01*
X145312287Y-146518390D01*
X145249099Y-146431418D01*
X145191971Y-146352786D01*
X145047213Y-146208028D01*
X144881613Y-146087715D01*
X144881612Y-146087714D01*
X144881610Y-146087713D01*
X144824653Y-146058691D01*
X144699223Y-145994781D01*
X144504534Y-145931522D01*
X144329995Y-145903878D01*
X144302352Y-145899500D01*
X144097648Y-145899500D01*
X144073329Y-145903351D01*
X143895465Y-145931522D01*
X143700776Y-145994781D01*
X143518386Y-146087715D01*
X143352786Y-146208028D01*
X143208028Y-146352786D01*
X143087715Y-146518386D01*
X142994781Y-146700776D01*
X142931522Y-146895465D01*
X142899500Y-147097648D01*
X139266393Y-147097648D01*
X139310439Y-147079403D01*
X139462582Y-147016385D01*
X139462583Y-147016383D01*
X139462591Y-147016381D01*
X139657910Y-146903613D01*
X139836839Y-146766316D01*
X139996316Y-146606839D01*
X140133613Y-146427910D01*
X140246381Y-146232591D01*
X140332689Y-146024223D01*
X140391062Y-145806373D01*
X140420500Y-145582768D01*
X140420500Y-145357232D01*
X147079500Y-145357232D01*
X147079500Y-145582768D01*
X147108938Y-145806373D01*
X147133891Y-145899500D01*
X147167313Y-146024230D01*
X147253614Y-146232582D01*
X147253622Y-146232598D01*
X147366382Y-146427902D01*
X147366393Y-146427918D01*
X147503682Y-146606837D01*
X147503688Y-146606844D01*
X147663155Y-146766311D01*
X147663162Y-146766317D01*
X147790573Y-146864083D01*
X147842090Y-146903613D01*
X147842097Y-146903617D01*
X148037401Y-147016377D01*
X148037417Y-147016385D01*
X148245769Y-147102686D01*
X148245771Y-147102686D01*
X148245777Y-147102689D01*
X148463627Y-147161062D01*
X148687232Y-147190500D01*
X148687239Y-147190500D01*
X148912761Y-147190500D01*
X148912768Y-147190500D01*
X149136373Y-147161062D01*
X149354223Y-147102689D01*
X149410439Y-147079403D01*
X149562582Y-147016385D01*
X149562585Y-147016383D01*
X149562591Y-147016381D01*
X149757910Y-146903613D01*
X149936839Y-146766316D01*
X150096316Y-146606839D01*
X150233613Y-146427910D01*
X150346381Y-146232591D01*
X150432689Y-146024223D01*
X150491062Y-145806373D01*
X150520500Y-145582768D01*
X150520500Y-145357232D01*
X150491062Y-145133627D01*
X150432689Y-144915777D01*
X150432686Y-144915769D01*
X150346385Y-144707417D01*
X150346380Y-144707408D01*
X150262826Y-144562689D01*
X150262176Y-144561563D01*
X150245704Y-144493664D01*
X150268556Y-144427637D01*
X150323477Y-144384447D01*
X150393031Y-144377805D01*
X150431562Y-144392176D01*
X150577409Y-144476381D01*
X150577412Y-144476382D01*
X150577417Y-144476385D01*
X150785769Y-144562686D01*
X150785771Y-144562686D01*
X150785777Y-144562689D01*
X151003627Y-144621062D01*
X151227232Y-144650500D01*
X151227239Y-144650500D01*
X151452761Y-144650500D01*
X151452768Y-144650500D01*
X151676373Y-144621062D01*
X151894223Y-144562689D01*
X152060866Y-144493664D01*
X152102582Y-144476385D01*
X152102585Y-144476383D01*
X152102591Y-144476381D01*
X152297910Y-144363613D01*
X152476839Y-144226316D01*
X152636316Y-144066839D01*
X152773613Y-143887910D01*
X152886381Y-143692591D01*
X152972689Y-143484223D01*
X153031062Y-143266373D01*
X153060500Y-143042768D01*
X153060500Y-142817232D01*
X153031062Y-142593627D01*
X152972689Y-142375777D01*
X152972686Y-142375769D01*
X152886385Y-142167417D01*
X152886377Y-142167401D01*
X152773617Y-141972097D01*
X152773613Y-141972090D01*
X152636316Y-141793161D01*
X152636311Y-141793155D01*
X152476844Y-141633688D01*
X152476837Y-141633682D01*
X152297918Y-141496393D01*
X152297916Y-141496391D01*
X152297910Y-141496387D01*
X152297905Y-141496384D01*
X152297902Y-141496382D01*
X152102598Y-141383622D01*
X152102582Y-141383614D01*
X151894230Y-141297313D01*
X151676369Y-141238937D01*
X151452778Y-141209501D01*
X151452773Y-141209500D01*
X151452768Y-141209500D01*
X151227232Y-141209500D01*
X151227226Y-141209500D01*
X151227221Y-141209501D01*
X151003630Y-141238937D01*
X150785769Y-141297313D01*
X150577417Y-141383614D01*
X150577401Y-141383622D01*
X150382097Y-141496382D01*
X150382081Y-141496393D01*
X150203162Y-141633682D01*
X150203155Y-141633688D01*
X150043688Y-141793155D01*
X150043682Y-141793162D01*
X149906393Y-141972081D01*
X149906382Y-141972097D01*
X149793622Y-142167401D01*
X149793614Y-142167417D01*
X149707313Y-142375769D01*
X149648937Y-142593630D01*
X149619501Y-142817221D01*
X149619500Y-142817238D01*
X149619500Y-143042761D01*
X149619501Y-143042778D01*
X149648937Y-143266369D01*
X149707313Y-143484230D01*
X149793614Y-143692582D01*
X149793622Y-143692598D01*
X149877822Y-143838435D01*
X149894295Y-143906335D01*
X149871443Y-143972362D01*
X149816521Y-144015552D01*
X149746968Y-144022194D01*
X149708435Y-144007822D01*
X149562598Y-143923622D01*
X149562582Y-143923614D01*
X149354230Y-143837313D01*
X149136369Y-143778937D01*
X148912778Y-143749501D01*
X148912773Y-143749500D01*
X148912768Y-143749500D01*
X148687232Y-143749500D01*
X148687226Y-143749500D01*
X148687221Y-143749501D01*
X148463630Y-143778937D01*
X148245769Y-143837313D01*
X148037417Y-143923614D01*
X148037401Y-143923622D01*
X147842097Y-144036382D01*
X147842081Y-144036393D01*
X147663162Y-144173682D01*
X147663155Y-144173688D01*
X147503688Y-144333155D01*
X147503682Y-144333162D01*
X147366393Y-144512081D01*
X147366382Y-144512097D01*
X147253622Y-144707401D01*
X147253614Y-144707417D01*
X147167313Y-144915769D01*
X147108937Y-145133630D01*
X147079501Y-145357221D01*
X147079500Y-145357232D01*
X140420500Y-145357232D01*
X140391062Y-145133627D01*
X140332689Y-144915777D01*
X140332686Y-144915769D01*
X140246385Y-144707417D01*
X140246380Y-144707408D01*
X140162826Y-144562689D01*
X140162176Y-144561563D01*
X140145704Y-144493664D01*
X140168556Y-144427637D01*
X140223477Y-144384447D01*
X140293031Y-144377805D01*
X140331562Y-144392176D01*
X140477409Y-144476381D01*
X140477412Y-144476382D01*
X140477417Y-144476385D01*
X140685769Y-144562686D01*
X140685771Y-144562686D01*
X140685777Y-144562689D01*
X140903627Y-144621062D01*
X141127232Y-144650500D01*
X141127239Y-144650500D01*
X141352761Y-144650500D01*
X141352768Y-144650500D01*
X141576373Y-144621062D01*
X141794223Y-144562689D01*
X141960866Y-144493664D01*
X142002582Y-144476385D01*
X142002585Y-144476383D01*
X142002591Y-144476381D01*
X142197910Y-144363613D01*
X142376839Y-144226316D01*
X142536316Y-144066839D01*
X142673613Y-143887910D01*
X142786381Y-143692591D01*
X142872689Y-143484223D01*
X142931062Y-143266373D01*
X142960500Y-143042768D01*
X142960500Y-142817232D01*
X142931062Y-142593627D01*
X142872689Y-142375777D01*
X142872686Y-142375769D01*
X142786385Y-142167417D01*
X142786377Y-142167401D01*
X142673617Y-141972097D01*
X142673613Y-141972090D01*
X142536316Y-141793161D01*
X142536311Y-141793155D01*
X142376844Y-141633688D01*
X142376837Y-141633682D01*
X142197918Y-141496393D01*
X142197916Y-141496391D01*
X142197910Y-141496387D01*
X142197905Y-141496384D01*
X142197902Y-141496382D01*
X142002598Y-141383622D01*
X142002582Y-141383614D01*
X141794230Y-141297313D01*
X141576369Y-141238937D01*
X141352778Y-141209501D01*
X141352773Y-141209500D01*
X141352768Y-141209500D01*
X141127232Y-141209500D01*
X141127226Y-141209500D01*
X141127221Y-141209501D01*
X140903630Y-141238937D01*
X140685769Y-141297313D01*
X140477417Y-141383614D01*
X140477401Y-141383622D01*
X140282097Y-141496382D01*
X140282081Y-141496393D01*
X140103162Y-141633682D01*
X140103155Y-141633688D01*
X139943688Y-141793155D01*
X139943682Y-141793162D01*
X139806393Y-141972081D01*
X139806382Y-141972097D01*
X139693622Y-142167401D01*
X139693614Y-142167417D01*
X139607313Y-142375769D01*
X139548937Y-142593630D01*
X139519501Y-142817221D01*
X139519500Y-142817238D01*
X139519500Y-143042761D01*
X139519501Y-143042778D01*
X139548937Y-143266369D01*
X139607313Y-143484230D01*
X139693614Y-143692582D01*
X139693622Y-143692598D01*
X139777822Y-143838435D01*
X139794295Y-143906335D01*
X139771443Y-143972362D01*
X139716521Y-144015552D01*
X139646968Y-144022194D01*
X139608435Y-144007822D01*
X139462598Y-143923622D01*
X139462582Y-143923614D01*
X139254230Y-143837313D01*
X139036369Y-143778937D01*
X138812778Y-143749501D01*
X138812773Y-143749500D01*
X138812768Y-143749500D01*
X138587232Y-143749500D01*
X138587226Y-143749500D01*
X138587221Y-143749501D01*
X138363630Y-143778937D01*
X138145769Y-143837313D01*
X137937417Y-143923614D01*
X137937401Y-143923622D01*
X137742097Y-144036382D01*
X137742081Y-144036393D01*
X137563162Y-144173682D01*
X137563155Y-144173688D01*
X137403688Y-144333155D01*
X137403682Y-144333162D01*
X137266393Y-144512081D01*
X137266382Y-144512097D01*
X137153622Y-144707401D01*
X137153614Y-144707417D01*
X137067313Y-144915769D01*
X137008937Y-145133630D01*
X136979501Y-145357221D01*
X136979500Y-145357232D01*
X136979500Y-145582768D01*
X137008938Y-145806373D01*
X137033891Y-145899500D01*
X137067313Y-146024230D01*
X137153614Y-146232582D01*
X137153622Y-146232598D01*
X137266382Y-146427902D01*
X137266387Y-146427910D01*
X137267806Y-146429760D01*
X137268058Y-146430410D01*
X137268644Y-146431287D01*
X137268447Y-146431418D01*
X137293003Y-146494926D01*
X137278967Y-146563372D01*
X137230155Y-146613364D01*
X137198394Y-146625820D01*
X137195466Y-146626523D01*
X137000778Y-146689781D01*
X136818386Y-146782715D01*
X136652786Y-146903028D01*
X136508028Y-147047786D01*
X136387715Y-147213386D01*
X136294781Y-147395776D01*
X136231522Y-147590465D01*
X136199500Y-147792648D01*
X132525499Y-147792648D01*
X132493476Y-147590466D01*
X132480907Y-147551784D01*
X132430217Y-147395776D01*
X132368817Y-147275273D01*
X132337286Y-147213390D01*
X132299268Y-147161062D01*
X132216970Y-147047786D01*
X132072212Y-146903028D01*
X131906612Y-146782715D01*
X131906611Y-146782714D01*
X131906609Y-146782713D01*
X131849652Y-146753691D01*
X131724222Y-146689781D01*
X131529533Y-146626522D01*
X131354994Y-146598878D01*
X131327351Y-146594500D01*
X131122647Y-146594500D01*
X131098328Y-146598351D01*
X130920464Y-146626522D01*
X130725775Y-146689781D01*
X130543385Y-146782715D01*
X130377785Y-146903028D01*
X130233031Y-147047782D01*
X130233027Y-147047787D01*
X130111696Y-147214787D01*
X130056367Y-147257453D01*
X129991980Y-147264375D01*
X129900903Y-147249950D01*
X129858602Y-147243250D01*
X129653898Y-147243250D01*
X129629579Y-147247101D01*
X129451715Y-147275272D01*
X129257026Y-147338531D01*
X129074636Y-147431465D01*
X128909036Y-147551778D01*
X128764278Y-147696536D01*
X128643965Y-147862136D01*
X128551031Y-148044526D01*
X128487772Y-148239215D01*
X128455750Y-148441398D01*
X124227500Y-148441398D01*
X124227500Y-145357232D01*
X126879500Y-145357232D01*
X126879500Y-145582768D01*
X126908938Y-145806373D01*
X126933891Y-145899500D01*
X126967313Y-146024230D01*
X127053614Y-146232582D01*
X127053622Y-146232598D01*
X127166382Y-146427902D01*
X127166393Y-146427918D01*
X127303682Y-146606837D01*
X127303688Y-146606844D01*
X127463155Y-146766311D01*
X127463162Y-146766317D01*
X127590573Y-146864083D01*
X127642090Y-146903613D01*
X127642097Y-146903617D01*
X127837401Y-147016377D01*
X127837417Y-147016385D01*
X128045769Y-147102686D01*
X128045771Y-147102686D01*
X128045777Y-147102689D01*
X128263627Y-147161062D01*
X128487232Y-147190500D01*
X128487239Y-147190500D01*
X128712761Y-147190500D01*
X128712768Y-147190500D01*
X128936373Y-147161062D01*
X129154223Y-147102689D01*
X129210439Y-147079403D01*
X129362582Y-147016385D01*
X129362585Y-147016383D01*
X129362591Y-147016381D01*
X129557910Y-146903613D01*
X129736839Y-146766316D01*
X129896316Y-146606839D01*
X130033613Y-146427910D01*
X130146381Y-146232591D01*
X130232689Y-146024223D01*
X130291062Y-145806373D01*
X130320500Y-145582768D01*
X130320500Y-145357232D01*
X130291062Y-145133627D01*
X130232689Y-144915777D01*
X130232686Y-144915769D01*
X130146385Y-144707417D01*
X130146380Y-144707408D01*
X130062826Y-144562689D01*
X130062176Y-144561563D01*
X130045704Y-144493664D01*
X130068556Y-144427637D01*
X130123477Y-144384447D01*
X130193031Y-144377805D01*
X130231562Y-144392176D01*
X130377409Y-144476381D01*
X130377412Y-144476382D01*
X130377417Y-144476385D01*
X130585769Y-144562686D01*
X130585771Y-144562686D01*
X130585777Y-144562689D01*
X130803627Y-144621062D01*
X131027232Y-144650500D01*
X131027239Y-144650500D01*
X131252761Y-144650500D01*
X131252768Y-144650500D01*
X131476373Y-144621062D01*
X131694223Y-144562689D01*
X131860866Y-144493664D01*
X131902582Y-144476385D01*
X131902585Y-144476383D01*
X131902591Y-144476381D01*
X132097910Y-144363613D01*
X132276839Y-144226316D01*
X132436316Y-144066839D01*
X132573613Y-143887910D01*
X132686381Y-143692591D01*
X132772689Y-143484223D01*
X132831062Y-143266373D01*
X132860500Y-143042768D01*
X132860500Y-142817232D01*
X132831062Y-142593627D01*
X132772689Y-142375777D01*
X132772686Y-142375769D01*
X132686385Y-142167417D01*
X132686377Y-142167401D01*
X132573617Y-141972097D01*
X132573613Y-141972090D01*
X132436316Y-141793161D01*
X132436311Y-141793155D01*
X132276844Y-141633688D01*
X132276837Y-141633682D01*
X132097918Y-141496393D01*
X132097916Y-141496391D01*
X132097910Y-141496387D01*
X132097905Y-141496384D01*
X132097902Y-141496382D01*
X131902598Y-141383622D01*
X131902582Y-141383614D01*
X131694230Y-141297313D01*
X131476369Y-141238937D01*
X131252778Y-141209501D01*
X131252773Y-141209500D01*
X131252768Y-141209500D01*
X131027232Y-141209500D01*
X131027226Y-141209500D01*
X131027221Y-141209501D01*
X130803630Y-141238937D01*
X130585769Y-141297313D01*
X130377417Y-141383614D01*
X130377401Y-141383622D01*
X130182097Y-141496382D01*
X130182081Y-141496393D01*
X130003162Y-141633682D01*
X130003155Y-141633688D01*
X129843688Y-141793155D01*
X129843682Y-141793162D01*
X129706393Y-141972081D01*
X129706382Y-141972097D01*
X129593622Y-142167401D01*
X129593614Y-142167417D01*
X129507313Y-142375769D01*
X129448937Y-142593630D01*
X129419501Y-142817221D01*
X129419500Y-142817238D01*
X129419500Y-143042761D01*
X129419501Y-143042778D01*
X129448937Y-143266369D01*
X129507313Y-143484230D01*
X129593614Y-143692582D01*
X129593622Y-143692598D01*
X129677822Y-143838435D01*
X129694295Y-143906335D01*
X129671443Y-143972362D01*
X129616521Y-144015552D01*
X129546968Y-144022194D01*
X129508435Y-144007822D01*
X129362598Y-143923622D01*
X129362582Y-143923614D01*
X129154230Y-143837313D01*
X128936369Y-143778937D01*
X128712778Y-143749501D01*
X128712773Y-143749500D01*
X128712768Y-143749500D01*
X128487232Y-143749500D01*
X128487226Y-143749500D01*
X128487221Y-143749501D01*
X128263630Y-143778937D01*
X128045769Y-143837313D01*
X127837417Y-143923614D01*
X127837401Y-143923622D01*
X127642097Y-144036382D01*
X127642081Y-144036393D01*
X127463162Y-144173682D01*
X127463155Y-144173688D01*
X127303688Y-144333155D01*
X127303682Y-144333162D01*
X127166393Y-144512081D01*
X127166382Y-144512097D01*
X127053622Y-144707401D01*
X127053614Y-144707417D01*
X126967313Y-144915769D01*
X126908937Y-145133630D01*
X126879501Y-145357221D01*
X126879500Y-145357232D01*
X124227500Y-145357232D01*
X124227500Y-139750000D01*
X130985000Y-139750000D01*
X133075000Y-139750000D01*
X133075000Y-137850000D01*
X130985000Y-137850000D01*
X130985000Y-139750000D01*
X124227500Y-139750000D01*
X124227500Y-134450000D01*
X130825000Y-134450000D01*
X132915000Y-134450000D01*
X132915000Y-132550000D01*
X130825000Y-132550000D01*
X130825000Y-134450000D01*
X124227500Y-134450000D01*
X124227500Y-129350000D01*
X130825000Y-129350000D01*
X132915000Y-129350000D01*
X132915000Y-127450000D01*
X130825000Y-127450000D01*
X130825000Y-129350000D01*
X124227500Y-129350000D01*
X124227500Y-124995000D01*
X132350000Y-124995000D01*
X134250000Y-124995000D01*
X134250000Y-122905000D01*
X132350000Y-122905000D01*
X132350000Y-124995000D01*
X124227500Y-124995000D01*
X124227500Y-124915000D01*
X126250000Y-124915000D01*
X128150000Y-124915000D01*
X128150000Y-122825000D01*
X126250000Y-122825000D01*
X126250000Y-124915000D01*
X124227500Y-124915000D01*
X124227500Y-115897648D01*
X141499500Y-115897648D01*
X141499500Y-116102351D01*
X141531522Y-116304534D01*
X141594781Y-116499223D01*
X141687715Y-116681613D01*
X141808028Y-116847213D01*
X141952786Y-116991971D01*
X142107749Y-117104556D01*
X142118390Y-117112287D01*
X142234607Y-117171503D01*
X142300776Y-117205218D01*
X142300778Y-117205218D01*
X142300781Y-117205220D01*
X142405137Y-117239127D01*
X142495465Y-117268477D01*
X142596557Y-117284488D01*
X142697648Y-117300500D01*
X142697649Y-117300500D01*
X142902351Y-117300500D01*
X142902352Y-117300500D01*
X143104534Y-117268477D01*
X143299219Y-117205220D01*
X143481610Y-117112287D01*
X143574590Y-117044732D01*
X143647213Y-116991971D01*
X143647215Y-116991968D01*
X143647219Y-116991966D01*
X143791966Y-116847219D01*
X143791968Y-116847215D01*
X143791971Y-116847213D01*
X143844732Y-116774590D01*
X143912287Y-116681610D01*
X144005220Y-116499219D01*
X144068477Y-116304534D01*
X144100500Y-116102352D01*
X144100500Y-115897648D01*
X144068477Y-115695466D01*
X144005220Y-115500781D01*
X144005218Y-115500778D01*
X144005218Y-115500776D01*
X143971503Y-115434607D01*
X143912287Y-115318390D01*
X143904556Y-115307749D01*
X143791971Y-115152786D01*
X143647213Y-115008028D01*
X143481613Y-114887715D01*
X143481612Y-114887714D01*
X143481610Y-114887713D01*
X143424653Y-114858691D01*
X143299223Y-114794781D01*
X143104534Y-114731522D01*
X142929995Y-114703878D01*
X142902352Y-114699500D01*
X142697648Y-114699500D01*
X142673329Y-114703351D01*
X142495465Y-114731522D01*
X142300776Y-114794781D01*
X142118386Y-114887715D01*
X141952786Y-115008028D01*
X141808028Y-115152786D01*
X141687715Y-115318386D01*
X141594781Y-115500776D01*
X141531522Y-115695465D01*
X141499500Y-115897648D01*
X124227500Y-115897648D01*
X124227500Y-112897648D01*
X128699500Y-112897648D01*
X128699500Y-113102351D01*
X128731522Y-113304534D01*
X128794781Y-113499223D01*
X128854062Y-113615567D01*
X128866958Y-113684236D01*
X128854062Y-113728156D01*
X128840202Y-113755357D01*
X128840202Y-113755358D01*
X128776946Y-113950038D01*
X128776946Y-113950041D01*
X128744923Y-114152225D01*
X128744923Y-114356928D01*
X128776945Y-114559111D01*
X128840204Y-114753800D01*
X128933138Y-114936190D01*
X129053451Y-115101790D01*
X129198209Y-115246548D01*
X129353172Y-115359133D01*
X129363813Y-115366864D01*
X129480030Y-115426080D01*
X129546199Y-115459795D01*
X129546201Y-115459795D01*
X129546204Y-115459797D01*
X129650560Y-115493704D01*
X129740888Y-115523054D01*
X129841980Y-115539065D01*
X129943071Y-115555077D01*
X129943072Y-115555077D01*
X130147774Y-115555077D01*
X130147775Y-115555077D01*
X130349957Y-115523054D01*
X130544642Y-115459797D01*
X130727033Y-115366864D01*
X130820013Y-115299309D01*
X130892636Y-115246548D01*
X130892638Y-115246545D01*
X130892642Y-115246543D01*
X131037389Y-115101796D01*
X131037391Y-115101792D01*
X131037394Y-115101790D01*
X131090155Y-115029167D01*
X131157710Y-114936187D01*
X131250643Y-114753796D01*
X131313900Y-114559111D01*
X131345923Y-114356929D01*
X131345923Y-114152225D01*
X131313900Y-113950043D01*
X131313899Y-113950041D01*
X131250641Y-113755353D01*
X131191360Y-113639009D01*
X131178464Y-113570340D01*
X131191361Y-113526418D01*
X131205217Y-113499224D01*
X131205220Y-113499219D01*
X131268477Y-113304534D01*
X131300500Y-113102352D01*
X131300500Y-112897648D01*
X131268477Y-112695466D01*
X131205220Y-112500781D01*
X131205218Y-112500778D01*
X131205218Y-112500776D01*
X131179346Y-112450000D01*
X144185000Y-112450000D01*
X146275000Y-112450000D01*
X146275000Y-110550000D01*
X144185000Y-110550000D01*
X144185000Y-112450000D01*
X131179346Y-112450000D01*
X131164716Y-112421288D01*
X131112287Y-112318390D01*
X131104556Y-112307749D01*
X130991971Y-112152786D01*
X130847213Y-112008028D01*
X130681613Y-111887715D01*
X130681612Y-111887714D01*
X130681610Y-111887713D01*
X130624653Y-111858691D01*
X130499223Y-111794781D01*
X130304534Y-111731522D01*
X130129995Y-111703878D01*
X130102352Y-111699500D01*
X129897648Y-111699500D01*
X129873329Y-111703351D01*
X129695465Y-111731522D01*
X129500776Y-111794781D01*
X129318386Y-111887715D01*
X129152786Y-112008028D01*
X129008028Y-112152786D01*
X128887715Y-112318386D01*
X128794781Y-112500776D01*
X128731522Y-112695465D01*
X128699500Y-112897648D01*
X124227500Y-112897648D01*
X124227500Y-109320800D01*
X136748870Y-109320800D01*
X137279200Y-109851130D01*
X139012319Y-108118011D01*
X139073642Y-108084526D01*
X139143334Y-108089510D01*
X139187681Y-108118011D01*
X140355115Y-109285445D01*
X140885445Y-108755115D01*
X139718011Y-107587681D01*
X139684526Y-107526358D01*
X139689510Y-107456666D01*
X139718011Y-107412319D01*
X141451130Y-105679200D01*
X140920800Y-105148870D01*
X139187681Y-106881989D01*
X139126358Y-106915474D01*
X139056666Y-106910490D01*
X139012319Y-106881989D01*
X137844885Y-105714555D01*
X137314555Y-106244885D01*
X138481989Y-107412319D01*
X138515474Y-107473642D01*
X138510490Y-107543334D01*
X138481989Y-107587681D01*
X136748870Y-109320800D01*
X124227500Y-109320800D01*
X124227500Y-105797648D01*
X126399500Y-105797648D01*
X126399500Y-106002351D01*
X126431522Y-106204534D01*
X126494781Y-106399223D01*
X126587715Y-106581613D01*
X126708028Y-106747213D01*
X126852786Y-106891971D01*
X126959732Y-106969670D01*
X127018390Y-107012287D01*
X127134607Y-107071503D01*
X127200776Y-107105218D01*
X127200778Y-107105218D01*
X127200781Y-107105220D01*
X127305137Y-107139127D01*
X127395465Y-107168477D01*
X127496557Y-107184488D01*
X127597648Y-107200500D01*
X127597649Y-107200500D01*
X127802351Y-107200500D01*
X127802352Y-107200500D01*
X128004534Y-107168477D01*
X128199219Y-107105220D01*
X128381610Y-107012287D01*
X128521723Y-106910490D01*
X128547213Y-106891971D01*
X128547215Y-106891968D01*
X128547219Y-106891966D01*
X128602366Y-106836819D01*
X128663689Y-106803334D01*
X128690047Y-106800500D01*
X128802351Y-106800500D01*
X128802352Y-106800500D01*
X129004534Y-106768477D01*
X129199219Y-106705220D01*
X129381610Y-106612287D01*
X129474590Y-106544732D01*
X129547213Y-106491971D01*
X129547215Y-106491968D01*
X129547219Y-106491966D01*
X129691966Y-106347219D01*
X129691968Y-106347215D01*
X129691971Y-106347213D01*
X129766315Y-106244885D01*
X129812287Y-106181610D01*
X129905220Y-105999219D01*
X129968477Y-105804534D01*
X130000500Y-105602352D01*
X130000500Y-105397648D01*
X129968477Y-105195466D01*
X129905220Y-105000781D01*
X129905218Y-105000778D01*
X129905218Y-105000776D01*
X129857960Y-104908028D01*
X129812287Y-104818390D01*
X129799862Y-104801288D01*
X129691971Y-104652786D01*
X129597896Y-104558711D01*
X149749500Y-104558711D01*
X149749500Y-104801288D01*
X149781161Y-105041785D01*
X149843947Y-105276104D01*
X149895588Y-105400776D01*
X149936776Y-105500212D01*
X150058064Y-105710289D01*
X150058066Y-105710292D01*
X150058067Y-105710293D01*
X150184077Y-105874514D01*
X150209271Y-105939683D01*
X150195232Y-106008128D01*
X150184077Y-106025486D01*
X150058067Y-106189706D01*
X149936777Y-106399785D01*
X149936773Y-106399794D01*
X149843947Y-106623895D01*
X149781161Y-106858214D01*
X149749500Y-107098711D01*
X149749500Y-107341288D01*
X149781161Y-107581785D01*
X149843947Y-107816104D01*
X149932683Y-108030330D01*
X149936776Y-108040212D01*
X150058064Y-108250289D01*
X150058066Y-108250292D01*
X150058067Y-108250293D01*
X150184077Y-108414514D01*
X150209271Y-108479683D01*
X150195232Y-108548128D01*
X150184077Y-108565486D01*
X150058067Y-108729706D01*
X149936777Y-108939785D01*
X149936773Y-108939794D01*
X149843947Y-109163895D01*
X149781161Y-109398214D01*
X149749500Y-109638711D01*
X149749500Y-109881288D01*
X149781161Y-110121785D01*
X149843947Y-110356104D01*
X149924262Y-110550000D01*
X149936776Y-110580212D01*
X150058064Y-110790289D01*
X150058066Y-110790292D01*
X150058067Y-110790293D01*
X150184077Y-110954514D01*
X150209271Y-111019683D01*
X150195232Y-111088128D01*
X150184077Y-111105486D01*
X150058067Y-111269706D01*
X149936777Y-111479785D01*
X149936773Y-111479794D01*
X149843947Y-111703895D01*
X149781161Y-111938214D01*
X149749500Y-112178711D01*
X149749500Y-112421288D01*
X149781161Y-112661781D01*
X149781160Y-112661781D01*
X149843947Y-112896104D01*
X149844587Y-112897648D01*
X149936776Y-113120212D01*
X150058064Y-113330289D01*
X150058066Y-113330292D01*
X150058067Y-113330293D01*
X150184077Y-113494514D01*
X150209271Y-113559683D01*
X150195232Y-113628128D01*
X150184077Y-113645486D01*
X150058067Y-113809706D01*
X149936777Y-114019785D01*
X149936773Y-114019794D01*
X149843947Y-114243895D01*
X149781161Y-114478214D01*
X149749500Y-114718711D01*
X149749500Y-114961288D01*
X149781161Y-115201785D01*
X149843947Y-115436104D01*
X149936773Y-115660205D01*
X149936776Y-115660212D01*
X150058064Y-115870289D01*
X150058066Y-115870292D01*
X150058067Y-115870293D01*
X150184077Y-116034514D01*
X150209271Y-116099683D01*
X150195232Y-116168128D01*
X150184077Y-116185486D01*
X150058067Y-116349706D01*
X149936777Y-116559785D01*
X149936773Y-116559794D01*
X149843947Y-116783895D01*
X149781161Y-117018214D01*
X149749500Y-117258711D01*
X149749500Y-117501288D01*
X149781161Y-117741785D01*
X149843947Y-117976104D01*
X149936773Y-118200205D01*
X149936776Y-118200212D01*
X150058064Y-118410289D01*
X150058066Y-118410292D01*
X150058067Y-118410293D01*
X150205733Y-118602736D01*
X150205739Y-118602743D01*
X150377256Y-118774260D01*
X150377262Y-118774265D01*
X150569711Y-118921936D01*
X150779788Y-119043224D01*
X151003900Y-119136054D01*
X151238211Y-119198838D01*
X151418586Y-119222584D01*
X151478711Y-119230500D01*
X151478712Y-119230500D01*
X151721289Y-119230500D01*
X151769388Y-119224167D01*
X151961789Y-119198838D01*
X152196100Y-119136054D01*
X152420212Y-119043224D01*
X152630289Y-118921936D01*
X152822738Y-118774265D01*
X152994265Y-118602738D01*
X153141936Y-118410289D01*
X153263224Y-118200212D01*
X153356054Y-117976100D01*
X153418838Y-117741789D01*
X153450500Y-117501288D01*
X153450500Y-117258712D01*
X153418838Y-117018211D01*
X153356054Y-116783900D01*
X153263224Y-116559788D01*
X153141936Y-116349711D01*
X153015922Y-116185486D01*
X152990728Y-116120317D01*
X153004766Y-116051872D01*
X153015922Y-116034514D01*
X153017099Y-116032979D01*
X153141936Y-115870289D01*
X153263224Y-115660212D01*
X153356054Y-115436100D01*
X153418838Y-115201789D01*
X153450500Y-114961288D01*
X153450500Y-114718712D01*
X153418838Y-114478211D01*
X153356054Y-114243900D01*
X153263224Y-114019788D01*
X153141936Y-113809711D01*
X153015922Y-113645486D01*
X152990728Y-113580317D01*
X153004766Y-113511872D01*
X153015922Y-113494514D01*
X153017099Y-113492979D01*
X153141936Y-113330289D01*
X153263224Y-113120212D01*
X153356054Y-112896100D01*
X153418838Y-112661789D01*
X153450500Y-112421288D01*
X153450500Y-112178712D01*
X153418838Y-111938211D01*
X153356054Y-111703900D01*
X153354231Y-111699500D01*
X153263226Y-111479794D01*
X153263224Y-111479788D01*
X153141936Y-111269711D01*
X153015922Y-111105486D01*
X152990728Y-111040317D01*
X153004766Y-110971872D01*
X153015922Y-110954514D01*
X153017099Y-110952979D01*
X153141936Y-110790289D01*
X153263224Y-110580212D01*
X153356054Y-110356100D01*
X153418838Y-110121789D01*
X153450500Y-109881288D01*
X153450500Y-109638712D01*
X153418838Y-109398211D01*
X153356054Y-109163900D01*
X153263224Y-108939788D01*
X153141936Y-108729711D01*
X153015922Y-108565486D01*
X152990728Y-108500317D01*
X153004766Y-108431872D01*
X153015922Y-108414514D01*
X153017099Y-108412979D01*
X153141936Y-108250289D01*
X153263224Y-108040212D01*
X153356054Y-107816100D01*
X153418838Y-107581789D01*
X153450500Y-107341288D01*
X153450500Y-107098712D01*
X153418838Y-106858211D01*
X153356054Y-106623900D01*
X153263224Y-106399788D01*
X153141936Y-106189711D01*
X153015922Y-106025486D01*
X152990728Y-105960317D01*
X153004766Y-105891872D01*
X153015922Y-105874514D01*
X153074903Y-105797648D01*
X153141936Y-105710289D01*
X153263224Y-105500212D01*
X153356054Y-105276100D01*
X153418838Y-105041789D01*
X153450500Y-104801288D01*
X153450500Y-104558712D01*
X153418838Y-104318211D01*
X153356054Y-104083900D01*
X153263224Y-103859788D01*
X153141936Y-103649711D01*
X152994265Y-103457262D01*
X152994260Y-103457256D01*
X152822743Y-103285739D01*
X152822736Y-103285733D01*
X152630293Y-103138067D01*
X152630292Y-103138066D01*
X152630289Y-103138064D01*
X152420212Y-103016776D01*
X152420205Y-103016773D01*
X152196104Y-102923947D01*
X151961785Y-102861161D01*
X151721289Y-102829500D01*
X151721288Y-102829500D01*
X151478712Y-102829500D01*
X151478711Y-102829500D01*
X151238214Y-102861161D01*
X151003895Y-102923947D01*
X150779794Y-103016773D01*
X150779785Y-103016777D01*
X150569706Y-103138067D01*
X150377263Y-103285733D01*
X150377256Y-103285739D01*
X150205739Y-103457256D01*
X150205733Y-103457263D01*
X150058067Y-103649706D01*
X149936777Y-103859785D01*
X149936773Y-103859794D01*
X149843947Y-104083895D01*
X149781161Y-104318214D01*
X149749500Y-104558711D01*
X129597896Y-104558711D01*
X129547213Y-104508028D01*
X129381613Y-104387715D01*
X129381612Y-104387714D01*
X129381610Y-104387713D01*
X129324653Y-104358691D01*
X129199223Y-104294781D01*
X129004534Y-104231522D01*
X128829995Y-104203878D01*
X128802352Y-104199500D01*
X128597648Y-104199500D01*
X128573329Y-104203351D01*
X128395465Y-104231522D01*
X128200776Y-104294781D01*
X128018386Y-104387715D01*
X127852786Y-104508028D01*
X127852782Y-104508032D01*
X127797634Y-104563181D01*
X127736311Y-104596666D01*
X127709953Y-104599500D01*
X127597648Y-104599500D01*
X127573329Y-104603351D01*
X127395465Y-104631522D01*
X127200776Y-104694781D01*
X127018386Y-104787715D01*
X126852786Y-104908028D01*
X126708028Y-105052786D01*
X126587715Y-105218386D01*
X126494781Y-105400776D01*
X126431522Y-105595465D01*
X126399500Y-105797648D01*
X124227500Y-105797648D01*
X124227500Y-102907590D01*
X142664089Y-102907590D01*
X142664089Y-102907592D01*
X144141941Y-104385445D01*
X144141942Y-104385445D01*
X145485445Y-103041942D01*
X144007591Y-101564089D01*
X142664089Y-102907590D01*
X124227500Y-102907590D01*
X124227500Y-97297648D01*
X131799500Y-97297648D01*
X131799500Y-97502351D01*
X131831522Y-97704534D01*
X131894781Y-97899223D01*
X131987715Y-98081613D01*
X132108028Y-98247213D01*
X132252786Y-98391971D01*
X132398363Y-98497737D01*
X132418390Y-98512287D01*
X132600781Y-98605220D01*
X132671550Y-98628214D01*
X132720911Y-98658462D01*
X132857683Y-98795234D01*
X132857686Y-98795236D01*
X132857690Y-98795240D01*
X133001940Y-98900042D01*
X133023292Y-98915555D01*
X133139509Y-98974771D01*
X133205678Y-99008486D01*
X133205680Y-99008486D01*
X133205683Y-99008488D01*
X133310039Y-99042395D01*
X133400367Y-99071745D01*
X133501459Y-99087756D01*
X133602550Y-99103768D01*
X133602551Y-99103768D01*
X133807253Y-99103768D01*
X133807254Y-99103768D01*
X133816996Y-99102225D01*
X146094923Y-99102225D01*
X146094923Y-99306928D01*
X146126945Y-99509111D01*
X146190204Y-99703800D01*
X146283138Y-99886190D01*
X146403451Y-100051790D01*
X146548209Y-100196548D01*
X146703172Y-100309133D01*
X146713813Y-100316864D01*
X146830030Y-100376080D01*
X146896199Y-100409795D01*
X146896201Y-100409795D01*
X146896204Y-100409797D01*
X147000560Y-100443704D01*
X147090888Y-100473054D01*
X147191980Y-100489065D01*
X147293071Y-100505077D01*
X147293072Y-100505077D01*
X147497774Y-100505077D01*
X147497775Y-100505077D01*
X147699957Y-100473054D01*
X147894642Y-100409797D01*
X148077033Y-100316864D01*
X148170013Y-100249309D01*
X148242636Y-100196548D01*
X148242638Y-100196545D01*
X148242642Y-100196543D01*
X148387389Y-100051796D01*
X148387391Y-100051792D01*
X148387394Y-100051790D01*
X148440155Y-99979167D01*
X148507710Y-99886187D01*
X148600643Y-99703796D01*
X148663900Y-99509111D01*
X148695923Y-99306929D01*
X148695923Y-99102225D01*
X148666357Y-98915555D01*
X148663900Y-98900042D01*
X148600641Y-98705353D01*
X148507709Y-98522965D01*
X148489379Y-98497737D01*
X148465898Y-98431931D01*
X148481723Y-98363877D01*
X148502008Y-98337176D01*
X148591966Y-98247219D01*
X148712287Y-98081610D01*
X148805220Y-97899219D01*
X148868477Y-97704534D01*
X148900500Y-97502352D01*
X148900500Y-97349946D01*
X150006551Y-97349946D01*
X150006551Y-97349947D01*
X151350053Y-98693449D01*
X152827907Y-97215596D01*
X151484404Y-95872093D01*
X151484403Y-95872093D01*
X150006551Y-97349946D01*
X148900500Y-97349946D01*
X148900500Y-97297648D01*
X148873844Y-97129351D01*
X148868477Y-97095465D01*
X148823179Y-96956054D01*
X148805220Y-96900781D01*
X148805218Y-96900778D01*
X148805218Y-96900776D01*
X148730086Y-96753323D01*
X148712287Y-96718390D01*
X148692375Y-96690983D01*
X148591971Y-96552786D01*
X148447213Y-96408028D01*
X148281613Y-96287715D01*
X148281612Y-96287714D01*
X148281610Y-96287713D01*
X148224653Y-96258691D01*
X148099223Y-96194781D01*
X147904534Y-96131522D01*
X147729995Y-96103878D01*
X147702352Y-96099500D01*
X147497648Y-96099500D01*
X147473329Y-96103351D01*
X147295465Y-96131522D01*
X147100776Y-96194781D01*
X146918386Y-96287715D01*
X146752786Y-96408028D01*
X146608028Y-96552786D01*
X146487715Y-96718386D01*
X146394781Y-96900776D01*
X146331522Y-97095465D01*
X146299500Y-97297648D01*
X146299500Y-97502351D01*
X146331522Y-97704534D01*
X146394781Y-97899223D01*
X146487713Y-98081610D01*
X146506044Y-98106840D01*
X146529524Y-98172646D01*
X146513699Y-98240700D01*
X146493408Y-98267407D01*
X146403450Y-98357365D01*
X146283138Y-98522963D01*
X146190204Y-98705353D01*
X146126945Y-98900042D01*
X146094923Y-99102225D01*
X133816996Y-99102225D01*
X134009436Y-99071745D01*
X134204121Y-99008488D01*
X134386512Y-98915555D01*
X134479492Y-98848000D01*
X134552115Y-98795239D01*
X134552117Y-98795236D01*
X134552121Y-98795234D01*
X134696868Y-98650487D01*
X134696870Y-98650483D01*
X134696873Y-98650481D01*
X134749634Y-98577858D01*
X134817189Y-98484878D01*
X134910122Y-98302487D01*
X134973379Y-98107802D01*
X135005402Y-97905620D01*
X135005402Y-97700916D01*
X134973379Y-97498734D01*
X134910122Y-97304049D01*
X134910120Y-97304046D01*
X134910120Y-97304044D01*
X134865053Y-97215596D01*
X134817189Y-97121658D01*
X134798159Y-97095465D01*
X134696873Y-96956054D01*
X134552115Y-96811296D01*
X134386515Y-96690983D01*
X134386514Y-96690982D01*
X134386512Y-96690981D01*
X134327750Y-96661040D01*
X134204121Y-96598047D01*
X134133348Y-96575051D01*
X134083987Y-96544802D01*
X133947213Y-96408028D01*
X133781613Y-96287715D01*
X133781612Y-96287714D01*
X133781610Y-96287713D01*
X133724653Y-96258691D01*
X133599223Y-96194781D01*
X133404534Y-96131522D01*
X133229995Y-96103878D01*
X133202352Y-96099500D01*
X132997648Y-96099500D01*
X132973329Y-96103351D01*
X132795465Y-96131522D01*
X132600776Y-96194781D01*
X132418386Y-96287715D01*
X132252786Y-96408028D01*
X132108028Y-96552786D01*
X131987715Y-96718386D01*
X131894781Y-96900776D01*
X131831522Y-97095465D01*
X131799500Y-97297648D01*
X124227500Y-97297648D01*
X124227500Y-95806148D01*
X139164734Y-95806148D01*
X139164734Y-96010851D01*
X139196756Y-96213034D01*
X139260015Y-96407723D01*
X139321186Y-96527776D01*
X139333929Y-96552786D01*
X139352949Y-96590113D01*
X139404480Y-96661040D01*
X139427960Y-96726846D01*
X139426635Y-96753323D01*
X139399500Y-96924648D01*
X139399500Y-97129351D01*
X139431522Y-97331534D01*
X139494781Y-97526223D01*
X139558691Y-97651653D01*
X139585636Y-97704534D01*
X139587715Y-97708613D01*
X139708028Y-97874213D01*
X139852786Y-98018971D01*
X139973730Y-98106840D01*
X140018390Y-98139287D01*
X140083861Y-98172646D01*
X140200776Y-98232218D01*
X140200778Y-98232218D01*
X140200781Y-98232220D01*
X140305137Y-98266127D01*
X140395465Y-98295477D01*
X140496557Y-98311488D01*
X140597648Y-98327500D01*
X140597649Y-98327500D01*
X140802351Y-98327500D01*
X140802352Y-98327500D01*
X141004534Y-98295477D01*
X141199219Y-98232220D01*
X141381610Y-98139287D01*
X141474590Y-98071732D01*
X141547213Y-98018971D01*
X141547215Y-98018968D01*
X141547219Y-98018966D01*
X141691966Y-97874219D01*
X141691968Y-97874215D01*
X141691971Y-97874213D01*
X141744732Y-97801590D01*
X141812287Y-97708610D01*
X141905220Y-97526219D01*
X141968477Y-97331534D01*
X142000500Y-97129352D01*
X142000500Y-96924648D01*
X141996719Y-96900776D01*
X141968477Y-96722465D01*
X141917096Y-96564333D01*
X141905220Y-96527781D01*
X141905218Y-96527778D01*
X141905218Y-96527776D01*
X141812286Y-96345389D01*
X141760752Y-96274458D01*
X141737273Y-96208653D01*
X141738597Y-96182180D01*
X141765734Y-96010852D01*
X141765734Y-95806148D01*
X141733711Y-95603966D01*
X141670454Y-95409281D01*
X141670452Y-95409278D01*
X141670452Y-95409276D01*
X141636737Y-95343107D01*
X141577521Y-95226890D01*
X141569790Y-95216249D01*
X141457205Y-95061286D01*
X141312447Y-94916528D01*
X141146847Y-94796215D01*
X141146846Y-94796214D01*
X141146844Y-94796213D01*
X141089887Y-94767191D01*
X140964457Y-94703281D01*
X140769768Y-94640022D01*
X140595229Y-94612378D01*
X140567586Y-94608000D01*
X140362882Y-94608000D01*
X140338563Y-94611851D01*
X140160699Y-94640022D01*
X139966010Y-94703281D01*
X139783620Y-94796215D01*
X139618020Y-94916528D01*
X139473262Y-95061286D01*
X139352949Y-95226886D01*
X139260015Y-95409276D01*
X139196756Y-95603965D01*
X139164734Y-95806148D01*
X124227500Y-95806148D01*
X124227500Y-92651500D01*
X124247185Y-92584461D01*
X124299989Y-92538706D01*
X124351500Y-92527500D01*
X153848500Y-92527500D01*
X153915539Y-92547185D01*
G37*
%TD.AperFunction*%
%TD*%
%TA.AperFunction,Conductor*%
%TO.N,GND*%
G36*
X144994236Y-100000000D02*
G01*
X144994236Y-100200000D01*
X144458527Y-100394236D01*
X144399000Y-100100000D01*
X144458527Y-99805764D01*
X144994236Y-100000000D01*
G37*
%TD.AperFunction*%
%TD*%
%TA.AperFunction,Conductor*%
%TO.N,GND*%
G36*
X147225879Y-99911293D02*
G01*
X147166352Y-100205529D01*
X146697474Y-100200000D01*
X146697474Y-100000000D01*
X147058208Y-99661852D01*
X147225879Y-99911293D01*
G37*
%TD.AperFunction*%
%TD*%
M02*
