%TF.GenerationSoftware,KiCad,Pcbnew,9.0.7*%
%TF.CreationDate,2026-02-12T18:36:43-06:00*%
%TF.ProjectId,switchedPhaseShift,73776974-6368-4656-9450-686173655368,rev?*%
%TF.SameCoordinates,Original*%
%TF.FileFunction,Legend,Bot*%
%TF.FilePolarity,Positive*%
%FSLAX46Y46*%
G04 Gerber Fmt 4.6, Leading zero omitted, Abs format (unit mm)*
G04 Created by KiCad (PCBNEW 9.0.7) date 2026-02-12 18:36:43*
%MOMM*%
%LPD*%
G01*
G04 APERTURE LIST*
%ADD10C,0.127000*%
%ADD11C,0.120000*%
%ADD12C,0.152400*%
G04 APERTURE END LIST*
D10*
X145125971Y-106185300D02*
X144649781Y-106185300D01*
X145221209Y-106471015D02*
X144887876Y-105471015D01*
X144887876Y-105471015D02*
X144554543Y-106471015D01*
X144221209Y-105804348D02*
X144221209Y-106471015D01*
X144221209Y-105899586D02*
X144173590Y-105851967D01*
X144173590Y-105851967D02*
X144078352Y-105804348D01*
X144078352Y-105804348D02*
X143935495Y-105804348D01*
X143935495Y-105804348D02*
X143840257Y-105851967D01*
X143840257Y-105851967D02*
X143792638Y-105947205D01*
X143792638Y-105947205D02*
X143792638Y-106471015D01*
X143459304Y-105804348D02*
X143078352Y-105804348D01*
X143316447Y-105471015D02*
X143316447Y-106328157D01*
X143316447Y-106328157D02*
X143268828Y-106423396D01*
X143268828Y-106423396D02*
X143173590Y-106471015D01*
X143173590Y-106471015D02*
X143078352Y-106471015D01*
X142983114Y-106566253D02*
X142221209Y-106566253D01*
X141983113Y-106471015D02*
X141983113Y-105471015D01*
X141506923Y-105804348D02*
X141506923Y-106471015D01*
X141506923Y-105899586D02*
X141459304Y-105851967D01*
X141459304Y-105851967D02*
X141364066Y-105804348D01*
X141364066Y-105804348D02*
X141221209Y-105804348D01*
X141221209Y-105804348D02*
X141125971Y-105851967D01*
X141125971Y-105851967D02*
X141078352Y-105947205D01*
X141078352Y-105947205D02*
X141078352Y-106471015D01*
X150390062Y-134921647D02*
X150390062Y-135683552D01*
X150771015Y-135302599D02*
X150009110Y-135302599D01*
X149771015Y-136016885D02*
X150771015Y-136350218D01*
X150771015Y-136350218D02*
X149771015Y-136683551D01*
X150723396Y-136969266D02*
X150771015Y-137112123D01*
X150771015Y-137112123D02*
X150771015Y-137350218D01*
X150771015Y-137350218D02*
X150723396Y-137445456D01*
X150723396Y-137445456D02*
X150675776Y-137493075D01*
X150675776Y-137493075D02*
X150580538Y-137540694D01*
X150580538Y-137540694D02*
X150485300Y-137540694D01*
X150485300Y-137540694D02*
X150390062Y-137493075D01*
X150390062Y-137493075D02*
X150342443Y-137445456D01*
X150342443Y-137445456D02*
X150294824Y-137350218D01*
X150294824Y-137350218D02*
X150247205Y-137159742D01*
X150247205Y-137159742D02*
X150199586Y-137064504D01*
X150199586Y-137064504D02*
X150151967Y-137016885D01*
X150151967Y-137016885D02*
X150056729Y-136969266D01*
X150056729Y-136969266D02*
X149961491Y-136969266D01*
X149961491Y-136969266D02*
X149866253Y-137016885D01*
X149866253Y-137016885D02*
X149818634Y-137064504D01*
X149818634Y-137064504D02*
X149771015Y-137159742D01*
X149771015Y-137159742D02*
X149771015Y-137397837D01*
X149771015Y-137397837D02*
X149818634Y-137540694D01*
X149918634Y-139145456D02*
X149871015Y-139050218D01*
X149871015Y-139050218D02*
X149871015Y-138907361D01*
X149871015Y-138907361D02*
X149918634Y-138764504D01*
X149918634Y-138764504D02*
X150013872Y-138669266D01*
X150013872Y-138669266D02*
X150109110Y-138621647D01*
X150109110Y-138621647D02*
X150299586Y-138574028D01*
X150299586Y-138574028D02*
X150442443Y-138574028D01*
X150442443Y-138574028D02*
X150632919Y-138621647D01*
X150632919Y-138621647D02*
X150728157Y-138669266D01*
X150728157Y-138669266D02*
X150823396Y-138764504D01*
X150823396Y-138764504D02*
X150871015Y-138907361D01*
X150871015Y-138907361D02*
X150871015Y-139002599D01*
X150871015Y-139002599D02*
X150823396Y-139145456D01*
X150823396Y-139145456D02*
X150775776Y-139193075D01*
X150775776Y-139193075D02*
X150442443Y-139193075D01*
X150442443Y-139193075D02*
X150442443Y-139002599D01*
X150871015Y-139621647D02*
X149871015Y-139621647D01*
X149871015Y-139621647D02*
X150871015Y-140193075D01*
X150871015Y-140193075D02*
X149871015Y-140193075D01*
X150871015Y-140669266D02*
X149871015Y-140669266D01*
X149871015Y-140669266D02*
X149871015Y-140907361D01*
X149871015Y-140907361D02*
X149918634Y-141050218D01*
X149918634Y-141050218D02*
X150013872Y-141145456D01*
X150013872Y-141145456D02*
X150109110Y-141193075D01*
X150109110Y-141193075D02*
X150299586Y-141240694D01*
X150299586Y-141240694D02*
X150442443Y-141240694D01*
X150442443Y-141240694D02*
X150632919Y-141193075D01*
X150632919Y-141193075D02*
X150728157Y-141145456D01*
X150728157Y-141145456D02*
X150823396Y-141050218D01*
X150823396Y-141050218D02*
X150871015Y-140907361D01*
X150871015Y-140907361D02*
X150871015Y-140669266D01*
X148906924Y-112775776D02*
X148954543Y-112823396D01*
X148954543Y-112823396D02*
X149097400Y-112871015D01*
X149097400Y-112871015D02*
X149192638Y-112871015D01*
X149192638Y-112871015D02*
X149335495Y-112823396D01*
X149335495Y-112823396D02*
X149430733Y-112728157D01*
X149430733Y-112728157D02*
X149478352Y-112632919D01*
X149478352Y-112632919D02*
X149525971Y-112442443D01*
X149525971Y-112442443D02*
X149525971Y-112299586D01*
X149525971Y-112299586D02*
X149478352Y-112109110D01*
X149478352Y-112109110D02*
X149430733Y-112013872D01*
X149430733Y-112013872D02*
X149335495Y-111918634D01*
X149335495Y-111918634D02*
X149192638Y-111871015D01*
X149192638Y-111871015D02*
X149097400Y-111871015D01*
X149097400Y-111871015D02*
X148954543Y-111918634D01*
X148954543Y-111918634D02*
X148906924Y-111966253D01*
X148049781Y-112204348D02*
X148049781Y-112871015D01*
X148287876Y-111823396D02*
X148525971Y-112537681D01*
X148525971Y-112537681D02*
X147906924Y-112537681D01*
X148954543Y-119318634D02*
X149049781Y-119271015D01*
X149049781Y-119271015D02*
X149192638Y-119271015D01*
X149192638Y-119271015D02*
X149335495Y-119318634D01*
X149335495Y-119318634D02*
X149430733Y-119413872D01*
X149430733Y-119413872D02*
X149478352Y-119509110D01*
X149478352Y-119509110D02*
X149525971Y-119699586D01*
X149525971Y-119699586D02*
X149525971Y-119842443D01*
X149525971Y-119842443D02*
X149478352Y-120032919D01*
X149478352Y-120032919D02*
X149430733Y-120128157D01*
X149430733Y-120128157D02*
X149335495Y-120223396D01*
X149335495Y-120223396D02*
X149192638Y-120271015D01*
X149192638Y-120271015D02*
X149097400Y-120271015D01*
X149097400Y-120271015D02*
X148954543Y-120223396D01*
X148954543Y-120223396D02*
X148906924Y-120175776D01*
X148906924Y-120175776D02*
X148906924Y-119842443D01*
X148906924Y-119842443D02*
X149097400Y-119842443D01*
X148478352Y-120271015D02*
X148478352Y-119271015D01*
X148478352Y-119271015D02*
X147906924Y-120271015D01*
X147906924Y-120271015D02*
X147906924Y-119271015D01*
X147430733Y-120271015D02*
X147430733Y-119271015D01*
X147430733Y-119271015D02*
X147192638Y-119271015D01*
X147192638Y-119271015D02*
X147049781Y-119318634D01*
X147049781Y-119318634D02*
X146954543Y-119413872D01*
X146954543Y-119413872D02*
X146906924Y-119509110D01*
X146906924Y-119509110D02*
X146859305Y-119699586D01*
X146859305Y-119699586D02*
X146859305Y-119842443D01*
X146859305Y-119842443D02*
X146906924Y-120032919D01*
X146906924Y-120032919D02*
X146954543Y-120128157D01*
X146954543Y-120128157D02*
X147049781Y-120223396D01*
X147049781Y-120223396D02*
X147192638Y-120271015D01*
X147192638Y-120271015D02*
X147430733Y-120271015D01*
X149478352Y-117390062D02*
X148716448Y-117390062D01*
X149097400Y-117771015D02*
X149097400Y-117009110D01*
X147764067Y-116771015D02*
X148240257Y-116771015D01*
X148240257Y-116771015D02*
X148287876Y-117247205D01*
X148287876Y-117247205D02*
X148240257Y-117199586D01*
X148240257Y-117199586D02*
X148145019Y-117151967D01*
X148145019Y-117151967D02*
X147906924Y-117151967D01*
X147906924Y-117151967D02*
X147811686Y-117199586D01*
X147811686Y-117199586D02*
X147764067Y-117247205D01*
X147764067Y-117247205D02*
X147716448Y-117342443D01*
X147716448Y-117342443D02*
X147716448Y-117580538D01*
X147716448Y-117580538D02*
X147764067Y-117675776D01*
X147764067Y-117675776D02*
X147811686Y-117723396D01*
X147811686Y-117723396D02*
X147906924Y-117771015D01*
X147906924Y-117771015D02*
X148145019Y-117771015D01*
X148145019Y-117771015D02*
X148240257Y-117723396D01*
X148240257Y-117723396D02*
X148287876Y-117675776D01*
X147430733Y-116771015D02*
X147097400Y-117771015D01*
X147097400Y-117771015D02*
X146764067Y-116771015D01*
X148906924Y-115175776D02*
X148954543Y-115223396D01*
X148954543Y-115223396D02*
X149097400Y-115271015D01*
X149097400Y-115271015D02*
X149192638Y-115271015D01*
X149192638Y-115271015D02*
X149335495Y-115223396D01*
X149335495Y-115223396D02*
X149430733Y-115128157D01*
X149430733Y-115128157D02*
X149478352Y-115032919D01*
X149478352Y-115032919D02*
X149525971Y-114842443D01*
X149525971Y-114842443D02*
X149525971Y-114699586D01*
X149525971Y-114699586D02*
X149478352Y-114509110D01*
X149478352Y-114509110D02*
X149430733Y-114413872D01*
X149430733Y-114413872D02*
X149335495Y-114318634D01*
X149335495Y-114318634D02*
X149192638Y-114271015D01*
X149192638Y-114271015D02*
X149097400Y-114271015D01*
X149097400Y-114271015D02*
X148954543Y-114318634D01*
X148954543Y-114318634D02*
X148906924Y-114366253D01*
X148002162Y-114271015D02*
X148478352Y-114271015D01*
X148478352Y-114271015D02*
X148525971Y-114747205D01*
X148525971Y-114747205D02*
X148478352Y-114699586D01*
X148478352Y-114699586D02*
X148383114Y-114651967D01*
X148383114Y-114651967D02*
X148145019Y-114651967D01*
X148145019Y-114651967D02*
X148049781Y-114699586D01*
X148049781Y-114699586D02*
X148002162Y-114747205D01*
X148002162Y-114747205D02*
X147954543Y-114842443D01*
X147954543Y-114842443D02*
X147954543Y-115080538D01*
X147954543Y-115080538D02*
X148002162Y-115175776D01*
X148002162Y-115175776D02*
X148049781Y-115223396D01*
X148049781Y-115223396D02*
X148145019Y-115271015D01*
X148145019Y-115271015D02*
X148383114Y-115271015D01*
X148383114Y-115271015D02*
X148478352Y-115223396D01*
X148478352Y-115223396D02*
X148525971Y-115175776D01*
X148906924Y-110175776D02*
X148954543Y-110223396D01*
X148954543Y-110223396D02*
X149097400Y-110271015D01*
X149097400Y-110271015D02*
X149192638Y-110271015D01*
X149192638Y-110271015D02*
X149335495Y-110223396D01*
X149335495Y-110223396D02*
X149430733Y-110128157D01*
X149430733Y-110128157D02*
X149478352Y-110032919D01*
X149478352Y-110032919D02*
X149525971Y-109842443D01*
X149525971Y-109842443D02*
X149525971Y-109699586D01*
X149525971Y-109699586D02*
X149478352Y-109509110D01*
X149478352Y-109509110D02*
X149430733Y-109413872D01*
X149430733Y-109413872D02*
X149335495Y-109318634D01*
X149335495Y-109318634D02*
X149192638Y-109271015D01*
X149192638Y-109271015D02*
X149097400Y-109271015D01*
X149097400Y-109271015D02*
X148954543Y-109318634D01*
X148954543Y-109318634D02*
X148906924Y-109366253D01*
X148573590Y-109271015D02*
X147954543Y-109271015D01*
X147954543Y-109271015D02*
X148287876Y-109651967D01*
X148287876Y-109651967D02*
X148145019Y-109651967D01*
X148145019Y-109651967D02*
X148049781Y-109699586D01*
X148049781Y-109699586D02*
X148002162Y-109747205D01*
X148002162Y-109747205D02*
X147954543Y-109842443D01*
X147954543Y-109842443D02*
X147954543Y-110080538D01*
X147954543Y-110080538D02*
X148002162Y-110175776D01*
X148002162Y-110175776D02*
X148049781Y-110223396D01*
X148049781Y-110223396D02*
X148145019Y-110271015D01*
X148145019Y-110271015D02*
X148430733Y-110271015D01*
X148430733Y-110271015D02*
X148525971Y-110223396D01*
X148525971Y-110223396D02*
X148573590Y-110175776D01*
X148906924Y-107575776D02*
X148954543Y-107623396D01*
X148954543Y-107623396D02*
X149097400Y-107671015D01*
X149097400Y-107671015D02*
X149192638Y-107671015D01*
X149192638Y-107671015D02*
X149335495Y-107623396D01*
X149335495Y-107623396D02*
X149430733Y-107528157D01*
X149430733Y-107528157D02*
X149478352Y-107432919D01*
X149478352Y-107432919D02*
X149525971Y-107242443D01*
X149525971Y-107242443D02*
X149525971Y-107099586D01*
X149525971Y-107099586D02*
X149478352Y-106909110D01*
X149478352Y-106909110D02*
X149430733Y-106813872D01*
X149430733Y-106813872D02*
X149335495Y-106718634D01*
X149335495Y-106718634D02*
X149192638Y-106671015D01*
X149192638Y-106671015D02*
X149097400Y-106671015D01*
X149097400Y-106671015D02*
X148954543Y-106718634D01*
X148954543Y-106718634D02*
X148906924Y-106766253D01*
X148525971Y-106766253D02*
X148478352Y-106718634D01*
X148478352Y-106718634D02*
X148383114Y-106671015D01*
X148383114Y-106671015D02*
X148145019Y-106671015D01*
X148145019Y-106671015D02*
X148049781Y-106718634D01*
X148049781Y-106718634D02*
X148002162Y-106766253D01*
X148002162Y-106766253D02*
X147954543Y-106861491D01*
X147954543Y-106861491D02*
X147954543Y-106956729D01*
X147954543Y-106956729D02*
X148002162Y-107099586D01*
X148002162Y-107099586D02*
X148573590Y-107671015D01*
X148573590Y-107671015D02*
X147954543Y-107671015D01*
X148906924Y-105075776D02*
X148954543Y-105123396D01*
X148954543Y-105123396D02*
X149097400Y-105171015D01*
X149097400Y-105171015D02*
X149192638Y-105171015D01*
X149192638Y-105171015D02*
X149335495Y-105123396D01*
X149335495Y-105123396D02*
X149430733Y-105028157D01*
X149430733Y-105028157D02*
X149478352Y-104932919D01*
X149478352Y-104932919D02*
X149525971Y-104742443D01*
X149525971Y-104742443D02*
X149525971Y-104599586D01*
X149525971Y-104599586D02*
X149478352Y-104409110D01*
X149478352Y-104409110D02*
X149430733Y-104313872D01*
X149430733Y-104313872D02*
X149335495Y-104218634D01*
X149335495Y-104218634D02*
X149192638Y-104171015D01*
X149192638Y-104171015D02*
X149097400Y-104171015D01*
X149097400Y-104171015D02*
X148954543Y-104218634D01*
X148954543Y-104218634D02*
X148906924Y-104266253D01*
X147954543Y-105171015D02*
X148525971Y-105171015D01*
X148240257Y-105171015D02*
X148240257Y-104171015D01*
X148240257Y-104171015D02*
X148335495Y-104313872D01*
X148335495Y-104313872D02*
X148430733Y-104409110D01*
X148430733Y-104409110D02*
X148525971Y-104456729D01*
X124771015Y-126326409D02*
X125771015Y-126564504D01*
X125771015Y-126564504D02*
X125056729Y-126754980D01*
X125056729Y-126754980D02*
X125771015Y-126945456D01*
X125771015Y-126945456D02*
X124771015Y-127183552D01*
X125771015Y-127564504D02*
X125104348Y-127564504D01*
X124771015Y-127564504D02*
X124818634Y-127516885D01*
X124818634Y-127516885D02*
X124866253Y-127564504D01*
X124866253Y-127564504D02*
X124818634Y-127612123D01*
X124818634Y-127612123D02*
X124771015Y-127564504D01*
X124771015Y-127564504D02*
X124866253Y-127564504D01*
X125771015Y-128183551D02*
X125723396Y-128088313D01*
X125723396Y-128088313D02*
X125628157Y-128040694D01*
X125628157Y-128040694D02*
X124771015Y-128040694D01*
X125771015Y-128564504D02*
X124771015Y-128564504D01*
X125390062Y-128659742D02*
X125771015Y-128945456D01*
X125104348Y-128945456D02*
X125485300Y-128564504D01*
X125771015Y-129374028D02*
X125104348Y-129374028D01*
X124771015Y-129374028D02*
X124818634Y-129326409D01*
X124818634Y-129326409D02*
X124866253Y-129374028D01*
X124866253Y-129374028D02*
X124818634Y-129421647D01*
X124818634Y-129421647D02*
X124771015Y-129374028D01*
X124771015Y-129374028D02*
X124866253Y-129374028D01*
X125104348Y-129850218D02*
X125771015Y-129850218D01*
X125199586Y-129850218D02*
X125151967Y-129897837D01*
X125151967Y-129897837D02*
X125104348Y-129993075D01*
X125104348Y-129993075D02*
X125104348Y-130135932D01*
X125104348Y-130135932D02*
X125151967Y-130231170D01*
X125151967Y-130231170D02*
X125247205Y-130278789D01*
X125247205Y-130278789D02*
X125771015Y-130278789D01*
X125723396Y-130707361D02*
X125771015Y-130802599D01*
X125771015Y-130802599D02*
X125771015Y-130993075D01*
X125771015Y-130993075D02*
X125723396Y-131088313D01*
X125723396Y-131088313D02*
X125628157Y-131135932D01*
X125628157Y-131135932D02*
X125580538Y-131135932D01*
X125580538Y-131135932D02*
X125485300Y-131088313D01*
X125485300Y-131088313D02*
X125437681Y-130993075D01*
X125437681Y-130993075D02*
X125437681Y-130850218D01*
X125437681Y-130850218D02*
X125390062Y-130754980D01*
X125390062Y-130754980D02*
X125294824Y-130707361D01*
X125294824Y-130707361D02*
X125247205Y-130707361D01*
X125247205Y-130707361D02*
X125151967Y-130754980D01*
X125151967Y-130754980D02*
X125104348Y-130850218D01*
X125104348Y-130850218D02*
X125104348Y-130993075D01*
X125104348Y-130993075D02*
X125151967Y-131088313D01*
X125771015Y-131707361D02*
X125723396Y-131612123D01*
X125723396Y-131612123D02*
X125675776Y-131564504D01*
X125675776Y-131564504D02*
X125580538Y-131516885D01*
X125580538Y-131516885D02*
X125294824Y-131516885D01*
X125294824Y-131516885D02*
X125199586Y-131564504D01*
X125199586Y-131564504D02*
X125151967Y-131612123D01*
X125151967Y-131612123D02*
X125104348Y-131707361D01*
X125104348Y-131707361D02*
X125104348Y-131850218D01*
X125104348Y-131850218D02*
X125151967Y-131945456D01*
X125151967Y-131945456D02*
X125199586Y-131993075D01*
X125199586Y-131993075D02*
X125294824Y-132040694D01*
X125294824Y-132040694D02*
X125580538Y-132040694D01*
X125580538Y-132040694D02*
X125675776Y-131993075D01*
X125675776Y-131993075D02*
X125723396Y-131945456D01*
X125723396Y-131945456D02*
X125771015Y-131850218D01*
X125771015Y-131850218D02*
X125771015Y-131707361D01*
X125104348Y-132469266D02*
X125771015Y-132469266D01*
X125199586Y-132469266D02*
X125151967Y-132516885D01*
X125151967Y-132516885D02*
X125104348Y-132612123D01*
X125104348Y-132612123D02*
X125104348Y-132754980D01*
X125104348Y-132754980D02*
X125151967Y-132850218D01*
X125151967Y-132850218D02*
X125247205Y-132897837D01*
X125247205Y-132897837D02*
X125771015Y-132897837D01*
X148371015Y-159578790D02*
X148371015Y-160150218D01*
X149371015Y-159864504D02*
X148371015Y-159864504D01*
X149466253Y-160245457D02*
X149466253Y-161007361D01*
X148371015Y-161531171D02*
X149085300Y-161531171D01*
X149085300Y-161531171D02*
X149228157Y-161483552D01*
X149228157Y-161483552D02*
X149323396Y-161388314D01*
X149323396Y-161388314D02*
X149371015Y-161245457D01*
X149371015Y-161245457D02*
X149371015Y-161150219D01*
X148704348Y-162435933D02*
X149371015Y-162435933D01*
X148704348Y-162007362D02*
X149228157Y-162007362D01*
X149228157Y-162007362D02*
X149323396Y-162054981D01*
X149323396Y-162054981D02*
X149371015Y-162150219D01*
X149371015Y-162150219D02*
X149371015Y-162293076D01*
X149371015Y-162293076D02*
X149323396Y-162388314D01*
X149323396Y-162388314D02*
X149275776Y-162435933D01*
X148704348Y-162912124D02*
X149371015Y-162912124D01*
X148799586Y-162912124D02*
X148751967Y-162959743D01*
X148751967Y-162959743D02*
X148704348Y-163054981D01*
X148704348Y-163054981D02*
X148704348Y-163197838D01*
X148704348Y-163197838D02*
X148751967Y-163293076D01*
X148751967Y-163293076D02*
X148847205Y-163340695D01*
X148847205Y-163340695D02*
X149371015Y-163340695D01*
X149323396Y-164245457D02*
X149371015Y-164150219D01*
X149371015Y-164150219D02*
X149371015Y-163959743D01*
X149371015Y-163959743D02*
X149323396Y-163864505D01*
X149323396Y-163864505D02*
X149275776Y-163816886D01*
X149275776Y-163816886D02*
X149180538Y-163769267D01*
X149180538Y-163769267D02*
X148894824Y-163769267D01*
X148894824Y-163769267D02*
X148799586Y-163816886D01*
X148799586Y-163816886D02*
X148751967Y-163864505D01*
X148751967Y-163864505D02*
X148704348Y-163959743D01*
X148704348Y-163959743D02*
X148704348Y-164150219D01*
X148704348Y-164150219D02*
X148751967Y-164245457D01*
X135878352Y-173371015D02*
X135878352Y-172371015D01*
X134735496Y-173466253D02*
X134830734Y-173418634D01*
X134830734Y-173418634D02*
X134925972Y-173323396D01*
X134925972Y-173323396D02*
X135068829Y-173180538D01*
X135068829Y-173180538D02*
X135164067Y-173132919D01*
X135164067Y-173132919D02*
X135259305Y-173132919D01*
X135211686Y-173371015D02*
X135306924Y-173323396D01*
X135306924Y-173323396D02*
X135402162Y-173228157D01*
X135402162Y-173228157D02*
X135449781Y-173037681D01*
X135449781Y-173037681D02*
X135449781Y-172704348D01*
X135449781Y-172704348D02*
X135402162Y-172513872D01*
X135402162Y-172513872D02*
X135306924Y-172418634D01*
X135306924Y-172418634D02*
X135211686Y-172371015D01*
X135211686Y-172371015D02*
X135021210Y-172371015D01*
X135021210Y-172371015D02*
X134925972Y-172418634D01*
X134925972Y-172418634D02*
X134830734Y-172513872D01*
X134830734Y-172513872D02*
X134783115Y-172704348D01*
X134783115Y-172704348D02*
X134783115Y-173037681D01*
X134783115Y-173037681D02*
X134830734Y-173228157D01*
X134830734Y-173228157D02*
X134925972Y-173323396D01*
X134925972Y-173323396D02*
X135021210Y-173371015D01*
X135021210Y-173371015D02*
X135211686Y-173371015D01*
X134592639Y-173466253D02*
X133830734Y-173466253D01*
X133592638Y-173371015D02*
X133592638Y-172371015D01*
X133116448Y-172704348D02*
X133116448Y-173371015D01*
X133116448Y-172799586D02*
X133068829Y-172751967D01*
X133068829Y-172751967D02*
X132973591Y-172704348D01*
X132973591Y-172704348D02*
X132830734Y-172704348D01*
X132830734Y-172704348D02*
X132735496Y-172751967D01*
X132735496Y-172751967D02*
X132687877Y-172847205D01*
X132687877Y-172847205D02*
X132687877Y-173371015D01*
X153306924Y-173471015D02*
X153640257Y-172994824D01*
X153878352Y-173471015D02*
X153878352Y-172471015D01*
X153878352Y-172471015D02*
X153497400Y-172471015D01*
X153497400Y-172471015D02*
X153402162Y-172518634D01*
X153402162Y-172518634D02*
X153354543Y-172566253D01*
X153354543Y-172566253D02*
X153306924Y-172661491D01*
X153306924Y-172661491D02*
X153306924Y-172804348D01*
X153306924Y-172804348D02*
X153354543Y-172899586D01*
X153354543Y-172899586D02*
X153402162Y-172947205D01*
X153402162Y-172947205D02*
X153497400Y-172994824D01*
X153497400Y-172994824D02*
X153878352Y-172994824D01*
X152497400Y-173423396D02*
X152592638Y-173471015D01*
X152592638Y-173471015D02*
X152783114Y-173471015D01*
X152783114Y-173471015D02*
X152878352Y-173423396D01*
X152878352Y-173423396D02*
X152925971Y-173328157D01*
X152925971Y-173328157D02*
X152925971Y-172947205D01*
X152925971Y-172947205D02*
X152878352Y-172851967D01*
X152878352Y-172851967D02*
X152783114Y-172804348D01*
X152783114Y-172804348D02*
X152592638Y-172804348D01*
X152592638Y-172804348D02*
X152497400Y-172851967D01*
X152497400Y-172851967D02*
X152449781Y-172947205D01*
X152449781Y-172947205D02*
X152449781Y-173042443D01*
X152449781Y-173042443D02*
X152925971Y-173137681D01*
X152164066Y-172804348D02*
X151783114Y-172804348D01*
X152021209Y-173471015D02*
X152021209Y-172613872D01*
X152021209Y-172613872D02*
X151973590Y-172518634D01*
X151973590Y-172518634D02*
X151878352Y-172471015D01*
X151878352Y-172471015D02*
X151783114Y-172471015D01*
X151306923Y-173471015D02*
X151402161Y-173423396D01*
X151402161Y-173423396D02*
X151449780Y-173328157D01*
X151449780Y-173328157D02*
X151449780Y-172471015D01*
X150545018Y-173423396D02*
X150640256Y-173471015D01*
X150640256Y-173471015D02*
X150830732Y-173471015D01*
X150830732Y-173471015D02*
X150925970Y-173423396D01*
X150925970Y-173423396D02*
X150973589Y-173328157D01*
X150973589Y-173328157D02*
X150973589Y-172947205D01*
X150973589Y-172947205D02*
X150925970Y-172851967D01*
X150925970Y-172851967D02*
X150830732Y-172804348D01*
X150830732Y-172804348D02*
X150640256Y-172804348D01*
X150640256Y-172804348D02*
X150545018Y-172851967D01*
X150545018Y-172851967D02*
X150497399Y-172947205D01*
X150497399Y-172947205D02*
X150497399Y-173042443D01*
X150497399Y-173042443D02*
X150973589Y-173137681D01*
X149640256Y-173423396D02*
X149735494Y-173471015D01*
X149735494Y-173471015D02*
X149925970Y-173471015D01*
X149925970Y-173471015D02*
X150021208Y-173423396D01*
X150021208Y-173423396D02*
X150068827Y-173375776D01*
X150068827Y-173375776D02*
X150116446Y-173280538D01*
X150116446Y-173280538D02*
X150116446Y-172994824D01*
X150116446Y-172994824D02*
X150068827Y-172899586D01*
X150068827Y-172899586D02*
X150021208Y-172851967D01*
X150021208Y-172851967D02*
X149925970Y-172804348D01*
X149925970Y-172804348D02*
X149735494Y-172804348D01*
X149735494Y-172804348D02*
X149640256Y-172851967D01*
X149354541Y-172804348D02*
X148973589Y-172804348D01*
X149211684Y-172471015D02*
X149211684Y-173328157D01*
X149211684Y-173328157D02*
X149164065Y-173423396D01*
X149164065Y-173423396D02*
X149068827Y-173471015D01*
X149068827Y-173471015D02*
X148973589Y-173471015D01*
X135702162Y-175471015D02*
X136178352Y-175471015D01*
X136178352Y-175471015D02*
X136178352Y-174471015D01*
X135368828Y-175471015D02*
X135368828Y-174804348D01*
X135368828Y-174471015D02*
X135416447Y-174518634D01*
X135416447Y-174518634D02*
X135368828Y-174566253D01*
X135368828Y-174566253D02*
X135321209Y-174518634D01*
X135321209Y-174518634D02*
X135368828Y-174471015D01*
X135368828Y-174471015D02*
X135368828Y-174566253D01*
X134892638Y-174804348D02*
X134892638Y-175471015D01*
X134892638Y-174899586D02*
X134845019Y-174851967D01*
X134845019Y-174851967D02*
X134749781Y-174804348D01*
X134749781Y-174804348D02*
X134606924Y-174804348D01*
X134606924Y-174804348D02*
X134511686Y-174851967D01*
X134511686Y-174851967D02*
X134464067Y-174947205D01*
X134464067Y-174947205D02*
X134464067Y-175471015D01*
X133606924Y-175423396D02*
X133702162Y-175471015D01*
X133702162Y-175471015D02*
X133892638Y-175471015D01*
X133892638Y-175471015D02*
X133987876Y-175423396D01*
X133987876Y-175423396D02*
X134035495Y-175328157D01*
X134035495Y-175328157D02*
X134035495Y-174947205D01*
X134035495Y-174947205D02*
X133987876Y-174851967D01*
X133987876Y-174851967D02*
X133892638Y-174804348D01*
X133892638Y-174804348D02*
X133702162Y-174804348D01*
X133702162Y-174804348D02*
X133606924Y-174851967D01*
X133606924Y-174851967D02*
X133559305Y-174947205D01*
X133559305Y-174947205D02*
X133559305Y-175042443D01*
X133559305Y-175042443D02*
X134035495Y-175137681D01*
X128321209Y-165171015D02*
X127749781Y-165171015D01*
X128035495Y-166171015D02*
X128035495Y-165171015D01*
X127416447Y-166171015D02*
X127416447Y-165504348D01*
X127416447Y-165694824D02*
X127368828Y-165599586D01*
X127368828Y-165599586D02*
X127321209Y-165551967D01*
X127321209Y-165551967D02*
X127225971Y-165504348D01*
X127225971Y-165504348D02*
X127130733Y-165504348D01*
X126368828Y-166171015D02*
X126368828Y-165647205D01*
X126368828Y-165647205D02*
X126416447Y-165551967D01*
X126416447Y-165551967D02*
X126511685Y-165504348D01*
X126511685Y-165504348D02*
X126702161Y-165504348D01*
X126702161Y-165504348D02*
X126797399Y-165551967D01*
X126368828Y-166123396D02*
X126464066Y-166171015D01*
X126464066Y-166171015D02*
X126702161Y-166171015D01*
X126702161Y-166171015D02*
X126797399Y-166123396D01*
X126797399Y-166123396D02*
X126845018Y-166028157D01*
X126845018Y-166028157D02*
X126845018Y-165932919D01*
X126845018Y-165932919D02*
X126797399Y-165837681D01*
X126797399Y-165837681D02*
X126702161Y-165790062D01*
X126702161Y-165790062D02*
X126464066Y-165790062D01*
X126464066Y-165790062D02*
X126368828Y-165742443D01*
X125464066Y-166123396D02*
X125559304Y-166171015D01*
X125559304Y-166171015D02*
X125749780Y-166171015D01*
X125749780Y-166171015D02*
X125845018Y-166123396D01*
X125845018Y-166123396D02*
X125892637Y-166075776D01*
X125892637Y-166075776D02*
X125940256Y-165980538D01*
X125940256Y-165980538D02*
X125940256Y-165694824D01*
X125940256Y-165694824D02*
X125892637Y-165599586D01*
X125892637Y-165599586D02*
X125845018Y-165551967D01*
X125845018Y-165551967D02*
X125749780Y-165504348D01*
X125749780Y-165504348D02*
X125559304Y-165504348D01*
X125559304Y-165504348D02*
X125464066Y-165551967D01*
X124654542Y-166123396D02*
X124749780Y-166171015D01*
X124749780Y-166171015D02*
X124940256Y-166171015D01*
X124940256Y-166171015D02*
X125035494Y-166123396D01*
X125035494Y-166123396D02*
X125083113Y-166028157D01*
X125083113Y-166028157D02*
X125083113Y-165647205D01*
X125083113Y-165647205D02*
X125035494Y-165551967D01*
X125035494Y-165551967D02*
X124940256Y-165504348D01*
X124940256Y-165504348D02*
X124749780Y-165504348D01*
X124749780Y-165504348D02*
X124654542Y-165551967D01*
X124654542Y-165551967D02*
X124606923Y-165647205D01*
X124606923Y-165647205D02*
X124606923Y-165742443D01*
X124606923Y-165742443D02*
X125083113Y-165837681D01*
X132166666Y-133163491D02*
X132166666Y-133734919D01*
X132166666Y-133734919D02*
X132204761Y-133849205D01*
X132204761Y-133849205D02*
X132280952Y-133925396D01*
X132280952Y-133925396D02*
X132395237Y-133963491D01*
X132395237Y-133963491D02*
X132471428Y-133963491D01*
X131861904Y-133163491D02*
X131366666Y-133163491D01*
X131366666Y-133163491D02*
X131633332Y-133468253D01*
X131633332Y-133468253D02*
X131519047Y-133468253D01*
X131519047Y-133468253D02*
X131442856Y-133506348D01*
X131442856Y-133506348D02*
X131404761Y-133544443D01*
X131404761Y-133544443D02*
X131366666Y-133620634D01*
X131366666Y-133620634D02*
X131366666Y-133811110D01*
X131366666Y-133811110D02*
X131404761Y-133887300D01*
X131404761Y-133887300D02*
X131442856Y-133925396D01*
X131442856Y-133925396D02*
X131519047Y-133963491D01*
X131519047Y-133963491D02*
X131747618Y-133963491D01*
X131747618Y-133963491D02*
X131823809Y-133925396D01*
X131823809Y-133925396D02*
X131861904Y-133887300D01*
X142309523Y-127763491D02*
X142309523Y-128411110D01*
X142309523Y-128411110D02*
X142271428Y-128487300D01*
X142271428Y-128487300D02*
X142233333Y-128525396D01*
X142233333Y-128525396D02*
X142157142Y-128563491D01*
X142157142Y-128563491D02*
X142004761Y-128563491D01*
X142004761Y-128563491D02*
X141928571Y-128525396D01*
X141928571Y-128525396D02*
X141890476Y-128487300D01*
X141890476Y-128487300D02*
X141852380Y-128411110D01*
X141852380Y-128411110D02*
X141852380Y-127763491D01*
X141547619Y-127763491D02*
X141052381Y-127763491D01*
X141052381Y-127763491D02*
X141319047Y-128068253D01*
X141319047Y-128068253D02*
X141204762Y-128068253D01*
X141204762Y-128068253D02*
X141128571Y-128106348D01*
X141128571Y-128106348D02*
X141090476Y-128144443D01*
X141090476Y-128144443D02*
X141052381Y-128220634D01*
X141052381Y-128220634D02*
X141052381Y-128411110D01*
X141052381Y-128411110D02*
X141090476Y-128487300D01*
X141090476Y-128487300D02*
X141128571Y-128525396D01*
X141128571Y-128525396D02*
X141204762Y-128563491D01*
X141204762Y-128563491D02*
X141433333Y-128563491D01*
X141433333Y-128563491D02*
X141509524Y-128525396D01*
X141509524Y-128525396D02*
X141547619Y-128487300D01*
X141319046Y-152715491D02*
X141319046Y-151915491D01*
X140671428Y-152296443D02*
X140557142Y-152334538D01*
X140557142Y-152334538D02*
X140519047Y-152372634D01*
X140519047Y-152372634D02*
X140480951Y-152448824D01*
X140480951Y-152448824D02*
X140480951Y-152563110D01*
X140480951Y-152563110D02*
X140519047Y-152639300D01*
X140519047Y-152639300D02*
X140557142Y-152677396D01*
X140557142Y-152677396D02*
X140633332Y-152715491D01*
X140633332Y-152715491D02*
X140938094Y-152715491D01*
X140938094Y-152715491D02*
X140938094Y-151915491D01*
X140938094Y-151915491D02*
X140671428Y-151915491D01*
X140671428Y-151915491D02*
X140595237Y-151953586D01*
X140595237Y-151953586D02*
X140557142Y-151991681D01*
X140557142Y-151991681D02*
X140519047Y-152067872D01*
X140519047Y-152067872D02*
X140519047Y-152144062D01*
X140519047Y-152144062D02*
X140557142Y-152220253D01*
X140557142Y-152220253D02*
X140595237Y-152258348D01*
X140595237Y-152258348D02*
X140671428Y-152296443D01*
X140671428Y-152296443D02*
X140938094Y-152296443D01*
X139871428Y-152296443D02*
X139757142Y-152334538D01*
X139757142Y-152334538D02*
X139719047Y-152372634D01*
X139719047Y-152372634D02*
X139680951Y-152448824D01*
X139680951Y-152448824D02*
X139680951Y-152563110D01*
X139680951Y-152563110D02*
X139719047Y-152639300D01*
X139719047Y-152639300D02*
X139757142Y-152677396D01*
X139757142Y-152677396D02*
X139833332Y-152715491D01*
X139833332Y-152715491D02*
X140138094Y-152715491D01*
X140138094Y-152715491D02*
X140138094Y-151915491D01*
X140138094Y-151915491D02*
X139871428Y-151915491D01*
X139871428Y-151915491D02*
X139795237Y-151953586D01*
X139795237Y-151953586D02*
X139757142Y-151991681D01*
X139757142Y-151991681D02*
X139719047Y-152067872D01*
X139719047Y-152067872D02*
X139719047Y-152144062D01*
X139719047Y-152144062D02*
X139757142Y-152220253D01*
X139757142Y-152220253D02*
X139795237Y-152258348D01*
X139795237Y-152258348D02*
X139871428Y-152296443D01*
X139871428Y-152296443D02*
X140138094Y-152296443D01*
X139338094Y-152715491D02*
X139338094Y-151915491D01*
X139338094Y-151915491D02*
X138880951Y-152715491D01*
X138880951Y-152715491D02*
X138880951Y-151915491D01*
X143333332Y-149560241D02*
X143599999Y-149179288D01*
X143790475Y-149560241D02*
X143790475Y-148760241D01*
X143790475Y-148760241D02*
X143485713Y-148760241D01*
X143485713Y-148760241D02*
X143409523Y-148798336D01*
X143409523Y-148798336D02*
X143371428Y-148836431D01*
X143371428Y-148836431D02*
X143333332Y-148912622D01*
X143333332Y-148912622D02*
X143333332Y-149026907D01*
X143333332Y-149026907D02*
X143371428Y-149103098D01*
X143371428Y-149103098D02*
X143409523Y-149141193D01*
X143409523Y-149141193D02*
X143485713Y-149179288D01*
X143485713Y-149179288D02*
X143790475Y-149179288D01*
X142647618Y-149026907D02*
X142647618Y-149560241D01*
X142838094Y-148722146D02*
X143028571Y-149293574D01*
X143028571Y-149293574D02*
X142533332Y-149293574D01*
X147784050Y-135085714D02*
X147822146Y-135047618D01*
X147822146Y-135047618D02*
X147860241Y-134933333D01*
X147860241Y-134933333D02*
X147860241Y-134857142D01*
X147860241Y-134857142D02*
X147822146Y-134742856D01*
X147822146Y-134742856D02*
X147745955Y-134666666D01*
X147745955Y-134666666D02*
X147669765Y-134628571D01*
X147669765Y-134628571D02*
X147517384Y-134590475D01*
X147517384Y-134590475D02*
X147403098Y-134590475D01*
X147403098Y-134590475D02*
X147250717Y-134628571D01*
X147250717Y-134628571D02*
X147174526Y-134666666D01*
X147174526Y-134666666D02*
X147098336Y-134742856D01*
X147098336Y-134742856D02*
X147060241Y-134857142D01*
X147060241Y-134857142D02*
X147060241Y-134933333D01*
X147060241Y-134933333D02*
X147098336Y-135047618D01*
X147098336Y-135047618D02*
X147136431Y-135085714D01*
X147860241Y-135847618D02*
X147860241Y-135390475D01*
X147860241Y-135619047D02*
X147060241Y-135619047D01*
X147060241Y-135619047D02*
X147174526Y-135542856D01*
X147174526Y-135542856D02*
X147250717Y-135466666D01*
X147250717Y-135466666D02*
X147288812Y-135390475D01*
X147060241Y-136114285D02*
X147060241Y-136647619D01*
X147060241Y-136647619D02*
X147860241Y-136304761D01*
X137663491Y-129466666D02*
X137663491Y-129085714D01*
X137663491Y-129085714D02*
X136863491Y-129085714D01*
X136939681Y-129695237D02*
X136901586Y-129733333D01*
X136901586Y-129733333D02*
X136863491Y-129809523D01*
X136863491Y-129809523D02*
X136863491Y-129999999D01*
X136863491Y-129999999D02*
X136901586Y-130076190D01*
X136901586Y-130076190D02*
X136939681Y-130114285D01*
X136939681Y-130114285D02*
X137015872Y-130152380D01*
X137015872Y-130152380D02*
X137092062Y-130152380D01*
X137092062Y-130152380D02*
X137206348Y-130114285D01*
X137206348Y-130114285D02*
X137663491Y-129657142D01*
X137663491Y-129657142D02*
X137663491Y-130152380D01*
X152833332Y-157763491D02*
X153099999Y-157382538D01*
X153290475Y-157763491D02*
X153290475Y-156963491D01*
X153290475Y-156963491D02*
X152985713Y-156963491D01*
X152985713Y-156963491D02*
X152909523Y-157001586D01*
X152909523Y-157001586D02*
X152871428Y-157039681D01*
X152871428Y-157039681D02*
X152833332Y-157115872D01*
X152833332Y-157115872D02*
X152833332Y-157230157D01*
X152833332Y-157230157D02*
X152871428Y-157306348D01*
X152871428Y-157306348D02*
X152909523Y-157344443D01*
X152909523Y-157344443D02*
X152985713Y-157382538D01*
X152985713Y-157382538D02*
X153290475Y-157382538D01*
X152147618Y-156963491D02*
X152299999Y-156963491D01*
X152299999Y-156963491D02*
X152376190Y-157001586D01*
X152376190Y-157001586D02*
X152414285Y-157039681D01*
X152414285Y-157039681D02*
X152490475Y-157153967D01*
X152490475Y-157153967D02*
X152528571Y-157306348D01*
X152528571Y-157306348D02*
X152528571Y-157611110D01*
X152528571Y-157611110D02*
X152490475Y-157687300D01*
X152490475Y-157687300D02*
X152452380Y-157725396D01*
X152452380Y-157725396D02*
X152376190Y-157763491D01*
X152376190Y-157763491D02*
X152223809Y-157763491D01*
X152223809Y-157763491D02*
X152147618Y-157725396D01*
X152147618Y-157725396D02*
X152109523Y-157687300D01*
X152109523Y-157687300D02*
X152071428Y-157611110D01*
X152071428Y-157611110D02*
X152071428Y-157420634D01*
X152071428Y-157420634D02*
X152109523Y-157344443D01*
X152109523Y-157344443D02*
X152147618Y-157306348D01*
X152147618Y-157306348D02*
X152223809Y-157268253D01*
X152223809Y-157268253D02*
X152376190Y-157268253D01*
X152376190Y-157268253D02*
X152452380Y-157306348D01*
X152452380Y-157306348D02*
X152490475Y-157344443D01*
X152490475Y-157344443D02*
X152528571Y-157420634D01*
X138815990Y-94215476D02*
X139463609Y-94215476D01*
X139463609Y-94215476D02*
X139539799Y-94253571D01*
X139539799Y-94253571D02*
X139577895Y-94291666D01*
X139577895Y-94291666D02*
X139615990Y-94367857D01*
X139615990Y-94367857D02*
X139615990Y-94520238D01*
X139615990Y-94520238D02*
X139577895Y-94596428D01*
X139577895Y-94596428D02*
X139539799Y-94634523D01*
X139539799Y-94634523D02*
X139463609Y-94672619D01*
X139463609Y-94672619D02*
X138815990Y-94672619D01*
X138815990Y-95434523D02*
X138815990Y-95053571D01*
X138815990Y-95053571D02*
X139196942Y-95015475D01*
X139196942Y-95015475D02*
X139158847Y-95053571D01*
X139158847Y-95053571D02*
X139120752Y-95129761D01*
X139120752Y-95129761D02*
X139120752Y-95320237D01*
X139120752Y-95320237D02*
X139158847Y-95396428D01*
X139158847Y-95396428D02*
X139196942Y-95434523D01*
X139196942Y-95434523D02*
X139273133Y-95472618D01*
X139273133Y-95472618D02*
X139463609Y-95472618D01*
X139463609Y-95472618D02*
X139539799Y-95434523D01*
X139539799Y-95434523D02*
X139577895Y-95396428D01*
X139577895Y-95396428D02*
X139615990Y-95320237D01*
X139615990Y-95320237D02*
X139615990Y-95129761D01*
X139615990Y-95129761D02*
X139577895Y-95053571D01*
X139577895Y-95053571D02*
X139539799Y-95015475D01*
X144497219Y-102879903D02*
X144093158Y-103283964D01*
X144093158Y-103283964D02*
X144039284Y-103391713D01*
X144039284Y-103391713D02*
X144039284Y-103499463D01*
X144039284Y-103499463D02*
X144093158Y-103607213D01*
X144093158Y-103607213D02*
X144147033Y-103661087D01*
X143904596Y-102772153D02*
X143985409Y-102799090D01*
X143985409Y-102799090D02*
X144039283Y-102799090D01*
X144039283Y-102799090D02*
X144120096Y-102772153D01*
X144120096Y-102772153D02*
X144147033Y-102745216D01*
X144147033Y-102745216D02*
X144173970Y-102664403D01*
X144173970Y-102664403D02*
X144173970Y-102610529D01*
X144173970Y-102610529D02*
X144147033Y-102529716D01*
X144147033Y-102529716D02*
X144039283Y-102421967D01*
X144039283Y-102421967D02*
X143958471Y-102395029D01*
X143958471Y-102395029D02*
X143904596Y-102395029D01*
X143904596Y-102395029D02*
X143823784Y-102421967D01*
X143823784Y-102421967D02*
X143796847Y-102448904D01*
X143796847Y-102448904D02*
X143769909Y-102529716D01*
X143769909Y-102529716D02*
X143769909Y-102583591D01*
X143769909Y-102583591D02*
X143796847Y-102664403D01*
X143796847Y-102664403D02*
X143904596Y-102772153D01*
X143904596Y-102772153D02*
X143931534Y-102852965D01*
X143931534Y-102852965D02*
X143931534Y-102906840D01*
X143931534Y-102906840D02*
X143904596Y-102987652D01*
X143904596Y-102987652D02*
X143796847Y-103095402D01*
X143796847Y-103095402D02*
X143716035Y-103122339D01*
X143716035Y-103122339D02*
X143662160Y-103122339D01*
X143662160Y-103122339D02*
X143581348Y-103095402D01*
X143581348Y-103095402D02*
X143473598Y-102987652D01*
X143473598Y-102987652D02*
X143446661Y-102906840D01*
X143446661Y-102906840D02*
X143446661Y-102852965D01*
X143446661Y-102852965D02*
X143473598Y-102772153D01*
X143473598Y-102772153D02*
X143581348Y-102664403D01*
X143581348Y-102664403D02*
X143662160Y-102637466D01*
X143662160Y-102637466D02*
X143716035Y-102637466D01*
X143716035Y-102637466D02*
X143796847Y-102664403D01*
X132764051Y-164485713D02*
X132802147Y-164447617D01*
X132802147Y-164447617D02*
X132840242Y-164333332D01*
X132840242Y-164333332D02*
X132840242Y-164257141D01*
X132840242Y-164257141D02*
X132802147Y-164142855D01*
X132802147Y-164142855D02*
X132725956Y-164066665D01*
X132725956Y-164066665D02*
X132649766Y-164028570D01*
X132649766Y-164028570D02*
X132497385Y-163990474D01*
X132497385Y-163990474D02*
X132383099Y-163990474D01*
X132383099Y-163990474D02*
X132230718Y-164028570D01*
X132230718Y-164028570D02*
X132154527Y-164066665D01*
X132154527Y-164066665D02*
X132078337Y-164142855D01*
X132078337Y-164142855D02*
X132040242Y-164257141D01*
X132040242Y-164257141D02*
X132040242Y-164333332D01*
X132040242Y-164333332D02*
X132078337Y-164447617D01*
X132078337Y-164447617D02*
X132116432Y-164485713D01*
X132116432Y-164790474D02*
X132078337Y-164828570D01*
X132078337Y-164828570D02*
X132040242Y-164904760D01*
X132040242Y-164904760D02*
X132040242Y-165095236D01*
X132040242Y-165095236D02*
X132078337Y-165171427D01*
X132078337Y-165171427D02*
X132116432Y-165209522D01*
X132116432Y-165209522D02*
X132192623Y-165247617D01*
X132192623Y-165247617D02*
X132268813Y-165247617D01*
X132268813Y-165247617D02*
X132383099Y-165209522D01*
X132383099Y-165209522D02*
X132840242Y-164752379D01*
X132840242Y-164752379D02*
X132840242Y-165247617D01*
X132840242Y-166009522D02*
X132840242Y-165552379D01*
X132840242Y-165780951D02*
X132040242Y-165780951D01*
X132040242Y-165780951D02*
X132154527Y-165704760D01*
X132154527Y-165704760D02*
X132230718Y-165628570D01*
X132230718Y-165628570D02*
X132268813Y-165552379D01*
X136110549Y-164485713D02*
X136148645Y-164447617D01*
X136148645Y-164447617D02*
X136186740Y-164333332D01*
X136186740Y-164333332D02*
X136186740Y-164257141D01*
X136186740Y-164257141D02*
X136148645Y-164142855D01*
X136148645Y-164142855D02*
X136072454Y-164066665D01*
X136072454Y-164066665D02*
X135996264Y-164028570D01*
X135996264Y-164028570D02*
X135843883Y-163990474D01*
X135843883Y-163990474D02*
X135729597Y-163990474D01*
X135729597Y-163990474D02*
X135577216Y-164028570D01*
X135577216Y-164028570D02*
X135501025Y-164066665D01*
X135501025Y-164066665D02*
X135424835Y-164142855D01*
X135424835Y-164142855D02*
X135386740Y-164257141D01*
X135386740Y-164257141D02*
X135386740Y-164333332D01*
X135386740Y-164333332D02*
X135424835Y-164447617D01*
X135424835Y-164447617D02*
X135462930Y-164485713D01*
X135462930Y-164790474D02*
X135424835Y-164828570D01*
X135424835Y-164828570D02*
X135386740Y-164904760D01*
X135386740Y-164904760D02*
X135386740Y-165095236D01*
X135386740Y-165095236D02*
X135424835Y-165171427D01*
X135424835Y-165171427D02*
X135462930Y-165209522D01*
X135462930Y-165209522D02*
X135539121Y-165247617D01*
X135539121Y-165247617D02*
X135615311Y-165247617D01*
X135615311Y-165247617D02*
X135729597Y-165209522D01*
X135729597Y-165209522D02*
X136186740Y-164752379D01*
X136186740Y-164752379D02*
X136186740Y-165247617D01*
X135386740Y-165933332D02*
X135386740Y-165780951D01*
X135386740Y-165780951D02*
X135424835Y-165704760D01*
X135424835Y-165704760D02*
X135462930Y-165666665D01*
X135462930Y-165666665D02*
X135577216Y-165590475D01*
X135577216Y-165590475D02*
X135729597Y-165552379D01*
X135729597Y-165552379D02*
X136034359Y-165552379D01*
X136034359Y-165552379D02*
X136110549Y-165590475D01*
X136110549Y-165590475D02*
X136148645Y-165628570D01*
X136148645Y-165628570D02*
X136186740Y-165704760D01*
X136186740Y-165704760D02*
X136186740Y-165857141D01*
X136186740Y-165857141D02*
X136148645Y-165933332D01*
X136148645Y-165933332D02*
X136110549Y-165971427D01*
X136110549Y-165971427D02*
X136034359Y-166009522D01*
X136034359Y-166009522D02*
X135843883Y-166009522D01*
X135843883Y-166009522D02*
X135767692Y-165971427D01*
X135767692Y-165971427D02*
X135729597Y-165933332D01*
X135729597Y-165933332D02*
X135691502Y-165857141D01*
X135691502Y-165857141D02*
X135691502Y-165704760D01*
X135691502Y-165704760D02*
X135729597Y-165628570D01*
X135729597Y-165628570D02*
X135767692Y-165590475D01*
X135767692Y-165590475D02*
X135843883Y-165552379D01*
X135887300Y-135933333D02*
X135925396Y-135895237D01*
X135925396Y-135895237D02*
X135963491Y-135780952D01*
X135963491Y-135780952D02*
X135963491Y-135704761D01*
X135963491Y-135704761D02*
X135925396Y-135590475D01*
X135925396Y-135590475D02*
X135849205Y-135514285D01*
X135849205Y-135514285D02*
X135773015Y-135476190D01*
X135773015Y-135476190D02*
X135620634Y-135438094D01*
X135620634Y-135438094D02*
X135506348Y-135438094D01*
X135506348Y-135438094D02*
X135353967Y-135476190D01*
X135353967Y-135476190D02*
X135277776Y-135514285D01*
X135277776Y-135514285D02*
X135201586Y-135590475D01*
X135201586Y-135590475D02*
X135163491Y-135704761D01*
X135163491Y-135704761D02*
X135163491Y-135780952D01*
X135163491Y-135780952D02*
X135201586Y-135895237D01*
X135201586Y-135895237D02*
X135239681Y-135933333D01*
X135963491Y-136695237D02*
X135963491Y-136238094D01*
X135963491Y-136466666D02*
X135163491Y-136466666D01*
X135163491Y-136466666D02*
X135277776Y-136390475D01*
X135277776Y-136390475D02*
X135353967Y-136314285D01*
X135353967Y-136314285D02*
X135392062Y-136238094D01*
X135163491Y-137419047D02*
X135163491Y-137038095D01*
X135163491Y-137038095D02*
X135544443Y-136999999D01*
X135544443Y-136999999D02*
X135506348Y-137038095D01*
X135506348Y-137038095D02*
X135468253Y-137114285D01*
X135468253Y-137114285D02*
X135468253Y-137304761D01*
X135468253Y-137304761D02*
X135506348Y-137380952D01*
X135506348Y-137380952D02*
X135544443Y-137419047D01*
X135544443Y-137419047D02*
X135620634Y-137457142D01*
X135620634Y-137457142D02*
X135811110Y-137457142D01*
X135811110Y-137457142D02*
X135887300Y-137419047D01*
X135887300Y-137419047D02*
X135925396Y-137380952D01*
X135925396Y-137380952D02*
X135963491Y-137304761D01*
X135963491Y-137304761D02*
X135963491Y-137114285D01*
X135963491Y-137114285D02*
X135925396Y-137038095D01*
X135925396Y-137038095D02*
X135887300Y-136999999D01*
X148444832Y-123360242D02*
X148711499Y-122979289D01*
X148901975Y-123360242D02*
X148901975Y-122560242D01*
X148901975Y-122560242D02*
X148597213Y-122560242D01*
X148597213Y-122560242D02*
X148521023Y-122598337D01*
X148521023Y-122598337D02*
X148482928Y-122636432D01*
X148482928Y-122636432D02*
X148444832Y-122712623D01*
X148444832Y-122712623D02*
X148444832Y-122826908D01*
X148444832Y-122826908D02*
X148482928Y-122903099D01*
X148482928Y-122903099D02*
X148521023Y-122941194D01*
X148521023Y-122941194D02*
X148597213Y-122979289D01*
X148597213Y-122979289D02*
X148901975Y-122979289D01*
X148140071Y-122636432D02*
X148101975Y-122598337D01*
X148101975Y-122598337D02*
X148025785Y-122560242D01*
X148025785Y-122560242D02*
X147835309Y-122560242D01*
X147835309Y-122560242D02*
X147759118Y-122598337D01*
X147759118Y-122598337D02*
X147721023Y-122636432D01*
X147721023Y-122636432D02*
X147682928Y-122712623D01*
X147682928Y-122712623D02*
X147682928Y-122788813D01*
X147682928Y-122788813D02*
X147721023Y-122903099D01*
X147721023Y-122903099D02*
X148178166Y-123360242D01*
X148178166Y-123360242D02*
X147682928Y-123360242D01*
X143148491Y-142453810D02*
X142767538Y-142187143D01*
X143148491Y-141996667D02*
X142348491Y-141996667D01*
X142348491Y-141996667D02*
X142348491Y-142301429D01*
X142348491Y-142301429D02*
X142386586Y-142377619D01*
X142386586Y-142377619D02*
X142424681Y-142415714D01*
X142424681Y-142415714D02*
X142500872Y-142453810D01*
X142500872Y-142453810D02*
X142615157Y-142453810D01*
X142615157Y-142453810D02*
X142691348Y-142415714D01*
X142691348Y-142415714D02*
X142729443Y-142377619D01*
X142729443Y-142377619D02*
X142767538Y-142301429D01*
X142767538Y-142301429D02*
X142767538Y-141996667D01*
X142348491Y-142682381D02*
X143148491Y-142949048D01*
X143148491Y-142949048D02*
X142348491Y-143215714D01*
X143148491Y-143901428D02*
X143148491Y-143444285D01*
X143148491Y-143672857D02*
X142348491Y-143672857D01*
X142348491Y-143672857D02*
X142462776Y-143596666D01*
X142462776Y-143596666D02*
X142538967Y-143520476D01*
X142538967Y-143520476D02*
X142577062Y-143444285D01*
X145096666Y-107690241D02*
X145096666Y-108261669D01*
X145096666Y-108261669D02*
X145134761Y-108375955D01*
X145134761Y-108375955D02*
X145210952Y-108452146D01*
X145210952Y-108452146D02*
X145325237Y-108490241D01*
X145325237Y-108490241D02*
X145401428Y-108490241D01*
X144334761Y-107690241D02*
X144715713Y-107690241D01*
X144715713Y-107690241D02*
X144753809Y-108071193D01*
X144753809Y-108071193D02*
X144715713Y-108033098D01*
X144715713Y-108033098D02*
X144639523Y-107995003D01*
X144639523Y-107995003D02*
X144449047Y-107995003D01*
X144449047Y-107995003D02*
X144372856Y-108033098D01*
X144372856Y-108033098D02*
X144334761Y-108071193D01*
X144334761Y-108071193D02*
X144296666Y-108147384D01*
X144296666Y-108147384D02*
X144296666Y-108337860D01*
X144296666Y-108337860D02*
X144334761Y-108414050D01*
X144334761Y-108414050D02*
X144372856Y-108452146D01*
X144372856Y-108452146D02*
X144449047Y-108490241D01*
X144449047Y-108490241D02*
X144639523Y-108490241D01*
X144639523Y-108490241D02*
X144715713Y-108452146D01*
X144715713Y-108452146D02*
X144753809Y-108414050D01*
X140663491Y-150866667D02*
X140282538Y-150600000D01*
X140663491Y-150409524D02*
X139863491Y-150409524D01*
X139863491Y-150409524D02*
X139863491Y-150714286D01*
X139863491Y-150714286D02*
X139901586Y-150790476D01*
X139901586Y-150790476D02*
X139939681Y-150828571D01*
X139939681Y-150828571D02*
X140015872Y-150866667D01*
X140015872Y-150866667D02*
X140130157Y-150866667D01*
X140130157Y-150866667D02*
X140206348Y-150828571D01*
X140206348Y-150828571D02*
X140244443Y-150790476D01*
X140244443Y-150790476D02*
X140282538Y-150714286D01*
X140282538Y-150714286D02*
X140282538Y-150409524D01*
X139863491Y-151133333D02*
X139863491Y-151666667D01*
X139863491Y-151666667D02*
X140663491Y-151323809D01*
X130463491Y-145785714D02*
X130082538Y-145519047D01*
X130463491Y-145328571D02*
X129663491Y-145328571D01*
X129663491Y-145328571D02*
X129663491Y-145633333D01*
X129663491Y-145633333D02*
X129701586Y-145709523D01*
X129701586Y-145709523D02*
X129739681Y-145747618D01*
X129739681Y-145747618D02*
X129815872Y-145785714D01*
X129815872Y-145785714D02*
X129930157Y-145785714D01*
X129930157Y-145785714D02*
X130006348Y-145747618D01*
X130006348Y-145747618D02*
X130044443Y-145709523D01*
X130044443Y-145709523D02*
X130082538Y-145633333D01*
X130082538Y-145633333D02*
X130082538Y-145328571D01*
X130463491Y-146547618D02*
X130463491Y-146090475D01*
X130463491Y-146319047D02*
X129663491Y-146319047D01*
X129663491Y-146319047D02*
X129777776Y-146242856D01*
X129777776Y-146242856D02*
X129853967Y-146166666D01*
X129853967Y-146166666D02*
X129892062Y-146090475D01*
X129663491Y-147042857D02*
X129663491Y-147119047D01*
X129663491Y-147119047D02*
X129701586Y-147195238D01*
X129701586Y-147195238D02*
X129739681Y-147233333D01*
X129739681Y-147233333D02*
X129815872Y-147271428D01*
X129815872Y-147271428D02*
X129968253Y-147309523D01*
X129968253Y-147309523D02*
X130158729Y-147309523D01*
X130158729Y-147309523D02*
X130311110Y-147271428D01*
X130311110Y-147271428D02*
X130387300Y-147233333D01*
X130387300Y-147233333D02*
X130425396Y-147195238D01*
X130425396Y-147195238D02*
X130463491Y-147119047D01*
X130463491Y-147119047D02*
X130463491Y-147042857D01*
X130463491Y-147042857D02*
X130425396Y-146966666D01*
X130425396Y-146966666D02*
X130387300Y-146928571D01*
X130387300Y-146928571D02*
X130311110Y-146890476D01*
X130311110Y-146890476D02*
X130158729Y-146852380D01*
X130158729Y-146852380D02*
X129968253Y-146852380D01*
X129968253Y-146852380D02*
X129815872Y-146890476D01*
X129815872Y-146890476D02*
X129739681Y-146928571D01*
X129739681Y-146928571D02*
X129701586Y-146966666D01*
X129701586Y-146966666D02*
X129663491Y-147042857D01*
X152261776Y-101039328D02*
X152665837Y-101443389D01*
X152665837Y-101443389D02*
X152773586Y-101497263D01*
X152773586Y-101497263D02*
X152881336Y-101497263D01*
X152881336Y-101497263D02*
X152989086Y-101443389D01*
X152989086Y-101443389D02*
X153042960Y-101389514D01*
X152531150Y-101901325D02*
X152423400Y-102009074D01*
X152423400Y-102009074D02*
X152342588Y-102036012D01*
X152342588Y-102036012D02*
X152288713Y-102036012D01*
X152288713Y-102036012D02*
X152154026Y-102009074D01*
X152154026Y-102009074D02*
X152019339Y-101928262D01*
X152019339Y-101928262D02*
X151803840Y-101712763D01*
X151803840Y-101712763D02*
X151776902Y-101631951D01*
X151776902Y-101631951D02*
X151776902Y-101578076D01*
X151776902Y-101578076D02*
X151803840Y-101497264D01*
X151803840Y-101497264D02*
X151911589Y-101389514D01*
X151911589Y-101389514D02*
X151992402Y-101362577D01*
X151992402Y-101362577D02*
X152046276Y-101362577D01*
X152046276Y-101362577D02*
X152127089Y-101389514D01*
X152127089Y-101389514D02*
X152261776Y-101524201D01*
X152261776Y-101524201D02*
X152288713Y-101605013D01*
X152288713Y-101605013D02*
X152288713Y-101658888D01*
X152288713Y-101658888D02*
X152261776Y-101739700D01*
X152261776Y-101739700D02*
X152154026Y-101847450D01*
X152154026Y-101847450D02*
X152073214Y-101874387D01*
X152073214Y-101874387D02*
X152019339Y-101874387D01*
X152019339Y-101874387D02*
X151938527Y-101847450D01*
X142187300Y-114190476D02*
X142225396Y-114152380D01*
X142225396Y-114152380D02*
X142263491Y-114038095D01*
X142263491Y-114038095D02*
X142263491Y-113961904D01*
X142263491Y-113961904D02*
X142225396Y-113847618D01*
X142225396Y-113847618D02*
X142149205Y-113771428D01*
X142149205Y-113771428D02*
X142073015Y-113733333D01*
X142073015Y-113733333D02*
X141920634Y-113695237D01*
X141920634Y-113695237D02*
X141806348Y-113695237D01*
X141806348Y-113695237D02*
X141653967Y-113733333D01*
X141653967Y-113733333D02*
X141577776Y-113771428D01*
X141577776Y-113771428D02*
X141501586Y-113847618D01*
X141501586Y-113847618D02*
X141463491Y-113961904D01*
X141463491Y-113961904D02*
X141463491Y-114038095D01*
X141463491Y-114038095D02*
X141501586Y-114152380D01*
X141501586Y-114152380D02*
X141539681Y-114190476D01*
X141730157Y-114876190D02*
X142263491Y-114876190D01*
X141425396Y-114685714D02*
X141996824Y-114495237D01*
X141996824Y-114495237D02*
X141996824Y-114990476D01*
X130910991Y-109218333D02*
X131558610Y-109218333D01*
X131558610Y-109218333D02*
X131634800Y-109256428D01*
X131634800Y-109256428D02*
X131672896Y-109294523D01*
X131672896Y-109294523D02*
X131710991Y-109370714D01*
X131710991Y-109370714D02*
X131710991Y-109523095D01*
X131710991Y-109523095D02*
X131672896Y-109599285D01*
X131672896Y-109599285D02*
X131634800Y-109637380D01*
X131634800Y-109637380D02*
X131558610Y-109675476D01*
X131558610Y-109675476D02*
X130910991Y-109675476D01*
X131710991Y-110475475D02*
X131710991Y-110018332D01*
X131710991Y-110246904D02*
X130910991Y-110246904D01*
X130910991Y-110246904D02*
X131025276Y-110170713D01*
X131025276Y-110170713D02*
X131101467Y-110094523D01*
X131101467Y-110094523D02*
X131139562Y-110018332D01*
X131177657Y-111161190D02*
X131710991Y-111161190D01*
X130872896Y-110970714D02*
X131444324Y-110780237D01*
X131444324Y-110780237D02*
X131444324Y-111275476D01*
X131364285Y-157710550D02*
X131402381Y-157748646D01*
X131402381Y-157748646D02*
X131516666Y-157786741D01*
X131516666Y-157786741D02*
X131592857Y-157786741D01*
X131592857Y-157786741D02*
X131707143Y-157748646D01*
X131707143Y-157748646D02*
X131783333Y-157672455D01*
X131783333Y-157672455D02*
X131821428Y-157596265D01*
X131821428Y-157596265D02*
X131859524Y-157443884D01*
X131859524Y-157443884D02*
X131859524Y-157329598D01*
X131859524Y-157329598D02*
X131821428Y-157177217D01*
X131821428Y-157177217D02*
X131783333Y-157101026D01*
X131783333Y-157101026D02*
X131707143Y-157024836D01*
X131707143Y-157024836D02*
X131592857Y-156986741D01*
X131592857Y-156986741D02*
X131516666Y-156986741D01*
X131516666Y-156986741D02*
X131402381Y-157024836D01*
X131402381Y-157024836D02*
X131364285Y-157062931D01*
X131097619Y-156986741D02*
X130602381Y-156986741D01*
X130602381Y-156986741D02*
X130869047Y-157291503D01*
X130869047Y-157291503D02*
X130754762Y-157291503D01*
X130754762Y-157291503D02*
X130678571Y-157329598D01*
X130678571Y-157329598D02*
X130640476Y-157367693D01*
X130640476Y-157367693D02*
X130602381Y-157443884D01*
X130602381Y-157443884D02*
X130602381Y-157634360D01*
X130602381Y-157634360D02*
X130640476Y-157710550D01*
X130640476Y-157710550D02*
X130678571Y-157748646D01*
X130678571Y-157748646D02*
X130754762Y-157786741D01*
X130754762Y-157786741D02*
X130983333Y-157786741D01*
X130983333Y-157786741D02*
X131059524Y-157748646D01*
X131059524Y-157748646D02*
X131097619Y-157710550D01*
X130107142Y-156986741D02*
X130030952Y-156986741D01*
X130030952Y-156986741D02*
X129954761Y-157024836D01*
X129954761Y-157024836D02*
X129916666Y-157062931D01*
X129916666Y-157062931D02*
X129878571Y-157139122D01*
X129878571Y-157139122D02*
X129840476Y-157291503D01*
X129840476Y-157291503D02*
X129840476Y-157481979D01*
X129840476Y-157481979D02*
X129878571Y-157634360D01*
X129878571Y-157634360D02*
X129916666Y-157710550D01*
X129916666Y-157710550D02*
X129954761Y-157748646D01*
X129954761Y-157748646D02*
X130030952Y-157786741D01*
X130030952Y-157786741D02*
X130107142Y-157786741D01*
X130107142Y-157786741D02*
X130183333Y-157748646D01*
X130183333Y-157748646D02*
X130221428Y-157710550D01*
X130221428Y-157710550D02*
X130259523Y-157634360D01*
X130259523Y-157634360D02*
X130297619Y-157481979D01*
X130297619Y-157481979D02*
X130297619Y-157291503D01*
X130297619Y-157291503D02*
X130259523Y-157139122D01*
X130259523Y-157139122D02*
X130221428Y-157062931D01*
X130221428Y-157062931D02*
X130183333Y-157024836D01*
X130183333Y-157024836D02*
X130107142Y-156986741D01*
X135247619Y-167263491D02*
X135247619Y-167834919D01*
X135247619Y-167834919D02*
X135285714Y-167949205D01*
X135285714Y-167949205D02*
X135361905Y-168025396D01*
X135361905Y-168025396D02*
X135476190Y-168063491D01*
X135476190Y-168063491D02*
X135552381Y-168063491D01*
X134447619Y-168063491D02*
X134904762Y-168063491D01*
X134676190Y-168063491D02*
X134676190Y-167263491D01*
X134676190Y-167263491D02*
X134752381Y-167377776D01*
X134752381Y-167377776D02*
X134828571Y-167453967D01*
X134828571Y-167453967D02*
X134904762Y-167492062D01*
X134180952Y-167263491D02*
X133647618Y-167263491D01*
X133647618Y-167263491D02*
X133990476Y-168063491D01*
X147784050Y-138966667D02*
X147822146Y-138928571D01*
X147822146Y-138928571D02*
X147860241Y-138814286D01*
X147860241Y-138814286D02*
X147860241Y-138738095D01*
X147860241Y-138738095D02*
X147822146Y-138623809D01*
X147822146Y-138623809D02*
X147745955Y-138547619D01*
X147745955Y-138547619D02*
X147669765Y-138509524D01*
X147669765Y-138509524D02*
X147517384Y-138471428D01*
X147517384Y-138471428D02*
X147403098Y-138471428D01*
X147403098Y-138471428D02*
X147250717Y-138509524D01*
X147250717Y-138509524D02*
X147174526Y-138547619D01*
X147174526Y-138547619D02*
X147098336Y-138623809D01*
X147098336Y-138623809D02*
X147060241Y-138738095D01*
X147060241Y-138738095D02*
X147060241Y-138814286D01*
X147060241Y-138814286D02*
X147098336Y-138928571D01*
X147098336Y-138928571D02*
X147136431Y-138966667D01*
X147136431Y-139271428D02*
X147098336Y-139309524D01*
X147098336Y-139309524D02*
X147060241Y-139385714D01*
X147060241Y-139385714D02*
X147060241Y-139576190D01*
X147060241Y-139576190D02*
X147098336Y-139652381D01*
X147098336Y-139652381D02*
X147136431Y-139690476D01*
X147136431Y-139690476D02*
X147212622Y-139728571D01*
X147212622Y-139728571D02*
X147288812Y-139728571D01*
X147288812Y-139728571D02*
X147403098Y-139690476D01*
X147403098Y-139690476D02*
X147860241Y-139233333D01*
X147860241Y-139233333D02*
X147860241Y-139728571D01*
X135692380Y-113963491D02*
X136073332Y-113963491D01*
X136073332Y-113963491D02*
X136073332Y-113163491D01*
X135006666Y-113963491D02*
X135463809Y-113963491D01*
X135235237Y-113963491D02*
X135235237Y-113163491D01*
X135235237Y-113163491D02*
X135311428Y-113277776D01*
X135311428Y-113277776D02*
X135387618Y-113353967D01*
X135387618Y-113353967D02*
X135463809Y-113392062D01*
X146309523Y-124215241D02*
X146309523Y-124862860D01*
X146309523Y-124862860D02*
X146271428Y-124939050D01*
X146271428Y-124939050D02*
X146233333Y-124977146D01*
X146233333Y-124977146D02*
X146157142Y-125015241D01*
X146157142Y-125015241D02*
X146004761Y-125015241D01*
X146004761Y-125015241D02*
X145928571Y-124977146D01*
X145928571Y-124977146D02*
X145890476Y-124939050D01*
X145890476Y-124939050D02*
X145852380Y-124862860D01*
X145852380Y-124862860D02*
X145852380Y-124215241D01*
X145509524Y-124291431D02*
X145471428Y-124253336D01*
X145471428Y-124253336D02*
X145395238Y-124215241D01*
X145395238Y-124215241D02*
X145204762Y-124215241D01*
X145204762Y-124215241D02*
X145128571Y-124253336D01*
X145128571Y-124253336D02*
X145090476Y-124291431D01*
X145090476Y-124291431D02*
X145052381Y-124367622D01*
X145052381Y-124367622D02*
X145052381Y-124443812D01*
X145052381Y-124443812D02*
X145090476Y-124558098D01*
X145090476Y-124558098D02*
X145547619Y-125015241D01*
X145547619Y-125015241D02*
X145052381Y-125015241D01*
X148617619Y-171290241D02*
X148617619Y-171861669D01*
X148617619Y-171861669D02*
X148655714Y-171975955D01*
X148655714Y-171975955D02*
X148731905Y-172052146D01*
X148731905Y-172052146D02*
X148846190Y-172090241D01*
X148846190Y-172090241D02*
X148922381Y-172090241D01*
X147817619Y-172090241D02*
X148274762Y-172090241D01*
X148046190Y-172090241D02*
X148046190Y-171290241D01*
X148046190Y-171290241D02*
X148122381Y-171404526D01*
X148122381Y-171404526D02*
X148198571Y-171480717D01*
X148198571Y-171480717D02*
X148274762Y-171518812D01*
X147322380Y-171290241D02*
X147246190Y-171290241D01*
X147246190Y-171290241D02*
X147169999Y-171328336D01*
X147169999Y-171328336D02*
X147131904Y-171366431D01*
X147131904Y-171366431D02*
X147093809Y-171442622D01*
X147093809Y-171442622D02*
X147055714Y-171595003D01*
X147055714Y-171595003D02*
X147055714Y-171785479D01*
X147055714Y-171785479D02*
X147093809Y-171937860D01*
X147093809Y-171937860D02*
X147131904Y-172014050D01*
X147131904Y-172014050D02*
X147169999Y-172052146D01*
X147169999Y-172052146D02*
X147246190Y-172090241D01*
X147246190Y-172090241D02*
X147322380Y-172090241D01*
X147322380Y-172090241D02*
X147398571Y-172052146D01*
X147398571Y-172052146D02*
X147436666Y-172014050D01*
X147436666Y-172014050D02*
X147474761Y-171937860D01*
X147474761Y-171937860D02*
X147512857Y-171785479D01*
X147512857Y-171785479D02*
X147512857Y-171595003D01*
X147512857Y-171595003D02*
X147474761Y-171442622D01*
X147474761Y-171442622D02*
X147436666Y-171366431D01*
X147436666Y-171366431D02*
X147398571Y-171328336D01*
X147398571Y-171328336D02*
X147322380Y-171290241D01*
X139387300Y-112060476D02*
X139425396Y-112022380D01*
X139425396Y-112022380D02*
X139463491Y-111908095D01*
X139463491Y-111908095D02*
X139463491Y-111831904D01*
X139463491Y-111831904D02*
X139425396Y-111717618D01*
X139425396Y-111717618D02*
X139349205Y-111641428D01*
X139349205Y-111641428D02*
X139273015Y-111603333D01*
X139273015Y-111603333D02*
X139120634Y-111565237D01*
X139120634Y-111565237D02*
X139006348Y-111565237D01*
X139006348Y-111565237D02*
X138853967Y-111603333D01*
X138853967Y-111603333D02*
X138777776Y-111641428D01*
X138777776Y-111641428D02*
X138701586Y-111717618D01*
X138701586Y-111717618D02*
X138663491Y-111831904D01*
X138663491Y-111831904D02*
X138663491Y-111908095D01*
X138663491Y-111908095D02*
X138701586Y-112022380D01*
X138701586Y-112022380D02*
X138739681Y-112060476D01*
X138663491Y-112746190D02*
X138663491Y-112593809D01*
X138663491Y-112593809D02*
X138701586Y-112517618D01*
X138701586Y-112517618D02*
X138739681Y-112479523D01*
X138739681Y-112479523D02*
X138853967Y-112403333D01*
X138853967Y-112403333D02*
X139006348Y-112365237D01*
X139006348Y-112365237D02*
X139311110Y-112365237D01*
X139311110Y-112365237D02*
X139387300Y-112403333D01*
X139387300Y-112403333D02*
X139425396Y-112441428D01*
X139425396Y-112441428D02*
X139463491Y-112517618D01*
X139463491Y-112517618D02*
X139463491Y-112669999D01*
X139463491Y-112669999D02*
X139425396Y-112746190D01*
X139425396Y-112746190D02*
X139387300Y-112784285D01*
X139387300Y-112784285D02*
X139311110Y-112822380D01*
X139311110Y-112822380D02*
X139120634Y-112822380D01*
X139120634Y-112822380D02*
X139044443Y-112784285D01*
X139044443Y-112784285D02*
X139006348Y-112746190D01*
X139006348Y-112746190D02*
X138968253Y-112669999D01*
X138968253Y-112669999D02*
X138968253Y-112517618D01*
X138968253Y-112517618D02*
X139006348Y-112441428D01*
X139006348Y-112441428D02*
X139044443Y-112403333D01*
X139044443Y-112403333D02*
X139120634Y-112365237D01*
X137687300Y-123360476D02*
X137725396Y-123322380D01*
X137725396Y-123322380D02*
X137763491Y-123208095D01*
X137763491Y-123208095D02*
X137763491Y-123131904D01*
X137763491Y-123131904D02*
X137725396Y-123017618D01*
X137725396Y-123017618D02*
X137649205Y-122941428D01*
X137649205Y-122941428D02*
X137573015Y-122903333D01*
X137573015Y-122903333D02*
X137420634Y-122865237D01*
X137420634Y-122865237D02*
X137306348Y-122865237D01*
X137306348Y-122865237D02*
X137153967Y-122903333D01*
X137153967Y-122903333D02*
X137077776Y-122941428D01*
X137077776Y-122941428D02*
X137001586Y-123017618D01*
X137001586Y-123017618D02*
X136963491Y-123131904D01*
X136963491Y-123131904D02*
X136963491Y-123208095D01*
X136963491Y-123208095D02*
X137001586Y-123322380D01*
X137001586Y-123322380D02*
X137039681Y-123360476D01*
X137306348Y-123817618D02*
X137268253Y-123741428D01*
X137268253Y-123741428D02*
X137230157Y-123703333D01*
X137230157Y-123703333D02*
X137153967Y-123665237D01*
X137153967Y-123665237D02*
X137115872Y-123665237D01*
X137115872Y-123665237D02*
X137039681Y-123703333D01*
X137039681Y-123703333D02*
X137001586Y-123741428D01*
X137001586Y-123741428D02*
X136963491Y-123817618D01*
X136963491Y-123817618D02*
X136963491Y-123969999D01*
X136963491Y-123969999D02*
X137001586Y-124046190D01*
X137001586Y-124046190D02*
X137039681Y-124084285D01*
X137039681Y-124084285D02*
X137115872Y-124122380D01*
X137115872Y-124122380D02*
X137153967Y-124122380D01*
X137153967Y-124122380D02*
X137230157Y-124084285D01*
X137230157Y-124084285D02*
X137268253Y-124046190D01*
X137268253Y-124046190D02*
X137306348Y-123969999D01*
X137306348Y-123969999D02*
X137306348Y-123817618D01*
X137306348Y-123817618D02*
X137344443Y-123741428D01*
X137344443Y-123741428D02*
X137382538Y-123703333D01*
X137382538Y-123703333D02*
X137458729Y-123665237D01*
X137458729Y-123665237D02*
X137611110Y-123665237D01*
X137611110Y-123665237D02*
X137687300Y-123703333D01*
X137687300Y-123703333D02*
X137725396Y-123741428D01*
X137725396Y-123741428D02*
X137763491Y-123817618D01*
X137763491Y-123817618D02*
X137763491Y-123969999D01*
X137763491Y-123969999D02*
X137725396Y-124046190D01*
X137725396Y-124046190D02*
X137687300Y-124084285D01*
X137687300Y-124084285D02*
X137611110Y-124122380D01*
X137611110Y-124122380D02*
X137458729Y-124122380D01*
X137458729Y-124122380D02*
X137382538Y-124084285D01*
X137382538Y-124084285D02*
X137344443Y-124046190D01*
X137344443Y-124046190D02*
X137306348Y-123969999D01*
X137610549Y-115466667D02*
X137648645Y-115428571D01*
X137648645Y-115428571D02*
X137686740Y-115314286D01*
X137686740Y-115314286D02*
X137686740Y-115238095D01*
X137686740Y-115238095D02*
X137648645Y-115123809D01*
X137648645Y-115123809D02*
X137572454Y-115047619D01*
X137572454Y-115047619D02*
X137496264Y-115009524D01*
X137496264Y-115009524D02*
X137343883Y-114971428D01*
X137343883Y-114971428D02*
X137229597Y-114971428D01*
X137229597Y-114971428D02*
X137077216Y-115009524D01*
X137077216Y-115009524D02*
X137001025Y-115047619D01*
X137001025Y-115047619D02*
X136924835Y-115123809D01*
X136924835Y-115123809D02*
X136886740Y-115238095D01*
X136886740Y-115238095D02*
X136886740Y-115314286D01*
X136886740Y-115314286D02*
X136924835Y-115428571D01*
X136924835Y-115428571D02*
X136962930Y-115466667D01*
X136886740Y-116190476D02*
X136886740Y-115809524D01*
X136886740Y-115809524D02*
X137267692Y-115771428D01*
X137267692Y-115771428D02*
X137229597Y-115809524D01*
X137229597Y-115809524D02*
X137191502Y-115885714D01*
X137191502Y-115885714D02*
X137191502Y-116076190D01*
X137191502Y-116076190D02*
X137229597Y-116152381D01*
X137229597Y-116152381D02*
X137267692Y-116190476D01*
X137267692Y-116190476D02*
X137343883Y-116228571D01*
X137343883Y-116228571D02*
X137534359Y-116228571D01*
X137534359Y-116228571D02*
X137610549Y-116190476D01*
X137610549Y-116190476D02*
X137648645Y-116152381D01*
X137648645Y-116152381D02*
X137686740Y-116076190D01*
X137686740Y-116076190D02*
X137686740Y-115885714D01*
X137686740Y-115885714D02*
X137648645Y-115809524D01*
X137648645Y-115809524D02*
X137610549Y-115771428D01*
X133441730Y-96063563D02*
X132983794Y-96521498D01*
X132983794Y-96521498D02*
X132902982Y-96548436D01*
X132902982Y-96548436D02*
X132849107Y-96548436D01*
X132849107Y-96548436D02*
X132768295Y-96521498D01*
X132768295Y-96521498D02*
X132660546Y-96413749D01*
X132660546Y-96413749D02*
X132633608Y-96332937D01*
X132633608Y-96332937D02*
X132633608Y-96279062D01*
X132633608Y-96279062D02*
X132660546Y-96198250D01*
X132660546Y-96198250D02*
X133118481Y-95740314D01*
X132606671Y-95228503D02*
X132714421Y-95336253D01*
X132714421Y-95336253D02*
X132741358Y-95417065D01*
X132741358Y-95417065D02*
X132741358Y-95470940D01*
X132741358Y-95470940D02*
X132714421Y-95605627D01*
X132714421Y-95605627D02*
X132633608Y-95740314D01*
X132633608Y-95740314D02*
X132418109Y-95955813D01*
X132418109Y-95955813D02*
X132337297Y-95982751D01*
X132337297Y-95982751D02*
X132283422Y-95982751D01*
X132283422Y-95982751D02*
X132202610Y-95955813D01*
X132202610Y-95955813D02*
X132094860Y-95848064D01*
X132094860Y-95848064D02*
X132067923Y-95767251D01*
X132067923Y-95767251D02*
X132067923Y-95713377D01*
X132067923Y-95713377D02*
X132094860Y-95632564D01*
X132094860Y-95632564D02*
X132229547Y-95497877D01*
X132229547Y-95497877D02*
X132310360Y-95470940D01*
X132310360Y-95470940D02*
X132364234Y-95470940D01*
X132364234Y-95470940D02*
X132445047Y-95497877D01*
X132445047Y-95497877D02*
X132552796Y-95605627D01*
X132552796Y-95605627D02*
X132579734Y-95686439D01*
X132579734Y-95686439D02*
X132579734Y-95740314D01*
X132579734Y-95740314D02*
X132552796Y-95821126D01*
X131236433Y-120044408D02*
X131236433Y-119396789D01*
X131236433Y-119396789D02*
X131274528Y-119320599D01*
X131274528Y-119320599D02*
X131312623Y-119282504D01*
X131312623Y-119282504D02*
X131388814Y-119244408D01*
X131388814Y-119244408D02*
X131541195Y-119244408D01*
X131541195Y-119244408D02*
X131617385Y-119282504D01*
X131617385Y-119282504D02*
X131655480Y-119320599D01*
X131655480Y-119320599D02*
X131693576Y-119396789D01*
X131693576Y-119396789D02*
X131693576Y-120044408D01*
X132493575Y-119244408D02*
X132036432Y-119244408D01*
X132265004Y-119244408D02*
X132265004Y-120044408D01*
X132265004Y-120044408D02*
X132188813Y-119930123D01*
X132188813Y-119930123D02*
X132112623Y-119853932D01*
X132112623Y-119853932D02*
X132036432Y-119815837D01*
X133217385Y-120044408D02*
X132836433Y-120044408D01*
X132836433Y-120044408D02*
X132798337Y-119663456D01*
X132798337Y-119663456D02*
X132836433Y-119701551D01*
X132836433Y-119701551D02*
X132912623Y-119739646D01*
X132912623Y-119739646D02*
X133103099Y-119739646D01*
X133103099Y-119739646D02*
X133179290Y-119701551D01*
X133179290Y-119701551D02*
X133217385Y-119663456D01*
X133217385Y-119663456D02*
X133255480Y-119587265D01*
X133255480Y-119587265D02*
X133255480Y-119396789D01*
X133255480Y-119396789D02*
X133217385Y-119320599D01*
X133217385Y-119320599D02*
X133179290Y-119282504D01*
X133179290Y-119282504D02*
X133103099Y-119244408D01*
X133103099Y-119244408D02*
X132912623Y-119244408D01*
X132912623Y-119244408D02*
X132836433Y-119282504D01*
X132836433Y-119282504D02*
X132798337Y-119320599D01*
X150590475Y-152063491D02*
X150590475Y-152711110D01*
X150590475Y-152711110D02*
X150552380Y-152787300D01*
X150552380Y-152787300D02*
X150514285Y-152825396D01*
X150514285Y-152825396D02*
X150438094Y-152863491D01*
X150438094Y-152863491D02*
X150285713Y-152863491D01*
X150285713Y-152863491D02*
X150209523Y-152825396D01*
X150209523Y-152825396D02*
X150171428Y-152787300D01*
X150171428Y-152787300D02*
X150133332Y-152711110D01*
X150133332Y-152711110D02*
X150133332Y-152063491D01*
X149333333Y-152863491D02*
X149790476Y-152863491D01*
X149561904Y-152863491D02*
X149561904Y-152063491D01*
X149561904Y-152063491D02*
X149638095Y-152177776D01*
X149638095Y-152177776D02*
X149714285Y-152253967D01*
X149714285Y-152253967D02*
X149790476Y-152292062D01*
X148838094Y-152063491D02*
X148761904Y-152063491D01*
X148761904Y-152063491D02*
X148685713Y-152101586D01*
X148685713Y-152101586D02*
X148647618Y-152139681D01*
X148647618Y-152139681D02*
X148609523Y-152215872D01*
X148609523Y-152215872D02*
X148571428Y-152368253D01*
X148571428Y-152368253D02*
X148571428Y-152558729D01*
X148571428Y-152558729D02*
X148609523Y-152711110D01*
X148609523Y-152711110D02*
X148647618Y-152787300D01*
X148647618Y-152787300D02*
X148685713Y-152825396D01*
X148685713Y-152825396D02*
X148761904Y-152863491D01*
X148761904Y-152863491D02*
X148838094Y-152863491D01*
X148838094Y-152863491D02*
X148914285Y-152825396D01*
X148914285Y-152825396D02*
X148952380Y-152787300D01*
X148952380Y-152787300D02*
X148990475Y-152711110D01*
X148990475Y-152711110D02*
X149028571Y-152558729D01*
X149028571Y-152558729D02*
X149028571Y-152368253D01*
X149028571Y-152368253D02*
X148990475Y-152215872D01*
X148990475Y-152215872D02*
X148952380Y-152139681D01*
X148952380Y-152139681D02*
X148914285Y-152101586D01*
X148914285Y-152101586D02*
X148838094Y-152063491D01*
X139633331Y-124884050D02*
X139671427Y-124922146D01*
X139671427Y-124922146D02*
X139785712Y-124960241D01*
X139785712Y-124960241D02*
X139861903Y-124960241D01*
X139861903Y-124960241D02*
X139976189Y-124922146D01*
X139976189Y-124922146D02*
X140052379Y-124845955D01*
X140052379Y-124845955D02*
X140090474Y-124769765D01*
X140090474Y-124769765D02*
X140128570Y-124617384D01*
X140128570Y-124617384D02*
X140128570Y-124503098D01*
X140128570Y-124503098D02*
X140090474Y-124350717D01*
X140090474Y-124350717D02*
X140052379Y-124274526D01*
X140052379Y-124274526D02*
X139976189Y-124198336D01*
X139976189Y-124198336D02*
X139861903Y-124160241D01*
X139861903Y-124160241D02*
X139785712Y-124160241D01*
X139785712Y-124160241D02*
X139671427Y-124198336D01*
X139671427Y-124198336D02*
X139633331Y-124236431D01*
X138871427Y-124960241D02*
X139328570Y-124960241D01*
X139099998Y-124960241D02*
X139099998Y-124160241D01*
X139099998Y-124160241D02*
X139176189Y-124274526D01*
X139176189Y-124274526D02*
X139252379Y-124350717D01*
X139252379Y-124350717D02*
X139328570Y-124388812D01*
X136285083Y-133568622D02*
X136334857Y-133589239D01*
X136334857Y-133589239D02*
X136455021Y-133580699D01*
X136455021Y-133580699D02*
X136525412Y-133551542D01*
X136525412Y-133551542D02*
X136616420Y-133472612D01*
X136616420Y-133472612D02*
X136657654Y-133373064D01*
X136657654Y-133373064D02*
X136663693Y-133288095D01*
X136663693Y-133288095D02*
X136640574Y-133132735D01*
X136640574Y-133132735D02*
X136596839Y-133027149D01*
X136596839Y-133027149D02*
X136503330Y-132900945D01*
X136503330Y-132900945D02*
X136438978Y-132845133D01*
X136438978Y-132845133D02*
X136339430Y-132803899D01*
X136339430Y-132803899D02*
X136219266Y-132812439D01*
X136219266Y-132812439D02*
X136148875Y-132841596D01*
X136148875Y-132841596D02*
X136057867Y-132920526D01*
X136057867Y-132920526D02*
X136037250Y-132970300D01*
X135610332Y-133930581D02*
X136032677Y-133755640D01*
X135821504Y-133843111D02*
X135515357Y-133104007D01*
X135515357Y-133104007D02*
X135629483Y-133180437D01*
X135629483Y-133180437D02*
X135729031Y-133221670D01*
X135729031Y-133221670D02*
X135814000Y-133227709D01*
X135258377Y-134076365D02*
X135117596Y-134134679D01*
X135117596Y-134134679D02*
X135032626Y-134128641D01*
X135032626Y-134128641D02*
X134982853Y-134108024D01*
X134982853Y-134108024D02*
X134868727Y-134031594D01*
X134868727Y-134031594D02*
X134775217Y-133905391D01*
X134775217Y-133905391D02*
X134658590Y-133623828D01*
X134658590Y-133623828D02*
X134664629Y-133538858D01*
X134664629Y-133538858D02*
X134685246Y-133489085D01*
X134685246Y-133489085D02*
X134741058Y-133424732D01*
X134741058Y-133424732D02*
X134881840Y-133366419D01*
X134881840Y-133366419D02*
X134966809Y-133372457D01*
X134966809Y-133372457D02*
X135016583Y-133393074D01*
X135016583Y-133393074D02*
X135080935Y-133448887D01*
X135080935Y-133448887D02*
X135153827Y-133624864D01*
X135153827Y-133624864D02*
X135147789Y-133709833D01*
X135147789Y-133709833D02*
X135127172Y-133759607D01*
X135127172Y-133759607D02*
X135071359Y-133823959D01*
X135071359Y-133823959D02*
X134930578Y-133882273D01*
X134930578Y-133882273D02*
X134845608Y-133876234D01*
X134845608Y-133876234D02*
X134795834Y-133855617D01*
X134795834Y-133855617D02*
X134731482Y-133799805D01*
X129463491Y-154533334D02*
X128663491Y-154533334D01*
X129539681Y-155447619D02*
X129501586Y-155371429D01*
X129501586Y-155371429D02*
X129425396Y-155295238D01*
X129425396Y-155295238D02*
X129311110Y-155180952D01*
X129311110Y-155180952D02*
X129273015Y-155104762D01*
X129273015Y-155104762D02*
X129273015Y-155028571D01*
X129463491Y-155066667D02*
X129425396Y-154990476D01*
X129425396Y-154990476D02*
X129349205Y-154914286D01*
X129349205Y-154914286D02*
X129196824Y-154876190D01*
X129196824Y-154876190D02*
X128930157Y-154876190D01*
X128930157Y-154876190D02*
X128777776Y-154914286D01*
X128777776Y-154914286D02*
X128701586Y-154990476D01*
X128701586Y-154990476D02*
X128663491Y-155066667D01*
X128663491Y-155066667D02*
X128663491Y-155219048D01*
X128663491Y-155219048D02*
X128701586Y-155295238D01*
X128701586Y-155295238D02*
X128777776Y-155371429D01*
X128777776Y-155371429D02*
X128930157Y-155409524D01*
X128930157Y-155409524D02*
X129196824Y-155409524D01*
X129196824Y-155409524D02*
X129349205Y-155371429D01*
X129349205Y-155371429D02*
X129425396Y-155295238D01*
X129425396Y-155295238D02*
X129463491Y-155219048D01*
X129463491Y-155219048D02*
X129463491Y-155066667D01*
X129539681Y-155561905D02*
X129539681Y-156171428D01*
X128663491Y-156514286D02*
X128663491Y-156666667D01*
X128663491Y-156666667D02*
X128701586Y-156742857D01*
X128701586Y-156742857D02*
X128777776Y-156819048D01*
X128777776Y-156819048D02*
X128930157Y-156857143D01*
X128930157Y-156857143D02*
X129196824Y-156857143D01*
X129196824Y-156857143D02*
X129349205Y-156819048D01*
X129349205Y-156819048D02*
X129425396Y-156742857D01*
X129425396Y-156742857D02*
X129463491Y-156666667D01*
X129463491Y-156666667D02*
X129463491Y-156514286D01*
X129463491Y-156514286D02*
X129425396Y-156438095D01*
X129425396Y-156438095D02*
X129349205Y-156361905D01*
X129349205Y-156361905D02*
X129196824Y-156323809D01*
X129196824Y-156323809D02*
X128930157Y-156323809D01*
X128930157Y-156323809D02*
X128777776Y-156361905D01*
X128777776Y-156361905D02*
X128701586Y-156438095D01*
X128701586Y-156438095D02*
X128663491Y-156514286D01*
X128663491Y-157200000D02*
X129311110Y-157200000D01*
X129311110Y-157200000D02*
X129387300Y-157238095D01*
X129387300Y-157238095D02*
X129425396Y-157276190D01*
X129425396Y-157276190D02*
X129463491Y-157352381D01*
X129463491Y-157352381D02*
X129463491Y-157504762D01*
X129463491Y-157504762D02*
X129425396Y-157580952D01*
X129425396Y-157580952D02*
X129387300Y-157619047D01*
X129387300Y-157619047D02*
X129311110Y-157657143D01*
X129311110Y-157657143D02*
X128663491Y-157657143D01*
X128663491Y-157923809D02*
X128663491Y-158380952D01*
X129463491Y-158152380D02*
X128663491Y-158152380D01*
X148309523Y-158063491D02*
X148309523Y-158711110D01*
X148309523Y-158711110D02*
X148271428Y-158787300D01*
X148271428Y-158787300D02*
X148233333Y-158825396D01*
X148233333Y-158825396D02*
X148157142Y-158863491D01*
X148157142Y-158863491D02*
X148004761Y-158863491D01*
X148004761Y-158863491D02*
X147928571Y-158825396D01*
X147928571Y-158825396D02*
X147890476Y-158787300D01*
X147890476Y-158787300D02*
X147852380Y-158711110D01*
X147852380Y-158711110D02*
X147852380Y-158063491D01*
X147357143Y-158406348D02*
X147433333Y-158368253D01*
X147433333Y-158368253D02*
X147471428Y-158330157D01*
X147471428Y-158330157D02*
X147509524Y-158253967D01*
X147509524Y-158253967D02*
X147509524Y-158215872D01*
X147509524Y-158215872D02*
X147471428Y-158139681D01*
X147471428Y-158139681D02*
X147433333Y-158101586D01*
X147433333Y-158101586D02*
X147357143Y-158063491D01*
X147357143Y-158063491D02*
X147204762Y-158063491D01*
X147204762Y-158063491D02*
X147128571Y-158101586D01*
X147128571Y-158101586D02*
X147090476Y-158139681D01*
X147090476Y-158139681D02*
X147052381Y-158215872D01*
X147052381Y-158215872D02*
X147052381Y-158253967D01*
X147052381Y-158253967D02*
X147090476Y-158330157D01*
X147090476Y-158330157D02*
X147128571Y-158368253D01*
X147128571Y-158368253D02*
X147204762Y-158406348D01*
X147204762Y-158406348D02*
X147357143Y-158406348D01*
X147357143Y-158406348D02*
X147433333Y-158444443D01*
X147433333Y-158444443D02*
X147471428Y-158482538D01*
X147471428Y-158482538D02*
X147509524Y-158558729D01*
X147509524Y-158558729D02*
X147509524Y-158711110D01*
X147509524Y-158711110D02*
X147471428Y-158787300D01*
X147471428Y-158787300D02*
X147433333Y-158825396D01*
X147433333Y-158825396D02*
X147357143Y-158863491D01*
X147357143Y-158863491D02*
X147204762Y-158863491D01*
X147204762Y-158863491D02*
X147128571Y-158825396D01*
X147128571Y-158825396D02*
X147090476Y-158787300D01*
X147090476Y-158787300D02*
X147052381Y-158711110D01*
X147052381Y-158711110D02*
X147052381Y-158558729D01*
X147052381Y-158558729D02*
X147090476Y-158482538D01*
X147090476Y-158482538D02*
X147128571Y-158444443D01*
X147128571Y-158444443D02*
X147204762Y-158406348D01*
X147263491Y-164449046D02*
X147834919Y-164449046D01*
X147834919Y-164449046D02*
X147949205Y-164410951D01*
X147949205Y-164410951D02*
X148025396Y-164334760D01*
X148025396Y-164334760D02*
X148063491Y-164220475D01*
X148063491Y-164220475D02*
X148063491Y-164144284D01*
X148063491Y-165249046D02*
X148063491Y-164791903D01*
X148063491Y-165020475D02*
X147263491Y-165020475D01*
X147263491Y-165020475D02*
X147377776Y-164944284D01*
X147377776Y-164944284D02*
X147453967Y-164868094D01*
X147453967Y-164868094D02*
X147492062Y-164791903D01*
X147263491Y-165515713D02*
X147263491Y-166010951D01*
X147263491Y-166010951D02*
X147568253Y-165744285D01*
X147568253Y-165744285D02*
X147568253Y-165858570D01*
X147568253Y-165858570D02*
X147606348Y-165934761D01*
X147606348Y-165934761D02*
X147644443Y-165972856D01*
X147644443Y-165972856D02*
X147720634Y-166010951D01*
X147720634Y-166010951D02*
X147911110Y-166010951D01*
X147911110Y-166010951D02*
X147987300Y-165972856D01*
X147987300Y-165972856D02*
X148025396Y-165934761D01*
X148025396Y-165934761D02*
X148063491Y-165858570D01*
X148063491Y-165858570D02*
X148063491Y-165629999D01*
X148063491Y-165629999D02*
X148025396Y-165553808D01*
X148025396Y-165553808D02*
X147987300Y-165515713D01*
X133787300Y-113303333D02*
X133825396Y-113265237D01*
X133825396Y-113265237D02*
X133863491Y-113150952D01*
X133863491Y-113150952D02*
X133863491Y-113074761D01*
X133863491Y-113074761D02*
X133825396Y-112960475D01*
X133825396Y-112960475D02*
X133749205Y-112884285D01*
X133749205Y-112884285D02*
X133673015Y-112846190D01*
X133673015Y-112846190D02*
X133520634Y-112808094D01*
X133520634Y-112808094D02*
X133406348Y-112808094D01*
X133406348Y-112808094D02*
X133253967Y-112846190D01*
X133253967Y-112846190D02*
X133177776Y-112884285D01*
X133177776Y-112884285D02*
X133101586Y-112960475D01*
X133101586Y-112960475D02*
X133063491Y-113074761D01*
X133063491Y-113074761D02*
X133063491Y-113150952D01*
X133063491Y-113150952D02*
X133101586Y-113265237D01*
X133101586Y-113265237D02*
X133139681Y-113303333D01*
X133139681Y-113608094D02*
X133101586Y-113646190D01*
X133101586Y-113646190D02*
X133063491Y-113722380D01*
X133063491Y-113722380D02*
X133063491Y-113912856D01*
X133063491Y-113912856D02*
X133101586Y-113989047D01*
X133101586Y-113989047D02*
X133139681Y-114027142D01*
X133139681Y-114027142D02*
X133215872Y-114065237D01*
X133215872Y-114065237D02*
X133292062Y-114065237D01*
X133292062Y-114065237D02*
X133406348Y-114027142D01*
X133406348Y-114027142D02*
X133863491Y-113569999D01*
X133863491Y-113569999D02*
X133863491Y-114065237D01*
X133863491Y-114446190D02*
X133863491Y-114598571D01*
X133863491Y-114598571D02*
X133825396Y-114674761D01*
X133825396Y-114674761D02*
X133787300Y-114712857D01*
X133787300Y-114712857D02*
X133673015Y-114789047D01*
X133673015Y-114789047D02*
X133520634Y-114827142D01*
X133520634Y-114827142D02*
X133215872Y-114827142D01*
X133215872Y-114827142D02*
X133139681Y-114789047D01*
X133139681Y-114789047D02*
X133101586Y-114750952D01*
X133101586Y-114750952D02*
X133063491Y-114674761D01*
X133063491Y-114674761D02*
X133063491Y-114522380D01*
X133063491Y-114522380D02*
X133101586Y-114446190D01*
X133101586Y-114446190D02*
X133139681Y-114408095D01*
X133139681Y-114408095D02*
X133215872Y-114369999D01*
X133215872Y-114369999D02*
X133406348Y-114369999D01*
X133406348Y-114369999D02*
X133482538Y-114408095D01*
X133482538Y-114408095D02*
X133520634Y-114446190D01*
X133520634Y-114446190D02*
X133558729Y-114522380D01*
X133558729Y-114522380D02*
X133558729Y-114674761D01*
X133558729Y-114674761D02*
X133520634Y-114750952D01*
X133520634Y-114750952D02*
X133482538Y-114789047D01*
X133482538Y-114789047D02*
X133406348Y-114827142D01*
X132166666Y-128063491D02*
X132166666Y-128634919D01*
X132166666Y-128634919D02*
X132204761Y-128749205D01*
X132204761Y-128749205D02*
X132280952Y-128825396D01*
X132280952Y-128825396D02*
X132395237Y-128863491D01*
X132395237Y-128863491D02*
X132471428Y-128863491D01*
X131442856Y-128330157D02*
X131442856Y-128863491D01*
X131633332Y-128025396D02*
X131823809Y-128596824D01*
X131823809Y-128596824D02*
X131328570Y-128596824D01*
X127447619Y-167063491D02*
X127447619Y-167634919D01*
X127447619Y-167634919D02*
X127485714Y-167749205D01*
X127485714Y-167749205D02*
X127561905Y-167825396D01*
X127561905Y-167825396D02*
X127676190Y-167863491D01*
X127676190Y-167863491D02*
X127752381Y-167863491D01*
X126647619Y-167863491D02*
X127104762Y-167863491D01*
X126876190Y-167863491D02*
X126876190Y-167063491D01*
X126876190Y-167063491D02*
X126952381Y-167177776D01*
X126952381Y-167177776D02*
X127028571Y-167253967D01*
X127028571Y-167253967D02*
X127104762Y-167292062D01*
X125885714Y-167863491D02*
X126342857Y-167863491D01*
X126114285Y-167863491D02*
X126114285Y-167063491D01*
X126114285Y-167063491D02*
X126190476Y-167177776D01*
X126190476Y-167177776D02*
X126266666Y-167253967D01*
X126266666Y-167253967D02*
X126342857Y-167292062D01*
X126763491Y-134690476D02*
X127411110Y-134690476D01*
X127411110Y-134690476D02*
X127487300Y-134728571D01*
X127487300Y-134728571D02*
X127525396Y-134766666D01*
X127525396Y-134766666D02*
X127563491Y-134842857D01*
X127563491Y-134842857D02*
X127563491Y-134995238D01*
X127563491Y-134995238D02*
X127525396Y-135071428D01*
X127525396Y-135071428D02*
X127487300Y-135109523D01*
X127487300Y-135109523D02*
X127411110Y-135147619D01*
X127411110Y-135147619D02*
X126763491Y-135147619D01*
X126763491Y-135452380D02*
X126763491Y-135985714D01*
X126763491Y-135985714D02*
X127563491Y-135642856D01*
X136114285Y-127787300D02*
X136152381Y-127825396D01*
X136152381Y-127825396D02*
X136266666Y-127863491D01*
X136266666Y-127863491D02*
X136342857Y-127863491D01*
X136342857Y-127863491D02*
X136457143Y-127825396D01*
X136457143Y-127825396D02*
X136533333Y-127749205D01*
X136533333Y-127749205D02*
X136571428Y-127673015D01*
X136571428Y-127673015D02*
X136609524Y-127520634D01*
X136609524Y-127520634D02*
X136609524Y-127406348D01*
X136609524Y-127406348D02*
X136571428Y-127253967D01*
X136571428Y-127253967D02*
X136533333Y-127177776D01*
X136533333Y-127177776D02*
X136457143Y-127101586D01*
X136457143Y-127101586D02*
X136342857Y-127063491D01*
X136342857Y-127063491D02*
X136266666Y-127063491D01*
X136266666Y-127063491D02*
X136152381Y-127101586D01*
X136152381Y-127101586D02*
X136114285Y-127139681D01*
X135352381Y-127863491D02*
X135809524Y-127863491D01*
X135580952Y-127863491D02*
X135580952Y-127063491D01*
X135580952Y-127063491D02*
X135657143Y-127177776D01*
X135657143Y-127177776D02*
X135733333Y-127253967D01*
X135733333Y-127253967D02*
X135809524Y-127292062D01*
X135047619Y-127139681D02*
X135009523Y-127101586D01*
X135009523Y-127101586D02*
X134933333Y-127063491D01*
X134933333Y-127063491D02*
X134742857Y-127063491D01*
X134742857Y-127063491D02*
X134666666Y-127101586D01*
X134666666Y-127101586D02*
X134628571Y-127139681D01*
X134628571Y-127139681D02*
X134590476Y-127215872D01*
X134590476Y-127215872D02*
X134590476Y-127292062D01*
X134590476Y-127292062D02*
X134628571Y-127406348D01*
X134628571Y-127406348D02*
X135085714Y-127863491D01*
X135085714Y-127863491D02*
X134590476Y-127863491D01*
X133047619Y-138463491D02*
X133047619Y-139034919D01*
X133047619Y-139034919D02*
X133085714Y-139149205D01*
X133085714Y-139149205D02*
X133161905Y-139225396D01*
X133161905Y-139225396D02*
X133276190Y-139263491D01*
X133276190Y-139263491D02*
X133352381Y-139263491D01*
X132247619Y-139263491D02*
X132704762Y-139263491D01*
X132476190Y-139263491D02*
X132476190Y-138463491D01*
X132476190Y-138463491D02*
X132552381Y-138577776D01*
X132552381Y-138577776D02*
X132628571Y-138653967D01*
X132628571Y-138653967D02*
X132704762Y-138692062D01*
X131523809Y-138463491D02*
X131904761Y-138463491D01*
X131904761Y-138463491D02*
X131942857Y-138844443D01*
X131942857Y-138844443D02*
X131904761Y-138806348D01*
X131904761Y-138806348D02*
X131828571Y-138768253D01*
X131828571Y-138768253D02*
X131638095Y-138768253D01*
X131638095Y-138768253D02*
X131561904Y-138806348D01*
X131561904Y-138806348D02*
X131523809Y-138844443D01*
X131523809Y-138844443D02*
X131485714Y-138920634D01*
X131485714Y-138920634D02*
X131485714Y-139111110D01*
X131485714Y-139111110D02*
X131523809Y-139187300D01*
X131523809Y-139187300D02*
X131561904Y-139225396D01*
X131561904Y-139225396D02*
X131638095Y-139263491D01*
X131638095Y-139263491D02*
X131828571Y-139263491D01*
X131828571Y-139263491D02*
X131904761Y-139225396D01*
X131904761Y-139225396D02*
X131942857Y-139187300D01*
X149166807Y-102549418D02*
X149220682Y-102549418D01*
X149220682Y-102549418D02*
X149328431Y-102495543D01*
X149328431Y-102495543D02*
X149382306Y-102441668D01*
X149382306Y-102441668D02*
X149436181Y-102333919D01*
X149436181Y-102333919D02*
X149436181Y-102226169D01*
X149436181Y-102226169D02*
X149409244Y-102145357D01*
X149409244Y-102145357D02*
X149328431Y-102010670D01*
X149328431Y-102010670D02*
X149247619Y-101929858D01*
X149247619Y-101929858D02*
X149112932Y-101849045D01*
X149112932Y-101849045D02*
X149032120Y-101822108D01*
X149032120Y-101822108D02*
X148924370Y-101822108D01*
X148924370Y-101822108D02*
X148816621Y-101875983D01*
X148816621Y-101875983D02*
X148762746Y-101929858D01*
X148762746Y-101929858D02*
X148708871Y-102037607D01*
X148708871Y-102037607D02*
X148708871Y-102091482D01*
X148493372Y-102306981D02*
X148439497Y-102306981D01*
X148439497Y-102306981D02*
X148358685Y-102333919D01*
X148358685Y-102333919D02*
X148223998Y-102468606D01*
X148223998Y-102468606D02*
X148197060Y-102549418D01*
X148197060Y-102549418D02*
X148197060Y-102603293D01*
X148197060Y-102603293D02*
X148223998Y-102684105D01*
X148223998Y-102684105D02*
X148277873Y-102737980D01*
X148277873Y-102737980D02*
X148385622Y-102791854D01*
X148385622Y-102791854D02*
X149032120Y-102791854D01*
X149032120Y-102791854D02*
X148681934Y-103142041D01*
X148035436Y-103142041D02*
X148062373Y-103061229D01*
X148062373Y-103061229D02*
X148062373Y-103007354D01*
X148062373Y-103007354D02*
X148035436Y-102926542D01*
X148035436Y-102926542D02*
X148008498Y-102899604D01*
X148008498Y-102899604D02*
X147927686Y-102872667D01*
X147927686Y-102872667D02*
X147873811Y-102872667D01*
X147873811Y-102872667D02*
X147792999Y-102899604D01*
X147792999Y-102899604D02*
X147685250Y-103007354D01*
X147685250Y-103007354D02*
X147658312Y-103088166D01*
X147658312Y-103088166D02*
X147658312Y-103142041D01*
X147658312Y-103142041D02*
X147685250Y-103222853D01*
X147685250Y-103222853D02*
X147712187Y-103249790D01*
X147712187Y-103249790D02*
X147792999Y-103276728D01*
X147792999Y-103276728D02*
X147846874Y-103276728D01*
X147846874Y-103276728D02*
X147927686Y-103249790D01*
X147927686Y-103249790D02*
X148035436Y-103142041D01*
X148035436Y-103142041D02*
X148116248Y-103115103D01*
X148116248Y-103115103D02*
X148170123Y-103115103D01*
X148170123Y-103115103D02*
X148250935Y-103142041D01*
X148250935Y-103142041D02*
X148358685Y-103249790D01*
X148358685Y-103249790D02*
X148385622Y-103330603D01*
X148385622Y-103330603D02*
X148385622Y-103384477D01*
X148385622Y-103384477D02*
X148358685Y-103465290D01*
X148358685Y-103465290D02*
X148250935Y-103573039D01*
X148250935Y-103573039D02*
X148170123Y-103599977D01*
X148170123Y-103599977D02*
X148116248Y-103599977D01*
X148116248Y-103599977D02*
X148035436Y-103573039D01*
X148035436Y-103573039D02*
X147927686Y-103465290D01*
X147927686Y-103465290D02*
X147900749Y-103384477D01*
X147900749Y-103384477D02*
X147900749Y-103330603D01*
X147900749Y-103330603D02*
X147927686Y-103249790D01*
X126763491Y-119989046D02*
X127334919Y-119989046D01*
X127334919Y-119989046D02*
X127449205Y-119950951D01*
X127449205Y-119950951D02*
X127525396Y-119874760D01*
X127525396Y-119874760D02*
X127563491Y-119760475D01*
X127563491Y-119760475D02*
X127563491Y-119684284D01*
X127563491Y-120789046D02*
X127563491Y-120331903D01*
X127563491Y-120560475D02*
X126763491Y-120560475D01*
X126763491Y-120560475D02*
X126877776Y-120484284D01*
X126877776Y-120484284D02*
X126953967Y-120408094D01*
X126953967Y-120408094D02*
X126992062Y-120331903D01*
X127030157Y-121474761D02*
X127563491Y-121474761D01*
X126725396Y-121284285D02*
X127296824Y-121093808D01*
X127296824Y-121093808D02*
X127296824Y-121589047D01*
X134214285Y-155290550D02*
X134252381Y-155328646D01*
X134252381Y-155328646D02*
X134366666Y-155366741D01*
X134366666Y-155366741D02*
X134442857Y-155366741D01*
X134442857Y-155366741D02*
X134557143Y-155328646D01*
X134557143Y-155328646D02*
X134633333Y-155252455D01*
X134633333Y-155252455D02*
X134671428Y-155176265D01*
X134671428Y-155176265D02*
X134709524Y-155023884D01*
X134709524Y-155023884D02*
X134709524Y-154909598D01*
X134709524Y-154909598D02*
X134671428Y-154757217D01*
X134671428Y-154757217D02*
X134633333Y-154681026D01*
X134633333Y-154681026D02*
X134557143Y-154604836D01*
X134557143Y-154604836D02*
X134442857Y-154566741D01*
X134442857Y-154566741D02*
X134366666Y-154566741D01*
X134366666Y-154566741D02*
X134252381Y-154604836D01*
X134252381Y-154604836D02*
X134214285Y-154642931D01*
X133909524Y-154642931D02*
X133871428Y-154604836D01*
X133871428Y-154604836D02*
X133795238Y-154566741D01*
X133795238Y-154566741D02*
X133604762Y-154566741D01*
X133604762Y-154566741D02*
X133528571Y-154604836D01*
X133528571Y-154604836D02*
X133490476Y-154642931D01*
X133490476Y-154642931D02*
X133452381Y-154719122D01*
X133452381Y-154719122D02*
X133452381Y-154795312D01*
X133452381Y-154795312D02*
X133490476Y-154909598D01*
X133490476Y-154909598D02*
X133947619Y-155366741D01*
X133947619Y-155366741D02*
X133452381Y-155366741D01*
X133185714Y-154566741D02*
X132652380Y-154566741D01*
X132652380Y-154566741D02*
X132995238Y-155366741D01*
X137899999Y-156163491D02*
X137899999Y-155363491D01*
X137252381Y-155744443D02*
X137138095Y-155782538D01*
X137138095Y-155782538D02*
X137100000Y-155820634D01*
X137100000Y-155820634D02*
X137061904Y-155896824D01*
X137061904Y-155896824D02*
X137061904Y-156011110D01*
X137061904Y-156011110D02*
X137100000Y-156087300D01*
X137100000Y-156087300D02*
X137138095Y-156125396D01*
X137138095Y-156125396D02*
X137214285Y-156163491D01*
X137214285Y-156163491D02*
X137519047Y-156163491D01*
X137519047Y-156163491D02*
X137519047Y-155363491D01*
X137519047Y-155363491D02*
X137252381Y-155363491D01*
X137252381Y-155363491D02*
X137176190Y-155401586D01*
X137176190Y-155401586D02*
X137138095Y-155439681D01*
X137138095Y-155439681D02*
X137100000Y-155515872D01*
X137100000Y-155515872D02*
X137100000Y-155592062D01*
X137100000Y-155592062D02*
X137138095Y-155668253D01*
X137138095Y-155668253D02*
X137176190Y-155706348D01*
X137176190Y-155706348D02*
X137252381Y-155744443D01*
X137252381Y-155744443D02*
X137519047Y-155744443D01*
X136452381Y-155744443D02*
X136338095Y-155782538D01*
X136338095Y-155782538D02*
X136300000Y-155820634D01*
X136300000Y-155820634D02*
X136261904Y-155896824D01*
X136261904Y-155896824D02*
X136261904Y-156011110D01*
X136261904Y-156011110D02*
X136300000Y-156087300D01*
X136300000Y-156087300D02*
X136338095Y-156125396D01*
X136338095Y-156125396D02*
X136414285Y-156163491D01*
X136414285Y-156163491D02*
X136719047Y-156163491D01*
X136719047Y-156163491D02*
X136719047Y-155363491D01*
X136719047Y-155363491D02*
X136452381Y-155363491D01*
X136452381Y-155363491D02*
X136376190Y-155401586D01*
X136376190Y-155401586D02*
X136338095Y-155439681D01*
X136338095Y-155439681D02*
X136300000Y-155515872D01*
X136300000Y-155515872D02*
X136300000Y-155592062D01*
X136300000Y-155592062D02*
X136338095Y-155668253D01*
X136338095Y-155668253D02*
X136376190Y-155706348D01*
X136376190Y-155706348D02*
X136452381Y-155744443D01*
X136452381Y-155744443D02*
X136719047Y-155744443D01*
X135919047Y-156163491D02*
X135919047Y-155363491D01*
X135919047Y-155363491D02*
X135614285Y-155363491D01*
X135614285Y-155363491D02*
X135538095Y-155401586D01*
X135538095Y-155401586D02*
X135500000Y-155439681D01*
X135500000Y-155439681D02*
X135461904Y-155515872D01*
X135461904Y-155515872D02*
X135461904Y-155630157D01*
X135461904Y-155630157D02*
X135500000Y-155706348D01*
X135500000Y-155706348D02*
X135538095Y-155744443D01*
X135538095Y-155744443D02*
X135614285Y-155782538D01*
X135614285Y-155782538D02*
X135919047Y-155782538D01*
X138963491Y-150866667D02*
X138582538Y-150600000D01*
X138963491Y-150409524D02*
X138163491Y-150409524D01*
X138163491Y-150409524D02*
X138163491Y-150714286D01*
X138163491Y-150714286D02*
X138201586Y-150790476D01*
X138201586Y-150790476D02*
X138239681Y-150828571D01*
X138239681Y-150828571D02*
X138315872Y-150866667D01*
X138315872Y-150866667D02*
X138430157Y-150866667D01*
X138430157Y-150866667D02*
X138506348Y-150828571D01*
X138506348Y-150828571D02*
X138544443Y-150790476D01*
X138544443Y-150790476D02*
X138582538Y-150714286D01*
X138582538Y-150714286D02*
X138582538Y-150409524D01*
X138506348Y-151323809D02*
X138468253Y-151247619D01*
X138468253Y-151247619D02*
X138430157Y-151209524D01*
X138430157Y-151209524D02*
X138353967Y-151171428D01*
X138353967Y-151171428D02*
X138315872Y-151171428D01*
X138315872Y-151171428D02*
X138239681Y-151209524D01*
X138239681Y-151209524D02*
X138201586Y-151247619D01*
X138201586Y-151247619D02*
X138163491Y-151323809D01*
X138163491Y-151323809D02*
X138163491Y-151476190D01*
X138163491Y-151476190D02*
X138201586Y-151552381D01*
X138201586Y-151552381D02*
X138239681Y-151590476D01*
X138239681Y-151590476D02*
X138315872Y-151628571D01*
X138315872Y-151628571D02*
X138353967Y-151628571D01*
X138353967Y-151628571D02*
X138430157Y-151590476D01*
X138430157Y-151590476D02*
X138468253Y-151552381D01*
X138468253Y-151552381D02*
X138506348Y-151476190D01*
X138506348Y-151476190D02*
X138506348Y-151323809D01*
X138506348Y-151323809D02*
X138544443Y-151247619D01*
X138544443Y-151247619D02*
X138582538Y-151209524D01*
X138582538Y-151209524D02*
X138658729Y-151171428D01*
X138658729Y-151171428D02*
X138811110Y-151171428D01*
X138811110Y-151171428D02*
X138887300Y-151209524D01*
X138887300Y-151209524D02*
X138925396Y-151247619D01*
X138925396Y-151247619D02*
X138963491Y-151323809D01*
X138963491Y-151323809D02*
X138963491Y-151476190D01*
X138963491Y-151476190D02*
X138925396Y-151552381D01*
X138925396Y-151552381D02*
X138887300Y-151590476D01*
X138887300Y-151590476D02*
X138811110Y-151628571D01*
X138811110Y-151628571D02*
X138658729Y-151628571D01*
X138658729Y-151628571D02*
X138582538Y-151590476D01*
X138582538Y-151590476D02*
X138544443Y-151552381D01*
X138544443Y-151552381D02*
X138506348Y-151476190D01*
X129858809Y-174663491D02*
X129858809Y-175234919D01*
X129858809Y-175234919D02*
X129896904Y-175349205D01*
X129896904Y-175349205D02*
X129973095Y-175425396D01*
X129973095Y-175425396D02*
X130087380Y-175463491D01*
X130087380Y-175463491D02*
X130163571Y-175463491D01*
X129554047Y-174663491D02*
X129020713Y-174663491D01*
X129020713Y-174663491D02*
X129363571Y-175463491D01*
X140863492Y-136790476D02*
X141511111Y-136790476D01*
X141511111Y-136790476D02*
X141587301Y-136828571D01*
X141587301Y-136828571D02*
X141625397Y-136866666D01*
X141625397Y-136866666D02*
X141663492Y-136942857D01*
X141663492Y-136942857D02*
X141663492Y-137095238D01*
X141663492Y-137095238D02*
X141625397Y-137171428D01*
X141625397Y-137171428D02*
X141587301Y-137209523D01*
X141587301Y-137209523D02*
X141511111Y-137247619D01*
X141511111Y-137247619D02*
X140863492Y-137247619D01*
X141663492Y-138047618D02*
X141663492Y-137590475D01*
X141663492Y-137819047D02*
X140863492Y-137819047D01*
X140863492Y-137819047D02*
X140977777Y-137742856D01*
X140977777Y-137742856D02*
X141053968Y-137666666D01*
X141053968Y-137666666D02*
X141092063Y-137590475D01*
X125463491Y-144623810D02*
X125082538Y-144357143D01*
X125463491Y-144166667D02*
X124663491Y-144166667D01*
X124663491Y-144166667D02*
X124663491Y-144471429D01*
X124663491Y-144471429D02*
X124701586Y-144547619D01*
X124701586Y-144547619D02*
X124739681Y-144585714D01*
X124739681Y-144585714D02*
X124815872Y-144623810D01*
X124815872Y-144623810D02*
X124930157Y-144623810D01*
X124930157Y-144623810D02*
X125006348Y-144585714D01*
X125006348Y-144585714D02*
X125044443Y-144547619D01*
X125044443Y-144547619D02*
X125082538Y-144471429D01*
X125082538Y-144471429D02*
X125082538Y-144166667D01*
X124663491Y-144852381D02*
X125463491Y-145119048D01*
X125463491Y-145119048D02*
X124663491Y-145385714D01*
X124663491Y-145576190D02*
X124663491Y-146071428D01*
X124663491Y-146071428D02*
X124968253Y-145804762D01*
X124968253Y-145804762D02*
X124968253Y-145919047D01*
X124968253Y-145919047D02*
X125006348Y-145995238D01*
X125006348Y-145995238D02*
X125044443Y-146033333D01*
X125044443Y-146033333D02*
X125120634Y-146071428D01*
X125120634Y-146071428D02*
X125311110Y-146071428D01*
X125311110Y-146071428D02*
X125387300Y-146033333D01*
X125387300Y-146033333D02*
X125425396Y-145995238D01*
X125425396Y-145995238D02*
X125463491Y-145919047D01*
X125463491Y-145919047D02*
X125463491Y-145690476D01*
X125463491Y-145690476D02*
X125425396Y-145614285D01*
X125425396Y-145614285D02*
X125387300Y-145576190D01*
X152814285Y-146657300D02*
X152852381Y-146695396D01*
X152852381Y-146695396D02*
X152966666Y-146733491D01*
X152966666Y-146733491D02*
X153042857Y-146733491D01*
X153042857Y-146733491D02*
X153157143Y-146695396D01*
X153157143Y-146695396D02*
X153233333Y-146619205D01*
X153233333Y-146619205D02*
X153271428Y-146543015D01*
X153271428Y-146543015D02*
X153309524Y-146390634D01*
X153309524Y-146390634D02*
X153309524Y-146276348D01*
X153309524Y-146276348D02*
X153271428Y-146123967D01*
X153271428Y-146123967D02*
X153233333Y-146047776D01*
X153233333Y-146047776D02*
X153157143Y-145971586D01*
X153157143Y-145971586D02*
X153042857Y-145933491D01*
X153042857Y-145933491D02*
X152966666Y-145933491D01*
X152966666Y-145933491D02*
X152852381Y-145971586D01*
X152852381Y-145971586D02*
X152814285Y-146009681D01*
X152052381Y-146733491D02*
X152509524Y-146733491D01*
X152280952Y-146733491D02*
X152280952Y-145933491D01*
X152280952Y-145933491D02*
X152357143Y-146047776D01*
X152357143Y-146047776D02*
X152433333Y-146123967D01*
X152433333Y-146123967D02*
X152509524Y-146162062D01*
X151366666Y-146200157D02*
X151366666Y-146733491D01*
X151557142Y-145895396D02*
X151747619Y-146466824D01*
X151747619Y-146466824D02*
X151252380Y-146466824D01*
X149314285Y-133587300D02*
X149352381Y-133625396D01*
X149352381Y-133625396D02*
X149466666Y-133663491D01*
X149466666Y-133663491D02*
X149542857Y-133663491D01*
X149542857Y-133663491D02*
X149657143Y-133625396D01*
X149657143Y-133625396D02*
X149733333Y-133549205D01*
X149733333Y-133549205D02*
X149771428Y-133473015D01*
X149771428Y-133473015D02*
X149809524Y-133320634D01*
X149809524Y-133320634D02*
X149809524Y-133206348D01*
X149809524Y-133206348D02*
X149771428Y-133053967D01*
X149771428Y-133053967D02*
X149733333Y-132977776D01*
X149733333Y-132977776D02*
X149657143Y-132901586D01*
X149657143Y-132901586D02*
X149542857Y-132863491D01*
X149542857Y-132863491D02*
X149466666Y-132863491D01*
X149466666Y-132863491D02*
X149352381Y-132901586D01*
X149352381Y-132901586D02*
X149314285Y-132939681D01*
X148552381Y-133663491D02*
X149009524Y-133663491D01*
X148780952Y-133663491D02*
X148780952Y-132863491D01*
X148780952Y-132863491D02*
X148857143Y-132977776D01*
X148857143Y-132977776D02*
X148933333Y-133053967D01*
X148933333Y-133053967D02*
X149009524Y-133092062D01*
X148095238Y-133206348D02*
X148171428Y-133168253D01*
X148171428Y-133168253D02*
X148209523Y-133130157D01*
X148209523Y-133130157D02*
X148247619Y-133053967D01*
X148247619Y-133053967D02*
X148247619Y-133015872D01*
X148247619Y-133015872D02*
X148209523Y-132939681D01*
X148209523Y-132939681D02*
X148171428Y-132901586D01*
X148171428Y-132901586D02*
X148095238Y-132863491D01*
X148095238Y-132863491D02*
X147942857Y-132863491D01*
X147942857Y-132863491D02*
X147866666Y-132901586D01*
X147866666Y-132901586D02*
X147828571Y-132939681D01*
X147828571Y-132939681D02*
X147790476Y-133015872D01*
X147790476Y-133015872D02*
X147790476Y-133053967D01*
X147790476Y-133053967D02*
X147828571Y-133130157D01*
X147828571Y-133130157D02*
X147866666Y-133168253D01*
X147866666Y-133168253D02*
X147942857Y-133206348D01*
X147942857Y-133206348D02*
X148095238Y-133206348D01*
X148095238Y-133206348D02*
X148171428Y-133244443D01*
X148171428Y-133244443D02*
X148209523Y-133282538D01*
X148209523Y-133282538D02*
X148247619Y-133358729D01*
X148247619Y-133358729D02*
X148247619Y-133511110D01*
X148247619Y-133511110D02*
X148209523Y-133587300D01*
X148209523Y-133587300D02*
X148171428Y-133625396D01*
X148171428Y-133625396D02*
X148095238Y-133663491D01*
X148095238Y-133663491D02*
X147942857Y-133663491D01*
X147942857Y-133663491D02*
X147866666Y-133625396D01*
X147866666Y-133625396D02*
X147828571Y-133587300D01*
X147828571Y-133587300D02*
X147790476Y-133511110D01*
X147790476Y-133511110D02*
X147790476Y-133358729D01*
X147790476Y-133358729D02*
X147828571Y-133282538D01*
X147828571Y-133282538D02*
X147866666Y-133244443D01*
X147866666Y-133244443D02*
X147942857Y-133206348D01*
X149214285Y-149517301D02*
X149252381Y-149555397D01*
X149252381Y-149555397D02*
X149366666Y-149593492D01*
X149366666Y-149593492D02*
X149442857Y-149593492D01*
X149442857Y-149593492D02*
X149557143Y-149555397D01*
X149557143Y-149555397D02*
X149633333Y-149479206D01*
X149633333Y-149479206D02*
X149671428Y-149403016D01*
X149671428Y-149403016D02*
X149709524Y-149250635D01*
X149709524Y-149250635D02*
X149709524Y-149136349D01*
X149709524Y-149136349D02*
X149671428Y-148983968D01*
X149671428Y-148983968D02*
X149633333Y-148907777D01*
X149633333Y-148907777D02*
X149557143Y-148831587D01*
X149557143Y-148831587D02*
X149442857Y-148793492D01*
X149442857Y-148793492D02*
X149366666Y-148793492D01*
X149366666Y-148793492D02*
X149252381Y-148831587D01*
X149252381Y-148831587D02*
X149214285Y-148869682D01*
X148909524Y-148869682D02*
X148871428Y-148831587D01*
X148871428Y-148831587D02*
X148795238Y-148793492D01*
X148795238Y-148793492D02*
X148604762Y-148793492D01*
X148604762Y-148793492D02*
X148528571Y-148831587D01*
X148528571Y-148831587D02*
X148490476Y-148869682D01*
X148490476Y-148869682D02*
X148452381Y-148945873D01*
X148452381Y-148945873D02*
X148452381Y-149022063D01*
X148452381Y-149022063D02*
X148490476Y-149136349D01*
X148490476Y-149136349D02*
X148947619Y-149593492D01*
X148947619Y-149593492D02*
X148452381Y-149593492D01*
X147957142Y-148793492D02*
X147880952Y-148793492D01*
X147880952Y-148793492D02*
X147804761Y-148831587D01*
X147804761Y-148831587D02*
X147766666Y-148869682D01*
X147766666Y-148869682D02*
X147728571Y-148945873D01*
X147728571Y-148945873D02*
X147690476Y-149098254D01*
X147690476Y-149098254D02*
X147690476Y-149288730D01*
X147690476Y-149288730D02*
X147728571Y-149441111D01*
X147728571Y-149441111D02*
X147766666Y-149517301D01*
X147766666Y-149517301D02*
X147804761Y-149555397D01*
X147804761Y-149555397D02*
X147880952Y-149593492D01*
X147880952Y-149593492D02*
X147957142Y-149593492D01*
X147957142Y-149593492D02*
X148033333Y-149555397D01*
X148033333Y-149555397D02*
X148071428Y-149517301D01*
X148071428Y-149517301D02*
X148109523Y-149441111D01*
X148109523Y-149441111D02*
X148147619Y-149288730D01*
X148147619Y-149288730D02*
X148147619Y-149098254D01*
X148147619Y-149098254D02*
X148109523Y-148945873D01*
X148109523Y-148945873D02*
X148071428Y-148869682D01*
X148071428Y-148869682D02*
X148033333Y-148831587D01*
X148033333Y-148831587D02*
X147957142Y-148793492D01*
X125333332Y-138363491D02*
X125599999Y-137982538D01*
X125790475Y-138363491D02*
X125790475Y-137563491D01*
X125790475Y-137563491D02*
X125485713Y-137563491D01*
X125485713Y-137563491D02*
X125409523Y-137601586D01*
X125409523Y-137601586D02*
X125371428Y-137639681D01*
X125371428Y-137639681D02*
X125333332Y-137715872D01*
X125333332Y-137715872D02*
X125333332Y-137830157D01*
X125333332Y-137830157D02*
X125371428Y-137906348D01*
X125371428Y-137906348D02*
X125409523Y-137944443D01*
X125409523Y-137944443D02*
X125485713Y-137982538D01*
X125485713Y-137982538D02*
X125790475Y-137982538D01*
X124609523Y-137563491D02*
X124990475Y-137563491D01*
X124990475Y-137563491D02*
X125028571Y-137944443D01*
X125028571Y-137944443D02*
X124990475Y-137906348D01*
X124990475Y-137906348D02*
X124914285Y-137868253D01*
X124914285Y-137868253D02*
X124723809Y-137868253D01*
X124723809Y-137868253D02*
X124647618Y-137906348D01*
X124647618Y-137906348D02*
X124609523Y-137944443D01*
X124609523Y-137944443D02*
X124571428Y-138020634D01*
X124571428Y-138020634D02*
X124571428Y-138211110D01*
X124571428Y-138211110D02*
X124609523Y-138287300D01*
X124609523Y-138287300D02*
X124647618Y-138325396D01*
X124647618Y-138325396D02*
X124723809Y-138363491D01*
X124723809Y-138363491D02*
X124914285Y-138363491D01*
X124914285Y-138363491D02*
X124990475Y-138325396D01*
X124990475Y-138325396D02*
X125028571Y-138287300D01*
X143033332Y-124884051D02*
X143071428Y-124922147D01*
X143071428Y-124922147D02*
X143185713Y-124960242D01*
X143185713Y-124960242D02*
X143261904Y-124960242D01*
X143261904Y-124960242D02*
X143376190Y-124922147D01*
X143376190Y-124922147D02*
X143452380Y-124845956D01*
X143452380Y-124845956D02*
X143490475Y-124769766D01*
X143490475Y-124769766D02*
X143528571Y-124617385D01*
X143528571Y-124617385D02*
X143528571Y-124503099D01*
X143528571Y-124503099D02*
X143490475Y-124350718D01*
X143490475Y-124350718D02*
X143452380Y-124274527D01*
X143452380Y-124274527D02*
X143376190Y-124198337D01*
X143376190Y-124198337D02*
X143261904Y-124160242D01*
X143261904Y-124160242D02*
X143185713Y-124160242D01*
X143185713Y-124160242D02*
X143071428Y-124198337D01*
X143071428Y-124198337D02*
X143033332Y-124236432D01*
X142766666Y-124160242D02*
X142233332Y-124160242D01*
X142233332Y-124160242D02*
X142576190Y-124960242D01*
X151944833Y-123360240D02*
X152211500Y-122979287D01*
X152401976Y-123360240D02*
X152401976Y-122560240D01*
X152401976Y-122560240D02*
X152097214Y-122560240D01*
X152097214Y-122560240D02*
X152021024Y-122598335D01*
X152021024Y-122598335D02*
X151982929Y-122636430D01*
X151982929Y-122636430D02*
X151944833Y-122712621D01*
X151944833Y-122712621D02*
X151944833Y-122826906D01*
X151944833Y-122826906D02*
X151982929Y-122903097D01*
X151982929Y-122903097D02*
X152021024Y-122941192D01*
X152021024Y-122941192D02*
X152097214Y-122979287D01*
X152097214Y-122979287D02*
X152401976Y-122979287D01*
X151182929Y-123360240D02*
X151640072Y-123360240D01*
X151411500Y-123360240D02*
X151411500Y-122560240D01*
X151411500Y-122560240D02*
X151487691Y-122674525D01*
X151487691Y-122674525D02*
X151563881Y-122750716D01*
X151563881Y-122750716D02*
X151640072Y-122788811D01*
X143987300Y-119838095D02*
X144025396Y-119799999D01*
X144025396Y-119799999D02*
X144063491Y-119685714D01*
X144063491Y-119685714D02*
X144063491Y-119609523D01*
X144063491Y-119609523D02*
X144025396Y-119495237D01*
X144025396Y-119495237D02*
X143949205Y-119419047D01*
X143949205Y-119419047D02*
X143873015Y-119380952D01*
X143873015Y-119380952D02*
X143720634Y-119342856D01*
X143720634Y-119342856D02*
X143606348Y-119342856D01*
X143606348Y-119342856D02*
X143453967Y-119380952D01*
X143453967Y-119380952D02*
X143377776Y-119419047D01*
X143377776Y-119419047D02*
X143301586Y-119495237D01*
X143301586Y-119495237D02*
X143263491Y-119609523D01*
X143263491Y-119609523D02*
X143263491Y-119685714D01*
X143263491Y-119685714D02*
X143301586Y-119799999D01*
X143301586Y-119799999D02*
X143339681Y-119838095D01*
X144063491Y-120599999D02*
X144063491Y-120142856D01*
X144063491Y-120371428D02*
X143263491Y-120371428D01*
X143263491Y-120371428D02*
X143377776Y-120295237D01*
X143377776Y-120295237D02*
X143453967Y-120219047D01*
X143453967Y-120219047D02*
X143492062Y-120142856D01*
X143263491Y-121095238D02*
X143263491Y-121171428D01*
X143263491Y-121171428D02*
X143301586Y-121247619D01*
X143301586Y-121247619D02*
X143339681Y-121285714D01*
X143339681Y-121285714D02*
X143415872Y-121323809D01*
X143415872Y-121323809D02*
X143568253Y-121361904D01*
X143568253Y-121361904D02*
X143758729Y-121361904D01*
X143758729Y-121361904D02*
X143911110Y-121323809D01*
X143911110Y-121323809D02*
X143987300Y-121285714D01*
X143987300Y-121285714D02*
X144025396Y-121247619D01*
X144025396Y-121247619D02*
X144063491Y-121171428D01*
X144063491Y-121171428D02*
X144063491Y-121095238D01*
X144063491Y-121095238D02*
X144025396Y-121019047D01*
X144025396Y-121019047D02*
X143987300Y-120980952D01*
X143987300Y-120980952D02*
X143911110Y-120942857D01*
X143911110Y-120942857D02*
X143758729Y-120904761D01*
X143758729Y-120904761D02*
X143568253Y-120904761D01*
X143568253Y-120904761D02*
X143415872Y-120942857D01*
X143415872Y-120942857D02*
X143339681Y-120980952D01*
X143339681Y-120980952D02*
X143301586Y-121019047D01*
X143301586Y-121019047D02*
X143263491Y-121095238D01*
X142814285Y-162187300D02*
X142852381Y-162225396D01*
X142852381Y-162225396D02*
X142966666Y-162263491D01*
X142966666Y-162263491D02*
X143042857Y-162263491D01*
X143042857Y-162263491D02*
X143157143Y-162225396D01*
X143157143Y-162225396D02*
X143233333Y-162149205D01*
X143233333Y-162149205D02*
X143271428Y-162073015D01*
X143271428Y-162073015D02*
X143309524Y-161920634D01*
X143309524Y-161920634D02*
X143309524Y-161806348D01*
X143309524Y-161806348D02*
X143271428Y-161653967D01*
X143271428Y-161653967D02*
X143233333Y-161577776D01*
X143233333Y-161577776D02*
X143157143Y-161501586D01*
X143157143Y-161501586D02*
X143042857Y-161463491D01*
X143042857Y-161463491D02*
X142966666Y-161463491D01*
X142966666Y-161463491D02*
X142852381Y-161501586D01*
X142852381Y-161501586D02*
X142814285Y-161539681D01*
X142509524Y-161539681D02*
X142471428Y-161501586D01*
X142471428Y-161501586D02*
X142395238Y-161463491D01*
X142395238Y-161463491D02*
X142204762Y-161463491D01*
X142204762Y-161463491D02*
X142128571Y-161501586D01*
X142128571Y-161501586D02*
X142090476Y-161539681D01*
X142090476Y-161539681D02*
X142052381Y-161615872D01*
X142052381Y-161615872D02*
X142052381Y-161692062D01*
X142052381Y-161692062D02*
X142090476Y-161806348D01*
X142090476Y-161806348D02*
X142547619Y-162263491D01*
X142547619Y-162263491D02*
X142052381Y-162263491D01*
X141785714Y-161463491D02*
X141290476Y-161463491D01*
X141290476Y-161463491D02*
X141557142Y-161768253D01*
X141557142Y-161768253D02*
X141442857Y-161768253D01*
X141442857Y-161768253D02*
X141366666Y-161806348D01*
X141366666Y-161806348D02*
X141328571Y-161844443D01*
X141328571Y-161844443D02*
X141290476Y-161920634D01*
X141290476Y-161920634D02*
X141290476Y-162111110D01*
X141290476Y-162111110D02*
X141328571Y-162187300D01*
X141328571Y-162187300D02*
X141366666Y-162225396D01*
X141366666Y-162225396D02*
X141442857Y-162263491D01*
X141442857Y-162263491D02*
X141671428Y-162263491D01*
X141671428Y-162263491D02*
X141747619Y-162225396D01*
X141747619Y-162225396D02*
X141785714Y-162187300D01*
X135616405Y-131314392D02*
X135667786Y-131298192D01*
X135667786Y-131298192D02*
X135754348Y-131214410D01*
X135754348Y-131214410D02*
X135789529Y-131146828D01*
X135789529Y-131146828D02*
X135808509Y-131027865D01*
X135808509Y-131027865D02*
X135776108Y-130925102D01*
X135776108Y-130925102D02*
X135726117Y-130856131D01*
X135726117Y-130856131D02*
X135608544Y-130751978D01*
X135608544Y-130751978D02*
X135507171Y-130699207D01*
X135507171Y-130699207D02*
X135354417Y-130662636D01*
X135354417Y-130662636D02*
X135269245Y-130661246D01*
X135269245Y-130661246D02*
X135166483Y-130693647D01*
X135166483Y-130693647D02*
X135079920Y-130777429D01*
X135079920Y-130777429D02*
X135044739Y-130845011D01*
X135044739Y-130845011D02*
X135025759Y-130963974D01*
X135025759Y-130963974D02*
X135041960Y-131015355D01*
X135508082Y-131687482D02*
X135437721Y-131822646D01*
X135437721Y-131822646D02*
X135368749Y-131872637D01*
X135368749Y-131872637D02*
X135317367Y-131888838D01*
X135317367Y-131888838D02*
X135180814Y-131903648D01*
X135180814Y-131903648D02*
X135028060Y-131867077D01*
X135028060Y-131867077D02*
X134757733Y-131726354D01*
X134757733Y-131726354D02*
X134707742Y-131657382D01*
X134707742Y-131657382D02*
X134691541Y-131606001D01*
X134691541Y-131606001D02*
X134692931Y-131520829D01*
X134692931Y-131520829D02*
X134763293Y-131385665D01*
X134763293Y-131385665D02*
X134832264Y-131335674D01*
X134832264Y-131335674D02*
X134883646Y-131319473D01*
X134883646Y-131319473D02*
X134968818Y-131320863D01*
X134968818Y-131320863D02*
X135137772Y-131408815D01*
X135137772Y-131408815D02*
X135187764Y-131477787D01*
X135187764Y-131477787D02*
X135203964Y-131529168D01*
X135203964Y-131529168D02*
X135202574Y-131614341D01*
X135202574Y-131614341D02*
X135132213Y-131749504D01*
X135132213Y-131749504D02*
X135063241Y-131799495D01*
X135063241Y-131799495D02*
X135011860Y-131815696D01*
X135011860Y-131815696D02*
X134926687Y-131814306D01*
X129490241Y-121483333D02*
X130061669Y-121483333D01*
X130061669Y-121483333D02*
X130175955Y-121445238D01*
X130175955Y-121445238D02*
X130252146Y-121369047D01*
X130252146Y-121369047D02*
X130290241Y-121254762D01*
X130290241Y-121254762D02*
X130290241Y-121178571D01*
X130290241Y-122283333D02*
X130290241Y-121826190D01*
X130290241Y-122054762D02*
X129490241Y-122054762D01*
X129490241Y-122054762D02*
X129604526Y-121978571D01*
X129604526Y-121978571D02*
X129680717Y-121902381D01*
X129680717Y-121902381D02*
X129718812Y-121826190D01*
X127447619Y-163363491D02*
X127447619Y-163934919D01*
X127447619Y-163934919D02*
X127485714Y-164049205D01*
X127485714Y-164049205D02*
X127561905Y-164125396D01*
X127561905Y-164125396D02*
X127676190Y-164163491D01*
X127676190Y-164163491D02*
X127752381Y-164163491D01*
X126647619Y-164163491D02*
X127104762Y-164163491D01*
X126876190Y-164163491D02*
X126876190Y-163363491D01*
X126876190Y-163363491D02*
X126952381Y-163477776D01*
X126952381Y-163477776D02*
X127028571Y-163553967D01*
X127028571Y-163553967D02*
X127104762Y-163592062D01*
X126342857Y-163439681D02*
X126304761Y-163401586D01*
X126304761Y-163401586D02*
X126228571Y-163363491D01*
X126228571Y-163363491D02*
X126038095Y-163363491D01*
X126038095Y-163363491D02*
X125961904Y-163401586D01*
X125961904Y-163401586D02*
X125923809Y-163439681D01*
X125923809Y-163439681D02*
X125885714Y-163515872D01*
X125885714Y-163515872D02*
X125885714Y-163592062D01*
X125885714Y-163592062D02*
X125923809Y-163706348D01*
X125923809Y-163706348D02*
X126380952Y-164163491D01*
X126380952Y-164163491D02*
X125885714Y-164163491D01*
X134690475Y-149463491D02*
X134690475Y-150111110D01*
X134690475Y-150111110D02*
X134652380Y-150187300D01*
X134652380Y-150187300D02*
X134614285Y-150225396D01*
X134614285Y-150225396D02*
X134538094Y-150263491D01*
X134538094Y-150263491D02*
X134385713Y-150263491D01*
X134385713Y-150263491D02*
X134309523Y-150225396D01*
X134309523Y-150225396D02*
X134271428Y-150187300D01*
X134271428Y-150187300D02*
X134233332Y-150111110D01*
X134233332Y-150111110D02*
X134233332Y-149463491D01*
X133433333Y-150263491D02*
X133890476Y-150263491D01*
X133661904Y-150263491D02*
X133661904Y-149463491D01*
X133661904Y-149463491D02*
X133738095Y-149577776D01*
X133738095Y-149577776D02*
X133814285Y-149653967D01*
X133814285Y-149653967D02*
X133890476Y-149692062D01*
X132671428Y-150263491D02*
X133128571Y-150263491D01*
X132899999Y-150263491D02*
X132899999Y-149463491D01*
X132899999Y-149463491D02*
X132976190Y-149577776D01*
X132976190Y-149577776D02*
X133052380Y-149653967D01*
X133052380Y-149653967D02*
X133128571Y-149692062D01*
X143596666Y-171290241D02*
X143596666Y-171861669D01*
X143596666Y-171861669D02*
X143634761Y-171975955D01*
X143634761Y-171975955D02*
X143710952Y-172052146D01*
X143710952Y-172052146D02*
X143825237Y-172090241D01*
X143825237Y-172090241D02*
X143901428Y-172090241D01*
X142872856Y-171290241D02*
X143025237Y-171290241D01*
X143025237Y-171290241D02*
X143101428Y-171328336D01*
X143101428Y-171328336D02*
X143139523Y-171366431D01*
X143139523Y-171366431D02*
X143215713Y-171480717D01*
X143215713Y-171480717D02*
X143253809Y-171633098D01*
X143253809Y-171633098D02*
X143253809Y-171937860D01*
X143253809Y-171937860D02*
X143215713Y-172014050D01*
X143215713Y-172014050D02*
X143177618Y-172052146D01*
X143177618Y-172052146D02*
X143101428Y-172090241D01*
X143101428Y-172090241D02*
X142949047Y-172090241D01*
X142949047Y-172090241D02*
X142872856Y-172052146D01*
X142872856Y-172052146D02*
X142834761Y-172014050D01*
X142834761Y-172014050D02*
X142796666Y-171937860D01*
X142796666Y-171937860D02*
X142796666Y-171747384D01*
X142796666Y-171747384D02*
X142834761Y-171671193D01*
X142834761Y-171671193D02*
X142872856Y-171633098D01*
X142872856Y-171633098D02*
X142949047Y-171595003D01*
X142949047Y-171595003D02*
X143101428Y-171595003D01*
X143101428Y-171595003D02*
X143177618Y-171633098D01*
X143177618Y-171633098D02*
X143215713Y-171671193D01*
X143215713Y-171671193D02*
X143253809Y-171747384D01*
X143647619Y-160063491D02*
X143647619Y-160634919D01*
X143647619Y-160634919D02*
X143685714Y-160749205D01*
X143685714Y-160749205D02*
X143761905Y-160825396D01*
X143761905Y-160825396D02*
X143876190Y-160863491D01*
X143876190Y-160863491D02*
X143952381Y-160863491D01*
X142847619Y-160863491D02*
X143304762Y-160863491D01*
X143076190Y-160863491D02*
X143076190Y-160063491D01*
X143076190Y-160063491D02*
X143152381Y-160177776D01*
X143152381Y-160177776D02*
X143228571Y-160253967D01*
X143228571Y-160253967D02*
X143304762Y-160292062D01*
X142161904Y-160063491D02*
X142314285Y-160063491D01*
X142314285Y-160063491D02*
X142390476Y-160101586D01*
X142390476Y-160101586D02*
X142428571Y-160139681D01*
X142428571Y-160139681D02*
X142504761Y-160253967D01*
X142504761Y-160253967D02*
X142542857Y-160406348D01*
X142542857Y-160406348D02*
X142542857Y-160711110D01*
X142542857Y-160711110D02*
X142504761Y-160787300D01*
X142504761Y-160787300D02*
X142466666Y-160825396D01*
X142466666Y-160825396D02*
X142390476Y-160863491D01*
X142390476Y-160863491D02*
X142238095Y-160863491D01*
X142238095Y-160863491D02*
X142161904Y-160825396D01*
X142161904Y-160825396D02*
X142123809Y-160787300D01*
X142123809Y-160787300D02*
X142085714Y-160711110D01*
X142085714Y-160711110D02*
X142085714Y-160520634D01*
X142085714Y-160520634D02*
X142123809Y-160444443D01*
X142123809Y-160444443D02*
X142161904Y-160406348D01*
X142161904Y-160406348D02*
X142238095Y-160368253D01*
X142238095Y-160368253D02*
X142390476Y-160368253D01*
X142390476Y-160368253D02*
X142466666Y-160406348D01*
X142466666Y-160406348D02*
X142504761Y-160444443D01*
X142504761Y-160444443D02*
X142542857Y-160520634D01*
X129760475Y-104285241D02*
X129760475Y-104932860D01*
X129760475Y-104932860D02*
X129722380Y-105009050D01*
X129722380Y-105009050D02*
X129684285Y-105047146D01*
X129684285Y-105047146D02*
X129608094Y-105085241D01*
X129608094Y-105085241D02*
X129455713Y-105085241D01*
X129455713Y-105085241D02*
X129379523Y-105047146D01*
X129379523Y-105047146D02*
X129341428Y-105009050D01*
X129341428Y-105009050D02*
X129303332Y-104932860D01*
X129303332Y-104932860D02*
X129303332Y-104285241D01*
X128503333Y-105085241D02*
X128960476Y-105085241D01*
X128731904Y-105085241D02*
X128731904Y-104285241D01*
X128731904Y-104285241D02*
X128808095Y-104399526D01*
X128808095Y-104399526D02*
X128884285Y-104475717D01*
X128884285Y-104475717D02*
X128960476Y-104513812D01*
X128236666Y-104285241D02*
X127741428Y-104285241D01*
X127741428Y-104285241D02*
X128008094Y-104590003D01*
X128008094Y-104590003D02*
X127893809Y-104590003D01*
X127893809Y-104590003D02*
X127817618Y-104628098D01*
X127817618Y-104628098D02*
X127779523Y-104666193D01*
X127779523Y-104666193D02*
X127741428Y-104742384D01*
X127741428Y-104742384D02*
X127741428Y-104932860D01*
X127741428Y-104932860D02*
X127779523Y-105009050D01*
X127779523Y-105009050D02*
X127817618Y-105047146D01*
X127817618Y-105047146D02*
X127893809Y-105085241D01*
X127893809Y-105085241D02*
X128122380Y-105085241D01*
X128122380Y-105085241D02*
X128198571Y-105047146D01*
X128198571Y-105047146D02*
X128236666Y-105009050D01*
X129395237Y-154139681D02*
X129471427Y-154101586D01*
X129471427Y-154101586D02*
X129547618Y-154025396D01*
X129547618Y-154025396D02*
X129661904Y-153911110D01*
X129661904Y-153911110D02*
X129738094Y-153873015D01*
X129738094Y-153873015D02*
X129814285Y-153873015D01*
X129776189Y-154063491D02*
X129852380Y-154025396D01*
X129852380Y-154025396D02*
X129928570Y-153949205D01*
X129928570Y-153949205D02*
X129966666Y-153796824D01*
X129966666Y-153796824D02*
X129966666Y-153530157D01*
X129966666Y-153530157D02*
X129928570Y-153377776D01*
X129928570Y-153377776D02*
X129852380Y-153301586D01*
X129852380Y-153301586D02*
X129776189Y-153263491D01*
X129776189Y-153263491D02*
X129623808Y-153263491D01*
X129623808Y-153263491D02*
X129547618Y-153301586D01*
X129547618Y-153301586D02*
X129471427Y-153377776D01*
X129471427Y-153377776D02*
X129433332Y-153530157D01*
X129433332Y-153530157D02*
X129433332Y-153796824D01*
X129433332Y-153796824D02*
X129471427Y-153949205D01*
X129471427Y-153949205D02*
X129547618Y-154025396D01*
X129547618Y-154025396D02*
X129623808Y-154063491D01*
X129623808Y-154063491D02*
X129776189Y-154063491D01*
X128823809Y-153644443D02*
X128709523Y-153682538D01*
X128709523Y-153682538D02*
X128671428Y-153720634D01*
X128671428Y-153720634D02*
X128633332Y-153796824D01*
X128633332Y-153796824D02*
X128633332Y-153911110D01*
X128633332Y-153911110D02*
X128671428Y-153987300D01*
X128671428Y-153987300D02*
X128709523Y-154025396D01*
X128709523Y-154025396D02*
X128785713Y-154063491D01*
X128785713Y-154063491D02*
X129090475Y-154063491D01*
X129090475Y-154063491D02*
X129090475Y-153263491D01*
X129090475Y-153263491D02*
X128823809Y-153263491D01*
X128823809Y-153263491D02*
X128747618Y-153301586D01*
X128747618Y-153301586D02*
X128709523Y-153339681D01*
X128709523Y-153339681D02*
X128671428Y-153415872D01*
X128671428Y-153415872D02*
X128671428Y-153492062D01*
X128671428Y-153492062D02*
X128709523Y-153568253D01*
X128709523Y-153568253D02*
X128747618Y-153606348D01*
X128747618Y-153606348D02*
X128823809Y-153644443D01*
X128823809Y-153644443D02*
X129090475Y-153644443D01*
X128023809Y-153644443D02*
X127909523Y-153682538D01*
X127909523Y-153682538D02*
X127871428Y-153720634D01*
X127871428Y-153720634D02*
X127833332Y-153796824D01*
X127833332Y-153796824D02*
X127833332Y-153911110D01*
X127833332Y-153911110D02*
X127871428Y-153987300D01*
X127871428Y-153987300D02*
X127909523Y-154025396D01*
X127909523Y-154025396D02*
X127985713Y-154063491D01*
X127985713Y-154063491D02*
X128290475Y-154063491D01*
X128290475Y-154063491D02*
X128290475Y-153263491D01*
X128290475Y-153263491D02*
X128023809Y-153263491D01*
X128023809Y-153263491D02*
X127947618Y-153301586D01*
X127947618Y-153301586D02*
X127909523Y-153339681D01*
X127909523Y-153339681D02*
X127871428Y-153415872D01*
X127871428Y-153415872D02*
X127871428Y-153492062D01*
X127871428Y-153492062D02*
X127909523Y-153568253D01*
X127909523Y-153568253D02*
X127947618Y-153606348D01*
X127947618Y-153606348D02*
X128023809Y-153644443D01*
X128023809Y-153644443D02*
X128290475Y-153644443D01*
X127490475Y-154063491D02*
X127490475Y-153263491D01*
X127490475Y-153263491D02*
X127185713Y-153263491D01*
X127185713Y-153263491D02*
X127109523Y-153301586D01*
X127109523Y-153301586D02*
X127071428Y-153339681D01*
X127071428Y-153339681D02*
X127033332Y-153415872D01*
X127033332Y-153415872D02*
X127033332Y-153530157D01*
X127033332Y-153530157D02*
X127071428Y-153606348D01*
X127071428Y-153606348D02*
X127109523Y-153644443D01*
X127109523Y-153644443D02*
X127185713Y-153682538D01*
X127185713Y-153682538D02*
X127490475Y-153682538D01*
X145233331Y-146657300D02*
X145271427Y-146695396D01*
X145271427Y-146695396D02*
X145385712Y-146733491D01*
X145385712Y-146733491D02*
X145461903Y-146733491D01*
X145461903Y-146733491D02*
X145576189Y-146695396D01*
X145576189Y-146695396D02*
X145652379Y-146619205D01*
X145652379Y-146619205D02*
X145690474Y-146543015D01*
X145690474Y-146543015D02*
X145728570Y-146390634D01*
X145728570Y-146390634D02*
X145728570Y-146276348D01*
X145728570Y-146276348D02*
X145690474Y-146123967D01*
X145690474Y-146123967D02*
X145652379Y-146047776D01*
X145652379Y-146047776D02*
X145576189Y-145971586D01*
X145576189Y-145971586D02*
X145461903Y-145933491D01*
X145461903Y-145933491D02*
X145385712Y-145933491D01*
X145385712Y-145933491D02*
X145271427Y-145971586D01*
X145271427Y-145971586D02*
X145233331Y-146009681D01*
X144966665Y-145933491D02*
X144471427Y-145933491D01*
X144471427Y-145933491D02*
X144738093Y-146238253D01*
X144738093Y-146238253D02*
X144623808Y-146238253D01*
X144623808Y-146238253D02*
X144547617Y-146276348D01*
X144547617Y-146276348D02*
X144509522Y-146314443D01*
X144509522Y-146314443D02*
X144471427Y-146390634D01*
X144471427Y-146390634D02*
X144471427Y-146581110D01*
X144471427Y-146581110D02*
X144509522Y-146657300D01*
X144509522Y-146657300D02*
X144547617Y-146695396D01*
X144547617Y-146695396D02*
X144623808Y-146733491D01*
X144623808Y-146733491D02*
X144852379Y-146733491D01*
X144852379Y-146733491D02*
X144928570Y-146695396D01*
X144928570Y-146695396D02*
X144966665Y-146657300D01*
X133048491Y-142453810D02*
X132667538Y-142187143D01*
X133048491Y-141996667D02*
X132248491Y-141996667D01*
X132248491Y-141996667D02*
X132248491Y-142301429D01*
X132248491Y-142301429D02*
X132286586Y-142377619D01*
X132286586Y-142377619D02*
X132324681Y-142415714D01*
X132324681Y-142415714D02*
X132400872Y-142453810D01*
X132400872Y-142453810D02*
X132515157Y-142453810D01*
X132515157Y-142453810D02*
X132591348Y-142415714D01*
X132591348Y-142415714D02*
X132629443Y-142377619D01*
X132629443Y-142377619D02*
X132667538Y-142301429D01*
X132667538Y-142301429D02*
X132667538Y-141996667D01*
X132248491Y-142682381D02*
X133048491Y-142949048D01*
X133048491Y-142949048D02*
X132248491Y-143215714D01*
X132324681Y-143444285D02*
X132286586Y-143482381D01*
X132286586Y-143482381D02*
X132248491Y-143558571D01*
X132248491Y-143558571D02*
X132248491Y-143749047D01*
X132248491Y-143749047D02*
X132286586Y-143825238D01*
X132286586Y-143825238D02*
X132324681Y-143863333D01*
X132324681Y-143863333D02*
X132400872Y-143901428D01*
X132400872Y-143901428D02*
X132477062Y-143901428D01*
X132477062Y-143901428D02*
X132591348Y-143863333D01*
X132591348Y-143863333D02*
X133048491Y-143406190D01*
X133048491Y-143406190D02*
X133048491Y-143901428D01*
X145414285Y-134017300D02*
X145452381Y-134055396D01*
X145452381Y-134055396D02*
X145566666Y-134093491D01*
X145566666Y-134093491D02*
X145642857Y-134093491D01*
X145642857Y-134093491D02*
X145757143Y-134055396D01*
X145757143Y-134055396D02*
X145833333Y-133979205D01*
X145833333Y-133979205D02*
X145871428Y-133903015D01*
X145871428Y-133903015D02*
X145909524Y-133750634D01*
X145909524Y-133750634D02*
X145909524Y-133636348D01*
X145909524Y-133636348D02*
X145871428Y-133483967D01*
X145871428Y-133483967D02*
X145833333Y-133407776D01*
X145833333Y-133407776D02*
X145757143Y-133331586D01*
X145757143Y-133331586D02*
X145642857Y-133293491D01*
X145642857Y-133293491D02*
X145566666Y-133293491D01*
X145566666Y-133293491D02*
X145452381Y-133331586D01*
X145452381Y-133331586D02*
X145414285Y-133369681D01*
X144652381Y-134093491D02*
X145109524Y-134093491D01*
X144880952Y-134093491D02*
X144880952Y-133293491D01*
X144880952Y-133293491D02*
X144957143Y-133407776D01*
X144957143Y-133407776D02*
X145033333Y-133483967D01*
X145033333Y-133483967D02*
X145109524Y-133522062D01*
X143966666Y-133293491D02*
X144119047Y-133293491D01*
X144119047Y-133293491D02*
X144195238Y-133331586D01*
X144195238Y-133331586D02*
X144233333Y-133369681D01*
X144233333Y-133369681D02*
X144309523Y-133483967D01*
X144309523Y-133483967D02*
X144347619Y-133636348D01*
X144347619Y-133636348D02*
X144347619Y-133941110D01*
X144347619Y-133941110D02*
X144309523Y-134017300D01*
X144309523Y-134017300D02*
X144271428Y-134055396D01*
X144271428Y-134055396D02*
X144195238Y-134093491D01*
X144195238Y-134093491D02*
X144042857Y-134093491D01*
X144042857Y-134093491D02*
X143966666Y-134055396D01*
X143966666Y-134055396D02*
X143928571Y-134017300D01*
X143928571Y-134017300D02*
X143890476Y-133941110D01*
X143890476Y-133941110D02*
X143890476Y-133750634D01*
X143890476Y-133750634D02*
X143928571Y-133674443D01*
X143928571Y-133674443D02*
X143966666Y-133636348D01*
X143966666Y-133636348D02*
X144042857Y-133598253D01*
X144042857Y-133598253D02*
X144195238Y-133598253D01*
X144195238Y-133598253D02*
X144271428Y-133636348D01*
X144271428Y-133636348D02*
X144309523Y-133674443D01*
X144309523Y-133674443D02*
X144347619Y-133750634D01*
X127263491Y-145866667D02*
X126882538Y-145600000D01*
X127263491Y-145409524D02*
X126463491Y-145409524D01*
X126463491Y-145409524D02*
X126463491Y-145714286D01*
X126463491Y-145714286D02*
X126501586Y-145790476D01*
X126501586Y-145790476D02*
X126539681Y-145828571D01*
X126539681Y-145828571D02*
X126615872Y-145866667D01*
X126615872Y-145866667D02*
X126730157Y-145866667D01*
X126730157Y-145866667D02*
X126806348Y-145828571D01*
X126806348Y-145828571D02*
X126844443Y-145790476D01*
X126844443Y-145790476D02*
X126882538Y-145714286D01*
X126882538Y-145714286D02*
X126882538Y-145409524D01*
X127263491Y-146247619D02*
X127263491Y-146400000D01*
X127263491Y-146400000D02*
X127225396Y-146476190D01*
X127225396Y-146476190D02*
X127187300Y-146514286D01*
X127187300Y-146514286D02*
X127073015Y-146590476D01*
X127073015Y-146590476D02*
X126920634Y-146628571D01*
X126920634Y-146628571D02*
X126615872Y-146628571D01*
X126615872Y-146628571D02*
X126539681Y-146590476D01*
X126539681Y-146590476D02*
X126501586Y-146552381D01*
X126501586Y-146552381D02*
X126463491Y-146476190D01*
X126463491Y-146476190D02*
X126463491Y-146323809D01*
X126463491Y-146323809D02*
X126501586Y-146247619D01*
X126501586Y-146247619D02*
X126539681Y-146209524D01*
X126539681Y-146209524D02*
X126615872Y-146171428D01*
X126615872Y-146171428D02*
X126806348Y-146171428D01*
X126806348Y-146171428D02*
X126882538Y-146209524D01*
X126882538Y-146209524D02*
X126920634Y-146247619D01*
X126920634Y-146247619D02*
X126958729Y-146323809D01*
X126958729Y-146323809D02*
X126958729Y-146476190D01*
X126958729Y-146476190D02*
X126920634Y-146552381D01*
X126920634Y-146552381D02*
X126882538Y-146590476D01*
X126882538Y-146590476D02*
X126806348Y-146628571D01*
X145715990Y-95115476D02*
X146363609Y-95115476D01*
X146363609Y-95115476D02*
X146439799Y-95153571D01*
X146439799Y-95153571D02*
X146477895Y-95191666D01*
X146477895Y-95191666D02*
X146515990Y-95267857D01*
X146515990Y-95267857D02*
X146515990Y-95420238D01*
X146515990Y-95420238D02*
X146477895Y-95496428D01*
X146477895Y-95496428D02*
X146439799Y-95534523D01*
X146439799Y-95534523D02*
X146363609Y-95572619D01*
X146363609Y-95572619D02*
X145715990Y-95572619D01*
X145982656Y-96296428D02*
X146515990Y-96296428D01*
X145677895Y-96105952D02*
X146249323Y-95915475D01*
X146249323Y-95915475D02*
X146249323Y-96410714D01*
X125839681Y-148185714D02*
X125801586Y-148109524D01*
X125801586Y-148109524D02*
X125725396Y-148033333D01*
X125725396Y-148033333D02*
X125611110Y-147919047D01*
X125611110Y-147919047D02*
X125573015Y-147842857D01*
X125573015Y-147842857D02*
X125573015Y-147766666D01*
X125763491Y-147804762D02*
X125725396Y-147728571D01*
X125725396Y-147728571D02*
X125649205Y-147652381D01*
X125649205Y-147652381D02*
X125496824Y-147614285D01*
X125496824Y-147614285D02*
X125230157Y-147614285D01*
X125230157Y-147614285D02*
X125077776Y-147652381D01*
X125077776Y-147652381D02*
X125001586Y-147728571D01*
X125001586Y-147728571D02*
X124963491Y-147804762D01*
X124963491Y-147804762D02*
X124963491Y-147957143D01*
X124963491Y-147957143D02*
X125001586Y-148033333D01*
X125001586Y-148033333D02*
X125077776Y-148109524D01*
X125077776Y-148109524D02*
X125230157Y-148147619D01*
X125230157Y-148147619D02*
X125496824Y-148147619D01*
X125496824Y-148147619D02*
X125649205Y-148109524D01*
X125649205Y-148109524D02*
X125725396Y-148033333D01*
X125725396Y-148033333D02*
X125763491Y-147957143D01*
X125763491Y-147957143D02*
X125763491Y-147804762D01*
X125344443Y-148757142D02*
X125382538Y-148871428D01*
X125382538Y-148871428D02*
X125420634Y-148909523D01*
X125420634Y-148909523D02*
X125496824Y-148947619D01*
X125496824Y-148947619D02*
X125611110Y-148947619D01*
X125611110Y-148947619D02*
X125687300Y-148909523D01*
X125687300Y-148909523D02*
X125725396Y-148871428D01*
X125725396Y-148871428D02*
X125763491Y-148795238D01*
X125763491Y-148795238D02*
X125763491Y-148490476D01*
X125763491Y-148490476D02*
X124963491Y-148490476D01*
X124963491Y-148490476D02*
X124963491Y-148757142D01*
X124963491Y-148757142D02*
X125001586Y-148833333D01*
X125001586Y-148833333D02*
X125039681Y-148871428D01*
X125039681Y-148871428D02*
X125115872Y-148909523D01*
X125115872Y-148909523D02*
X125192062Y-148909523D01*
X125192062Y-148909523D02*
X125268253Y-148871428D01*
X125268253Y-148871428D02*
X125306348Y-148833333D01*
X125306348Y-148833333D02*
X125344443Y-148757142D01*
X125344443Y-148757142D02*
X125344443Y-148490476D01*
X125344443Y-149557142D02*
X125382538Y-149671428D01*
X125382538Y-149671428D02*
X125420634Y-149709523D01*
X125420634Y-149709523D02*
X125496824Y-149747619D01*
X125496824Y-149747619D02*
X125611110Y-149747619D01*
X125611110Y-149747619D02*
X125687300Y-149709523D01*
X125687300Y-149709523D02*
X125725396Y-149671428D01*
X125725396Y-149671428D02*
X125763491Y-149595238D01*
X125763491Y-149595238D02*
X125763491Y-149290476D01*
X125763491Y-149290476D02*
X124963491Y-149290476D01*
X124963491Y-149290476D02*
X124963491Y-149557142D01*
X124963491Y-149557142D02*
X125001586Y-149633333D01*
X125001586Y-149633333D02*
X125039681Y-149671428D01*
X125039681Y-149671428D02*
X125115872Y-149709523D01*
X125115872Y-149709523D02*
X125192062Y-149709523D01*
X125192062Y-149709523D02*
X125268253Y-149671428D01*
X125268253Y-149671428D02*
X125306348Y-149633333D01*
X125306348Y-149633333D02*
X125344443Y-149557142D01*
X125344443Y-149557142D02*
X125344443Y-149290476D01*
X125763491Y-150090476D02*
X124963491Y-150090476D01*
X124963491Y-150090476D02*
X125763491Y-150547619D01*
X125763491Y-150547619D02*
X124963491Y-150547619D01*
X141187300Y-119668095D02*
X141225396Y-119629999D01*
X141225396Y-119629999D02*
X141263491Y-119515714D01*
X141263491Y-119515714D02*
X141263491Y-119439523D01*
X141263491Y-119439523D02*
X141225396Y-119325237D01*
X141225396Y-119325237D02*
X141149205Y-119249047D01*
X141149205Y-119249047D02*
X141073015Y-119210952D01*
X141073015Y-119210952D02*
X140920634Y-119172856D01*
X140920634Y-119172856D02*
X140806348Y-119172856D01*
X140806348Y-119172856D02*
X140653967Y-119210952D01*
X140653967Y-119210952D02*
X140577776Y-119249047D01*
X140577776Y-119249047D02*
X140501586Y-119325237D01*
X140501586Y-119325237D02*
X140463491Y-119439523D01*
X140463491Y-119439523D02*
X140463491Y-119515714D01*
X140463491Y-119515714D02*
X140501586Y-119629999D01*
X140501586Y-119629999D02*
X140539681Y-119668095D01*
X141263491Y-120429999D02*
X141263491Y-119972856D01*
X141263491Y-120201428D02*
X140463491Y-120201428D01*
X140463491Y-120201428D02*
X140577776Y-120125237D01*
X140577776Y-120125237D02*
X140653967Y-120049047D01*
X140653967Y-120049047D02*
X140692062Y-119972856D01*
X141263491Y-121191904D02*
X141263491Y-120734761D01*
X141263491Y-120963333D02*
X140463491Y-120963333D01*
X140463491Y-120963333D02*
X140577776Y-120887142D01*
X140577776Y-120887142D02*
X140653967Y-120810952D01*
X140653967Y-120810952D02*
X140692062Y-120734761D01*
X140066666Y-165786739D02*
X140066666Y-166358167D01*
X140066666Y-166358167D02*
X140104761Y-166472453D01*
X140104761Y-166472453D02*
X140180952Y-166548644D01*
X140180952Y-166548644D02*
X140295237Y-166586739D01*
X140295237Y-166586739D02*
X140371428Y-166586739D01*
X139685713Y-166586739D02*
X139685713Y-165786739D01*
X139685713Y-165786739D02*
X139380951Y-165786739D01*
X139380951Y-165786739D02*
X139304761Y-165824834D01*
X139304761Y-165824834D02*
X139266666Y-165862929D01*
X139266666Y-165862929D02*
X139228570Y-165939120D01*
X139228570Y-165939120D02*
X139228570Y-166053405D01*
X139228570Y-166053405D02*
X139266666Y-166129596D01*
X139266666Y-166129596D02*
X139304761Y-166167691D01*
X139304761Y-166167691D02*
X139380951Y-166205786D01*
X139380951Y-166205786D02*
X139685713Y-166205786D01*
X138466666Y-166586739D02*
X138923809Y-166586739D01*
X138695237Y-166586739D02*
X138695237Y-165786739D01*
X138695237Y-165786739D02*
X138771428Y-165901024D01*
X138771428Y-165901024D02*
X138847618Y-165977215D01*
X138847618Y-165977215D02*
X138923809Y-166015310D01*
X137214285Y-157287300D02*
X137252381Y-157325396D01*
X137252381Y-157325396D02*
X137366666Y-157363491D01*
X137366666Y-157363491D02*
X137442857Y-157363491D01*
X137442857Y-157363491D02*
X137557143Y-157325396D01*
X137557143Y-157325396D02*
X137633333Y-157249205D01*
X137633333Y-157249205D02*
X137671428Y-157173015D01*
X137671428Y-157173015D02*
X137709524Y-157020634D01*
X137709524Y-157020634D02*
X137709524Y-156906348D01*
X137709524Y-156906348D02*
X137671428Y-156753967D01*
X137671428Y-156753967D02*
X137633333Y-156677776D01*
X137633333Y-156677776D02*
X137557143Y-156601586D01*
X137557143Y-156601586D02*
X137442857Y-156563491D01*
X137442857Y-156563491D02*
X137366666Y-156563491D01*
X137366666Y-156563491D02*
X137252381Y-156601586D01*
X137252381Y-156601586D02*
X137214285Y-156639681D01*
X136909524Y-156639681D02*
X136871428Y-156601586D01*
X136871428Y-156601586D02*
X136795238Y-156563491D01*
X136795238Y-156563491D02*
X136604762Y-156563491D01*
X136604762Y-156563491D02*
X136528571Y-156601586D01*
X136528571Y-156601586D02*
X136490476Y-156639681D01*
X136490476Y-156639681D02*
X136452381Y-156715872D01*
X136452381Y-156715872D02*
X136452381Y-156792062D01*
X136452381Y-156792062D02*
X136490476Y-156906348D01*
X136490476Y-156906348D02*
X136947619Y-157363491D01*
X136947619Y-157363491D02*
X136452381Y-157363491D01*
X136147619Y-156639681D02*
X136109523Y-156601586D01*
X136109523Y-156601586D02*
X136033333Y-156563491D01*
X136033333Y-156563491D02*
X135842857Y-156563491D01*
X135842857Y-156563491D02*
X135766666Y-156601586D01*
X135766666Y-156601586D02*
X135728571Y-156639681D01*
X135728571Y-156639681D02*
X135690476Y-156715872D01*
X135690476Y-156715872D02*
X135690476Y-156792062D01*
X135690476Y-156792062D02*
X135728571Y-156906348D01*
X135728571Y-156906348D02*
X136185714Y-157363491D01*
X136185714Y-157363491D02*
X135690476Y-157363491D01*
X130410241Y-160140474D02*
X131057860Y-160140474D01*
X131057860Y-160140474D02*
X131134050Y-160178569D01*
X131134050Y-160178569D02*
X131172146Y-160216664D01*
X131172146Y-160216664D02*
X131210241Y-160292855D01*
X131210241Y-160292855D02*
X131210241Y-160445236D01*
X131210241Y-160445236D02*
X131172146Y-160521426D01*
X131172146Y-160521426D02*
X131134050Y-160559521D01*
X131134050Y-160559521D02*
X131057860Y-160597617D01*
X131057860Y-160597617D02*
X130410241Y-160597617D01*
X131210241Y-161016664D02*
X131210241Y-161169045D01*
X131210241Y-161169045D02*
X131172146Y-161245235D01*
X131172146Y-161245235D02*
X131134050Y-161283331D01*
X131134050Y-161283331D02*
X131019765Y-161359521D01*
X131019765Y-161359521D02*
X130867384Y-161397616D01*
X130867384Y-161397616D02*
X130562622Y-161397616D01*
X130562622Y-161397616D02*
X130486431Y-161359521D01*
X130486431Y-161359521D02*
X130448336Y-161321426D01*
X130448336Y-161321426D02*
X130410241Y-161245235D01*
X130410241Y-161245235D02*
X130410241Y-161092854D01*
X130410241Y-161092854D02*
X130448336Y-161016664D01*
X130448336Y-161016664D02*
X130486431Y-160978569D01*
X130486431Y-160978569D02*
X130562622Y-160940473D01*
X130562622Y-160940473D02*
X130753098Y-160940473D01*
X130753098Y-160940473D02*
X130829288Y-160978569D01*
X130829288Y-160978569D02*
X130867384Y-161016664D01*
X130867384Y-161016664D02*
X130905479Y-161092854D01*
X130905479Y-161092854D02*
X130905479Y-161245235D01*
X130905479Y-161245235D02*
X130867384Y-161321426D01*
X130867384Y-161321426D02*
X130829288Y-161359521D01*
X130829288Y-161359521D02*
X130753098Y-161397616D01*
D11*
%TO.C,J3*%
X133285000Y-132100000D02*
X133285000Y-132740000D01*
X133285000Y-132740000D02*
X133915000Y-132740000D01*
X133285000Y-134900000D02*
X133285000Y-134260000D01*
X130565000Y-132150000D02*
X130565000Y-134850000D01*
D12*
%TO.C,U3*%
X142614500Y-132354200D02*
X139769700Y-132354200D01*
X139769700Y-132354200D02*
X139769700Y-132040640D01*
X142614500Y-131201040D02*
X142614500Y-132354200D01*
X139769700Y-130816360D02*
X139769700Y-130540640D01*
X139769700Y-129316360D02*
X139769700Y-129040640D01*
X139769700Y-127816360D02*
X139769700Y-127502800D01*
X142614500Y-127502800D02*
X142614500Y-128655960D01*
X139769700Y-127502800D02*
X142614500Y-127502800D01*
X139198200Y-133497200D02*
G75*
G02*
X138944200Y-133497200I-127000J0D01*
G01*
X138944200Y-133497200D02*
G75*
G02*
X139198200Y-133497200I127000J0D01*
G01*
D11*
%TO.C,C25*%
X139253733Y-159009998D02*
X139546267Y-159009998D01*
X139253733Y-157989998D02*
X139546267Y-157989998D01*
%TO.C,IBBN*%
X141050000Y-153050000D02*
X139150000Y-153050000D01*
X141050000Y-154950000D02*
X141050000Y-153050000D01*
X139150000Y-153050000D02*
X139150000Y-154950000D01*
X139150000Y-154950000D02*
X141050000Y-154950000D01*
%TO.C,R4*%
X143454724Y-150277500D02*
X142945276Y-150277500D01*
X143454724Y-151322500D02*
X142945276Y-151322500D01*
%TO.C,C17*%
X149610000Y-135746267D02*
X149610000Y-135453733D01*
X148590000Y-135746267D02*
X148590000Y-135453733D01*
%TO.C,L2*%
X136940000Y-127699799D02*
X136940000Y-127900199D01*
X137660000Y-127699799D02*
X137660000Y-127900199D01*
%TO.C,U5*%
X140235000Y-97596877D02*
X140235000Y-97385000D01*
X137965000Y-97317500D02*
X137965000Y-97750000D01*
X140235000Y-96615000D02*
X140235000Y-96200000D01*
X137965000Y-96250000D02*
X137965000Y-96662500D01*
X140570000Y-98130000D02*
X140240000Y-97890000D01*
X140570000Y-97650000D01*
X140570000Y-98130000D01*
G36*
X140570000Y-98130000D02*
G01*
X140240000Y-97890000D01*
X140570000Y-97650000D01*
X140570000Y-98130000D01*
G37*
%TO.C,J8*%
X142084261Y-102964160D02*
X142536809Y-102511612D01*
X142536809Y-102511612D02*
X142091332Y-102066134D01*
X144064160Y-100984261D02*
X143611612Y-101436809D01*
X144042947Y-104852135D02*
X145952135Y-102942947D01*
%TO.C,C15*%
X135090000Y-139553733D02*
X135090000Y-139846267D01*
X136110000Y-139553733D02*
X136110000Y-139846267D01*
%TO.C,R2*%
X148566224Y-124077501D02*
X148056776Y-124077501D01*
X148566224Y-125122501D02*
X148056776Y-125122501D01*
%TO.C,RV1*%
X143925000Y-141675000D02*
X143925000Y-146725000D01*
X153675000Y-141675000D02*
X143925000Y-141675000D01*
X143925000Y-146725000D02*
X153675000Y-146725000D01*
X153675000Y-146725000D02*
X153675000Y-141675000D01*
%TO.C,J5*%
X143815000Y-112900000D02*
X143815000Y-112260000D01*
X143815000Y-112260000D02*
X143185000Y-112260000D01*
X143815000Y-110100000D02*
X143815000Y-110740000D01*
X146535000Y-112850000D02*
X146535000Y-110150000D01*
%TO.C,R7*%
X139777499Y-148345276D02*
X139777499Y-148854724D01*
X140822499Y-148345276D02*
X140822499Y-148854724D01*
%TO.C,R10*%
X129522500Y-148954724D02*
X129522500Y-148445276D01*
X128477500Y-148954724D02*
X128477500Y-148445276D01*
%TO.C,J9*%
X151406622Y-99273277D02*
X150954074Y-98820729D01*
X150954074Y-98820729D02*
X150508596Y-99266206D01*
X149426723Y-97293378D02*
X149879271Y-97745926D01*
X153294597Y-97314591D02*
X151385409Y-95405403D01*
%TO.C,C4*%
X142410000Y-117246267D02*
X142410000Y-116953733D01*
X141390000Y-117246267D02*
X141390000Y-116953733D01*
%TO.C,U14*%
X130365000Y-112403123D02*
X130365000Y-112615000D01*
X132635000Y-112682500D02*
X132635000Y-112250000D01*
X130365000Y-113385000D02*
X130365000Y-113800000D01*
X132635000Y-113750000D02*
X132635000Y-113337500D01*
X130360000Y-112110000D02*
X130030000Y-112350000D01*
X130030000Y-111870000D01*
X130360000Y-112110000D01*
G36*
X130360000Y-112110000D02*
G01*
X130030000Y-112350000D01*
X130030000Y-111870000D01*
X130360000Y-112110000D01*
G37*
%TO.C,J17*%
X133200000Y-169515000D02*
X133840000Y-169515000D01*
X133840000Y-169515000D02*
X133840000Y-168885000D01*
X136000000Y-169515000D02*
X135360000Y-169515000D01*
X133250000Y-172235000D02*
X135950000Y-172235000D01*
%TO.C,C2*%
X148590000Y-138953733D02*
X148590000Y-139246267D01*
X149610000Y-138953733D02*
X149610000Y-139246267D01*
%TO.C,C13*%
X143053733Y-152810000D02*
X143346267Y-152810000D01*
X143053733Y-151790000D02*
X143346267Y-151790000D01*
%TO.C,L1*%
X139800200Y-115640000D02*
X139599800Y-115640000D01*
X139800200Y-116360000D02*
X139599800Y-116360000D01*
%TO.C,U2*%
X150950000Y-125790000D02*
X147190000Y-125790000D01*
X150950000Y-132610000D02*
X147190000Y-132610000D01*
X147190000Y-125790000D02*
X147190000Y-127050000D01*
X147190000Y-132610000D02*
X147190000Y-131350000D01*
X152230000Y-125890000D02*
X151990000Y-125560000D01*
X152470000Y-125560000D01*
X152230000Y-125890000D01*
G36*
X152230000Y-125890000D02*
G01*
X151990000Y-125560000D01*
X152470000Y-125560000D01*
X152230000Y-125890000D01*
G37*
%TO.C,J10*%
X148985000Y-173700000D02*
X148985000Y-174340000D01*
X148985000Y-174340000D02*
X149615000Y-174340000D01*
X148985000Y-176500000D02*
X148985000Y-175860000D01*
X146265000Y-173750000D02*
X146265000Y-176450000D01*
%TO.C,U6*%
X133776614Y-98554325D02*
X133626794Y-98404505D01*
X131973932Y-99961908D02*
X132279756Y-100267731D01*
X133082322Y-97860033D02*
X132788873Y-97566583D01*
X131219096Y-99207071D02*
X131510777Y-99498753D01*
X134390470Y-98694419D02*
X133987419Y-98758058D01*
X134051058Y-98355007D01*
X134390470Y-98694419D01*
G36*
X134390470Y-98694419D02*
G01*
X133987419Y-98758058D01*
X134051058Y-98355007D01*
X134390470Y-98694419D01*
G37*
D12*
%TO.C,U15*%
X135174300Y-121322400D02*
X135174300Y-118477600D01*
X135174300Y-118477600D02*
X135487860Y-118477600D01*
X136327460Y-121322400D02*
X135174300Y-121322400D01*
X136712140Y-118477600D02*
X136987860Y-118477600D01*
X138212140Y-118477600D02*
X138487860Y-118477600D01*
X139712140Y-118477600D02*
X140025700Y-118477600D01*
X140025700Y-121322400D02*
X138872540Y-121322400D01*
X140025700Y-118477600D02*
X140025700Y-121322400D01*
X134158300Y-117779100D02*
G75*
G02*
X133904300Y-117779100I-127000J0D01*
G01*
X133904300Y-117779100D02*
G75*
G02*
X134158300Y-117779100I127000J0D01*
G01*
D11*
%TO.C,U10*%
X147650000Y-155910000D02*
X151410000Y-155910000D01*
X147650000Y-149090000D02*
X151410000Y-149090000D01*
X151410000Y-155910000D02*
X151410000Y-154650000D01*
X151410000Y-149090000D02*
X151410000Y-150350000D01*
X146610000Y-156140000D02*
X146130000Y-156140000D01*
X146370000Y-155810000D01*
X146610000Y-156140000D01*
G36*
X146610000Y-156140000D02*
G01*
X146130000Y-156140000D01*
X146370000Y-155810000D01*
X146610000Y-156140000D01*
G37*
%TO.C,C1*%
X139646266Y-125690000D02*
X139353732Y-125690000D01*
X139646266Y-126710000D02*
X139353732Y-126710000D01*
%TO.C,IQ_OUT*%
X127235000Y-154800000D02*
X127235000Y-155440000D01*
X127235000Y-155440000D02*
X127865000Y-155440000D01*
X127235000Y-157600000D02*
X127235000Y-156960000D01*
X124515000Y-154850000D02*
X124515000Y-157550000D01*
%TO.C,J13*%
X146300000Y-167715000D02*
X146940000Y-167715000D01*
X146940000Y-167715000D02*
X146940000Y-167085000D01*
X149100000Y-167715000D02*
X148460000Y-167715000D01*
X146350000Y-170435000D02*
X149050000Y-170435000D01*
%TO.C,J4*%
X133285000Y-127000000D02*
X133285000Y-127640000D01*
X133285000Y-127640000D02*
X133915000Y-127640000D01*
X133285000Y-129800000D02*
X133285000Y-129160000D01*
X130565000Y-127050000D02*
X130565000Y-129750000D01*
%TO.C,J11*%
X125400000Y-169215000D02*
X126040000Y-169215000D01*
X126040000Y-169215000D02*
X126040000Y-168585000D01*
X128200000Y-169215000D02*
X127560000Y-169215000D01*
X125450000Y-171935000D02*
X128150000Y-171935000D01*
%TO.C,J15*%
X130615000Y-140200000D02*
X130615000Y-139560000D01*
X130615000Y-139560000D02*
X129985000Y-139560000D01*
X130615000Y-137400000D02*
X130615000Y-138040000D01*
X133335000Y-140150000D02*
X133335000Y-137450000D01*
%TO.C,R3*%
X143454724Y-153277500D02*
X142945276Y-153277500D01*
X143454724Y-154322500D02*
X142945276Y-154322500D01*
%TO.C,J14*%
X128600000Y-125285000D02*
X127960000Y-125285000D01*
X127960000Y-125285000D02*
X127960000Y-125915000D01*
X125800000Y-125285000D02*
X126440000Y-125285000D01*
X128550000Y-122565000D02*
X125850000Y-122565000D01*
%TO.C,C27*%
X133846267Y-152890000D02*
X133553733Y-152890000D01*
X133846267Y-153910000D02*
X133553733Y-153910000D01*
%TO.C,IBBP*%
X137950000Y-153050000D02*
X136050000Y-153050000D01*
X137950000Y-154950000D02*
X137950000Y-153050000D01*
X136050000Y-153050000D02*
X136050000Y-154950000D01*
X136050000Y-154950000D02*
X137950000Y-154950000D01*
%TO.C,R8*%
X139022499Y-148854723D02*
X139022499Y-148345275D01*
X137977499Y-148854723D02*
X137977499Y-148345275D01*
%TO.C,J7*%
X127450000Y-173700000D02*
X127450000Y-174340000D01*
X127450000Y-174340000D02*
X128080000Y-174340000D01*
X127450000Y-176500000D02*
X127450000Y-175860000D01*
X124730000Y-173750000D02*
X124730000Y-176450000D01*
%TO.C,RV3*%
X123725000Y-141675000D02*
X123725000Y-146725000D01*
X133475000Y-141675000D02*
X123725000Y-141675000D01*
X123725000Y-146725000D02*
X133475000Y-146725000D01*
X133475000Y-146725000D02*
X133475000Y-141675000D01*
%TO.C,C14*%
X152446267Y-147290000D02*
X152153733Y-147290000D01*
X152446267Y-148310000D02*
X152153733Y-148310000D01*
%TO.C,C18*%
X151653733Y-134210000D02*
X151946267Y-134210000D01*
X151653733Y-133190000D02*
X151946267Y-133190000D01*
%TO.C,C20*%
X148553733Y-148310001D02*
X148846267Y-148310001D01*
X148553733Y-147290001D02*
X148846267Y-147290001D01*
%TO.C,C7*%
X142753733Y-126710001D02*
X143046267Y-126710001D01*
X142753733Y-125690001D02*
X143046267Y-125690001D01*
%TO.C,R1*%
X152066225Y-124077499D02*
X151556777Y-124077499D01*
X152066225Y-125122499D02*
X151556777Y-125122499D01*
%TO.C,C10*%
X144210000Y-117246267D02*
X144210000Y-116953733D01*
X143190000Y-117246267D02*
X143190000Y-116953733D01*
%TO.C,C23*%
X139253733Y-162410000D02*
X139546267Y-162410000D01*
X139253733Y-161390000D02*
X139546267Y-161390000D01*
%TO.C,J1*%
X131900000Y-122535000D02*
X132540000Y-122535000D01*
X132540000Y-122535000D02*
X132540000Y-121905000D01*
X134700000Y-122535000D02*
X134060000Y-122535000D01*
X131950000Y-125255000D02*
X134650000Y-125255000D01*
%TO.C,J12*%
X128200000Y-162035000D02*
X127560000Y-162035000D01*
X127560000Y-162035000D02*
X127560000Y-162665000D01*
X125400000Y-162035000D02*
X126040000Y-162035000D01*
X128150000Y-159315000D02*
X125450000Y-159315000D01*
%TO.C,U11*%
X135759999Y-147240000D02*
X131639999Y-147240000D01*
X135759999Y-147335000D02*
X135759999Y-147240000D01*
X135759999Y-152360000D02*
X135759999Y-152265000D01*
X131639999Y-147240000D02*
X131639999Y-147335000D01*
X131639999Y-152265000D02*
X131639999Y-152360000D01*
X131639999Y-152360000D02*
X135759999Y-152360000D01*
X136299999Y-147330000D02*
X136059999Y-147000000D01*
X136539999Y-147000000D01*
X136299999Y-147330000D01*
G36*
X136299999Y-147330000D02*
G01*
X136059999Y-147000000D01*
X136539999Y-147000000D01*
X136299999Y-147330000D01*
G37*
%TO.C,C24*%
X139253733Y-160709999D02*
X139546267Y-160709999D01*
X139253733Y-159689999D02*
X139546267Y-159689999D01*
%TO.C,J6*%
X142315000Y-176500000D02*
X142315000Y-175860000D01*
X142315000Y-175860000D02*
X141685000Y-175860000D01*
X142315000Y-173700000D02*
X142315000Y-174340000D01*
X145035000Y-176450000D02*
X145035000Y-173750000D01*
%TO.C,J16*%
X144485000Y-156000000D02*
X144485000Y-156640000D01*
X144485000Y-156640000D02*
X145115000Y-156640000D01*
X144485000Y-158800000D02*
X144485000Y-158160000D01*
X141765000Y-156050000D02*
X141765000Y-158750000D01*
%TO.C,U13*%
X129296877Y-105965000D02*
X129085000Y-105965000D01*
X129017500Y-108235000D02*
X129450000Y-108235000D01*
X128315000Y-105965000D02*
X127900000Y-105965000D01*
X127950000Y-108235000D02*
X128362500Y-108235000D01*
X129590000Y-105960000D02*
X129350000Y-105630000D01*
X129830000Y-105630000D01*
X129590000Y-105960000D01*
G36*
X129590000Y-105960000D02*
G01*
X129350000Y-105630000D01*
X129830000Y-105630000D01*
X129590000Y-105960000D01*
G37*
%TO.C,QBBP*%
X129450000Y-150850000D02*
X127550000Y-150850000D01*
X129450000Y-152750000D02*
X129450000Y-150850000D01*
X127550000Y-150850000D02*
X127550000Y-152750000D01*
X127550000Y-152750000D02*
X129450000Y-152750000D01*
%TO.C,C3*%
X145246266Y-147290000D02*
X144953732Y-147290000D01*
X145246266Y-148310000D02*
X144953732Y-148310000D01*
%TO.C,RV2*%
X133825000Y-141675000D02*
X133825000Y-146725000D01*
X143575000Y-141675000D02*
X133825000Y-141675000D01*
X133825000Y-146725000D02*
X143575000Y-146725000D01*
X143575000Y-146725000D02*
X143575000Y-141675000D01*
%TO.C,C16*%
X144753733Y-132810000D02*
X145046267Y-132810000D01*
X144753733Y-131790000D02*
X145046267Y-131790000D01*
%TO.C,R9*%
X126677498Y-148445276D02*
X126677498Y-148954724D01*
X127722498Y-148445276D02*
X127722498Y-148954724D01*
%TO.C,U4*%
X147135000Y-98496877D02*
X147135000Y-98285000D01*
X144865000Y-98217500D02*
X144865000Y-98650000D01*
X147135000Y-97515000D02*
X147135000Y-97100000D01*
X144865000Y-97150000D02*
X144865000Y-97562500D01*
X147470000Y-99030000D02*
X147140000Y-98790000D01*
X147470000Y-98550000D01*
X147470000Y-99030000D01*
G36*
X147470000Y-99030000D02*
G01*
X147140000Y-98790000D01*
X147470000Y-98550000D01*
X147470000Y-99030000D01*
G37*
%TO.C,QBBN*%
X126350001Y-150850000D02*
X124450001Y-150850000D01*
X126350001Y-152750000D02*
X126350001Y-150850000D01*
X124450001Y-150850000D02*
X124450001Y-152750000D01*
X124450001Y-152750000D02*
X126350001Y-152750000D01*
%TO.C,JP1*%
X140800000Y-164399998D02*
X140800000Y-163799998D01*
X140100000Y-163099998D02*
X138700000Y-163099998D01*
X138700000Y-165099998D02*
X140100000Y-165099998D01*
X138000000Y-163799998D02*
X138000000Y-164399998D01*
X140100000Y-163099998D02*
G75*
G02*
X140800000Y-163799998I1J-699999D01*
G01*
X140800000Y-164399998D02*
G75*
G02*
X140100000Y-165099998I-699999J-1D01*
G01*
X138000000Y-163799998D02*
G75*
G02*
X138700000Y-163099998I700000J0D01*
G01*
X138700000Y-165099998D02*
G75*
G02*
X138000000Y-164399998I0J700000D01*
G01*
%TO.C,C22*%
X139546267Y-156290000D02*
X139253733Y-156290000D01*
X139546267Y-157310000D02*
X139253733Y-157310000D01*
%TO.C,U9*%
X136460000Y-162672498D02*
X136460000Y-162197498D01*
X135985000Y-162672498D02*
X136460000Y-162672498D01*
X132240000Y-162672498D02*
X132715000Y-162672498D01*
X132240000Y-162197498D02*
X132240000Y-162672498D01*
X136460000Y-158927498D02*
X136460000Y-158452498D01*
X136460000Y-158452498D02*
X135985000Y-158452498D01*
X132715000Y-158452498D02*
X132240000Y-158452498D01*
X132240000Y-158452498D02*
X132240000Y-158927498D01*
X135840000Y-163532498D02*
X135360000Y-163532498D01*
X135600000Y-163202498D01*
X135840000Y-163532498D01*
G36*
X135840000Y-163532498D02*
G01*
X135360000Y-163532498D01*
X135600000Y-163202498D01*
X135840000Y-163532498D01*
G37*
%TD*%
M02*
