%TF.GenerationSoftware,KiCad,Pcbnew,9.0.7*%
%TF.CreationDate,2026-02-12T18:36:40-06:00*%
%TF.ProjectId,switchedPhaseShift,73776974-6368-4656-9450-686173655368,rev?*%
%TF.SameCoordinates,Original*%
%TF.FileFunction,Copper,L2,Inr*%
%TF.FilePolarity,Positive*%
%FSLAX46Y46*%
G04 Gerber Fmt 4.6, Leading zero omitted, Abs format (unit mm)*
G04 Created by KiCad (PCBNEW 9.0.7) date 2026-02-12 18:36:40*
%MOMM*%
%LPD*%
G01*
G04 APERTURE LIST*
%TA.AperFunction,ComponentPad*%
%ADD10R,1.700000X1.700000*%
%TD*%
%TA.AperFunction,ComponentPad*%
%ADD11C,1.700000*%
%TD*%
%TA.AperFunction,ComponentPad*%
%ADD12C,1.440000*%
%TD*%
%TA.AperFunction,HeatsinkPad*%
%ADD13C,0.600000*%
%TD*%
%TA.AperFunction,ViaPad*%
%ADD14C,0.600000*%
%TD*%
%TA.AperFunction,Conductor*%
%ADD15C,0.200000*%
%TD*%
%TA.AperFunction,Conductor*%
%ADD16C,0.381000*%
%TD*%
G04 APERTURE END LIST*
D10*
%TO.N,GND*%
%TO.C,J2*%
X151600000Y-119920000D03*
D11*
%TO.N,VCC*%
X151600000Y-117380000D03*
%TO.N,/SL_PhaseShift1/C5*%
X151600000Y-114840000D03*
%TO.N,/SL_PhaseShift1/C4*%
X151600000Y-112300000D03*
%TO.N,/SL_PhaseShift1/C3*%
X151600000Y-109760000D03*
%TO.N,/SL_PhaseShift1/C2*%
X151600000Y-107220000D03*
%TO.N,/SL_PhaseShift1/C1*%
X151600000Y-104680000D03*
%TD*%
D10*
%TO.N,VS*%
%TO.C,TP1*%
X152100000Y-136300000D03*
%TD*%
%TO.N,GND*%
%TO.C,TP2*%
X152100000Y-139900000D03*
%TD*%
D12*
%TO.N,GND*%
%TO.C,RV1*%
X146260000Y-142930000D03*
%TO.N,Net-(U1-VT)*%
X148800000Y-145470000D03*
%TO.N,VCC*%
X151340000Y-142930000D03*
%TD*%
%TO.N,GND*%
%TO.C,RV3*%
X126060000Y-142930000D03*
%TO.N,/VectorModulator/QBBN*%
X128600000Y-145470000D03*
%TO.N,+1V5*%
X131140000Y-142930000D03*
%TD*%
%TO.N,GND*%
%TO.C,RV2*%
X136160000Y-142930000D03*
%TO.N,/VectorModulator/IBBN*%
X138700000Y-145470000D03*
%TO.N,+1V5*%
X141240000Y-142930000D03*
%TD*%
D13*
%TO.N,GND*%
%TO.C,U9*%
X135200000Y-161412498D03*
X134350000Y-161412498D03*
X133500000Y-161412498D03*
X135200000Y-160562498D03*
X134350000Y-160562498D03*
X133500000Y-160562498D03*
X135200000Y-159712498D03*
X134350000Y-159712498D03*
X133500000Y-159712498D03*
%TD*%
D14*
%TO.N,GND*%
X141000000Y-173000000D03*
X138000000Y-173000000D03*
X131000000Y-173000000D03*
X131000000Y-170000000D03*
X129000000Y-167000000D03*
X129000000Y-164000000D03*
X131000000Y-167000000D03*
X131000000Y-164000000D03*
X145000000Y-159000000D03*
X141000000Y-159000000D03*
X141000000Y-162000000D03*
X144000000Y-162000000D03*
X144000000Y-165000000D03*
X144000000Y-168000000D03*
X141000000Y-168000000D03*
X138000000Y-168000000D03*
X138000000Y-171000000D03*
X141000000Y-171000000D03*
X144000000Y-171000000D03*
X147000000Y-171000000D03*
X150000000Y-171000000D03*
X153000000Y-171000000D03*
X153000000Y-168000000D03*
X153000000Y-165000000D03*
X153000000Y-162000000D03*
X153000000Y-159000000D03*
X135000000Y-137000000D03*
X141000000Y-136000000D03*
X136000000Y-123000000D03*
X139000000Y-123000000D03*
X151000000Y-123000000D03*
X148000000Y-123000000D03*
X145000000Y-123000000D03*
X142000000Y-123000000D03*
X126000000Y-121000000D03*
X130000000Y-121000000D03*
X142000000Y-120000000D03*
X145000000Y-120000000D03*
X148000000Y-120000000D03*
X126900000Y-107700000D03*
X130200000Y-105900000D03*
X147224879Y-99911293D03*
X144400000Y-100100000D03*
X140300000Y-98400000D03*
X138500000Y-95500000D03*
X135200000Y-98200000D03*
X130400000Y-98500000D03*
X133600000Y-113400000D03*
X130100000Y-111800000D03*
%TO.N,/SL_PhaseShift1/C1*%
X147600000Y-97400000D03*
%TO.N,VCC*%
X142800000Y-116000000D03*
X133704902Y-97803268D03*
X147395423Y-99204577D03*
X140700000Y-97027000D03*
X128700000Y-105500000D03*
X130000000Y-113000000D03*
%TO.N,/SL_PhaseShift1/C2*%
X140465234Y-95908500D03*
%TO.N,/SL_PhaseShift1/C4*%
X127700000Y-105900000D03*
%TO.N,/SL_PhaseShift1/C5*%
X130045423Y-114254577D03*
%TO.N,/SL_PhaseShift1/C3*%
X133100000Y-97400000D03*
%TO.N,GND*%
X149600000Y-131600000D03*
X139300000Y-137000000D03*
X149299999Y-127000000D03*
X144300000Y-137400000D03*
%TO.N,VCC*%
X132800000Y-152100000D03*
X153568500Y-125444498D03*
X131224999Y-147895000D03*
%TO.N,VS*%
X144200000Y-147200000D03*
%TO.N,+1V5*%
X143319000Y-150006500D03*
%TO.N,/VectorModulator/IBBN*%
X137200000Y-160800000D03*
X140100000Y-154000000D03*
%TO.N,/VectorModulator/IBBP*%
X137200000Y-160000000D03*
X137500000Y-147895000D03*
X137000000Y-154000000D03*
%TO.N,/VectorModulator/QBBN*%
X131200000Y-160800000D03*
X125400001Y-151800000D03*
%TO.N,/VectorModulator/QBBP*%
X129756250Y-148543750D03*
X128500000Y-151800000D03*
X131200000Y-160000000D03*
%TD*%
D15*
%TO.N,/SL_PhaseShift1/C4*%
X150522000Y-113378000D02*
X151600000Y-112300000D01*
D16*
%TO.N,VCC*%
X141200000Y-97027000D02*
X134481170Y-97027000D01*
X151600000Y-117380000D02*
X152768500Y-116211500D01*
X128800000Y-106389152D02*
X128800000Y-105800000D01*
X152768500Y-111612991D02*
X152084009Y-110928500D01*
X141200000Y-97027000D02*
X145227000Y-97027000D01*
X145227000Y-97027000D02*
X147645423Y-99445423D01*
X153568500Y-119348500D02*
X153568500Y-125444498D01*
X142800000Y-116000000D02*
X133127986Y-116000000D01*
X133127986Y-116000000D02*
X128790500Y-111662514D01*
X132800000Y-149470001D02*
X131224999Y-147895000D01*
X147645423Y-99445423D02*
X147645423Y-99454577D01*
X128700000Y-105700000D02*
X128700000Y-105500000D01*
X140700000Y-97027000D02*
X141200000Y-97027000D01*
X134481170Y-97027000D02*
X133704902Y-97803268D01*
X149753500Y-101562654D02*
X147645423Y-99454577D01*
X152084009Y-110928500D02*
X151115991Y-110928500D01*
X147645423Y-99454577D02*
X147395423Y-99204577D01*
X151600000Y-117380000D02*
X153568500Y-119348500D01*
X128790500Y-106398652D02*
X128800000Y-106389152D01*
X152768500Y-116211500D02*
X152768500Y-111612991D01*
X128800000Y-105800000D02*
X128700000Y-105700000D01*
X151115991Y-110928500D02*
X149753500Y-109566009D01*
X149753500Y-109566009D02*
X149753500Y-101562654D01*
X132800000Y-152100000D02*
X132800000Y-149470001D01*
X128790500Y-111662514D02*
X128790500Y-106398652D01*
%TO.N,VS*%
X152100000Y-136300000D02*
X147761500Y-140638500D01*
X147761500Y-143638500D02*
X144200000Y-147200000D01*
X147761500Y-140638500D02*
X147761500Y-143638500D01*
D15*
%TO.N,/SL_PhaseShift1/C2*%
X151600000Y-107220000D02*
X150500000Y-106120000D01*
X145308500Y-95908500D02*
X140465234Y-95908500D01*
X150500000Y-101100000D02*
X145308500Y-95908500D01*
X150500000Y-106120000D02*
X150500000Y-101100000D01*
%TO.N,/SL_PhaseShift1/C4*%
X129781295Y-113528000D02*
X128372000Y-112118705D01*
X130064138Y-113528000D02*
X129781295Y-113528000D01*
X149500000Y-116300000D02*
X143246705Y-116300000D01*
X150522000Y-113378000D02*
X150522000Y-115278000D01*
X143246705Y-116300000D02*
X143018705Y-116528000D01*
X130262715Y-113726577D02*
X130064138Y-113528000D01*
X128372000Y-106572000D02*
X127700000Y-105900000D01*
X133064138Y-116528000D02*
X130573423Y-114037285D01*
X130573423Y-114035872D02*
X130264128Y-113726577D01*
X128372000Y-112118705D02*
X128372000Y-106572000D01*
X130264128Y-113726577D02*
X130262715Y-113726577D01*
X130573423Y-114037285D02*
X130573423Y-114035872D01*
X150522000Y-115278000D02*
X149500000Y-116300000D01*
X143018705Y-116528000D02*
X133064138Y-116528000D01*
%TO.N,/SL_PhaseShift1/C5*%
X132690846Y-116900000D02*
X149540001Y-116900000D01*
X130045423Y-114254577D02*
X132690846Y-116900000D01*
X149540001Y-116900000D02*
X151600000Y-114840001D01*
%TO.N,/SL_PhaseShift1/C1*%
X151600000Y-101400000D02*
X147600000Y-97400000D01*
X151600000Y-104680000D02*
X151600000Y-101400000D01*
%TO.N,/SL_PhaseShift1/C3*%
X150172000Y-101235862D02*
X145436138Y-96500000D01*
X145436138Y-96500000D02*
X134000000Y-96500000D01*
X151600000Y-109760000D02*
X150172000Y-108332000D01*
X150172000Y-108332000D02*
X150172000Y-101235862D01*
X134000000Y-96500000D02*
X133100000Y-97400000D01*
D16*
%TO.N,+1V5*%
X140201499Y-141891500D02*
X141239999Y-142930000D01*
X131139999Y-142930000D02*
X132178499Y-141891500D01*
X141239999Y-142930000D02*
X141239999Y-147927499D01*
X132178499Y-141891500D02*
X140201499Y-141891500D01*
X141239999Y-147927499D02*
X143319000Y-150006500D01*
%TO.N,/VectorModulator/IBBN*%
X137274692Y-160800000D02*
X137200000Y-160800000D01*
X140100000Y-157974692D02*
X137274692Y-160800000D01*
X138700000Y-145470000D02*
X138700000Y-152600000D01*
X138700000Y-152600000D02*
X140100000Y-154000000D01*
X140100000Y-154000000D02*
X140100000Y-157974692D01*
%TO.N,/VectorModulator/IBBP*%
X137000000Y-159800000D02*
X137200000Y-160000000D01*
X137000000Y-148395000D02*
X137000000Y-154000000D01*
X137500000Y-147895000D02*
X137000000Y-148395000D01*
X137000000Y-154000000D02*
X137000000Y-159800000D01*
%TO.N,/VectorModulator/QBBN*%
X125400001Y-151800000D02*
X127900000Y-154299999D01*
X131125308Y-160800000D02*
X131200000Y-160800000D01*
X127900000Y-157574692D02*
X131125308Y-160800000D01*
X127900000Y-154299999D02*
X127900000Y-157574692D01*
%TO.N,/VectorModulator/QBBP*%
X128500000Y-151800000D02*
X128500000Y-157300000D01*
X128500000Y-149800000D02*
X129756250Y-148543750D01*
X128500000Y-151800000D02*
X128500000Y-149800000D01*
X128500000Y-157300000D02*
X131200000Y-160000000D01*
%TD*%
%TA.AperFunction,Conductor*%
%TO.N,/SL_PhaseShift1/C4*%
G36*
X151592318Y-112297481D02*
G01*
X151599770Y-112302448D01*
X151601525Y-112306679D01*
X151763851Y-113123724D01*
X151762102Y-113132506D01*
X151756267Y-113137038D01*
X150623888Y-113536479D01*
X150619996Y-113537145D01*
X150436919Y-113537145D01*
X150428646Y-113533718D01*
X150425219Y-113525445D01*
X150425556Y-113522656D01*
X150523466Y-113123724D01*
X150763668Y-112145029D01*
X150768968Y-112137812D01*
X150777299Y-112136341D01*
X151592318Y-112297481D01*
G37*
%TD.AperFunction*%
%TD*%
%TA.AperFunction,Conductor*%
%TO.N,VCC*%
G36*
X140703067Y-96853945D02*
G01*
X140705764Y-96861418D01*
X140705764Y-97199570D01*
X140702337Y-97207843D01*
X140694064Y-97211270D01*
X140689353Y-97210280D01*
X140423091Y-97093149D01*
X140416898Y-97086680D01*
X140417092Y-97077728D01*
X140420327Y-97073437D01*
X140686591Y-96852414D01*
X140695146Y-96849768D01*
X140703067Y-96853945D01*
G37*
%TD.AperFunction*%
%TD*%
%TA.AperFunction,Conductor*%
%TO.N,VCC*%
G36*
X152950236Y-116183768D02*
G01*
X152953663Y-116192041D01*
X152952883Y-116196239D01*
X152814255Y-116556574D01*
X152437201Y-117536641D01*
X152431032Y-117543132D01*
X152424012Y-117543918D01*
X151607681Y-117382518D01*
X151600229Y-117377551D01*
X151598474Y-117373320D01*
X151436207Y-116556572D01*
X151437956Y-116547792D01*
X151444116Y-116543151D01*
X152576259Y-116180897D01*
X152579825Y-116180341D01*
X152941963Y-116180341D01*
X152950236Y-116183768D01*
G37*
%TD.AperFunction*%
%TD*%
%TA.AperFunction,Conductor*%
%TO.N,VCC*%
G36*
X147485592Y-99095320D02*
G01*
X147486011Y-99104265D01*
X147483277Y-99108571D01*
X147384232Y-99207616D01*
X147384231Y-99207616D01*
X147339910Y-99251938D01*
X147266788Y-99325060D01*
X147258515Y-99328487D01*
X147253967Y-99327567D01*
X147125367Y-99273306D01*
X147119076Y-99266932D01*
X147119135Y-99257978D01*
X147124935Y-99251939D01*
X147470026Y-99089709D01*
X147478971Y-99089291D01*
X147485592Y-99095320D01*
G37*
%TD.AperFunction*%
%TD*%
%TA.AperFunction,Conductor*%
%TO.N,VCC*%
G36*
X153757621Y-124853689D02*
G01*
X153760835Y-124859738D01*
X153860530Y-125374579D01*
X153858738Y-125383352D01*
X153851363Y-125388271D01*
X153570820Y-125445028D01*
X153566180Y-125445028D01*
X153285636Y-125388271D01*
X153278207Y-125383271D01*
X153276469Y-125374581D01*
X153376165Y-124859737D01*
X153381103Y-124852267D01*
X153387652Y-124850262D01*
X153749348Y-124850262D01*
X153757621Y-124853689D01*
G37*
%TD.AperFunction*%
%TD*%
%TA.AperFunction,Conductor*%
%TO.N,VCC*%
G36*
X142738854Y-115709761D02*
G01*
X142743773Y-115717136D01*
X142800530Y-115997680D01*
X142800530Y-116002320D01*
X142743773Y-116282863D01*
X142738773Y-116290292D01*
X142730081Y-116292030D01*
X142215240Y-116192334D01*
X142207769Y-116187396D01*
X142205764Y-116180847D01*
X142205764Y-115819152D01*
X142209191Y-115810879D01*
X142215240Y-115807665D01*
X142730083Y-115707969D01*
X142738854Y-115709761D01*
G37*
%TD.AperFunction*%
%TD*%
%TA.AperFunction,Conductor*%
%TO.N,VCC*%
G36*
X130165730Y-112850069D02*
G01*
X130166231Y-112859010D01*
X130163461Y-112863417D01*
X129946690Y-113080188D01*
X129938417Y-113083615D01*
X129937159Y-113083547D01*
X129746491Y-113062930D01*
X129738634Y-113058634D01*
X129736117Y-113050040D01*
X129740413Y-113042183D01*
X129742665Y-113040761D01*
X130150115Y-112844601D01*
X130159054Y-112844101D01*
X130165730Y-112850069D01*
G37*
%TD.AperFunction*%
%TD*%
%TA.AperFunction,Conductor*%
%TO.N,VCC*%
G36*
X131480934Y-147737943D02*
G01*
X131774487Y-148172486D01*
X131776279Y-148181259D01*
X131773065Y-148187308D01*
X131517307Y-148443066D01*
X131509034Y-148446493D01*
X131502485Y-148444488D01*
X131067942Y-148150935D01*
X131063004Y-148143464D01*
X131064741Y-148134774D01*
X131222984Y-147896263D01*
X131226262Y-147892985D01*
X131464773Y-147734742D01*
X131473559Y-147733024D01*
X131480934Y-147737943D01*
G37*
%TD.AperFunction*%
%TD*%
%TA.AperFunction,Conductor*%
%TO.N,VCC*%
G36*
X140770872Y-96736452D02*
G01*
X141097413Y-96834005D01*
X141104359Y-96839656D01*
X141105764Y-96845215D01*
X141105764Y-97208784D01*
X141102337Y-97217057D01*
X141097413Y-97219994D01*
X140770884Y-97317544D01*
X140761976Y-97316629D01*
X140756325Y-97309683D01*
X140756052Y-97308579D01*
X140701438Y-97029240D01*
X140701438Y-97024759D01*
X140756052Y-96745418D01*
X140761003Y-96737958D01*
X140769780Y-96736182D01*
X140770872Y-96736452D01*
G37*
%TD.AperFunction*%
%TD*%
%TA.AperFunction,Conductor*%
%TO.N,VCC*%
G36*
X133997210Y-97255201D02*
G01*
X134252968Y-97510959D01*
X134256395Y-97519232D01*
X134254390Y-97525781D01*
X133960837Y-97960324D01*
X133953366Y-97965262D01*
X133944674Y-97963524D01*
X133706167Y-97805283D01*
X133702886Y-97802002D01*
X133544645Y-97563495D01*
X133542926Y-97554707D01*
X133547845Y-97547332D01*
X133579747Y-97525781D01*
X133982390Y-97253778D01*
X133991161Y-97251987D01*
X133997210Y-97255201D01*
G37*
%TD.AperFunction*%
%TD*%
%TA.AperFunction,Conductor*%
%TO.N,VCC*%
G36*
X147578391Y-99151657D02*
G01*
X147583661Y-99158898D01*
X147582267Y-99167743D01*
X147580559Y-99169911D01*
X147347057Y-99403413D01*
X147338784Y-99406840D01*
X147332666Y-99405113D01*
X147125220Y-99277847D01*
X147119960Y-99270600D01*
X147121365Y-99261756D01*
X147128596Y-99256500D01*
X147569547Y-99150263D01*
X147578391Y-99151657D01*
G37*
%TD.AperFunction*%
%TD*%
%TA.AperFunction,Conductor*%
%TO.N,VCC*%
G36*
X152432940Y-117217809D02*
G01*
X152437284Y-117223163D01*
X152922349Y-118428654D01*
X152922258Y-118437609D01*
X152919768Y-118441295D01*
X152661295Y-118699768D01*
X152653022Y-118703195D01*
X152648654Y-118702349D01*
X151443163Y-118217284D01*
X151436768Y-118211017D01*
X151436054Y-118204160D01*
X151597772Y-117386977D01*
X151602739Y-117379527D01*
X151606977Y-117377772D01*
X152424160Y-117216054D01*
X152432940Y-117217809D01*
G37*
%TD.AperFunction*%
%TD*%
%TA.AperFunction,Conductor*%
%TO.N,VCC*%
G36*
X128984786Y-105556615D02*
G01*
X128992215Y-105561615D01*
X128994166Y-105568167D01*
X128990584Y-106065441D01*
X128987097Y-106073690D01*
X128978884Y-106077057D01*
X128617474Y-106077057D01*
X128609201Y-106073630D01*
X128606584Y-106069636D01*
X128410864Y-105571508D01*
X128411028Y-105562554D01*
X128417475Y-105556339D01*
X128419429Y-105555762D01*
X128697682Y-105499469D01*
X128702318Y-105499469D01*
X128984786Y-105556615D01*
G37*
%TD.AperFunction*%
%TD*%
%TA.AperFunction,Conductor*%
%TO.N,VCC*%
G36*
X132989121Y-151509191D02*
G01*
X132992335Y-151515240D01*
X133092030Y-152030081D01*
X133090238Y-152038854D01*
X133082863Y-152043773D01*
X132802320Y-152100530D01*
X132797680Y-152100530D01*
X132517136Y-152043773D01*
X132509707Y-152038773D01*
X132507969Y-152030083D01*
X132607665Y-151515239D01*
X132612603Y-151507769D01*
X132619152Y-151505764D01*
X132980848Y-151505764D01*
X132989121Y-151509191D01*
G37*
%TD.AperFunction*%
%TD*%
%TA.AperFunction,Conductor*%
%TO.N,VS*%
G36*
X151260560Y-135952279D02*
G01*
X152096216Y-136297438D01*
X152102553Y-136303763D01*
X152102562Y-136303784D01*
X152447719Y-137139438D01*
X152447710Y-137148393D01*
X152441626Y-137154610D01*
X150790993Y-137882511D01*
X150782040Y-137882714D01*
X150777999Y-137880079D01*
X150519920Y-137622000D01*
X150516493Y-137613727D01*
X150517488Y-137609006D01*
X150719902Y-137150000D01*
X151245389Y-135958372D01*
X151251862Y-135952186D01*
X151260560Y-135952279D01*
G37*
%TD.AperFunction*%
%TD*%
%TA.AperFunction,Conductor*%
%TO.N,VS*%
G36*
X144492308Y-146651933D02*
G01*
X144748066Y-146907691D01*
X144751493Y-146915964D01*
X144749488Y-146922513D01*
X144455935Y-147357056D01*
X144448464Y-147361994D01*
X144439772Y-147360256D01*
X144201265Y-147202015D01*
X144197984Y-147198734D01*
X144039743Y-146960227D01*
X144038024Y-146951439D01*
X144042943Y-146944064D01*
X144074845Y-146922513D01*
X144477488Y-146650510D01*
X144486259Y-146648719D01*
X144492308Y-146651933D01*
G37*
%TD.AperFunction*%
%TD*%
%TA.AperFunction,Conductor*%
%TO.N,/SL_PhaseShift1/C2*%
G36*
X150601824Y-105992584D02*
G01*
X151756098Y-106383042D01*
X151762837Y-106388939D01*
X151763825Y-106396405D01*
X151601525Y-107213320D01*
X151596551Y-107220767D01*
X151592318Y-107222518D01*
X150777122Y-107383693D01*
X150768342Y-107381936D01*
X150763537Y-107375189D01*
X150403857Y-106006641D01*
X150405069Y-105997769D01*
X150412199Y-105992351D01*
X150415173Y-105991967D01*
X150598075Y-105991967D01*
X150601824Y-105992584D01*
G37*
%TD.AperFunction*%
%TD*%
%TA.AperFunction,Conductor*%
%TO.N,/SL_PhaseShift1/C2*%
G36*
X140536516Y-95618889D02*
G01*
X141051759Y-95805704D01*
X141058368Y-95811744D01*
X141059470Y-95816702D01*
X141059470Y-96000297D01*
X141056043Y-96008570D01*
X141051758Y-96011296D01*
X140536524Y-96198108D01*
X140527578Y-96197707D01*
X140521537Y-96191097D01*
X140521071Y-96189439D01*
X140464703Y-95910818D01*
X140464703Y-95906180D01*
X140521069Y-95627567D01*
X140526068Y-95620141D01*
X140534856Y-95618422D01*
X140536516Y-95618889D01*
G37*
%TD.AperFunction*%
%TD*%
%TA.AperFunction,Conductor*%
%TO.N,/SL_PhaseShift1/C4*%
G36*
X127954344Y-105744116D02*
G01*
X127955193Y-105745626D01*
X128027080Y-105899293D01*
X128146791Y-106155193D01*
X128187422Y-106242046D01*
X128187823Y-106250992D01*
X128185097Y-106255277D01*
X128055277Y-106385097D01*
X128047004Y-106388524D01*
X128042047Y-106387422D01*
X127891428Y-106316961D01*
X127545626Y-106155193D01*
X127539585Y-106148583D01*
X127539986Y-106139637D01*
X127540835Y-106138127D01*
X127697985Y-105901263D01*
X127701263Y-105897985D01*
X127938127Y-105740834D01*
X127946915Y-105739116D01*
X127954344Y-105744116D01*
G37*
%TD.AperFunction*%
%TD*%
%TA.AperFunction,Conductor*%
%TO.N,/SL_PhaseShift1/C5*%
G36*
X130299767Y-114098693D02*
G01*
X130300616Y-114100203D01*
X130372503Y-114253870D01*
X130492214Y-114509770D01*
X130532845Y-114596623D01*
X130533246Y-114605569D01*
X130530520Y-114609854D01*
X130400700Y-114739674D01*
X130392427Y-114743101D01*
X130387470Y-114741999D01*
X130236851Y-114671538D01*
X129891049Y-114509770D01*
X129885008Y-114503160D01*
X129885409Y-114494214D01*
X129886258Y-114492704D01*
X130043408Y-114255840D01*
X130046686Y-114252562D01*
X130283550Y-114095411D01*
X130292338Y-114093693D01*
X130299767Y-114098693D01*
G37*
%TD.AperFunction*%
%TD*%
%TA.AperFunction,Conductor*%
%TO.N,/SL_PhaseShift1/C5*%
G36*
X151013002Y-114722988D02*
G01*
X151593021Y-114837772D01*
X151600472Y-114842739D01*
X151602227Y-114846978D01*
X151763824Y-115663549D01*
X151762069Y-115672330D01*
X151756039Y-115676922D01*
X150487033Y-116098963D01*
X150478101Y-116098322D01*
X150475068Y-116096134D01*
X150343866Y-115964932D01*
X150340439Y-115956659D01*
X150341037Y-115952967D01*
X150426008Y-115697472D01*
X150428830Y-115692902D01*
X150714865Y-115406868D01*
X150749500Y-115323253D01*
X150749500Y-114726680D01*
X150750098Y-114722988D01*
X150763078Y-114683957D01*
X150768939Y-114677191D01*
X150776449Y-114676175D01*
X151013002Y-114722988D01*
G37*
%TD.AperFunction*%
%TD*%
%TA.AperFunction,Conductor*%
%TO.N,/SL_PhaseShift1/C1*%
G36*
X147854344Y-97244116D02*
G01*
X147855193Y-97245626D01*
X147927080Y-97399293D01*
X148046791Y-97655193D01*
X148087422Y-97742046D01*
X148087823Y-97750992D01*
X148085097Y-97755277D01*
X147955277Y-97885097D01*
X147947004Y-97888524D01*
X147942047Y-97887422D01*
X147791428Y-97816961D01*
X147445626Y-97655193D01*
X147439585Y-97648583D01*
X147439986Y-97639637D01*
X147440835Y-97638127D01*
X147597985Y-97401263D01*
X147601263Y-97397985D01*
X147838127Y-97240834D01*
X147846915Y-97239116D01*
X147854344Y-97244116D01*
G37*
%TD.AperFunction*%
%TD*%
%TA.AperFunction,Conductor*%
%TO.N,/SL_PhaseShift1/C1*%
G36*
X151701048Y-102999760D02*
G01*
X151703236Y-103002793D01*
X152302129Y-104198541D01*
X152302770Y-104207473D01*
X152298178Y-104213503D01*
X151606510Y-104676640D01*
X151597729Y-104678395D01*
X151593490Y-104676640D01*
X150901821Y-104213503D01*
X150896854Y-104206052D01*
X150897869Y-104198543D01*
X151496764Y-103002792D01*
X151503533Y-102996931D01*
X151507225Y-102996333D01*
X151692775Y-102996333D01*
X151701048Y-102999760D01*
G37*
%TD.AperFunction*%
%TD*%
%TA.AperFunction,Conductor*%
%TO.N,/SL_PhaseShift1/C3*%
G36*
X150487033Y-108501037D02*
G01*
X150746245Y-108587244D01*
X151756040Y-108923078D01*
X151762808Y-108928939D01*
X151763824Y-108936450D01*
X151602227Y-109753021D01*
X151597260Y-109760472D01*
X151593021Y-109762227D01*
X150776450Y-109923824D01*
X150767669Y-109922069D01*
X150763078Y-109916040D01*
X150341037Y-108647033D01*
X150341678Y-108638101D01*
X150343863Y-108635071D01*
X150475069Y-108503865D01*
X150483341Y-108500439D01*
X150487033Y-108501037D01*
G37*
%TD.AperFunction*%
%TD*%
%TA.AperFunction,Conductor*%
%TO.N,/SL_PhaseShift1/C3*%
G36*
X133455277Y-96914902D02*
G01*
X133585097Y-97044722D01*
X133588524Y-97052995D01*
X133587422Y-97057953D01*
X133356371Y-97551854D01*
X133355905Y-97552747D01*
X133354527Y-97555133D01*
X133347422Y-97560584D01*
X133338544Y-97559414D01*
X133337927Y-97559031D01*
X133101265Y-97402015D01*
X133097984Y-97398734D01*
X132940835Y-97161872D01*
X132939116Y-97153084D01*
X132944116Y-97145655D01*
X132945621Y-97144808D01*
X133442048Y-96912576D01*
X133450992Y-96912176D01*
X133455277Y-96914902D01*
G37*
%TD.AperFunction*%
%TD*%
%TA.AperFunction,Conductor*%
%TO.N,+1V5*%
G36*
X140373526Y-141789955D02*
G01*
X141627070Y-142325810D01*
X141633329Y-142332212D01*
X141633228Y-142341166D01*
X141632207Y-142343054D01*
X141242006Y-142928756D01*
X141238756Y-142932006D01*
X140653054Y-143322207D01*
X140644269Y-143323942D01*
X140636830Y-143318957D01*
X140635812Y-143317074D01*
X140099954Y-142063528D01*
X140099854Y-142054575D01*
X140102438Y-142050659D01*
X140360657Y-141792440D01*
X140368929Y-141789014D01*
X140373526Y-141789955D01*
G37*
%TD.AperFunction*%
%TD*%
%TA.AperFunction,Conductor*%
%TO.N,+1V5*%
G36*
X132019342Y-141792440D02*
G01*
X132277558Y-142050656D01*
X132280985Y-142058929D01*
X132280043Y-142063528D01*
X131744190Y-143317069D01*
X131737787Y-143323329D01*
X131728833Y-143323228D01*
X131726945Y-143322207D01*
X131141243Y-142932006D01*
X131137993Y-142928756D01*
X130747792Y-142343054D01*
X130746057Y-142334269D01*
X130751042Y-142326830D01*
X130752920Y-142325814D01*
X132006471Y-141789954D01*
X132015424Y-141789854D01*
X132019342Y-141792440D01*
G37*
%TD.AperFunction*%
%TD*%
%TA.AperFunction,Conductor*%
%TO.N,+1V5*%
G36*
X141932364Y-143067700D02*
G01*
X141939803Y-143072685D01*
X141941538Y-143081470D01*
X141940925Y-143083527D01*
X141433445Y-144348820D01*
X141427185Y-144355223D01*
X141422586Y-144356165D01*
X141057412Y-144356165D01*
X141049139Y-144352738D01*
X141046553Y-144348820D01*
X140539074Y-143083527D01*
X140539175Y-143074573D01*
X140545578Y-143068313D01*
X140547630Y-143067701D01*
X141237704Y-142929460D01*
X141242296Y-142929460D01*
X141932364Y-143067700D01*
G37*
%TD.AperFunction*%
%TD*%
%TA.AperFunction,Conductor*%
%TO.N,+1V5*%
G36*
X143041513Y-149457011D02*
G01*
X143476056Y-149750564D01*
X143480994Y-149758035D01*
X143479256Y-149766727D01*
X143321015Y-150005234D01*
X143317734Y-150008515D01*
X143079227Y-150166756D01*
X143070439Y-150168475D01*
X143063064Y-150163556D01*
X142910026Y-149937016D01*
X142769510Y-149729012D01*
X142767719Y-149720240D01*
X142770931Y-149714193D01*
X143026692Y-149458432D01*
X143034964Y-149455006D01*
X143041513Y-149457011D01*
G37*
%TD.AperFunction*%
%TD*%
%TA.AperFunction,Conductor*%
%TO.N,/VectorModulator/IBBN*%
G36*
X137530748Y-160290373D02*
G01*
X137784712Y-160544337D01*
X137788139Y-160552610D01*
X137785458Y-160560063D01*
X137456150Y-160958551D01*
X137448238Y-160962745D01*
X137440663Y-160960847D01*
X137201265Y-160802015D01*
X137197984Y-160798734D01*
X137195002Y-160794240D01*
X137040368Y-160561169D01*
X137038650Y-160552383D01*
X137043650Y-160544954D01*
X137044486Y-160544447D01*
X137258442Y-160427262D01*
X137261012Y-160426232D01*
X137365009Y-160398367D01*
X137462491Y-160342085D01*
X137514203Y-160290372D01*
X137522475Y-160286946D01*
X137530748Y-160290373D01*
G37*
%TD.AperFunction*%
%TD*%
%TA.AperFunction,Conductor*%
%TO.N,/VectorModulator/IBBN*%
G36*
X139392364Y-145607700D02*
G01*
X139399803Y-145612685D01*
X139401538Y-145621470D01*
X139400925Y-145623527D01*
X138893446Y-146888820D01*
X138887186Y-146895223D01*
X138882587Y-146896165D01*
X138517413Y-146896165D01*
X138509140Y-146892738D01*
X138506554Y-146888820D01*
X137999074Y-145623527D01*
X137999175Y-145614573D01*
X138005578Y-145608313D01*
X138007630Y-145607701D01*
X138697704Y-145469460D01*
X138702296Y-145469460D01*
X139392364Y-145607700D01*
G37*
%TD.AperFunction*%
%TD*%
%TA.AperFunction,Conductor*%
%TO.N,/VectorModulator/IBBN*%
G36*
X139822513Y-153450511D02*
G01*
X140257056Y-153744064D01*
X140261994Y-153751535D01*
X140260256Y-153760227D01*
X140102015Y-153998734D01*
X140098734Y-154002015D01*
X139860227Y-154160256D01*
X139851439Y-154161975D01*
X139844064Y-154157056D01*
X139691026Y-153930516D01*
X139550510Y-153722512D01*
X139548719Y-153713740D01*
X139551931Y-153707693D01*
X139807692Y-153451932D01*
X139815964Y-153448506D01*
X139822513Y-153450511D01*
G37*
%TD.AperFunction*%
%TD*%
%TA.AperFunction,Conductor*%
%TO.N,/VectorModulator/IBBN*%
G36*
X140382863Y-154056226D02*
G01*
X140390292Y-154061226D01*
X140392030Y-154069918D01*
X140292335Y-154584760D01*
X140287397Y-154592231D01*
X140280848Y-154594236D01*
X139919152Y-154594236D01*
X139910879Y-154590809D01*
X139907665Y-154584760D01*
X139807969Y-154069916D01*
X139809761Y-154061145D01*
X139817135Y-154056226D01*
X140097682Y-153999469D01*
X140102318Y-153999469D01*
X140382863Y-154056226D01*
G37*
%TD.AperFunction*%
%TD*%
%TA.AperFunction,Conductor*%
%TO.N,/VectorModulator/IBBP*%
G36*
X137189121Y-153409191D02*
G01*
X137192335Y-153415240D01*
X137292030Y-153930081D01*
X137290238Y-153938854D01*
X137282863Y-153943773D01*
X137002320Y-154000530D01*
X136997680Y-154000530D01*
X136717136Y-153943773D01*
X136709707Y-153938773D01*
X136707969Y-153930083D01*
X136807665Y-153415239D01*
X136812603Y-153407769D01*
X136819152Y-153405764D01*
X137180848Y-153405764D01*
X137189121Y-153409191D01*
G37*
%TD.AperFunction*%
%TD*%
%TA.AperFunction,Conductor*%
%TO.N,/VectorModulator/IBBP*%
G36*
X137260226Y-147734742D02*
G01*
X137265050Y-147737943D01*
X137498734Y-147892984D01*
X137502015Y-147896265D01*
X137660256Y-148134772D01*
X137661975Y-148143560D01*
X137657056Y-148150935D01*
X137222513Y-148444488D01*
X137213740Y-148446280D01*
X137207691Y-148443066D01*
X136951933Y-148187308D01*
X136948506Y-148179035D01*
X136950510Y-148172488D01*
X137244064Y-147737942D01*
X137251535Y-147733005D01*
X137260226Y-147734742D01*
G37*
%TD.AperFunction*%
%TD*%
%TA.AperFunction,Conductor*%
%TO.N,/VectorModulator/IBBP*%
G36*
X137192881Y-159487315D02*
G01*
X137194008Y-159488622D01*
X137442147Y-159823486D01*
X137444320Y-159832173D01*
X137439713Y-159839852D01*
X137439274Y-159840162D01*
X137201963Y-159999680D01*
X137197681Y-160001453D01*
X136917561Y-160056220D01*
X136908784Y-160054444D01*
X136903833Y-160046982D01*
X136903787Y-160046728D01*
X136811784Y-159497521D01*
X136813797Y-159488795D01*
X136821390Y-159484049D01*
X136823323Y-159483888D01*
X137184608Y-159483888D01*
X137192881Y-159487315D01*
G37*
%TD.AperFunction*%
%TD*%
%TA.AperFunction,Conductor*%
%TO.N,/VectorModulator/IBBP*%
G36*
X137282863Y-154056226D02*
G01*
X137290292Y-154061226D01*
X137292030Y-154069918D01*
X137192335Y-154584760D01*
X137187397Y-154592231D01*
X137180848Y-154594236D01*
X136819152Y-154594236D01*
X136810879Y-154590809D01*
X136807665Y-154584760D01*
X136707969Y-154069916D01*
X136709761Y-154061145D01*
X136717135Y-154056226D01*
X136997682Y-153999469D01*
X137002318Y-153999469D01*
X137282863Y-154056226D01*
G37*
%TD.AperFunction*%
%TD*%
%TA.AperFunction,Conductor*%
%TO.N,/VectorModulator/QBBN*%
G36*
X125655936Y-151642943D02*
G01*
X125949489Y-152077486D01*
X125951281Y-152086259D01*
X125948067Y-152092308D01*
X125692309Y-152348066D01*
X125684036Y-152351493D01*
X125677487Y-152349488D01*
X125242944Y-152055935D01*
X125238006Y-152048464D01*
X125239743Y-152039774D01*
X125397986Y-151801263D01*
X125401264Y-151797985D01*
X125639775Y-151639742D01*
X125648561Y-151638024D01*
X125655936Y-151642943D01*
G37*
%TD.AperFunction*%
%TD*%
%TA.AperFunction,Conductor*%
%TO.N,/VectorModulator/QBBN*%
G36*
X130885797Y-160290373D02*
G01*
X130937509Y-160342085D01*
X130937510Y-160342086D01*
X130937512Y-160342087D01*
X131034988Y-160398366D01*
X131034990Y-160398366D01*
X131034991Y-160398367D01*
X131138981Y-160426230D01*
X131141563Y-160427265D01*
X131355311Y-160544337D01*
X131355501Y-160544441D01*
X131361111Y-160551421D01*
X131360143Y-160560323D01*
X131359630Y-160561171D01*
X131202015Y-160798734D01*
X131198734Y-160802015D01*
X130959336Y-160960847D01*
X130950548Y-160962566D01*
X130943849Y-160958551D01*
X130614541Y-160560063D01*
X130611913Y-160551503D01*
X130615286Y-160544338D01*
X130869252Y-160290372D01*
X130877524Y-160286946D01*
X130885797Y-160290373D01*
G37*
%TD.AperFunction*%
%TD*%
%TA.AperFunction,Conductor*%
%TO.N,/VectorModulator/QBBP*%
G36*
X128782863Y-151856226D02*
G01*
X128790292Y-151861226D01*
X128792030Y-151869918D01*
X128692335Y-152384760D01*
X128687397Y-152392231D01*
X128680848Y-152394236D01*
X128319152Y-152394236D01*
X128310879Y-152390809D01*
X128307665Y-152384760D01*
X128207969Y-151869916D01*
X128209761Y-151861145D01*
X128217135Y-151856226D01*
X128497682Y-151799469D01*
X128502318Y-151799469D01*
X128782863Y-151856226D01*
G37*
%TD.AperFunction*%
%TD*%
%TA.AperFunction,Conductor*%
%TO.N,/VectorModulator/QBBP*%
G36*
X129516476Y-148383492D02*
G01*
X129521300Y-148386693D01*
X129754984Y-148541734D01*
X129758265Y-148545015D01*
X129916506Y-148783522D01*
X129918225Y-148792310D01*
X129913306Y-148799685D01*
X129478763Y-149093238D01*
X129469990Y-149095030D01*
X129463941Y-149091816D01*
X129208183Y-148836058D01*
X129204756Y-148827785D01*
X129206760Y-148821238D01*
X129500314Y-148386692D01*
X129507785Y-148381755D01*
X129516476Y-148383492D01*
G37*
%TD.AperFunction*%
%TD*%
%TA.AperFunction,Conductor*%
%TO.N,/VectorModulator/QBBP*%
G36*
X128689121Y-151209191D02*
G01*
X128692335Y-151215240D01*
X128792030Y-151730081D01*
X128790238Y-151738854D01*
X128782863Y-151743773D01*
X128502320Y-151800530D01*
X128497680Y-151800530D01*
X128217136Y-151743773D01*
X128209707Y-151738773D01*
X128207969Y-151730083D01*
X128307665Y-151215239D01*
X128312603Y-151207769D01*
X128319152Y-151205764D01*
X128680848Y-151205764D01*
X128689121Y-151209191D01*
G37*
%TD.AperFunction*%
%TD*%
%TA.AperFunction,Conductor*%
%TO.N,/VectorModulator/QBBP*%
G36*
X130922513Y-159450511D02*
G01*
X131357056Y-159744064D01*
X131361994Y-159751535D01*
X131360256Y-159760227D01*
X131202015Y-159998734D01*
X131198734Y-160002015D01*
X130960227Y-160160256D01*
X130951439Y-160161975D01*
X130944064Y-160157056D01*
X130791026Y-159930516D01*
X130650510Y-159722512D01*
X130648719Y-159713740D01*
X130651931Y-159707693D01*
X130907692Y-159451932D01*
X130915964Y-159448506D01*
X130922513Y-159450511D01*
G37*
%TD.AperFunction*%
%TD*%
M02*
