%TF.GenerationSoftware,KiCad,Pcbnew,9.0.7*%
%TF.CreationDate,2026-02-12T18:36:40-06:00*%
%TF.ProjectId,switchedPhaseShift,73776974-6368-4656-9450-686173655368,rev?*%
%TF.SameCoordinates,Original*%
%TF.FileFunction,Copper,L1,Top*%
%TF.FilePolarity,Positive*%
%FSLAX46Y46*%
G04 Gerber Fmt 4.6, Leading zero omitted, Abs format (unit mm)*
G04 Created by KiCad (PCBNEW 9.0.7) date 2026-02-12 18:36:40*
%MOMM*%
%LPD*%
G01*
G04 APERTURE LIST*
%TA.AperFunction,EtchedComponent*%
%ADD10C,0.000000*%
%TD*%
%TA.AperFunction,ComponentPad*%
%ADD11R,1.700000X1.700000*%
%TD*%
%TA.AperFunction,ComponentPad*%
%ADD12C,1.700000*%
%TD*%
%TA.AperFunction,ComponentPad*%
%ADD13C,1.440000*%
%TD*%
%TA.AperFunction,HeatsinkPad*%
%ADD14C,0.600000*%
%TD*%
%TA.AperFunction,HeatsinkPad*%
%ADD15R,2.300000X2.300000*%
%TD*%
%TA.AperFunction,ViaPad*%
%ADD16C,0.600000*%
%TD*%
G04 APERTURE END LIST*
D10*
%TA.AperFunction,EtchedComponent*%
%TO.C,AE3*%
G36*
X147655992Y-107500000D02*
G01*
X139100000Y-116055992D01*
X130544008Y-107500000D01*
X139100000Y-98944008D01*
X147655992Y-107500000D01*
G37*
%TD.AperFunction*%
%TD*%
D11*
%TO.P,J2,1,Pin_1*%
%TO.N,GND*%
X151600000Y-119920000D03*
D12*
%TO.P,J2,2,Pin_2*%
%TO.N,VCC*%
X151600000Y-117380000D03*
%TO.P,J2,3,Pin_3*%
%TO.N,/SL_PhaseShift1/C5*%
X151600000Y-114840000D03*
%TO.P,J2,4,Pin_4*%
%TO.N,/SL_PhaseShift1/C4*%
X151600000Y-112300000D03*
%TO.P,J2,5,Pin_5*%
%TO.N,/SL_PhaseShift1/C3*%
X151600000Y-109760000D03*
%TO.P,J2,6,Pin_6*%
%TO.N,/SL_PhaseShift1/C2*%
X151600000Y-107220000D03*
%TO.P,J2,7,Pin_7*%
%TO.N,/SL_PhaseShift1/C1*%
X151600000Y-104680000D03*
%TD*%
D11*
%TO.P,TP1,1,1*%
%TO.N,VS*%
X152100000Y-136300000D03*
%TD*%
%TO.P,TP2,1,1*%
%TO.N,GND*%
X152100000Y-139900000D03*
%TD*%
D13*
%TO.P,RV1,1,1*%
%TO.N,GND*%
X146260000Y-142930000D03*
%TO.P,RV1,2,2*%
%TO.N,Net-(U1-VT)*%
X148800000Y-145470000D03*
%TO.P,RV1,3,3*%
%TO.N,VCC*%
X151340000Y-142930000D03*
%TD*%
%TO.P,RV3,1,1*%
%TO.N,GND*%
X126060000Y-142930000D03*
%TO.P,RV3,2,2*%
%TO.N,/VectorModulator/QBBN*%
X128600000Y-145470000D03*
%TO.P,RV3,3,3*%
%TO.N,+1V5*%
X131140000Y-142930000D03*
%TD*%
%TO.P,RV2,1,1*%
%TO.N,GND*%
X136160000Y-142930000D03*
%TO.P,RV2,2,2*%
%TO.N,/VectorModulator/IBBN*%
X138700000Y-145470000D03*
%TO.P,RV2,3,3*%
%TO.N,+1V5*%
X141240000Y-142930000D03*
%TD*%
D14*
%TO.P,U9,25,EP*%
%TO.N,GND*%
X135200000Y-161412498D03*
X134350000Y-161412498D03*
X133500000Y-161412498D03*
X135200000Y-160562498D03*
X134350000Y-160562498D03*
D15*
X134350000Y-160562498D03*
D14*
X133500000Y-160562498D03*
X135200000Y-159712498D03*
X134350000Y-159712498D03*
X133500000Y-159712498D03*
%TD*%
D16*
%TO.N,GND*%
X141000000Y-173000000D03*
X138000000Y-173000000D03*
X131000000Y-173000000D03*
X131000000Y-170000000D03*
X129000000Y-167000000D03*
X129000000Y-164000000D03*
X131000000Y-167000000D03*
X131000000Y-164000000D03*
X145000000Y-159000000D03*
X141000000Y-159000000D03*
X141000000Y-162000000D03*
X144000000Y-162000000D03*
X144000000Y-165000000D03*
X144000000Y-168000000D03*
X141000000Y-168000000D03*
X138000000Y-168000000D03*
X138000000Y-171000000D03*
X141000000Y-171000000D03*
X144000000Y-171000000D03*
X147000000Y-171000000D03*
X150000000Y-171000000D03*
X153000000Y-171000000D03*
X153000000Y-168000000D03*
X153000000Y-165000000D03*
X153000000Y-162000000D03*
X153000000Y-159000000D03*
X135000000Y-137000000D03*
X141000000Y-136000000D03*
X136000000Y-123000000D03*
X139000000Y-123000000D03*
X151000000Y-123000000D03*
X148000000Y-123000000D03*
X145000000Y-123000000D03*
X142000000Y-123000000D03*
X126000000Y-121000000D03*
X130000000Y-121000000D03*
X142000000Y-120000000D03*
X145000000Y-120000000D03*
X148000000Y-120000000D03*
X126900000Y-107700000D03*
X130200000Y-105900000D03*
X147224879Y-99911293D03*
X144400000Y-100100000D03*
X140300000Y-98400000D03*
X138500000Y-95500000D03*
X135200000Y-98200000D03*
X130400000Y-98500000D03*
X133600000Y-113400000D03*
X130100000Y-111800000D03*
%TO.N,/SL_PhaseShift1/C1*%
X147600000Y-97400000D03*
%TO.N,VCC*%
X142800000Y-116000000D03*
X133704902Y-97803268D03*
X147395423Y-99204577D03*
X140700000Y-97027000D03*
X128700000Y-105500000D03*
X130000000Y-113000000D03*
%TO.N,/SL_PhaseShift1/C2*%
X140465234Y-95908500D03*
%TO.N,/SL_PhaseShift1/C4*%
X127700000Y-105900000D03*
%TO.N,/SL_PhaseShift1/C5*%
X130045423Y-114254577D03*
%TO.N,/SL_PhaseShift1/C3*%
X133100000Y-97400000D03*
%TO.N,GND*%
X149600000Y-131600000D03*
X139300000Y-137000000D03*
X149299999Y-127000000D03*
X144300000Y-137400000D03*
%TO.N,VCC*%
X132800000Y-152100000D03*
X153568500Y-125444498D03*
X131224999Y-147895000D03*
%TO.N,VS*%
X144200000Y-147200000D03*
%TO.N,+1V5*%
X143319000Y-150006500D03*
%TO.N,/VectorModulator/IBBN*%
X137200000Y-160800000D03*
X140100000Y-154000000D03*
%TO.N,/VectorModulator/IBBP*%
X137200000Y-160000000D03*
X137500000Y-147895000D03*
X137000000Y-154000000D03*
%TO.N,/VectorModulator/QBBN*%
X131200000Y-160800000D03*
X125400001Y-151800000D03*
%TO.N,/VectorModulator/QBBP*%
X129756250Y-148543750D03*
X128500000Y-151800000D03*
X131200000Y-160000000D03*
%TD*%
M02*
