%TF.GenerationSoftware,KiCad,Pcbnew,9.0.7*%
%TF.CreationDate,2026-02-12T18:36:45-06:00*%
%TF.ProjectId,switchedPhaseShift,73776974-6368-4656-9450-686173655368,rev?*%
%TF.SameCoordinates,Original*%
%TF.FileFunction,Soldermask,Bot*%
%TF.FilePolarity,Negative*%
%FSLAX46Y46*%
G04 Gerber Fmt 4.6, Leading zero omitted, Abs format (unit mm)*
G04 Created by KiCad (PCBNEW 9.0.7) date 2026-02-12 18:36:45*
%MOMM*%
%LPD*%
G01*
G04 APERTURE LIST*
G04 Aperture macros list*
%AMRoundRect*
0 Rectangle with rounded corners*
0 $1 Rounding radius*
0 $2 $3 $4 $5 $6 $7 $8 $9 X,Y pos of 4 corners*
0 Add a 4 corners polygon primitive as box body*
4,1,4,$2,$3,$4,$5,$6,$7,$8,$9,$2,$3,0*
0 Add four circle primitives for the rounded corners*
1,1,$1+$1,$2,$3*
1,1,$1+$1,$4,$5*
1,1,$1+$1,$6,$7*
1,1,$1+$1,$8,$9*
0 Add four rect primitives between the rounded corners*
20,1,$1+$1,$2,$3,$4,$5,0*
20,1,$1+$1,$4,$5,$6,$7,0*
20,1,$1+$1,$6,$7,$8,$9,0*
20,1,$1+$1,$8,$9,$2,$3,0*%
%AMFreePoly0*
4,1,21,0.315321,0.932121,0.330200,0.896200,0.330200,-0.681757,0.974257,-1.276272,0.990559,-1.311570,0.990600,-1.313600,0.990600,-3.904400,0.975721,-3.940321,0.939800,-3.955200,-0.939800,-3.955200,-0.975721,-3.940321,-0.990600,-3.904400,-0.990600,-1.313600,-0.975721,-1.277679,-0.974257,-1.276272,-0.330200,-0.681757,-0.330200,0.896200,-0.315321,0.932121,-0.279400,0.947000,0.279400,0.947000,
0.315321,0.932121,0.315321,0.932121,$1*%
%AMFreePoly1*
4,1,39,0.535921,0.785921,0.550800,0.750000,0.550800,-0.750000,0.535921,-0.785921,0.500000,-0.800800,0.000000,-0.800800,-0.010328,-0.796522,-0.065263,-0.796522,-0.078411,-0.794791,-0.204490,-0.761009,-0.216742,-0.755934,-0.329781,-0.690671,-0.340302,-0.682598,-0.432598,-0.590302,-0.440671,-0.579781,-0.505934,-0.466742,-0.511009,-0.454490,-0.544791,-0.328411,-0.546522,-0.315263,-0.546522,-0.260327,
-0.550800,-0.250000,-0.550800,0.250000,-0.546522,0.260327,-0.546522,0.315263,-0.544791,0.328411,-0.511009,0.454490,-0.505934,0.466742,-0.440671,0.579781,-0.432598,0.590302,-0.340302,0.682598,-0.329781,0.690671,-0.216742,0.755934,-0.204490,0.761009,-0.078411,0.794791,-0.065263,0.796522,-0.010328,0.796522,0.000000,0.800800,0.500000,0.800800,0.535921,0.785921,0.535921,0.785921,
$1*%
%AMFreePoly2*
4,1,39,0.010328,0.796522,0.065263,0.796522,0.078411,0.794791,0.204490,0.761009,0.216742,0.755934,0.329781,0.690671,0.340302,0.682598,0.432598,0.590302,0.440671,0.579781,0.505934,0.466742,0.511009,0.454490,0.544791,0.328411,0.546522,0.315263,0.546522,0.260327,0.550800,0.250000,0.550800,-0.250000,0.546522,-0.260327,0.546522,-0.315263,0.544791,-0.328411,0.511009,-0.454490,
0.505934,-0.466742,0.440671,-0.579781,0.432598,-0.590302,0.340302,-0.682598,0.329781,-0.690671,0.216742,-0.755934,0.204490,-0.761009,0.078411,-0.794791,0.065263,-0.796522,0.010328,-0.796522,0.000000,-0.800800,-0.500000,-0.800800,-0.535921,-0.785921,-0.550800,-0.750000,-0.550800,0.750000,-0.535921,0.785921,-0.500000,0.800800,0.000000,0.800800,0.010328,0.796522,0.010328,0.796522,
$1*%
G04 Aperture macros list end*
%ADD10C,0.000000*%
%ADD11RoundRect,0.275400X0.300400X0.275400X-0.300400X0.275400X-0.300400X-0.275400X0.300400X-0.275400X0*%
%ADD12RoundRect,0.274190X0.876610X0.301610X-0.876610X0.301610X-0.876610X-0.301610X0.876610X-0.301610X0*%
%ADD13RoundRect,0.050800X0.698500X-0.279400X0.698500X0.279400X-0.698500X0.279400X-0.698500X-0.279400X0*%
%ADD14FreePoly0,90.000000*%
%ADD15RoundRect,0.262900X-0.325400X-0.262900X0.325400X-0.262900X0.325400X0.262900X-0.325400X0.262900X0*%
%ADD16RoundRect,0.050800X0.750000X0.750000X-0.750000X0.750000X-0.750000X-0.750000X0.750000X-0.750000X0*%
%ADD17RoundRect,0.050800X0.850000X0.850000X-0.850000X0.850000X-0.850000X-0.850000X0.850000X-0.850000X0*%
%ADD18C,1.801600*%
%ADD19RoundRect,0.050800X0.850000X-0.850000X0.850000X0.850000X-0.850000X0.850000X-0.850000X-0.850000X0*%
%ADD20RoundRect,0.262900X0.275400X0.262900X-0.275400X0.262900X-0.275400X-0.262900X0.275400X-0.262900X0*%
%ADD21RoundRect,0.262900X0.262900X-0.325400X0.262900X0.325400X-0.262900X0.325400X-0.262900X-0.325400X0*%
%ADD22RoundRect,0.185400X-0.185400X0.247900X-0.185400X-0.247900X0.185400X-0.247900X0.185400X0.247900X0*%
%ADD23RoundRect,0.125400X-0.242900X-0.125400X0.242900X-0.125400X0.242900X0.125400X-0.242900X0.125400X0*%
%ADD24RoundRect,0.050000X-0.212500X-0.212500X0.212500X-0.212500X0.212500X0.212500X-0.212500X0.212500X0*%
%ADD25RoundRect,0.050000X-0.100000X0.275000X-0.100000X-0.275000X0.100000X-0.275000X0.100000X0.275000X0*%
%ADD26RoundRect,0.050000X-0.275000X-0.100000X0.275000X-0.100000X0.275000X0.100000X-0.275000X0.100000X0*%
%ADD27RoundRect,0.275400X-0.407152X0.017678X0.017678X-0.407152X0.407152X-0.017678X-0.017678X0.407152X0*%
%ADD28RoundRect,0.274190X-0.833127X0.406586X0.406586X-0.833127X0.833127X-0.406586X-0.406586X0.833127X0*%
%ADD29RoundRect,0.125400X-0.125400X0.242900X-0.125400X-0.242900X0.125400X-0.242900X0.125400X0.242900X0*%
%ADD30RoundRect,0.262900X-0.262900X0.325400X-0.262900X-0.325400X0.262900X-0.325400X0.262900X0.325400X0*%
%ADD31C,1.541600*%
%ADD32RoundRect,0.275400X-0.300400X-0.275400X0.300400X-0.275400X0.300400X0.275400X-0.300400X0.275400X0*%
%ADD33RoundRect,0.274190X-0.876610X-0.301610X0.876610X-0.301610X0.876610X0.301610X-0.876610X0.301610X0*%
%ADD34RoundRect,0.262900X-0.262900X0.275400X-0.262900X-0.275400X0.262900X-0.275400X0.262900X0.275400X0*%
%ADD35RoundRect,0.262900X0.262900X-0.275400X0.262900X0.275400X-0.262900X0.275400X-0.262900X-0.275400X0*%
%ADD36RoundRect,0.275400X-0.017678X-0.407152X0.407152X0.017678X0.017678X0.407152X-0.407152X-0.017678X0*%
%ADD37RoundRect,0.274190X-0.406586X-0.833127X0.833127X0.406586X0.406586X0.833127X-0.833127X-0.406586X0*%
%ADD38RoundRect,0.050000X0.212500X0.212500X-0.212500X0.212500X-0.212500X-0.212500X0.212500X-0.212500X0*%
%ADD39RoundRect,0.050000X0.100000X-0.275000X0.100000X0.275000X-0.100000X0.275000X-0.100000X-0.275000X0*%
%ADD40RoundRect,0.050000X0.275000X0.100000X-0.275000X0.100000X-0.275000X-0.100000X0.275000X-0.100000X0*%
%ADD41RoundRect,0.275400X-0.275400X0.300400X-0.275400X-0.300400X0.275400X-0.300400X0.275400X0.300400X0*%
%ADD42RoundRect,0.274190X-0.301610X0.876610X-0.301610X-0.876610X0.301610X-0.876610X0.301610X0.876610X0*%
%ADD43RoundRect,0.185400X0.247900X0.185400X-0.247900X0.185400X-0.247900X-0.185400X0.247900X-0.185400X0*%
%ADD44RoundRect,0.400400X0.650400X0.400400X-0.650400X0.400400X-0.650400X-0.400400X0.650400X-0.400400X0*%
%ADD45RoundRect,0.525400X0.525400X1.425400X-0.525400X1.425400X-0.525400X-1.425400X0.525400X-1.425400X0*%
%ADD46RoundRect,0.125400X0.125400X-0.242900X0.125400X0.242900X-0.125400X0.242900X-0.125400X-0.242900X0*%
%ADD47RoundRect,0.050000X0.000000X-0.300520X0.300520X0.000000X0.000000X0.300520X-0.300520X0.000000X0*%
%ADD48RoundRect,0.050000X-0.265165X0.123744X0.123744X-0.265165X0.265165X-0.123744X-0.123744X0.265165X0*%
%ADD49RoundRect,0.050000X-0.123744X-0.265165X0.265165X0.123744X0.123744X0.265165X-0.265165X-0.123744X0*%
%ADD50RoundRect,0.050800X-0.279400X-0.698500X0.279400X-0.698500X0.279400X0.698500X-0.279400X0.698500X0*%
%ADD51FreePoly0,0.000000*%
%ADD52RoundRect,0.400400X-0.650400X-0.400400X0.650400X-0.400400X0.650400X0.400400X-0.650400X0.400400X0*%
%ADD53RoundRect,0.525400X-0.525400X-1.425400X0.525400X-1.425400X0.525400X1.425400X-0.525400X1.425400X0*%
%ADD54RoundRect,0.262900X0.325400X0.262900X-0.325400X0.262900X-0.325400X-0.262900X0.325400X-0.262900X0*%
%ADD55RoundRect,0.125400X0.176422X0.208808X-0.272399X0.022901X-0.176422X-0.208808X0.272399X-0.022901X0*%
%ADD56RoundRect,0.100400X0.140400X0.100400X-0.140400X0.100400X-0.140400X-0.100400X0.140400X-0.100400X0*%
%ADD57RoundRect,0.125400X-0.083085X-0.260427X0.260427X0.083085X0.083085X0.260427X-0.260427X-0.083085X0*%
%ADD58RoundRect,0.275400X0.275400X-0.300400X0.275400X0.300400X-0.275400X0.300400X-0.275400X-0.300400X0*%
%ADD59RoundRect,0.274190X0.301610X-0.876610X0.301610X0.876610X-0.301610X0.876610X-0.301610X-0.876610X0*%
%ADD60RoundRect,0.050800X-0.800000X0.800000X-0.800000X-0.800000X0.800000X-0.800000X0.800000X0.800000X0*%
%ADD61RoundRect,0.050800X-1.300000X0.800000X-1.300000X-0.800000X1.300000X-0.800000X1.300000X0.800000X0*%
%ADD62RoundRect,0.050800X-0.750000X1.000000X-0.750000X-1.000000X0.750000X-1.000000X0.750000X1.000000X0*%
%ADD63RoundRect,0.050800X0.800000X-0.800000X0.800000X0.800000X-0.800000X0.800000X-0.800000X-0.800000X0*%
%ADD64RoundRect,0.050800X1.300000X-0.800000X1.300000X0.800000X-1.300000X0.800000X-1.300000X-0.800000X0*%
%ADD65RoundRect,0.050800X0.750000X-1.000000X0.750000X1.000000X-0.750000X1.000000X-0.750000X-1.000000X0*%
%ADD66RoundRect,0.125400X0.242900X0.125400X-0.242900X0.125400X-0.242900X-0.125400X0.242900X-0.125400X0*%
%ADD67RoundRect,0.125400X0.000928X0.273358X-0.223390X-0.157552X-0.000928X-0.273358X0.223390X0.157552X0*%
%ADD68RoundRect,0.175400X0.850400X0.175400X-0.850400X0.175400X-0.850400X-0.175400X0.850400X-0.175400X0*%
%ADD69RoundRect,0.050000X0.212500X-0.212500X0.212500X0.212500X-0.212500X0.212500X-0.212500X-0.212500X0*%
%ADD70FreePoly1,180.000000*%
%ADD71FreePoly2,180.000000*%
%ADD72RoundRect,0.087900X0.087900X-0.400400X0.087900X0.400400X-0.087900X0.400400X-0.087900X-0.400400X0*%
%ADD73RoundRect,0.087900X0.400400X-0.087900X0.400400X0.087900X-0.400400X0.087900X-0.400400X-0.087900X0*%
%ADD74RoundRect,0.050800X1.150000X-1.150000X1.150000X1.150000X-1.150000X1.150000X-1.150000X-1.150000X0*%
G04 APERTURE END LIST*
%TO.C,J3*%
G36*
X132915000Y-132560000D02*
G01*
X130825000Y-132560000D01*
X130825000Y-134440000D01*
X132915000Y-134440000D01*
X132915000Y-132560000D01*
G37*
D10*
%TO.C,J8*%
G36*
X145478374Y-103049013D02*
G01*
X144149013Y-104378374D01*
X142671160Y-102900520D01*
X144000520Y-101571160D01*
X145478374Y-103049013D01*
G37*
%TO.C,J5*%
G36*
X144185000Y-112440000D02*
G01*
X146275000Y-112440000D01*
X146275000Y-110560000D01*
X144185000Y-110560000D01*
X144185000Y-112440000D01*
G37*
%TO.C,J9*%
G36*
X152820836Y-97208525D02*
G01*
X151342982Y-98686378D01*
X150013622Y-97357018D01*
X151491475Y-95879164D01*
X152820836Y-97208525D01*
G37*
%TO.C,J17*%
G36*
X133660000Y-169885000D02*
G01*
X135540000Y-169885000D01*
X135540000Y-171975000D01*
X133660000Y-171975000D01*
X133660000Y-169885000D01*
G37*
%TO.C,J10*%
G36*
X148615000Y-174160000D02*
G01*
X146525000Y-174160000D01*
X146525000Y-176040000D01*
X148615000Y-176040000D01*
X148615000Y-174160000D01*
G37*
%TO.C,IQ_OUT*%
G36*
X126865000Y-155260000D02*
G01*
X124775000Y-155260000D01*
X124775000Y-157140000D01*
X126865000Y-157140000D01*
X126865000Y-155260000D01*
G37*
%TO.C,J13*%
G36*
X146760000Y-168085000D02*
G01*
X148640000Y-168085000D01*
X148640000Y-170175000D01*
X146760000Y-170175000D01*
X146760000Y-168085000D01*
G37*
%TO.C,J4*%
G36*
X132915000Y-127460000D02*
G01*
X130825000Y-127460000D01*
X130825000Y-129340000D01*
X132915000Y-129340000D01*
X132915000Y-127460000D01*
G37*
%TO.C,J11*%
G36*
X125860000Y-169585000D02*
G01*
X127740000Y-169585000D01*
X127740000Y-171675000D01*
X125860000Y-171675000D01*
X125860000Y-169585000D01*
G37*
%TO.C,J15*%
G36*
X130985000Y-139740000D02*
G01*
X133075000Y-139740000D01*
X133075000Y-137860000D01*
X130985000Y-137860000D01*
X130985000Y-139740000D01*
G37*
%TO.C,J14*%
G36*
X128140000Y-124915000D02*
G01*
X126260000Y-124915000D01*
X126260000Y-122825000D01*
X128140000Y-122825000D01*
X128140000Y-124915000D01*
G37*
%TO.C,J7*%
G36*
X127080000Y-174160000D02*
G01*
X124990000Y-174160000D01*
X124990000Y-176040000D01*
X127080000Y-176040000D01*
X127080000Y-174160000D01*
G37*
%TO.C,J1*%
G36*
X132360000Y-122905000D02*
G01*
X134240000Y-122905000D01*
X134240000Y-124995000D01*
X132360000Y-124995000D01*
X132360000Y-122905000D01*
G37*
%TO.C,J12*%
G36*
X127740000Y-161665000D02*
G01*
X125860000Y-161665000D01*
X125860000Y-159575000D01*
X127740000Y-159575000D01*
X127740000Y-161665000D01*
G37*
%TO.C,J6*%
G36*
X142685000Y-176040000D02*
G01*
X144775000Y-176040000D01*
X144775000Y-174160000D01*
X142685000Y-174160000D01*
X142685000Y-176040000D01*
G37*
%TO.C,J16*%
G36*
X144115000Y-156460000D02*
G01*
X142025000Y-156460000D01*
X142025000Y-158340000D01*
X144115000Y-158340000D01*
X144115000Y-156460000D01*
G37*
%TO.C,JP1*%
G36*
X139550000Y-163349998D02*
G01*
X139250000Y-163349998D01*
X139250000Y-164849998D01*
X139550000Y-164849998D01*
X139550000Y-163349998D01*
G37*
%TD*%
D11*
%TO.C,J3*%
X133450000Y-133500000D03*
D12*
X131925000Y-132025000D03*
X131925000Y-134975000D03*
%TD*%
D13*
%TO.C,U3*%
X139198200Y-131428500D03*
D14*
X139395900Y-129928500D03*
D13*
X139198200Y-128428500D03*
%TD*%
D15*
%TO.C,C25*%
X138537500Y-158499998D03*
X140262500Y-158499998D03*
%TD*%
D16*
%TO.C,IBBN*%
X140100000Y-154000000D03*
%TD*%
D17*
%TO.C,J2*%
X151600000Y-119920000D03*
D18*
X151600000Y-117380000D03*
X151600000Y-114840000D03*
X151600000Y-112300000D03*
X151600000Y-109760000D03*
X151600000Y-107220000D03*
X151600000Y-104680000D03*
%TD*%
D19*
%TO.C,TP1*%
X152100000Y-136300000D03*
%TD*%
%TO.C,TP2*%
X152100000Y-139900000D03*
%TD*%
D20*
%TO.C,R4*%
X144112500Y-150800000D03*
X142287500Y-150800000D03*
%TD*%
D21*
%TO.C,C17*%
X149100000Y-136462500D03*
X149100000Y-134737500D03*
%TD*%
D22*
%TO.C,L2*%
X137300000Y-127227499D03*
X137300000Y-128372499D03*
%TD*%
D23*
%TO.C,R6*%
X150592500Y-157400000D03*
X151407500Y-157400000D03*
%TD*%
D24*
%TO.C,U5*%
X139812500Y-97512500D03*
D25*
X139300000Y-97575000D03*
X138900000Y-97575000D03*
D24*
X138387500Y-97512500D03*
D26*
X138325000Y-97000000D03*
D24*
X138387500Y-96487500D03*
D25*
X138900000Y-96425000D03*
X139300000Y-96425000D03*
D24*
X139812500Y-96487500D03*
D26*
X139875000Y-97000000D03*
%TD*%
D27*
%TO.C,J8*%
X142957538Y-101857538D03*
D28*
X142992893Y-103978858D03*
X145078858Y-101892893D03*
%TD*%
D29*
%TO.C,C21*%
X133700000Y-164592499D03*
X133700000Y-165407499D03*
%TD*%
%TO.C,C26*%
X134600000Y-164592499D03*
X134600000Y-165407499D03*
%TD*%
D30*
%TO.C,C15*%
X135600000Y-138837500D03*
X135600000Y-140562500D03*
%TD*%
D20*
%TO.C,R2*%
X149224000Y-124600001D03*
X147399000Y-124600001D03*
%TD*%
D31*
%TO.C,RV1*%
X146260000Y-142930000D03*
X148800000Y-145470000D03*
X151340000Y-142930000D03*
%TD*%
D32*
%TO.C,J5*%
X143650000Y-111500000D03*
D33*
X145175000Y-112975000D03*
X145175000Y-110025000D03*
%TD*%
D34*
%TO.C,R7*%
X140299999Y-147687500D03*
X140299999Y-149512500D03*
%TD*%
D35*
%TO.C,R10*%
X129000000Y-149612500D03*
X129000000Y-147787500D03*
%TD*%
D36*
%TO.C,J9*%
X150300000Y-98400000D03*
D37*
X152421320Y-98364645D03*
X150335355Y-96278680D03*
%TD*%
D21*
%TO.C,C4*%
X141900000Y-117962500D03*
X141900000Y-116237500D03*
%TD*%
D38*
%TO.C,U14*%
X130787500Y-112487500D03*
D39*
X131300000Y-112425000D03*
X131700000Y-112425000D03*
D38*
X132212500Y-112487500D03*
D40*
X132275000Y-113000000D03*
D38*
X132212500Y-113512500D03*
D39*
X131700000Y-113575000D03*
X131300000Y-113575000D03*
D38*
X130787500Y-113512500D03*
D40*
X130725000Y-113000000D03*
%TD*%
D23*
%TO.C,C30*%
X130442500Y-156200000D03*
X131257500Y-156200000D03*
%TD*%
D41*
%TO.C,J17*%
X134600000Y-169350000D03*
D42*
X133125000Y-170875000D03*
X136075000Y-170875000D03*
%TD*%
D30*
%TO.C,C2*%
X149100000Y-138237500D03*
X149100000Y-139962500D03*
%TD*%
D15*
%TO.C,C13*%
X142337500Y-152300000D03*
X144062500Y-152300000D03*
%TD*%
D43*
%TO.C,L1*%
X140272500Y-116000000D03*
X139127500Y-116000000D03*
%TD*%
D44*
%TO.C,U2*%
X152250000Y-126900000D03*
X152250000Y-129200000D03*
D45*
X145950000Y-129200000D03*
D44*
X152250000Y-131500000D03*
%TD*%
D11*
%TO.C,J10*%
X149150000Y-175100000D03*
D12*
X147625000Y-173625000D03*
X147625000Y-176575000D03*
%TD*%
D29*
%TO.C,C6*%
X139100000Y-113792500D03*
X139100000Y-114607500D03*
%TD*%
%TO.C,C8*%
X137400000Y-125092500D03*
X137400000Y-125907500D03*
%TD*%
D46*
%TO.C,C5*%
X136100000Y-116007500D03*
X136100000Y-115192500D03*
%TD*%
D47*
%TO.C,U6*%
X133418198Y-98793414D03*
D48*
X133100000Y-99200000D03*
X132817157Y-99482843D03*
D47*
X132410571Y-99801041D03*
D49*
X132003984Y-99482843D03*
D47*
X131685786Y-99076256D03*
D48*
X132003984Y-98669670D03*
X132286827Y-98386827D03*
D47*
X132693413Y-98068629D03*
D49*
X133100000Y-98386827D03*
%TD*%
D50*
%TO.C,U15*%
X136100000Y-117906100D03*
D51*
X137600000Y-118103800D03*
D50*
X139100000Y-117906100D03*
%TD*%
D52*
%TO.C,U10*%
X146350000Y-154800000D03*
X146350000Y-152500000D03*
D53*
X152650000Y-152500000D03*
D52*
X146350000Y-150200000D03*
%TD*%
D54*
%TO.C,C1*%
X140362499Y-126200000D03*
X138637499Y-126200000D03*
%TD*%
D55*
%TO.C,C19*%
X135732130Y-132383941D03*
X134979168Y-132695827D03*
%TD*%
D11*
%TO.C,IQ_OUT*%
X127400000Y-156200000D03*
D12*
X125875000Y-154725000D03*
X125875000Y-157675000D03*
%TD*%
D41*
%TO.C,J13*%
X147700000Y-167550000D03*
D42*
X146225000Y-169075000D03*
X149175000Y-169075000D03*
%TD*%
D46*
%TO.C,C29*%
X133300000Y-116707500D03*
X133300000Y-115892500D03*
%TD*%
D11*
%TO.C,J4*%
X133450000Y-128400000D03*
D12*
X131925000Y-126925000D03*
X131925000Y-129875000D03*
%TD*%
D41*
%TO.C,J11*%
X126800000Y-169050000D03*
D42*
X125325000Y-170575000D03*
X128275000Y-170575000D03*
%TD*%
D56*
%TO.C,U7*%
X126940000Y-137900000D03*
X127460000Y-137900000D03*
%TD*%
D23*
%TO.C,C12*%
X135225000Y-128400000D03*
X136040000Y-128400000D03*
%TD*%
D32*
%TO.C,J15*%
X130450000Y-138800000D03*
D33*
X131975000Y-140275000D03*
X131975000Y-137325000D03*
%TD*%
D20*
%TO.C,R3*%
X144112500Y-153800000D03*
X142287500Y-153800000D03*
%TD*%
D57*
%TO.C,C28*%
X148311854Y-100388146D03*
X148888146Y-99811854D03*
%TD*%
D58*
%TO.C,J14*%
X127200000Y-125450000D03*
D59*
X128675000Y-123925000D03*
X125725000Y-123925000D03*
%TD*%
D54*
%TO.C,C27*%
X134562500Y-153400000D03*
X132837500Y-153400000D03*
%TD*%
D16*
%TO.C,IBBP*%
X137000000Y-154000000D03*
%TD*%
D35*
%TO.C,R8*%
X138499999Y-149512499D03*
X138499999Y-147687499D03*
%TD*%
D11*
%TO.C,J7*%
X127615000Y-175100000D03*
D12*
X126090000Y-173625000D03*
X126090000Y-176575000D03*
%TD*%
D60*
%TO.C,U1*%
X138800000Y-134300000D03*
D61*
X141800000Y-134300000D03*
D60*
X144800000Y-134300000D03*
D62*
X145850000Y-137400000D03*
D63*
X144800000Y-140500000D03*
D64*
X141800000Y-140500000D03*
D63*
X138800000Y-140500000D03*
D65*
X137750000Y-137400000D03*
%TD*%
D31*
%TO.C,RV3*%
X126060000Y-142930000D03*
X128600000Y-145470000D03*
X131140000Y-142930000D03*
%TD*%
D54*
%TO.C,C14*%
X153162500Y-147800000D03*
X151437500Y-147800000D03*
%TD*%
D15*
%TO.C,C18*%
X150937500Y-133700000D03*
X152662500Y-133700000D03*
%TD*%
%TO.C,C20*%
X147837500Y-147800001D03*
X149562500Y-147800001D03*
%TD*%
D66*
%TO.C,R5*%
X125607500Y-138800001D03*
X124792500Y-138800001D03*
%TD*%
D15*
%TO.C,C7*%
X142037500Y-126200001D03*
X143762500Y-126200001D03*
%TD*%
D20*
%TO.C,R1*%
X152724001Y-124599999D03*
X150899001Y-124599999D03*
%TD*%
D21*
%TO.C,C10*%
X143700000Y-117962500D03*
X143700000Y-116237500D03*
%TD*%
D15*
%TO.C,C23*%
X138537500Y-161900000D03*
X140262500Y-161900000D03*
%TD*%
D67*
%TO.C,C9*%
X136187870Y-131554911D03*
X135811544Y-132277825D03*
%TD*%
D41*
%TO.C,J1*%
X133300000Y-122370000D03*
D42*
X131825000Y-123895000D03*
X134775000Y-123895000D03*
%TD*%
D58*
%TO.C,J12*%
X126800000Y-162200000D03*
D59*
X128275000Y-160675000D03*
X125325000Y-160675000D03*
%TD*%
D68*
%TO.C,U11*%
X136174999Y-147895000D03*
X136174999Y-149165000D03*
X136174999Y-150435000D03*
X136174999Y-151705000D03*
X131224999Y-151705000D03*
X131224999Y-150435000D03*
X131224999Y-149165000D03*
X131224999Y-147895000D03*
%TD*%
D15*
%TO.C,C24*%
X138537500Y-160199999D03*
X140262500Y-160199999D03*
%TD*%
D32*
%TO.C,J6*%
X142150000Y-175100000D03*
D33*
X143675000Y-176575000D03*
X143675000Y-173625000D03*
%TD*%
D11*
%TO.C,J16*%
X144650000Y-157400000D03*
D12*
X143125000Y-155925000D03*
X143125000Y-158875000D03*
%TD*%
D69*
%TO.C,U13*%
X129212500Y-106387500D03*
D26*
X129275000Y-106900000D03*
X129275000Y-107300000D03*
D69*
X129212500Y-107812500D03*
D39*
X128700000Y-107875000D03*
D69*
X128187500Y-107812500D03*
D26*
X128125000Y-107300000D03*
X128125000Y-106900000D03*
D69*
X128187500Y-106387500D03*
D39*
X128700000Y-106325000D03*
%TD*%
D16*
%TO.C,QBBP*%
X128500000Y-151800000D03*
%TD*%
D54*
%TO.C,C3*%
X145962499Y-147800000D03*
X144237499Y-147800000D03*
%TD*%
D31*
%TO.C,RV2*%
X136160000Y-142930000D03*
X138700000Y-145470000D03*
X141240000Y-142930000D03*
%TD*%
D15*
%TO.C,C16*%
X144037500Y-132300000D03*
X145762500Y-132300000D03*
%TD*%
D34*
%TO.C,R9*%
X127199998Y-147787500D03*
X127199998Y-149612500D03*
%TD*%
D24*
%TO.C,U4*%
X146712500Y-98412500D03*
D25*
X146200000Y-98475000D03*
X145800000Y-98475000D03*
D24*
X145287500Y-98412500D03*
D26*
X145225000Y-97900000D03*
D24*
X145287500Y-97387500D03*
D25*
X145800000Y-97325000D03*
X146200000Y-97325000D03*
D24*
X146712500Y-97387500D03*
D26*
X146775000Y-97900000D03*
%TD*%
D16*
%TO.C,QBBN*%
X125400001Y-151800000D03*
%TD*%
D46*
%TO.C,C11*%
X140700000Y-117907500D03*
X140700000Y-117092500D03*
%TD*%
D70*
%TO.C,JP1*%
X140050000Y-164099998D03*
D71*
X138750000Y-164099998D03*
%TD*%
D54*
%TO.C,C22*%
X140262500Y-156800000D03*
X138537500Y-156800000D03*
%TD*%
D72*
%TO.C,U9*%
X135600000Y-162499998D03*
X135100000Y-162499998D03*
X134600000Y-162499998D03*
X134100000Y-162499998D03*
X133600000Y-162499998D03*
X133100000Y-162499998D03*
D73*
X132412500Y-161812498D03*
X132412500Y-161312498D03*
X132412500Y-160812498D03*
X132412500Y-160312498D03*
X132412500Y-159812498D03*
X132412500Y-159312498D03*
D72*
X133100000Y-158624998D03*
X133600000Y-158624998D03*
X134100000Y-158624998D03*
X134600000Y-158624998D03*
X135100000Y-158624998D03*
X135600000Y-158624998D03*
D73*
X136287500Y-159312498D03*
X136287500Y-159812498D03*
X136287500Y-160312498D03*
X136287500Y-160812498D03*
X136287500Y-161312498D03*
X136287500Y-161812498D03*
D74*
X134350000Y-160562498D03*
%TD*%
M02*
