%TF.GenerationSoftware,KiCad,Pcbnew,9.0.7*%
%TF.CreationDate,2026-02-12T18:36:43-06:00*%
%TF.ProjectId,switchedPhaseShift,73776974-6368-4656-9450-686173655368,rev?*%
%TF.SameCoordinates,Original*%
%TF.FileFunction,Legend,Top*%
%TF.FilePolarity,Positive*%
%FSLAX46Y46*%
G04 Gerber Fmt 4.6, Leading zero omitted, Abs format (unit mm)*
G04 Created by KiCad (PCBNEW 9.0.7) date 2026-02-12 18:36:43*
%MOMM*%
%LPD*%
G01*
G04 APERTURE LIST*
%ADD10C,0.127000*%
%ADD11C,0.120000*%
G04 APERTURE END LIST*
D10*
X148593075Y-107575776D02*
X148545456Y-107623396D01*
X148545456Y-107623396D02*
X148402599Y-107671015D01*
X148402599Y-107671015D02*
X148307361Y-107671015D01*
X148307361Y-107671015D02*
X148164504Y-107623396D01*
X148164504Y-107623396D02*
X148069266Y-107528157D01*
X148069266Y-107528157D02*
X148021647Y-107432919D01*
X148021647Y-107432919D02*
X147974028Y-107242443D01*
X147974028Y-107242443D02*
X147974028Y-107099586D01*
X147974028Y-107099586D02*
X148021647Y-106909110D01*
X148021647Y-106909110D02*
X148069266Y-106813872D01*
X148069266Y-106813872D02*
X148164504Y-106718634D01*
X148164504Y-106718634D02*
X148307361Y-106671015D01*
X148307361Y-106671015D02*
X148402599Y-106671015D01*
X148402599Y-106671015D02*
X148545456Y-106718634D01*
X148545456Y-106718634D02*
X148593075Y-106766253D01*
X148974028Y-106766253D02*
X149021647Y-106718634D01*
X149021647Y-106718634D02*
X149116885Y-106671015D01*
X149116885Y-106671015D02*
X149354980Y-106671015D01*
X149354980Y-106671015D02*
X149450218Y-106718634D01*
X149450218Y-106718634D02*
X149497837Y-106766253D01*
X149497837Y-106766253D02*
X149545456Y-106861491D01*
X149545456Y-106861491D02*
X149545456Y-106956729D01*
X149545456Y-106956729D02*
X149497837Y-107099586D01*
X149497837Y-107099586D02*
X148926409Y-107671015D01*
X148926409Y-107671015D02*
X149545456Y-107671015D01*
X148593075Y-110175776D02*
X148545456Y-110223396D01*
X148545456Y-110223396D02*
X148402599Y-110271015D01*
X148402599Y-110271015D02*
X148307361Y-110271015D01*
X148307361Y-110271015D02*
X148164504Y-110223396D01*
X148164504Y-110223396D02*
X148069266Y-110128157D01*
X148069266Y-110128157D02*
X148021647Y-110032919D01*
X148021647Y-110032919D02*
X147974028Y-109842443D01*
X147974028Y-109842443D02*
X147974028Y-109699586D01*
X147974028Y-109699586D02*
X148021647Y-109509110D01*
X148021647Y-109509110D02*
X148069266Y-109413872D01*
X148069266Y-109413872D02*
X148164504Y-109318634D01*
X148164504Y-109318634D02*
X148307361Y-109271015D01*
X148307361Y-109271015D02*
X148402599Y-109271015D01*
X148402599Y-109271015D02*
X148545456Y-109318634D01*
X148545456Y-109318634D02*
X148593075Y-109366253D01*
X148926409Y-109271015D02*
X149545456Y-109271015D01*
X149545456Y-109271015D02*
X149212123Y-109651967D01*
X149212123Y-109651967D02*
X149354980Y-109651967D01*
X149354980Y-109651967D02*
X149450218Y-109699586D01*
X149450218Y-109699586D02*
X149497837Y-109747205D01*
X149497837Y-109747205D02*
X149545456Y-109842443D01*
X149545456Y-109842443D02*
X149545456Y-110080538D01*
X149545456Y-110080538D02*
X149497837Y-110175776D01*
X149497837Y-110175776D02*
X149450218Y-110223396D01*
X149450218Y-110223396D02*
X149354980Y-110271015D01*
X149354980Y-110271015D02*
X149069266Y-110271015D01*
X149069266Y-110271015D02*
X148974028Y-110223396D01*
X148974028Y-110223396D02*
X148926409Y-110175776D01*
X148593075Y-112775776D02*
X148545456Y-112823396D01*
X148545456Y-112823396D02*
X148402599Y-112871015D01*
X148402599Y-112871015D02*
X148307361Y-112871015D01*
X148307361Y-112871015D02*
X148164504Y-112823396D01*
X148164504Y-112823396D02*
X148069266Y-112728157D01*
X148069266Y-112728157D02*
X148021647Y-112632919D01*
X148021647Y-112632919D02*
X147974028Y-112442443D01*
X147974028Y-112442443D02*
X147974028Y-112299586D01*
X147974028Y-112299586D02*
X148021647Y-112109110D01*
X148021647Y-112109110D02*
X148069266Y-112013872D01*
X148069266Y-112013872D02*
X148164504Y-111918634D01*
X148164504Y-111918634D02*
X148307361Y-111871015D01*
X148307361Y-111871015D02*
X148402599Y-111871015D01*
X148402599Y-111871015D02*
X148545456Y-111918634D01*
X148545456Y-111918634D02*
X148593075Y-111966253D01*
X149450218Y-112204348D02*
X149450218Y-112871015D01*
X149212123Y-111823396D02*
X148974028Y-112537681D01*
X148974028Y-112537681D02*
X149593075Y-112537681D01*
X147547836Y-119318634D02*
X147452598Y-119271015D01*
X147452598Y-119271015D02*
X147309741Y-119271015D01*
X147309741Y-119271015D02*
X147166884Y-119318634D01*
X147166884Y-119318634D02*
X147071646Y-119413872D01*
X147071646Y-119413872D02*
X147024027Y-119509110D01*
X147024027Y-119509110D02*
X146976408Y-119699586D01*
X146976408Y-119699586D02*
X146976408Y-119842443D01*
X146976408Y-119842443D02*
X147024027Y-120032919D01*
X147024027Y-120032919D02*
X147071646Y-120128157D01*
X147071646Y-120128157D02*
X147166884Y-120223396D01*
X147166884Y-120223396D02*
X147309741Y-120271015D01*
X147309741Y-120271015D02*
X147404979Y-120271015D01*
X147404979Y-120271015D02*
X147547836Y-120223396D01*
X147547836Y-120223396D02*
X147595455Y-120175776D01*
X147595455Y-120175776D02*
X147595455Y-119842443D01*
X147595455Y-119842443D02*
X147404979Y-119842443D01*
X148024027Y-120271015D02*
X148024027Y-119271015D01*
X148024027Y-119271015D02*
X148595455Y-120271015D01*
X148595455Y-120271015D02*
X148595455Y-119271015D01*
X149071646Y-120271015D02*
X149071646Y-119271015D01*
X149071646Y-119271015D02*
X149309741Y-119271015D01*
X149309741Y-119271015D02*
X149452598Y-119318634D01*
X149452598Y-119318634D02*
X149547836Y-119413872D01*
X149547836Y-119413872D02*
X149595455Y-119509110D01*
X149595455Y-119509110D02*
X149643074Y-119699586D01*
X149643074Y-119699586D02*
X149643074Y-119842443D01*
X149643074Y-119842443D02*
X149595455Y-120032919D01*
X149595455Y-120032919D02*
X149547836Y-120128157D01*
X149547836Y-120128157D02*
X149452598Y-120223396D01*
X149452598Y-120223396D02*
X149309741Y-120271015D01*
X149309741Y-120271015D02*
X149071646Y-120271015D01*
X147024027Y-117390062D02*
X147785932Y-117390062D01*
X147404979Y-117771015D02*
X147404979Y-117009110D01*
X148738312Y-116771015D02*
X148262122Y-116771015D01*
X148262122Y-116771015D02*
X148214503Y-117247205D01*
X148214503Y-117247205D02*
X148262122Y-117199586D01*
X148262122Y-117199586D02*
X148357360Y-117151967D01*
X148357360Y-117151967D02*
X148595455Y-117151967D01*
X148595455Y-117151967D02*
X148690693Y-117199586D01*
X148690693Y-117199586D02*
X148738312Y-117247205D01*
X148738312Y-117247205D02*
X148785931Y-117342443D01*
X148785931Y-117342443D02*
X148785931Y-117580538D01*
X148785931Y-117580538D02*
X148738312Y-117675776D01*
X148738312Y-117675776D02*
X148690693Y-117723396D01*
X148690693Y-117723396D02*
X148595455Y-117771015D01*
X148595455Y-117771015D02*
X148357360Y-117771015D01*
X148357360Y-117771015D02*
X148262122Y-117723396D01*
X148262122Y-117723396D02*
X148214503Y-117675776D01*
X149071646Y-116771015D02*
X149404979Y-117771015D01*
X149404979Y-117771015D02*
X149738312Y-116771015D01*
X148593075Y-115175776D02*
X148545456Y-115223396D01*
X148545456Y-115223396D02*
X148402599Y-115271015D01*
X148402599Y-115271015D02*
X148307361Y-115271015D01*
X148307361Y-115271015D02*
X148164504Y-115223396D01*
X148164504Y-115223396D02*
X148069266Y-115128157D01*
X148069266Y-115128157D02*
X148021647Y-115032919D01*
X148021647Y-115032919D02*
X147974028Y-114842443D01*
X147974028Y-114842443D02*
X147974028Y-114699586D01*
X147974028Y-114699586D02*
X148021647Y-114509110D01*
X148021647Y-114509110D02*
X148069266Y-114413872D01*
X148069266Y-114413872D02*
X148164504Y-114318634D01*
X148164504Y-114318634D02*
X148307361Y-114271015D01*
X148307361Y-114271015D02*
X148402599Y-114271015D01*
X148402599Y-114271015D02*
X148545456Y-114318634D01*
X148545456Y-114318634D02*
X148593075Y-114366253D01*
X149497837Y-114271015D02*
X149021647Y-114271015D01*
X149021647Y-114271015D02*
X148974028Y-114747205D01*
X148974028Y-114747205D02*
X149021647Y-114699586D01*
X149021647Y-114699586D02*
X149116885Y-114651967D01*
X149116885Y-114651967D02*
X149354980Y-114651967D01*
X149354980Y-114651967D02*
X149450218Y-114699586D01*
X149450218Y-114699586D02*
X149497837Y-114747205D01*
X149497837Y-114747205D02*
X149545456Y-114842443D01*
X149545456Y-114842443D02*
X149545456Y-115080538D01*
X149545456Y-115080538D02*
X149497837Y-115175776D01*
X149497837Y-115175776D02*
X149450218Y-115223396D01*
X149450218Y-115223396D02*
X149354980Y-115271015D01*
X149354980Y-115271015D02*
X149116885Y-115271015D01*
X149116885Y-115271015D02*
X149021647Y-115223396D01*
X149021647Y-115223396D02*
X148974028Y-115175776D01*
X148593075Y-105075776D02*
X148545456Y-105123396D01*
X148545456Y-105123396D02*
X148402599Y-105171015D01*
X148402599Y-105171015D02*
X148307361Y-105171015D01*
X148307361Y-105171015D02*
X148164504Y-105123396D01*
X148164504Y-105123396D02*
X148069266Y-105028157D01*
X148069266Y-105028157D02*
X148021647Y-104932919D01*
X148021647Y-104932919D02*
X147974028Y-104742443D01*
X147974028Y-104742443D02*
X147974028Y-104599586D01*
X147974028Y-104599586D02*
X148021647Y-104409110D01*
X148021647Y-104409110D02*
X148069266Y-104313872D01*
X148069266Y-104313872D02*
X148164504Y-104218634D01*
X148164504Y-104218634D02*
X148307361Y-104171015D01*
X148307361Y-104171015D02*
X148402599Y-104171015D01*
X148402599Y-104171015D02*
X148545456Y-104218634D01*
X148545456Y-104218634D02*
X148593075Y-104266253D01*
X149545456Y-105171015D02*
X148974028Y-105171015D01*
X149259742Y-105171015D02*
X149259742Y-104171015D01*
X149259742Y-104171015D02*
X149164504Y-104313872D01*
X149164504Y-104313872D02*
X149069266Y-104409110D01*
X149069266Y-104409110D02*
X148974028Y-104456729D01*
X150281365Y-139045456D02*
X150328984Y-138950218D01*
X150328984Y-138950218D02*
X150328984Y-138807361D01*
X150328984Y-138807361D02*
X150281365Y-138664504D01*
X150281365Y-138664504D02*
X150186127Y-138569266D01*
X150186127Y-138569266D02*
X150090889Y-138521647D01*
X150090889Y-138521647D02*
X149900413Y-138474028D01*
X149900413Y-138474028D02*
X149757556Y-138474028D01*
X149757556Y-138474028D02*
X149567080Y-138521647D01*
X149567080Y-138521647D02*
X149471842Y-138569266D01*
X149471842Y-138569266D02*
X149376604Y-138664504D01*
X149376604Y-138664504D02*
X149328984Y-138807361D01*
X149328984Y-138807361D02*
X149328984Y-138902599D01*
X149328984Y-138902599D02*
X149376604Y-139045456D01*
X149376604Y-139045456D02*
X149424223Y-139093075D01*
X149424223Y-139093075D02*
X149757556Y-139093075D01*
X149757556Y-139093075D02*
X149757556Y-138902599D01*
X149328984Y-139521647D02*
X150328984Y-139521647D01*
X150328984Y-139521647D02*
X149328984Y-140093075D01*
X149328984Y-140093075D02*
X150328984Y-140093075D01*
X149328984Y-140569266D02*
X150328984Y-140569266D01*
X150328984Y-140569266D02*
X150328984Y-140807361D01*
X150328984Y-140807361D02*
X150281365Y-140950218D01*
X150281365Y-140950218D02*
X150186127Y-141045456D01*
X150186127Y-141045456D02*
X150090889Y-141093075D01*
X150090889Y-141093075D02*
X149900413Y-141140694D01*
X149900413Y-141140694D02*
X149757556Y-141140694D01*
X149757556Y-141140694D02*
X149567080Y-141093075D01*
X149567080Y-141093075D02*
X149471842Y-141045456D01*
X149471842Y-141045456D02*
X149376604Y-140950218D01*
X149376604Y-140950218D02*
X149328984Y-140807361D01*
X149328984Y-140807361D02*
X149328984Y-140569266D01*
X149809937Y-134621647D02*
X149809937Y-135383552D01*
X149428984Y-135002599D02*
X150190889Y-135002599D01*
X150428984Y-135716885D02*
X149428984Y-136050218D01*
X149428984Y-136050218D02*
X150428984Y-136383551D01*
X149476604Y-136669266D02*
X149428984Y-136812123D01*
X149428984Y-136812123D02*
X149428984Y-137050218D01*
X149428984Y-137050218D02*
X149476604Y-137145456D01*
X149476604Y-137145456D02*
X149524223Y-137193075D01*
X149524223Y-137193075D02*
X149619461Y-137240694D01*
X149619461Y-137240694D02*
X149714699Y-137240694D01*
X149714699Y-137240694D02*
X149809937Y-137193075D01*
X149809937Y-137193075D02*
X149857556Y-137145456D01*
X149857556Y-137145456D02*
X149905175Y-137050218D01*
X149905175Y-137050218D02*
X149952794Y-136859742D01*
X149952794Y-136859742D02*
X150000413Y-136764504D01*
X150000413Y-136764504D02*
X150048032Y-136716885D01*
X150048032Y-136716885D02*
X150143270Y-136669266D01*
X150143270Y-136669266D02*
X150238508Y-136669266D01*
X150238508Y-136669266D02*
X150333746Y-136716885D01*
X150333746Y-136716885D02*
X150381365Y-136764504D01*
X150381365Y-136764504D02*
X150428984Y-136859742D01*
X150428984Y-136859742D02*
X150428984Y-137097837D01*
X150428984Y-137097837D02*
X150381365Y-137240694D01*
X138066666Y-93434919D02*
X138447619Y-93434919D01*
X137990476Y-93663491D02*
X138257143Y-92863491D01*
X138257143Y-92863491D02*
X138523809Y-93663491D01*
X138790476Y-93244443D02*
X139057142Y-93244443D01*
X139171428Y-93663491D02*
X138790476Y-93663491D01*
X138790476Y-93663491D02*
X138790476Y-92863491D01*
X138790476Y-92863491D02*
X139171428Y-92863491D01*
X139438095Y-92863491D02*
X139933333Y-92863491D01*
X139933333Y-92863491D02*
X139666667Y-93168253D01*
X139666667Y-93168253D02*
X139780952Y-93168253D01*
X139780952Y-93168253D02*
X139857143Y-93206348D01*
X139857143Y-93206348D02*
X139895238Y-93244443D01*
X139895238Y-93244443D02*
X139933333Y-93320634D01*
X139933333Y-93320634D02*
X139933333Y-93511110D01*
X139933333Y-93511110D02*
X139895238Y-93587300D01*
X139895238Y-93587300D02*
X139857143Y-93625396D01*
X139857143Y-93625396D02*
X139780952Y-93663491D01*
X139780952Y-93663491D02*
X139552381Y-93663491D01*
X139552381Y-93663491D02*
X139476190Y-93625396D01*
X139476190Y-93625396D02*
X139438095Y-93587300D01*
X151358333Y-123356741D02*
X151358333Y-123928169D01*
X151358333Y-123928169D02*
X151320238Y-124042455D01*
X151320238Y-124042455D02*
X151244047Y-124118646D01*
X151244047Y-124118646D02*
X151129762Y-124156741D01*
X151129762Y-124156741D02*
X151053571Y-124156741D01*
X151701190Y-123432931D02*
X151739286Y-123394836D01*
X151739286Y-123394836D02*
X151815476Y-123356741D01*
X151815476Y-123356741D02*
X152005952Y-123356741D01*
X152005952Y-123356741D02*
X152082143Y-123394836D01*
X152082143Y-123394836D02*
X152120238Y-123432931D01*
X152120238Y-123432931D02*
X152158333Y-123509122D01*
X152158333Y-123509122D02*
X152158333Y-123585312D01*
X152158333Y-123585312D02*
X152120238Y-123699598D01*
X152120238Y-123699598D02*
X151663095Y-124156741D01*
X151663095Y-124156741D02*
X152158333Y-124156741D01*
X151090476Y-133220241D02*
X151547619Y-133220241D01*
X151319047Y-134020241D02*
X151319047Y-133220241D01*
X151814286Y-134020241D02*
X151814286Y-133220241D01*
X151814286Y-133220241D02*
X152119048Y-133220241D01*
X152119048Y-133220241D02*
X152195238Y-133258336D01*
X152195238Y-133258336D02*
X152233333Y-133296431D01*
X152233333Y-133296431D02*
X152271429Y-133372622D01*
X152271429Y-133372622D02*
X152271429Y-133486907D01*
X152271429Y-133486907D02*
X152233333Y-133563098D01*
X152233333Y-133563098D02*
X152195238Y-133601193D01*
X152195238Y-133601193D02*
X152119048Y-133639288D01*
X152119048Y-133639288D02*
X151814286Y-133639288D01*
X153033333Y-134020241D02*
X152576190Y-134020241D01*
X152804762Y-134020241D02*
X152804762Y-133220241D01*
X152804762Y-133220241D02*
X152728571Y-133334526D01*
X152728571Y-133334526D02*
X152652381Y-133410717D01*
X152652381Y-133410717D02*
X152576190Y-133448812D01*
X152663491Y-144186666D02*
X152663491Y-143729523D01*
X153463491Y-143958095D02*
X152663491Y-143958095D01*
X153463491Y-143462856D02*
X152663491Y-143462856D01*
X152663491Y-143462856D02*
X152663491Y-143158094D01*
X152663491Y-143158094D02*
X152701586Y-143081904D01*
X152701586Y-143081904D02*
X152739681Y-143043809D01*
X152739681Y-143043809D02*
X152815872Y-143005713D01*
X152815872Y-143005713D02*
X152930157Y-143005713D01*
X152930157Y-143005713D02*
X153006348Y-143043809D01*
X153006348Y-143043809D02*
X153044443Y-143081904D01*
X153044443Y-143081904D02*
X153082538Y-143158094D01*
X153082538Y-143158094D02*
X153082538Y-143462856D01*
X152739681Y-142700952D02*
X152701586Y-142662856D01*
X152701586Y-142662856D02*
X152663491Y-142586666D01*
X152663491Y-142586666D02*
X152663491Y-142396190D01*
X152663491Y-142396190D02*
X152701586Y-142319999D01*
X152701586Y-142319999D02*
X152739681Y-142281904D01*
X152739681Y-142281904D02*
X152815872Y-142243809D01*
X152815872Y-142243809D02*
X152892062Y-142243809D01*
X152892062Y-142243809D02*
X153006348Y-142281904D01*
X153006348Y-142281904D02*
X153463491Y-142739047D01*
X153463491Y-142739047D02*
X153463491Y-142243809D01*
D11*
%TO.C,J2*%
X152930000Y-118650000D02*
X152930000Y-103350000D01*
X152930000Y-118650000D02*
X150270000Y-118650000D01*
X152930000Y-103350000D02*
X150270000Y-103350000D01*
X151600000Y-121250000D02*
X150270000Y-121250000D01*
X150270000Y-121250000D02*
X150270000Y-119920000D01*
X150270000Y-118650000D02*
X150270000Y-103350000D01*
%TO.C,TP1*%
X150720000Y-137680000D02*
X150720000Y-136300000D01*
X152100000Y-137680000D02*
X150720000Y-137680000D01*
X153370000Y-137680000D02*
X153480000Y-137680000D01*
X153370000Y-137680000D02*
X153370000Y-134920000D01*
X153480000Y-137680000D02*
X153480000Y-134920000D01*
X153370000Y-134920000D02*
X153480000Y-134920000D01*
%TO.C,TP2*%
X150720000Y-141280000D02*
X150720000Y-139900000D01*
X152100000Y-141280000D02*
X150720000Y-141280000D01*
X153370000Y-141280000D02*
X153480000Y-141280000D01*
X153370000Y-141280000D02*
X153370000Y-138520000D01*
X153480000Y-141280000D02*
X153480000Y-138520000D01*
X153370000Y-138520000D02*
X153480000Y-138520000D01*
%TD*%
M02*
